<?xml version="1.0" encoding="UTF-8" standalone="no"?>
<!DOCTYPE svg PUBLIC "-//W3C//DTD SVG 1.1//EN" "http://www.w3.org/Graphics/SVG/1.1/DTD/svg11.dtd">
<svg width="100%" height="100%" viewBox="0 0 10 10" version="1.1" xmlns="http://www.w3.org/2000/svg" xmlns:xlink="http://www.w3.org/1999/xlink" xml:space="preserve" xmlns:serif="http://www.serif.com/" style="fill-rule:evenodd;clip-rule:evenodd;stroke-linejoin:round;stroke-miterlimit:2;">
    <g transform="matrix(-0.833333,1.02054e-16,-1.02054e-16,-0.833333,5,5)">
        <g transform="matrix(1,0,0,1,-6,-3.5)">
            <clipPath id="_clip1">
                <rect x="0" y="0" width="12" height="7"/>
            </clipPath>
            <g clip-path="url(#_clip1)">
                <path d="M1.707,0.293C1.317,-0.098 0.683,-0.098 0.293,0.293C-0.098,0.683 -0.098,1.317 0.293,1.707L1.707,0.293ZM6,6L5.293,6.707C5.683,7.098 6.317,7.098 6.707,6.707L6,6ZM11.707,1.707C12.098,1.317 12.098,0.683 11.707,0.293C11.317,-0.098 10.683,-0.098 10.293,0.293L11.707,1.707ZM0.293,1.707L5.293,6.707L6.707,5.293L1.707,0.293L0.293,1.707ZM6.707,6.707L11.707,1.707L10.293,0.293L5.293,5.293L6.707,6.707Z" style="fill:rgb(196,196,196);fill-rule:nonzero;"/>
            </g>
        </g>
    </g>
</svg>
