<?xml version="1.0" encoding="UTF-8" standalone="no"?>
<!DOCTYPE svg PUBLIC "-//W3C//DTD SVG 1.1//EN" "http://www.w3.org/Graphics/SVG/1.1/DTD/svg11.dtd">
<svg width="100%" height="100%" viewBox="0 0 400 400" version="1.1" xmlns="http://www.w3.org/2000/svg" xmlns:xlink="http://www.w3.org/1999/xlink" xml:space="preserve" xmlns:serif="http://www.serif.com/" style="fill-rule:evenodd;clip-rule:evenodd;stroke-linecap:round;stroke-linejoin:round;stroke-miterlimit:1.5;">
    <g>
        <g transform="matrix(1.07488,0,0,1.07488,-23.585,-26.5457)">
            <path d="M161.936,65.563C161.936,65.563 160.601,43.459 148.596,46.098C148.596,46.098 144.807,45.542 143.58,54.724C143.58,54.724 132.399,53.561 131.815,62.056C131.815,62.056 129.447,74.768 154.594,99.484C154.594,99.484 151.08,118.487 168.67,127.579C168.67,127.579 124.468,154.695 89.913,185.512C89.913,185.512 77.272,195.21 85.861,204.854C85.861,204.854 84.624,210.415 93.505,212.27C93.505,212.27 95.267,221.7 105.782,215.578C105.782,215.578 110.45,212.783 111.086,207.806C111.086,207.806 116.664,200.124 116.153,195.594C116.153,195.594 148.243,167.483 165.459,162.702C165.459,162.702 152.702,214.062 148.598,235.018C148.598,235.018 139.842,267.807 152.304,288.416L161.106,357.169C161.106,357.169 149.208,351.166 145.415,369.214C145.415,369.214 140.288,380.027 161.106,376.543C161.106,376.543 165.177,380.4 174.376,376.723C174.376,376.723 191.253,382.306 198.396,373.245C198.396,373.245 203.92,382.143 223.512,376.572C223.512,376.572 228.431,379.918 238.009,376.454C238.009,376.454 248.906,381.816 249.419,371.425C249.419,371.425 247.637,354.935 236.439,357.633L243.552,289.525C243.552,289.525 256.889,281.786 246.511,231.746C238.111,191.246 235.926,179.573 232.65,163.531C232.65,163.531 251.806,171.255 281.252,197.994C281.252,197.994 279.01,202.116 286.768,207.806C286.768,207.806 294.959,225.567 303.148,213.089C303.148,213.089 310.949,211.564 311.189,204.854C311.189,204.854 320.157,200.874 309.352,186.535L303.148,182.462C303.148,182.462 244.53,136.515 226.865,126.652C226.865,126.652 245.142,118.23 240.382,99.484C240.382,99.484 267.601,66.472 263.339,58.717C263.339,58.717 260.53,54.407 253.998,55.367C253.998,55.367 256.738,48.693 250.432,45.862C250.432,45.862 238.602,43.334 232.601,64.221C232.601,64.221 225.77,46.605 195.368,49.323C195.368,49.323 176.436,46.527 161.936,65.563ZM194.566,297.643C194.566,297.643 199.26,298.342 202.498,297.436L202.565,351.758L198.776,364.771L194.348,351.316L194.566,297.643Z" style="fill:rgb(252,251,233);"/>
        </g>
        <g transform="matrix(0.978921,0,0,0.963838,2.69682,4.5548)">
            <path d="M188.798,92.314C188.798,92.314 179.439,96.352 172.108,95.466C164.776,94.579 164.634,94.558 164.653,94.62C164.673,94.683 172.108,95.466 172.108,95.466C172.108,95.466 172.516,110.576 189.68,110.341C189.68,110.341 204.662,111.315 205.379,95.805C205.379,95.805 200.002,96.534 188.798,92.314Z" style="fill:rgb(239,199,201);"/>
        </g>
        <g transform="matrix(1.07488,0,0,1.13841,-23.585,-45.3929)">
            <path d="M198.776,172.444C177.538,172.948 170.971,185.732 165.37,208.031C152.341,259.909 156.381,289.843 186.948,295.557C193.64,296.808 203.823,296.052 209.686,295.478C233.88,293.108 245.369,268.872 231.16,208.072C226.08,186.333 220.175,171.936 198.776,172.444Z" style="fill:rgb(242,222,201);"/>
        </g>
        <path d="M149.33,359.776C149.33,359.776 140.808,349.979 134.319,365.458C134.319,365.458 124.773,382.581 148.517,378.774C148.517,378.774 155.706,381.086 163.524,378.635C163.524,378.635 186.946,384.906 189.68,372.808C189.68,372.808 190.039,384.217 216.464,378.616C216.464,378.616 226.249,380.724 231.585,378.343C231.585,378.343 250.732,384.496 243.568,366.266C243.568,366.266 240.126,364.349 240.291,361.719C240.291,361.719 234.977,362.119 235.433,358.172C235.433,358.172 232.73,356.959 230.035,360.087C230.035,360.087 220.77,356.998 215.398,362.502C215.398,362.502 199.325,355.893 189.68,363.607C189.68,363.607 177.996,353.109 165.716,361.22C165.716,361.22 158.267,353.389 149.33,359.776Z" style="fill:rgb(176,147,127);"/>
        <path d="M85.636,183.544C85.636,183.544 82.861,166.78 69.956,181.662C69.956,181.662 76.313,183.239 77.47,188.512C77.47,188.512 83.306,189.691 83.308,195.683C83.308,195.683 90.653,201.343 89.416,207.191C89.416,207.191 100.395,199.336 95.931,193.886C95.931,193.886 92.556,192.194 91.336,191.855C91.336,191.855 91.733,182.693 85.636,183.544Z" style="fill:rgb(176,147,127);"/>
        <path d="M307.922,180.914C307.922,180.914 303.259,183.179 302.488,188.909C302.488,188.909 297.698,191.083 296.567,196.258C296.567,196.258 291.729,200.349 292.204,206.083C292.204,206.083 280.412,199.855 285.68,194.715C285.68,194.715 287.471,190.939 288.793,191.347C288.793,191.347 288.661,183.981 293.778,183.381C293.778,183.381 294.578,167.189 307.922,180.914Z" style="fill:rgb(176,147,127);"/>
        <g transform="matrix(0.64517,0,0,0.64517,59.7553,-39.4095)">
            <path d="M130.762,172.633C130.762,172.633 128.401,125.516 158.791,110.891C158.791,110.891 199.069,90.15 245.913,112.214C245.913,112.214 264.738,128.364 268.527,168.221L256.19,179.141C256.19,179.141 259.798,167.472 246.502,159.416C246.502,159.416 215.085,154.472 214.259,181.168L181.527,180.109C181.527,180.109 179.368,157.951 147.713,161.546C147.713,161.546 134.978,166.86 139.364,181.538L130.762,172.633Z" style="fill:rgb(176,147,127);"/>
        </g>
        <g transform="matrix(1,0,0,1,1.36357,2.93188)">
            <path d="M121.412,54.695C121.412,54.695 130.287,35.925 147.44,33.584C147.44,33.584 139.824,4.197 128.755,28.035C128.755,28.035 106.526,23.931 121.412,54.695Z" style="fill:rgb(176,147,127);"/>
        </g>
        <g transform="matrix(1,0,0,1,-3.08709,1.55366)">
            <path d="M233.451,32.176C233.451,32.176 249.811,8.944 252.989,31.46C252.989,31.46 275.812,26.686 255.499,56.909C255.499,56.909 253.674,38.071 233.451,32.176Z" style="fill:rgb(176,147,127);"/>
        </g>
        <g transform="matrix(1.07488,0,0,1.07488,-23.585,-26.5457)">
            <path d="M112.029,209.3L106.916,217.214C106.916,217.214 113.649,225.206 117.787,218.672C117.787,218.672 121.969,217.279 112.029,209.3Z" style="fill:rgb(171,139,96);"/>
        </g>
        <g transform="matrix(1.07488,0,0,1.07488,-23.585,-26.5457)">
            <path d="M285.795,209.337C285.795,209.337 279.525,210.324 285.08,220.052L298.333,221.051L297.5,217.552C297.5,217.552 286.754,215.556 285.795,209.337Z" style="fill:rgb(247,241,219);"/>
        </g>
        <g transform="matrix(1.04161,0,0,1.04161,-12.3924,-13.9029)">
            <g transform="matrix(0.696312,0,0,0.702713,54.508,-77.8469)">
                <g transform="matrix(-0.279927,-0.191355,0.191355,-0.279927,173.063,725.98)">
                    <path d="M872.407,1403.41C936.464,1358.26 971.704,1312.71 950.087,1235.96C929.801,1163.93 890.281,1085.45 859.232,1070.19C807.398,1044.71 689.253,1061.67 650.406,1088.99C609.593,1117.68 553.435,1207.61 557.657,1276.34C560.032,1315.02 630.28,1377.44 683.667,1419.28C748.785,1470.32 797.945,1455.88 872.407,1403.41Z" style="fill:none;stroke:rgb(41,2,119);stroke-width:11.79px;"/>
                </g>
                <g transform="matrix(-0.279927,-0.191355,0.191355,-0.279927,173.063,725.98)">
                    <path d="M958.005,1262.87C994.846,1302.69 1027.99,1325.35 1050.67,1297.25C1060.06,1285.63 1057.7,1267.96 1047.02,1254.19C1047.02,1254.19 1087.88,1237.3 1079.59,1210.69C1079.59,1210.69 1078.16,1182.93 1010.07,1152.53C963.179,1131.59 929.128,1125.58 903.686,1119.77" style="fill:none;stroke:rgb(41,2,119);stroke-width:12.09px;"/>
                </g>
                <g transform="matrix(-0.279927,-0.191355,0.191355,-0.279927,173.063,725.98)">
                    <path d="M707.705,1442.59C707.705,1442.59 728.252,1529.42 689.289,1547.07C676.488,1552.86 649.38,1545.08 651.186,1521.32C651.186,1521.32 629.367,1551.06 603.28,1533.03C575.914,1514.12 580.525,1468.36 593.957,1343.38" style="fill:none;stroke:rgb(41,2,119);stroke-width:11.79px;"/>
                </g>
                <g transform="matrix(-0.317275,-0.204895,0.233622,-0.278262,162.753,732.609)">
                    <path d="M806.512,1177.5C812.17,1200.22 868.68,1234.4 904.064,1184.76C914.411,1170.25 901.86,1126.03 875.543,1129.42C860.012,1131.42 804.456,1169.25 806.512,1177.5Z" style="fill:white;stroke:rgb(41,2,119);stroke-width:3.94px;"/>
                </g>
                <g transform="matrix(0.317275,-0.204895,-0.233622,-0.278262,231.452,731.764)">
                    <path d="M806.512,1177.5C812.17,1200.22 868.68,1234.4 904.064,1184.76C914.411,1170.25 901.86,1126.03 875.543,1129.42C860.012,1131.42 804.456,1169.25 806.512,1177.5Z" style="fill:white;stroke:rgb(41,2,119);stroke-width:3.94px;"/>
                </g>
                <g transform="matrix(0.293113,-0.00549621,-0.00497604,-0.265371,30.6773,572.978)">
                    <ellipse cx="687.769" cy="1287.45" rx="16.974" ry="28.474" style="fill:rgb(41,2,119);"/>
                </g>
                <g transform="matrix(-0.342152,0.00254547,-0.00182059,-0.244716,489.591,605.138)">
                    <path d="M842.477,1466.05C844.94,1462.66 848.917,1462.66 851.38,1466.05C855.78,1472.11 862.628,1481.55 868.107,1489.09C869.558,1491.09 869.996,1494.1 869.216,1496.72C868.436,1499.34 866.592,1501.05 864.547,1501.05L829.342,1501.05C827.291,1501.05 825.442,1499.34 824.661,1496.71C823.879,1494.09 824.317,1491.06 825.772,1489.06C831.248,1481.52 838.083,1472.11 842.477,1466.05Z" style="fill:rgb(41,2,119);"/>
                </g>
                <g transform="matrix(-0.293113,-0.00549621,0.00497604,-0.265371,363.528,573.824)">
                    <ellipse cx="687.769" cy="1287.45" rx="16.974" ry="28.474" style="fill:rgb(41,2,119);"/>
                </g>
                <g transform="matrix(-0.1414,-0.0966589,0.0926894,-0.135592,189.513,482.941)">
                    <path d="M735.628,1205.26C735.628,1205.26 706.216,1160.15 705.737,1160.04" style="fill:none;stroke:rgb(41,2,119);stroke-width:8.54px;"/>
                </g>
                <g transform="matrix(0.141297,0.0965886,0.149541,-0.218759,-36.2221,464.058)">
                    <path d="M620.186,1320.44L637.287,1379.54" style="fill:none;stroke:rgb(41,2,119);stroke-width:6.42px;"/>
                </g>
                <g transform="matrix(-0.267607,-0.175031,0.195598,-0.274274,156.889,704.517)">
                    <path d="M918.292,1152.94L871.884,1144.36" style="fill:none;stroke:rgb(41,2,119);stroke-width:4.22px;"/>
                </g>
                <g transform="matrix(-0.278633,-0.191352,0.190475,-0.27993,173.234,725.98)">
                    <path d="M793.344,1210.07L722.764,1258.06" style="fill:none;stroke:rgb(41,2,119);stroke-width:4.22px;"/>
                </g>
                <g transform="matrix(-0.279927,-0.191355,0.191355,-0.279927,173.063,725.98)">
                    <path d="M655.134,1506.22C655.134,1506.22 671.947,1440.21 645.746,1386.31" style="fill:none;stroke:rgb(41,2,119);stroke-width:4.22px;"/>
                </g>
                <g transform="matrix(-0.279927,-0.191355,0.191355,-0.279927,173.063,725.98)">
                    <path d="M1031.2,1249.15C1031.2,1249.15 973.662,1230.4 933.003,1189.94" style="fill:none;stroke:rgb(41,2,119);stroke-width:4.22px;"/>
                </g>
                <g transform="matrix(0.762342,0,0,0.762342,51.6385,39.2514)">
                    <path d="M154.545,287.224C154.545,287.224 160.116,298.086 191.064,286.193C191.064,286.193 225.017,299.841 230.116,285.897" style="fill:none;stroke:rgb(41,2,119);stroke-width:1.88px;"/>
                </g>
                <g transform="matrix(0.762342,0,0,0.762342,51.6385,39.2514)">
                    <path d="M161.635,292.172C161.635,292.172 161.119,316.484 192.331,317.574C192.331,317.574 222.326,317.968 220.709,292.172" style="fill:none;stroke:rgb(41,2,119);stroke-width:1.88px;"/>
                </g>
            </g>
            <g transform="matrix(1.03061,0,0,1.03061,-21.7237,10.4358)">
                <path d="M179.539,105.84C179.539,105.84 124.071,141.47 103.406,162.094C103.406,162.094 86.095,172.934 96.567,182.6C96.567,182.6 96.034,189.427 103.836,191.038C103.836,191.038 107.652,200.709 116.197,195.269C116.197,195.269 125.526,189.099 121.317,183.539C121.317,183.539 117.026,178.068 110.201,185.095" style="fill:none;stroke:rgb(41,2,119);stroke-width:2.79px;"/>
                <g transform="matrix(-1,0,0,1,418.634,0.0416913)">
                    <path d="M178.875,105.798C178.875,105.798 124.071,141.47 103.406,162.094C103.406,162.094 86.095,172.934 96.567,182.6C96.567,182.6 96.034,189.427 103.836,191.038C103.836,191.038 106.429,199.504 114.973,194.064C114.973,194.064 124.184,189.378 119.976,183.818C119.976,183.818 116.188,178.37 109.364,185.397" style="fill:none;stroke:rgb(41,2,119);stroke-width:2.79px;"/>
                </g>
                <path d="M117.706,181.534C117.706,181.534 116.488,166.105 103.293,179.07" style="fill:none;stroke:rgb(41,2,119);stroke-width:2.79px;"/>
                <g transform="matrix(-1,0,0,1,418.634,0.0416913)">
                    <path d="M117.706,181.534C117.706,181.534 116.488,166.105 103.293,179.07" style="fill:none;stroke:rgb(41,2,119);stroke-width:2.79px;"/>
                </g>
                <path d="M112.342,173.884C112.342,173.884 111.345,158.965 99.21,170.853" style="fill:none;stroke:rgb(41,2,119);stroke-width:2.79px;"/>
                <g transform="matrix(-1,0,0,1,418.634,0.0416913)">
                    <path d="M112.342,173.884C112.342,173.884 111.345,158.965 99.21,170.853" style="fill:none;stroke:rgb(41,2,119);stroke-width:2.79px;"/>
                </g>
                <path d="M121.986,184.21C121.986,184.21 128.05,179.598 126.203,174.267C126.203,174.267 154.279,150.825 173.85,141.063" style="fill:none;stroke:rgb(41,2,119);stroke-width:2.79px;"/>
                <g transform="matrix(-1,0,0,1,418.634,0.0416913)">
                    <path d="M121.6,185.053C121.6,185.053 127.176,181.832 126.209,175.889C126.209,175.889 154.438,153.874 173.787,141.021" style="fill:none;stroke:rgb(41,2,119);stroke-width:2.79px;"/>
                </g>
                <path d="M176.733,132.416C173.395,170.957 143.487,241.134 163.324,267.142L171.272,336.477" style="fill:none;stroke:rgb(41,2,119);stroke-width:2.79px;"/>
                <g transform="matrix(-1,0,0,1,418.634,0.0416913)">
                    <path d="M176.627,131.663C171.253,173.499 145.176,249.838 164.159,268.088L171.473,336.988" style="fill:none;stroke:rgb(41,2,119);stroke-width:2.79px;"/>
                </g>
                <g transform="matrix(0.597068,0,0,0.831495,66.0563,42.0891)">
                    <path d="M176.739,355.759C176.739,355.759 167.16,348.168 158.823,355.736C151.995,361.934 146.39,373.951 156.008,376.542C162.903,378.4 168.982,377.99 174.835,376.927" style="fill:none;stroke:rgb(41,2,119);stroke-width:3.86px;"/>
                </g>
                <g transform="matrix(-0.560814,0,0,0.831495,346.24,42.1308)">
                    <path d="M176.668,354.661C176.668,354.661 166.538,350.333 160.135,356.899C154.176,363.011 148.3,373.295 156.008,376.542C162.305,379.195 168.982,377.99 174.835,376.927" style="fill:none;stroke:rgb(41,2,119);stroke-width:3.94px;"/>
                </g>
                <g transform="matrix(0.712907,0,0,0.831495,40.1618,41.528)">
                    <path d="M198.542,354.22C198.542,354.22 182.002,348.931 179.464,366.933C179.464,366.933 174.49,383.827 203.177,377.819" style="fill:none;stroke:rgb(41,2,119);stroke-width:3.61px;"/>
                </g>
                <g transform="matrix(-0.712907,0,0,0.831495,378.473,41.5697)">
                    <path d="M195.483,355.781C195.483,355.781 182.108,352.038 180.109,366.253C180.109,366.253 174.49,383.827 203.177,377.819" style="fill:none;stroke:rgb(41,2,119);stroke-width:3.61px;"/>
                </g>
                <g transform="matrix(1,0,0,1,-2.84217e-14,7.93633)">
                    <path d="M197.264,266.155C197.264,266.155 207.926,271.554 221.591,265.557" style="fill:none;stroke:rgb(41,2,119);stroke-width:2.79px;"/>
                </g>
                <g transform="matrix(1,0,0,1,-3.73349,-9.19998)">
                    <path d="M209.427,285.839L209.427,339.663C209.427,339.663 219.487,364.025 206.581,365.392C206.581,365.392 194.315,366.655 190.536,365.392C185.423,363.684 183.668,359.841 187.536,351.025C187.536,351.025 190.364,344.229 200.682,346.016" style="fill:none;stroke:rgb(41,2,119);stroke-width:2.79px;"/>
                </g>
                <g transform="matrix(-1,0,0,1,422.368,-9.15829)">
                    <path d="M209.427,285.798L209.427,339.663C209.427,339.663 219.487,364.025 206.581,365.392C206.581,365.392 194.315,366.655 190.536,365.392C185.423,363.684 186.123,354.092 189.39,349.732C189.39,349.732 191.679,345.412 201.179,346.674" style="fill:none;stroke:rgb(41,2,119);stroke-width:2.79px;"/>
                </g>
            </g>
        </g>
    </g>
    <g transform="matrix(1.10778,0,0,1.10778,-40.5769,-30.7621)">
        <g>
            <g transform="matrix(0.970298,0,0,0.970298,15.3388,3.80616)">
                <path d="M296.802,220.811C296.802,220.811 279.382,214.452 284.979,220.189L293.568,255.807C293.568,255.807 260.902,289.509 258.673,304.366C258.673,304.366 250.796,325.018 249.484,339.32C249.484,339.32 243.379,345.663 242.916,348.425C242.916,348.425 233.552,353.438 239.213,357.919C239.213,357.919 241.351,361.71 245.127,360.89C245.127,360.89 246.34,370.877 256.443,361.762C256.443,361.762 264.188,355.955 263.42,347.975L277.778,329.984C277.778,329.984 281.739,333.03 285.944,333.896C285.944,333.896 272.515,361.995 280.115,369.61C280.115,369.61 281.229,381.508 289.157,378.211C289.157,378.211 293.209,380.196 296.647,378.211C296.647,378.211 303.446,379.967 303.058,370.654C303.058,370.654 301.73,368.204 299.53,368.522C299.53,368.522 297.523,361.264 296.274,359.928L309.676,345.658C309.676,345.658 319.881,340.939 321.077,332.441C321.077,332.441 334.458,337.309 351.194,323.447C351.194,323.447 356.105,335.371 366.51,333.719C366.51,333.719 376.389,341.457 379.719,334.98C379.719,334.98 380.237,328.95 371.482,326.115L360.466,312.044C360.466,312.044 366.68,303.1 365.889,291.533C365.889,291.533 373.782,289.165 378.311,284.016C378.311,284.016 381.854,287.029 377.907,293.622C377.907,293.622 373.985,300.3 379,301.294C381.636,301.816 386.14,301.043 389,292.977C390.832,287.811 388.427,280.747 384.247,277.764C384.247,277.764 395.667,262.172 388.955,255.774C388.955,255.774 384.775,252.279 377.335,257.154C377.335,257.154 382.932,241.787 370.878,228.414C370.878,228.414 361.446,215.981 346.871,218.623C346.871,218.623 350.751,214.655 348.819,209.337C348.819,209.337 345.726,198.839 326.154,209.541C326.154,209.541 305.383,217.408 311.339,234.438C311.339,234.438 309.018,237.753 309.024,244.662L296.802,220.811ZM331.429,301.424L324.506,322.575C324.506,322.575 333.963,325.869 343.993,316.236L331.429,301.424ZM347.427,288.236L354.659,302.347C354.659,302.347 357.928,290.879 356.612,287.443L347.427,288.236Z" style="fill:rgb(247,241,219);"/>
            </g>
            <g transform="matrix(0.902708,0,0,0.902708,36.6291,27.7692)">
                <path d="M337.749,252.465L333.577,249.953C333.577,249.953 332.049,253.648 333.449,256.22C333.449,256.22 335.961,258.074 339.508,257.066L337.749,252.465Z" style="fill:rgb(244,172,216);"/>
            </g>
            <g transform="matrix(0.970298,0,0,0.970298,15.3388,3.80616)">
                <path d="M312.257,280.923C306.033,277.056 298.629,275.285 289.353,280.923C275.12,289.573 264.526,304.763 268.824,316.652C268.824,316.652 274.935,329.759 285.713,333.758C289.898,335.311 298.369,335.606 304.445,329.069C310.644,322.399 315.914,312.666 318.572,302.037C319.856,296.901 320.044,285.761 312.257,280.923Z" style="fill:rgb(228,219,184);"/>
            </g>
            <g transform="matrix(0.902708,0,0,0.902708,36.6291,27.7692)">
                <path d="M233.768,352.372C233.768,352.372 233.643,355.471 236.419,355.333C236.419,355.333 237.534,358.853 240.416,359.868C240.416,359.868 245.354,365.416 248.162,364.649C248.162,364.649 240.649,369.141 239.327,362.543C239.327,362.543 234.649,362.04 233.99,358.353C233.99,358.353 228.825,355.414 233.768,352.372Z" style="fill:rgb(170,154,133);"/>
            </g>
            <g transform="matrix(-0.227467,-0.276687,-0.276687,0.227467,437.725,274.992)">
                <path d="M117.352,134.728C117.352,134.728 134.051,83.436 175.411,57.064C175.411,57.064 189.418,47.248 213.251,47.159C213.251,47.159 235.557,46.449 258.597,59.671C265.363,63.554 296.835,92.54 306.024,132.691C306.024,132.691 288.543,103.164 258.378,103.319C258.378,103.319 233.076,102.107 225.036,129.948C225.036,129.948 222.632,138.107 211.92,136.741C211.92,136.741 201.192,137.133 198.618,129.586C198.618,129.586 191.176,101.752 165.339,103.319C165.339,103.319 142.623,100.797 117.352,134.728Z" style="fill:rgb(170,154,133);"/>
            </g>
            <g transform="matrix(0.902708,0,0,0.902708,36.6291,27.7692)">
                <path d="M278.917,374.075C278.917,374.075 285.871,376.348 288.863,374.396C288.863,374.396 292.743,376.339 295.442,374.041C295.442,374.041 299.356,375.576 301.311,373.863C301.311,373.863 300.906,382.274 294.536,379.699C294.536,379.699 291.727,380.787 287.223,379.482C287.223,379.482 278.77,382.15 278.917,374.075Z" style="fill:rgb(170,154,133);"/>
            </g>
            <g transform="matrix(0.902708,0,0,0.902708,36.6291,27.7692)">
                <path d="M324.498,319.645L320.408,331.11C320.408,331.11 337.689,333.818 353.311,321.15L346.705,314.155C346.705,314.155 336.008,322.632 324.498,319.645Z" style="fill:rgb(170,154,133);"/>
            </g>
            <g transform="matrix(0.902708,0,0,0.902708,36.6291,27.7692)">
                <path d="M360.77,284.593C360.77,284.593 360.6,294.235 357.228,298.438L363.569,309.134C363.569,309.134 369.844,300.514 369.669,287.223L360.77,284.593Z" style="fill:rgb(170,154,133);"/>
            </g>
            <g transform="matrix(0.902708,0,0,0.902708,36.6291,27.7692)">
                <path d="M387.49,272.864L382.325,279.016C382.325,279.016 388.367,285.53 381.589,290.487C381.589,290.487 381.28,295.365 383.4,296.863C383.4,296.863 392.08,300.932 394.324,284.593C394.324,284.593 396.894,276.015 387.49,272.864Z" style="fill:rgb(170,154,133);"/>
            </g>
            <g transform="matrix(-0.273861,-0.33312,-0.33312,0.273861,433.134,291.596)">
                <g transform="matrix(1,0,0,1,-3.1385,3.26139)">
                    <path d="M253.081,140.18C265.725,135.266 282.121,120.156 283.538,100.777C285.135,78.947 277.956,60.841 266.15,42.496C243.789,7.752 223.952,3.182 203.139,3.376C182.681,3.567 161.238,10.129 138.193,45.58C127.973,61.302 119.009,77.964 122.037,100.684C124.532,119.412 143.328,135.525 157.466,140.18" style="fill:none;stroke:rgb(41,2,119);stroke-width:6.28px;"/>
                </g>
                <g transform="matrix(0.830593,5.55112e-17,0,0.844713,32.8487,-37.506)">
                    <path d="M132.72,88.583C133.946,77.946 128.963,61.707 114.093,61.692C83.865,61.662 52.212,178.052 107.735,183.787" style="fill:none;stroke:rgb(41,2,119);stroke-width:8.06px;"/>
                </g>
                <g transform="matrix(-0.830593,-5.55112e-17,0,0.844713,367.68,-37.506)">
                    <path d="M132.72,88.583C133.946,77.946 128.963,61.707 114.093,61.692C83.865,61.662 52.212,178.052 107.735,183.787" style="fill:none;stroke:rgb(41,2,119);stroke-width:8.06px;"/>
                </g>
                <g transform="matrix(0.830593,0,0,0.830593,33.6499,-35.1307)">
                    <path d="M174.819,176.223C180.861,186.624 199.021,175.809 199.021,175.809" style="fill:none;stroke:rgb(41,2,119);stroke-width:2.71px;"/>
                </g>
                <g transform="matrix(0.830593,0,0,0.830593,33.6499,-35.1307)">
                    <path d="M199.523,175.884C222.354,186.918 223.775,175.809 223.775,175.809" style="fill:none;stroke:rgb(41,2,119);stroke-width:2.71px;"/>
                </g>
                <g transform="matrix(-1.42888,-1.73807,-1.73807,1.42888,1130.76,324.58)">
                    <path d="M332.142,257.309C332.142,257.309 331.082,261.687 332.312,262.98C332.312,262.98 333.157,264.317 337.568,263.973" style="fill:none;stroke:rgb(41,2,119);stroke-width:0.93px;"/>
                </g>
                <g transform="matrix(0.807791,0,0,0.807791,38.4355,-30.6227)">
                    <circle cx="152.339" cy="136.537" r="33.28" style="fill:white;stroke:rgb(41,2,119);stroke-width:2.79px;"/>
                </g>
                <g transform="matrix(0.807791,0,0,0.807791,38.4355,-30.6227)">
                    <ellipse cx="245.378" cy="136.599" rx="33.342" ry="33.28" style="fill:white;stroke:rgb(41,2,119);stroke-width:2.79px;"/>
                </g>
                <g transform="matrix(0.830593,0,0,0.830593,32.8487,-32.0929)">
                    <path d="M295.53,73.616C287.25,71.561 283.628,86.732 289.378,111.527" style="fill:none;stroke:rgb(41,2,119);stroke-width:2.71px;"/>
                </g>
                <g transform="matrix(0.830593,0,0,0.830593,32.8487,-32.0929)">
                    <path d="M105.652,73.502C117.466,68.572 117.846,96.222 115.253,111.527" style="fill:none;stroke:rgb(41,2,119);stroke-width:2.71px;"/>
                </g>
                <g transform="matrix(0.830593,0,0,0.830593,32.8487,-32.0929)">
                    <path d="M102.881,143.261C102.881,143.261 111.922,115.6 141.066,105.305" style="fill:none;stroke:rgb(41,2,119);stroke-width:2.71px;"/>
                </g>
                <g transform="matrix(0.830593,0,0,0.830593,32.8487,-32.0929)">
                    <path d="M295.694,134.559C295.694,134.559 284.181,111.64 256.354,104.189" style="fill:none;stroke:rgb(41,2,119);stroke-width:2.71px;"/>
                </g>
                <g transform="matrix(0.830593,0,0,0.830593,32.8487,-32.0929)">
                    <path d="M186.431,127.341C187.534,134.563 194.286,136.922 200.594,136.988C205.96,137.044 212.893,134.581 214.092,125.956" style="fill:none;stroke:rgb(41,2,119);stroke-width:2.71px;"/>
                </g>
                <g transform="matrix(0.830593,0,0,0.830593,35.7284,-33.766)">
                    <ellipse cx="155.597" cy="134.697" rx="4.181" ry="4.306" style="fill:rgb(41,2,119);"/>
                </g>
                <g transform="matrix(0.830593,0,0,0.830593,34.0944,-34.7715)">
                    <ellipse cx="239.687" cy="134.697" rx="4.181" ry="4.306" style="fill:rgb(41,2,119);"/>
                </g>
                <g transform="matrix(1.06214,-0.000518389,0.000405381,0.830593,-12.153,-34.5331)">
                    <path d="M200.944,162.483C204.248,164.298 206.193,167.115 205.284,168.769C204.375,170.424 200.954,170.293 197.65,168.478C194.346,166.662 192.401,163.845 193.31,162.191C194.219,160.537 197.64,160.667 200.944,162.483Z" style="fill:rgb(41,2,119);"/>
                </g>
            </g>
            <path d="M303.464,215.668C303.464,215.668 309.748,232.378 315.502,241.669" style="fill:none;stroke:rgb(41,2,119);stroke-width:2.71px;"/>
            <path d="M292.68,205.439C292.68,205.439 286.98,211.478 291.501,217.021C291.501,217.021 297.584,241.947 300.565,252.238C300.565,252.238 268.318,284.538 265.405,301.35C265.405,301.35 260.835,313.298 257.392,333.542C257.392,333.542 253.814,337.013 251.297,341.829C251.297,341.829 241.837,347.699 248.894,352.44" style="fill:none;stroke:rgb(41,2,119);stroke-width:2.71px;"/>
            <path d="M254.375,345.248C254.375,345.248 246.35,348.737 249.258,352.44C249.258,352.44 250.724,354.627 252.704,354.118" style="fill:none;stroke:rgb(41,2,119);stroke-width:2.71px;"/>
            <path d="M258.815,348.941C258.815,348.941 249.088,352.951 254.58,357.071C254.58,357.071 258.447,361.289 266.424,352.44C266.424,352.44 271.572,347.61 270.461,342.109C270.461,342.109 280.015,329.25 285.17,324.021" style="fill:none;stroke:rgb(41,2,119);stroke-width:2.71px;"/>
            <path d="M275.964,310.766C275.964,310.766 284.769,326.763 293.477,327.722C293.477,327.722 286.253,343.273 284.648,352.44C284.648,352.44 282.999,357.914 287.948,364.173C287.948,364.173 288.143,371.368 293.788,370.745C295.868,370.516 297.348,369.554 297.513,366.091C297.635,363.549 295.807,362.031 292.779,362.736" style="fill:none;stroke:rgb(41,2,119);stroke-width:2.71px;"/>
            <path d="M306.034,361.831C306,359.344 304.374,355.959 302.363,353.66C302.363,353.66 307.032,347.435 315.816,338.669C329.392,333.096 329.483,315.004 338.269,290.915" style="fill:none;stroke:rgb(41,2,119);stroke-width:2.71px;"/>
            <path d="M296.658,370.303C296.658,370.303 304.32,372.818 303.391,364.905C303.214,363.395 302.323,361.673 298.8,361.949" style="fill:none;stroke:rgb(41,2,119);stroke-width:2.71px;"/>
            <path d="M337.029,294.859C337.029,294.859 348.721,312.185 358.813,320.843C358.813,320.843 361.441,327.11 370.271,327.363C370.271,327.363 380.856,333.161 382.876,329.76C384.657,326.762 383.057,324.651 376.069,320.59C370.334,317.257 355.745,294.067 352.139,283.157" style="fill:none;stroke:rgb(41,2,119);stroke-width:2.71px;"/>
            <path d="M302.363,369.986C302.363,369.986 307.842,371.872 308.45,367.408C308.842,364.527 308.718,361.391 304.139,361.912" style="fill:none;stroke:rgb(41,2,119);stroke-width:2.71px;"/>
            <path d="M327.77,326.373C327.77,326.373 343.585,329.124 355.064,317.347" style="fill:none;stroke:rgb(41,2,119);stroke-width:2.71px;"/>
            <path d="M365.074,306.366C365.074,306.366 370.663,299.312 370.171,286.571" style="fill:none;stroke:rgb(41,2,119);stroke-width:2.71px;"/>
            <path d="M330.45,316.752C330.45,316.752 341.62,318.414 349.074,310.766" style="fill:none;stroke:rgb(41,2,119);stroke-width:2.71px;"/>
            <path d="M359.447,297.791C359.447,297.791 362.683,292.125 361.677,284.456" style="fill:none;stroke:rgb(41,2,119);stroke-width:2.71px;"/>
            <path d="M381.555,279.957C381.555,279.957 386.334,281.914 382.913,288.03C382.913,288.03 378.144,292.272 382.441,295.697C384.972,297.714 389.412,296.081 392.319,287.352C393.458,283.933 393.424,277.183 387.441,274.055" style="fill:none;stroke:rgb(41,2,119);stroke-width:2.71px;"/>
        </g>
    </g>
    <g transform="matrix(1.10778,0,0,1.10778,-29.1571,-17.2497)">
        <g>
            <g transform="matrix(0.970298,0,0,0.970298,3.36821,-7.61549)">
                <path d="M46.547,245.984C46.547,245.984 39.961,244.206 32.013,243.019C32.013,243.019 42.95,288.845 55.946,288.143C55.946,288.143 58.71,291.581 63.582,291.642C63.582,291.642 48.265,302.822 58.839,304.675C58.839,304.675 61.961,310.305 66.292,303.405C66.292,303.405 68.992,312.395 72.973,312.299L72.468,318.58C72.468,318.58 59.32,324.534 73.083,337.856C73.083,337.856 68.239,341.237 73.823,346.107C73.823,346.107 78.058,347.17 81.7,342.898C81.7,342.898 86.087,345.651 89.055,343.671C89.055,343.671 102.297,344.8 101.789,336.255C101.789,336.255 119.426,339.657 124.268,323.417C124.268,323.417 130.683,297.472 105.718,271.36C105.718,271.36 133.049,264.065 96.658,219.621L90.29,216.839L87.404,204.394C87.404,204.394 85.188,199.722 87.388,194.155L93.757,188.376C93.757,188.376 90.821,181.723 82.443,187.857C82.443,187.857 72.132,193.832 84.361,232.338C84.361,232.338 64.643,228.699 46.547,245.984Z" style="fill:rgb(247,237,192);"/>
            </g>
            <g transform="matrix(0.970298,0,0,0.970298,5.02998,-8.39162)">
                <path d="M84.38,300.778C84.38,300.778 76.73,302.936 76.759,310.37C76.759,310.37 76.304,317.018 75.6,320.577L84.007,327.197C84.007,327.197 88.561,315.111 99.565,317.65L106.516,320.957C106.516,320.957 112.343,318.162 109.132,304.474C109.132,304.474 100.951,305.312 95.074,301.24C95.074,301.24 87.762,306.717 84.38,300.778Z" style="fill:rgb(230,215,147);"/>
            </g>
            <g transform="matrix(0.423644,-0.122259,0.123289,0.427215,-13.8148,216.452)">
                <path d="M129.11,70.197C114.263,63.283 103.161,55.478 97.771,54.477C94.414,53.853 95.422,67.395 95.959,74.856C95.959,74.856 110.74,67.974 113.338,92.188C113.338,92.188 110.319,120.604 120.609,142.733C120.609,142.733 123.223,135.01 135.922,133.514C135.922,133.514 151.191,132.518 158.372,146.915C158.372,146.915 166.366,129.832 185.265,128.569C185.265,128.569 214.565,123.003 226.437,154.486C226.437,154.486 221.236,117.745 236.149,86.175C236.149,86.175 248.838,65.782 259.391,67.151C259.391,67.151 251.616,38.786 240.484,36.006C240.484,36.006 231.754,32.476 225.002,70.246C225.002,70.246 180.827,43.83 129.11,70.197Z" style="fill:rgb(171,139,96);"/>
            </g>
            <g transform="matrix(0.902708,0,0,0.902708,26.3203,15.5714)">
                <path d="M40.24,290.217C40.24,290.217 28.876,300.46 38.152,302.451C38.152,302.451 41.811,305.809 45.638,301.76C45.638,301.76 47.697,297.073 50.928,299.715C50.928,299.715 47.82,288.47 40.24,290.217Z" style="fill:rgb(171,139,96);"/>
            </g>
            <g transform="matrix(0.902708,0,0,0.902708,26.3203,15.5714)">
                <path d="M87.142,287.223C87.142,287.223 69.525,279.038 67.044,288.647C67.044,288.647 65.17,302.364 71.882,299.93C71.882,299.93 77.044,301.46 77.7,296.895C77.7,296.895 77.062,289.963 80.221,290.033C80.221,290.033 88.675,293.729 87.142,287.223Z" style="fill:rgb(171,139,96);"/>
            </g>
            <g transform="matrix(0.577331,-0.166611,0.168016,0.582198,-11.5743,186.729)">
                <g transform="matrix(0.733796,0,0,0.733796,-16.9081,46.1247)">
                    <path d="M223.134,70.722C215.932,63.296 200,59.765 200,59.765C154.675,50.908 127.503,70.834 127.503,70.834C127.503,70.834 108.192,81.447 111.133,114.612C111.133,114.612 112.692,135.9 123.294,153.654C123.294,153.654 111.042,172.08 142.028,178.23" style="fill:none;stroke:rgb(41,2,119);stroke-width:6.12px;"/>
                </g>
                <g transform="matrix(0.733796,0,0,0.720598,-16.9081,48.2812)">
                    <path d="M220.788,92.381C220.788,92.381 227.063,36.28 238.897,32.914C264.928,49.074 291.858,163.089 229.89,159.184" style="fill:none;stroke:rgb(41,2,119);stroke-width:6.17px;"/>
                </g>
                <g transform="matrix(0.733796,0,0,0.793511,-16.9081,35.5398)">
                    <path d="M128.808,77.852C128.808,77.852 112.842,73.031 100.186,64.663C86.748,55.777 100.515,168.169 118.814,164.069" style="fill:none;stroke:rgb(41,2,119);stroke-width:5.87px;"/>
                </g>
                <g transform="matrix(0.633996,-0.0260087,0.0300775,0.73318,-7.64779,50.3095)">
                    <ellipse cx="196.112" cy="138.246" rx="21.935" ry="8.807" style="fill:white;stroke:rgb(41,2,119);stroke-width:2.18px;"/>
                </g>
                <g transform="matrix(0.497926,-0.0204266,0.0280549,0.683877,-19.0128,59.3663)">
                    <ellipse cx="196.112" cy="138.246" rx="21.935" ry="8.807" style="fill:white;stroke:rgb(41,2,119);stroke-width:2.5px;"/>
                </g>
                <g transform="matrix(0.733796,0,0,0.733796,-16.9081,46.1247)">
                    <path d="M143.367,134.208C143.367,134.208 153.12,137.042 157.935,146.912C157.935,146.912 161.13,135.669 175.851,130.448" style="fill:none;stroke:rgb(41,2,119);stroke-width:2.04px;"/>
                </g>
                <g transform="matrix(0.733796,0,0,0.733796,-16.9081,46.1247)">
                    <path d="M197.452,129.025C197.452,129.025 218.926,131.309 226.47,156.205C226.47,156.205 217.022,93.965 248.799,71.033" style="fill:none;stroke:rgb(41,2,119);stroke-width:2.04px;"/>
                </g>
                <g transform="matrix(0.666344,0,0,0.733796,-10.323,46.1247)">
                    <path d="M101.719,73.785C101.719,73.785 113.769,74.098 114.344,92.158" style="fill:none;stroke:rgb(41,2,119);stroke-width:2.13px;"/>
                </g>
                <g transform="matrix(0.733796,0,0,0.733796,-16.9081,46.1247)">
                    <path d="M150.24,153.63C150.24,153.63 155.095,154.175 158.457,149.158C158.457,149.158 160.895,153.154 167.753,151.841" style="fill:none;stroke:rgb(41,2,119);stroke-width:2.04px;"/>
                </g>
                <g transform="matrix(0.821852,-0.0342394,0.0405483,0.973286,-35.4429,10.265)">
                    <ellipse cx="156.602" cy="154.278" rx="6.222" ry="1.728" style="fill:rgb(41,2,119);"/>
                </g>
                <g transform="matrix(0.800965,0,4.07339e-17,1.06924,-25.7423,-4.5617)">
                    <ellipse cx="186.486" cy="139.721" rx="6.872" ry="2.651" style="fill:rgb(41,2,119);"/>
                </g>
                <g transform="matrix(0.718827,-1.12163e-16,1.38383e-16,0.964975,-49.274,13.6104)">
                    <ellipse cx="186.486" cy="139.721" rx="6.872" ry="2.651" style="fill:rgb(41,2,119);"/>
                </g>
            </g>
            <path d="M105.161,275.201C97.827,272.618 94.335,272.115 94.335,272.115C94.335,272.115 87.01,270.396 86.353,278.869C86.353,278.869 85.455,288.036 91.5,286.324" style="fill:none;stroke:rgb(41,2,119);stroke-width:2.71px;"/>
            <path d="M91.217,279.254C91.217,279.254 89.381,287.402 94.335,286.324C94.335,286.324 96.632,285.286 95.929,280.511" style="fill:none;stroke:rgb(41,2,119);stroke-width:2.71px;"/>
            <path d="M96.268,282.838C96.268,282.838 109.059,292.536 113.542,282.838C115.608,278.367 111.419,265.457 101.106,263.254" style="fill:none;stroke:rgb(41,2,119);stroke-width:2.71px;"/>
            <path d="M108.229,303.051C108.229,303.051 99.142,292.468 88.728,304.823C88.728,304.823 83.141,311.42 87.717,318.331C87.717,318.331 82.363,319.339 82.758,324.038C82.758,324.038 83.023,328.522 89.08,325.869C91.985,325.697 98.648,325.083 101.319,322.156C103.273,320.014 101.724,316.871 100.102,316.055" style="fill:none;stroke:rgb(41,2,119);stroke-width:2.71px;"/>
            <path d="M102.898,318.714C137.424,319.473 125.382,271.942 106.643,256.397" style="fill:none;stroke:rgb(41,2,119);stroke-width:2.71px;"/>
            <g transform="matrix(1,0,0,0.956125,0.865774,14.4135)">
                <path d="M81.871,321.149C81.871,321.149 79.462,316.368 76.469,318.482C76.469,318.482 73.954,320.26 76.619,323.81C76.619,323.81 79.397,327.961 81.871,324.228" style="fill:none;stroke:rgb(41,2,119);stroke-width:2.77px;"/>
            </g>
            <path d="M74.965,320.224C74.965,320.224 69.92,322.042 73.978,326.85C73.978,326.85 77.154,330.896 80.121,326.709" style="fill:none;stroke:rgb(41,2,119);stroke-width:2.71px;"/>
            <path d="M74.516,320.224C74.516,320.224 63.528,311.853 69.532,304.23C71.265,302.03 76.012,299.867 80.121,303.959" style="fill:none;stroke:rgb(41,2,119);stroke-width:2.71px;"/>
            <path d="M70.412,278.362C70.412,278.362 76.783,289.579 73.019,301.652" style="fill:none;stroke:rgb(41,2,119);stroke-width:2.71px;"/>
            <path d="M66.074,275.806C60.573,277.052 50.979,287.436 61.21,288.463" style="fill:none;stroke:rgb(41,2,119);stroke-width:2.71px;"/>
            <path d="M63.636,283.348C61.871,284.962 60.096,287.825 62.237,289.393C62.237,289.393 64.611,291.355 67.764,286.44" style="fill:none;stroke:rgb(41,2,119);stroke-width:2.71px;"/>
            <path d="M67.764,287.56C67.764,287.56 70.635,295.255 73.816,295.094" style="fill:none;stroke:rgb(41,2,119);stroke-width:2.71px;"/>
            <path d="M90.381,202.801C89.87,200.712 88.141,193.263 87.705,185.668C87.45,181.246 89.982,178.118 96.398,174.289" style="fill:none;stroke:rgb(41,2,119);stroke-width:2.71px;"/>
            <path d="M96.398,173.755C96.398,173.755 87.333,168.665 81.458,176.333C78.59,180.076 76.78,189.809 84.661,216.457" style="fill:none;stroke:rgb(41,2,119);stroke-width:2.71px;"/>
            <path d="M108.77,201.74C108.77,201.74 114.879,208.524 118.572,204.273C120.187,202.413 120.916,198.474 113.304,194.691" style="fill:none;stroke:rgb(41,2,119);stroke-width:2.71px;"/>
        </g>
    </g>
</svg>
