<?xml version="1.0" encoding="UTF-8" standalone="no"?>
<!DOCTYPE svg PUBLIC "-//W3C//DTD SVG 1.1//EN" "http://www.w3.org/Graphics/SVG/1.1/DTD/svg11.dtd">
<svg width="100%" height="100%" viewBox="0 0 400 400" version="1.1" xmlns="http://www.w3.org/2000/svg" xmlns:xlink="http://www.w3.org/1999/xlink" xml:space="preserve" xmlns:serif="http://www.serif.com/" style="fill-rule:evenodd;clip-rule:evenodd;stroke-linejoin:round;stroke-miterlimit:2;">
    <path d="M134.102,248.83L10,248.83C6.4,248.83 3.077,246.894 1.301,243.762C-0.475,240.63 -0.43,236.786 1.418,233.696C28.949,187.676 111.421,49.818 138.312,4.866C140.118,1.848 143.377,0 146.894,-0C150.411,-0 153.67,1.848 155.475,4.866L234.417,136.824C244.69,134.289 255.425,132.945 266.472,132.945C340.168,132.945 400,192.776 400,266.472C400,340.168 340.168,400 266.472,400C192.776,400 132.945,340.168 132.945,266.472C132.945,260.496 133.338,254.61 134.102,248.83Z" style="fill:url(#_Linear1);"/>
    <g transform="matrix(1.17156,0,0,1.17156,100.829,46.5646)">
        <path d="M114.038,77.063L163.492,159.728C165.07,162.366 165.108,165.647 163.592,168.321C162.076,170.994 159.24,172.646 156.167,172.646L28.436,172.646C34.586,125.945 69.073,88.132 114.038,77.063Z" style="fill:rgb(67,67,163);"/>
    </g>
    <g transform="matrix(0.859415,0.0875377,-0.0875377,0.859415,6.68145,39.4124)">
        <path d="M164.514,302.842C165.029,311.892 169.97,337.63 189.324,329.071C189.839,336.793 191.969,360.339 173.475,363.217C168.316,364.02 158.362,364.926 163.107,353.313L150.567,346.584C146.394,351.634 142.854,360.446 149.246,370.472C153.21,376.688 160.74,380.379 172.328,379.736C182.064,379.195 193.086,373.744 198.133,365.58C210.118,346.192 205.471,322.597 200.5,295.058L186.212,298.176C185.783,304.746 184.252,311.455 182.597,311.869C181.065,312.251 178.819,304.362 177.761,300.072L164.514,302.842ZM108.609,293.836C108.83,282.486 98.658,273.346 85.63,274.172C76.12,274.775 66.466,283.801 67.283,297.305C68.014,309.366 76.236,313.129 86.681,314.158C96.794,315.154 94.214,322.644 90.198,325.345C87.513,327.151 79.03,328.979 78.946,321.32L63.715,319.648C60.306,326.478 61.019,344.856 86.095,344.991C98.635,345.059 111.869,333.96 111.834,319.276C111.807,307.689 104.795,298.445 85.534,296.65C85.534,296.65 85.75,287.478 93.086,295.496L108.609,293.836ZM206.576,337.433C206.428,326.115 204.231,261.884 223.838,256.376C229.037,254.916 235.548,254.733 239.968,262.167C242.543,266.497 247.38,280.925 248.932,290.687C254.444,289.905 271.498,285.348 271.681,273.82L276.83,273.204C277.08,277.618 276.921,291.092 249.771,296.391C251.261,307.958 253.134,322.389 252.967,334.888L237.571,336.459C236.876,327.248 235.868,311.128 233.591,299.363L223.531,300.072C222.51,312.123 221.446,324.994 221.578,336.702L206.576,337.433ZM125.462,325.387C130.379,324.573 141.281,321.322 137.839,309.556C136.152,303.788 129.224,301.164 122.139,303.978C115.651,306.555 110.441,317.131 114.077,326.676C116.859,333.98 128.479,340.381 141.701,333.032L136.417,325.782C136.417,325.782 130.888,328.638 125.462,325.387ZM151.069,323.167C157.859,322.95 166.62,315.638 162.329,306.513C159.769,301.07 152.597,297.197 146.005,302.842C140.995,307.133 136.84,318.303 142.242,327.513C146.9,335.455 159.671,338.484 170.662,328.937L164.195,322.2C161.546,324.208 154.718,327.322 151.069,323.167ZM123.506,316.057C123.506,316.057 123.969,314.823 124.791,313.898C125.614,312.973 126.796,312.356 128.234,313.591C128.987,314.238 126.727,315.661 123.506,316.057ZM150.567,313.294C150.567,313.294 151.049,312.177 151.635,311.342C152.221,310.506 152.912,309.951 153.328,311.077C153.561,311.707 152.757,312.48 150.567,313.294ZM227.858,275.684C226.308,279.153 223.844,292.198 224.227,294.512L232.912,293.963C232.762,290.763 229.903,279.375 227.858,275.684Z" style="fill:url(#_Linear2);"/>
    </g>
    <defs>
        <linearGradient id="_Linear1" x1="0" y1="0" x2="1" y2="0" gradientUnits="userSpaceOnUse" gradientTransform="matrix(369.692,294.467,-294.467,369.692,49.4593,82.4409)"><stop offset="0" style="stop-color:rgb(35,35,121);stop-opacity:1"/><stop offset="0.56" style="stop-color:rgb(115,115,212);stop-opacity:1"/><stop offset="1" style="stop-color:rgb(220,229,248);stop-opacity:1"/></linearGradient>
        <linearGradient id="_Linear2" x1="0" y1="0" x2="1" y2="0" gradientUnits="userSpaceOnUse" gradientTransform="matrix(-233.18,-38.1531,38.1531,-233.18,281.709,321.105)"><stop offset="0" style="stop-color:rgb(230,232,244);stop-opacity:1"/><stop offset="0.36" style="stop-color:rgb(150,153,219);stop-opacity:1"/><stop offset="1" style="stop-color:rgb(128,128,224);stop-opacity:1"/></linearGradient>
    </defs>
</svg>
