<?xml version="1.0" encoding="UTF-8" standalone="no"?>
<!DOCTYPE svg PUBLIC "-//W3C//DTD SVG 1.1//EN" "http://www.w3.org/Graphics/SVG/1.1/DTD/svg11.dtd">
<svg width="100%" height="100%" viewBox="0 0 10 10" version="1.1" xmlns="http://www.w3.org/2000/svg" xmlns:xlink="http://www.w3.org/1999/xlink" xml:space="preserve" xmlns:serif="http://www.serif.com/" style="fill-rule:evenodd;clip-rule:evenodd;stroke-linejoin:round;stroke-miterlimit:2;">
    <g transform="matrix(1.03093,0,0,1.05956,-0.927832,-0.42589)">
        <path d="M2.932,2.323L2.917,1.973C3.072,1.967 3.212,2.062 3.263,2.208L2.932,2.323ZM2,6.656L2.337,6.56L2,6.656ZM6.611,9.467L6.582,9.118L6.611,9.467ZM10.199,4.344L10.546,4.301L10.546,4.301L10.199,4.344ZM6.131,1.103C5.938,1.109 5.777,0.956 5.772,0.763C5.766,0.57 5.919,0.409 6.112,0.404L6.131,1.103ZM3.774,3.684C3.837,3.866 3.741,4.066 3.558,4.129C3.375,4.192 3.176,4.096 3.113,3.913L3.774,3.684ZM1.264,2.742C1.071,2.75 0.908,2.6 0.9,2.407C0.892,2.214 1.042,2.051 1.236,2.043L1.264,2.742ZM2.932,2.323C3.185,2.565 3.185,2.565 3.185,2.564L3.186,2.564C3.186,2.564 3.186,2.564 3.186,2.564L3.174,2.577C3.164,2.587 3.149,2.604 3.13,2.628C3.091,2.674 3.035,2.745 2.968,2.839C2.834,3.027 2.662,3.304 2.511,3.657C2.21,4.361 1.994,5.36 2.337,6.56L1.663,6.752C1.268,5.365 1.518,4.198 1.867,3.382C2.042,2.975 2.241,2.654 2.397,2.434C2.476,2.323 2.544,2.237 2.593,2.178C2.618,2.149 2.638,2.126 2.653,2.109C2.66,2.101 2.666,2.095 2.67,2.09L2.679,2.081C2.679,2.081 2.679,2.081 2.932,2.323ZM2.337,6.56C2.478,7.056 2.837,7.757 3.506,8.301C4.167,8.838 5.15,9.239 6.582,9.118L6.641,9.816C5.036,9.951 3.872,9.5 3.065,8.844C2.266,8.195 1.838,7.362 1.663,6.752L2.337,6.56ZM6.582,9.118C7.437,9.046 8.347,8.644 8.995,7.88C9.638,7.123 10.046,5.983 9.851,4.386L10.546,4.301C10.761,6.066 10.314,7.408 9.529,8.333C8.75,9.251 7.662,9.729 6.641,9.816L6.582,9.118ZM9.851,4.386C9.78,3.799 9.418,2.951 8.775,2.26C8.139,1.578 7.252,1.072 6.131,1.103L6.112,0.404C7.476,0.366 8.546,0.988 9.287,1.783C10.021,2.571 10.455,3.553 10.546,4.301L9.851,4.386ZM3.263,2.208L3.774,3.684L3.113,3.913L2.601,2.437L3.263,2.208ZM2.946,2.673L1.264,2.742L1.236,2.043L2.917,1.973L2.946,2.673Z" style="fill:rgb(67,67,163);fill-rule:nonzero;"/>
    </g>
</svg>
