<?xml version="1.0" encoding="UTF-8" standalone="no"?>
<!DOCTYPE svg PUBLIC "-//W3C//DTD SVG 1.1//EN" "http://www.w3.org/Graphics/SVG/1.1/DTD/svg11.dtd">
<svg width="100%" height="100%" viewBox="0 0 10 10" version="1.1" xmlns="http://www.w3.org/2000/svg" xmlns:xlink="http://www.w3.org/1999/xlink" xml:space="preserve" xmlns:serif="http://www.serif.com/" style="fill-rule:evenodd;clip-rule:evenodd;stroke-linecap:round;stroke-linejoin:round;stroke-miterlimit:1.5;">
    <g transform="matrix(0.263158,0,0,0.25,0,0)">
        <ellipse cx="19" cy="20" rx="19" ry="20" style="fill:rgb(252,175,104);"/>
    </g>
    <g id="dashboard">
        <g transform="matrix(0.263158,0,0,0.25,0,0)">
            <ellipse cx="19" cy="20" rx="19" ry="20" style="fill:rgb(252,175,104);"/>
        </g>
        <g transform="matrix(0.263158,0,0,0.25,0,0)">
            <path d="M22.315,6.308L22.684,5.971C22.589,5.867 22.455,5.808 22.315,5.808L22.315,6.308ZM9,6.308L9,5.808C8.724,5.808 8.5,6.031 8.5,6.308L9,6.308ZM9,33L8.5,33C8.5,33.276 8.724,33.5 9,33.5L9,33ZM29.416,33L29.416,33.5C29.692,33.5 29.916,33.276 29.916,33L29.416,33ZM29.416,14.093L29.916,14.093C29.916,13.968 29.869,13.848 29.785,13.756L29.416,14.093ZM22.315,14.093L21.815,14.093C21.815,14.369 22.038,14.593 22.315,14.593L22.315,14.093ZM22.315,5.808L9,5.808L9,6.808L22.315,6.808L22.315,5.808ZM8.5,6.308L8.5,33L9.5,33L9.5,6.308L8.5,6.308ZM9,33.5L29.416,33.5L29.416,32.5L9,32.5L9,33.5ZM29.916,33L29.916,14.093L28.916,14.093L28.916,33L29.916,33ZM29.785,13.756L22.684,5.971L21.945,6.645L29.046,14.43L29.785,13.756ZM29.416,13.593L22.315,13.593L22.315,14.593L29.416,14.593L29.416,13.593ZM22.815,14.093L22.815,6.308L21.815,6.308L21.815,14.093L22.815,14.093Z" style="fill:white;fill-rule:nonzero;"/>
        </g>
        <g transform="matrix(0.263158,0,0,0.25,0,0)">
            <ellipse cx="15.532" cy="20.185" rx="0.817" ry="1.068" style="fill:white;"/>
        </g>
        <g transform="matrix(0.263158,0,0,0.25,0,0)">
            <ellipse cx="19.613" cy="20.185" rx="0.817" ry="1.068" style="fill:white;"/>
        </g>
        <g transform="matrix(0.263158,0,0,0.25,0,0)">
            <ellipse cx="23.696" cy="20.185" rx="0.817" ry="1.068" style="fill:white;"/>
        </g>
    </g>
    <g id="achievement">
        <g transform="matrix(0.263158,0,0,0.25,0,0)">
            <ellipse cx="19" cy="20" rx="19" ry="20" style="fill:rgb(252,175,104);"/>
        </g>
        <g transform="matrix(0.263158,0,0,0.25,0,0)">
            <path d="M20.235,23.096C20.235,23.096 19.656,25.365 21.473,26.277" style="fill:none;fill-rule:nonzero;stroke:white;stroke-width:1px;"/>
        </g>
        <g transform="matrix(0.263158,0,0,0.25,0,0)">
            <path d="M26.596,9.727C26.596,9.727 30.863,8.73 30.996,11.326C31.1,13.439 29.123,14.852 25.323,17.748" style="fill:none;fill-rule:nonzero;stroke:white;stroke-width:1px;"/>
        </g>
        <g transform="matrix(0.263158,0,0,0.25,0,0)">
            <path d="M19.01,8.056L26.703,8C26.412,16.552 24.259,23.208 19.01,23.092" style="fill:none;fill-rule:nonzero;stroke:white;stroke-width:1px;"/>
        </g>
        <g transform="matrix(0.263158,0,0,0.25,0,0)">
            <path d="M17.789,23.096C17.789,23.096 18.367,25.365 16.551,26.277" style="fill:none;fill-rule:nonzero;stroke:white;stroke-width:1px;"/>
        </g>
        <g transform="matrix(0.263158,0,0,0.25,0,0)">
            <path d="M11.405,9.727C11.405,9.727 7.136,8.73 7.004,11.326C6.9,13.439 8.877,14.852 12.677,17.748" style="fill:none;fill-rule:nonzero;stroke:white;stroke-width:1px;"/>
        </g>
        <g transform="matrix(0.263158,0,0,0.25,0,0)">
            <path d="M19.013,8.056L11.32,8C11.612,16.552 13.765,23.208 19.013,23.092" style="fill:none;fill-rule:nonzero;stroke:white;stroke-width:1px;"/>
        </g>
        <g transform="matrix(0.263158,0,0,0.25,0,0)">
            <rect x="14.27" y="26.514" width="9.467" height="3.156" style="fill:none;stroke:white;stroke-width:1px;stroke-linecap:butt;stroke-linejoin:miter;stroke-miterlimit:4;"/>
        </g>
        <g transform="matrix(0.263158,0,0,0.25,0,0)">
            <rect x="10.324" y="29.668" width="17.357" height="3.945" style="fill:none;stroke:white;stroke-width:1px;stroke-linecap:butt;stroke-linejoin:miter;stroke-miterlimit:4;"/>
        </g>
        <g transform="matrix(0.263158,0,0,0.25,0,0)">
            <path d="M18.833,11.621L19.396,13.355L19.452,13.528L21.456,13.528L19.982,14.599L19.835,14.706L19.891,14.878L20.454,16.612L18.98,15.54L18.833,15.434L17.212,16.612L17.775,14.878L17.831,14.706L17.684,14.599L16.21,13.528L18.214,13.528L18.27,13.355L18.833,11.621Z" style="fill:none;fill-rule:nonzero;stroke:white;stroke-width:0.5px;stroke-linecap:butt;stroke-linejoin:miter;stroke-miterlimit:4;"/>
        </g>
    </g>
</svg>
