<?xml version="1.0" encoding="UTF-8" standalone="no"?>
<!DOCTYPE svg PUBLIC "-//W3C//DTD SVG 1.1//EN" "http://www.w3.org/Graphics/SVG/1.1/DTD/svg11.dtd">
<svg width="100%" height="100%" viewBox="0 0 30 30" version="1.1" xmlns="http://www.w3.org/2000/svg" xmlns:xlink="http://www.w3.org/1999/xlink" xml:space="preserve" xmlns:serif="http://www.serif.com/" style="fill-rule:evenodd;clip-rule:evenodd;stroke-linecap:round;stroke-linejoin:round;stroke-miterlimit:1.5;">
    <g id="_1:1문의" serif:id="1:1문의">
        <g transform="matrix(1,0,0,1,2.6358,2.8982)">
            <path d="M12.36,23.204C16.967,23.204 20.702,19.434 20.702,14.784C20.702,10.135 16.967,6.365 12.36,6.365C7.753,6.365 4.018,10.135 4.018,14.784C4.018,19.434 7.753,23.204 12.36,23.204Z" style="fill:none;fill-rule:nonzero;stroke:rgb(55,55,55);stroke-width:0.7px;"/>
        </g>
        <g transform="matrix(1,0,0,1,2.6358,2.8982)">
            <path d="M2.956,20.159C4.036,20.159 4.912,17.752 4.912,14.783C4.912,11.814 4.036,9.407 2.956,9.407C1.876,9.407 1,11.814 1,14.783C1,17.752 1.876,20.159 2.956,20.159Z" style="fill:white;fill-rule:nonzero;stroke:rgb(55,55,55);stroke-width:0.7px;"/>
        </g>
        <g transform="matrix(1,0,0,1,2.6358,2.8982)">
            <path d="M2.955,9.405C2.955,9.405 2.326,1 12.358,1" style="fill:none;fill-rule:nonzero;stroke:rgb(55,55,55);stroke-width:0.7px;"/>
        </g>
        <g transform="matrix(1,0,0,1,2.6358,2.8982)">
            <path d="M21.772,20.159C22.853,20.159 23.728,17.752 23.728,14.783C23.728,11.814 22.853,9.407 21.772,9.407C20.692,9.407 19.816,11.814 19.816,14.783C19.816,17.752 20.692,20.159 21.772,20.159Z" style="fill:white;fill-rule:nonzero;stroke:rgb(55,55,55);stroke-width:0.7px;"/>
        </g>
        <g transform="matrix(1,0,0,1,2.6358,2.8982)">
            <path d="M21.763,9.405C21.763,9.405 22.391,1 12.359,1" style="fill:none;fill-rule:nonzero;stroke:rgb(55,55,55);stroke-width:0.7px;"/>
        </g>
        <g transform="matrix(1,0,0,1,2.6358,2.8982)">
            <path d="M9.289,13.389C9.511,13.389 9.69,13.208 9.69,12.984C9.69,12.76 9.511,12.578 9.289,12.578C9.068,12.578 8.889,12.76 8.889,12.984C8.889,13.208 9.068,13.389 9.289,13.389Z" style="fill:rgb(55,55,55);fill-rule:nonzero;stroke:rgb(55,55,55);stroke-width:1px;"/>
        </g>
        <g transform="matrix(1,0,0,1,2.6358,2.8982)">
            <path d="M15.139,13.389C15.36,13.389 15.54,13.208 15.54,12.984C15.54,12.76 15.36,12.578 15.139,12.578C14.918,12.578 14.738,12.76 14.738,12.984C14.738,13.208 14.918,13.389 15.139,13.389Z" style="fill:rgb(55,55,55);fill-rule:nonzero;stroke:rgb(55,55,55);stroke-width:1px;"/>
        </g>
        <g transform="matrix(1,0,0,1,2.6358,2.8982)">
            <path d="M8.889,16.46C8.889,16.46 9.664,18.795 12.254,18.795" style="fill:none;fill-rule:nonzero;stroke:rgb(55,55,55);stroke-width:0.7px;"/>
        </g>
        <g transform="matrix(1,0,0,1,2.6358,2.8982)">
            <path d="M15.83,16.46C15.83,16.46 15.054,18.795 12.465,18.795" style="fill:none;fill-rule:nonzero;stroke:rgb(55,55,55);stroke-width:0.7px;"/>
        </g>
    </g>
</svg>
