<?xml version="1.0" encoding="UTF-8" standalone="no"?>
<!DOCTYPE svg PUBLIC "-//W3C//DTD SVG 1.1//EN" "http://www.w3.org/Graphics/SVG/1.1/DTD/svg11.dtd">
<svg width="100%" height="100%" viewBox="0 0 30 30" version="1.1" xmlns="http://www.w3.org/2000/svg" xmlns:xlink="http://www.w3.org/1999/xlink" xml:space="preserve" xmlns:serif="http://www.serif.com/" style="fill-rule:evenodd;clip-rule:evenodd;stroke-linecap:round;stroke-linejoin:round;stroke-miterlimit:1.5;">
    <g id="설정">
        <g transform="matrix(1,0,0,1,4.02719,4.4763)">
            <path d="M11,19.367C15.621,19.367 19.367,15.621 19.367,11C19.367,6.379 15.621,2.633 11,2.633C6.379,2.633 2.633,6.379 2.633,11C2.633,15.621 6.379,19.367 11,19.367Z" style="fill:none;fill-rule:nonzero;stroke:rgb(55,55,55);stroke-width:0.7px;"/>
        </g>
        <g transform="matrix(1,0,0,1,4.02719,4.4763)">
            <path d="M11.968,1.047C11.325,0.984 10.675,0.984 10.032,1.047L9.714,2.597C9.098,2.692 8.493,2.854 7.912,3.08L6.862,1.897C6.274,2.165 5.711,2.487 5.186,2.865L5.685,4.366C5.198,4.756 4.756,5.198 4.366,5.685L2.865,5.186C2.487,5.711 2.165,6.274 1.897,6.862L3.08,7.912C2.854,8.493 2.692,9.098 2.597,9.714L1.047,10.032C0.984,10.675 0.984,11.325 1.047,11.968L2.597,12.286C2.692,12.902 2.854,13.507 3.08,14.088L1.897,15.138C2.165,15.727 2.487,16.289 2.865,16.814L4.366,16.315C4.756,16.802 5.198,17.244 5.685,17.634L5.186,19.135C5.711,19.513 6.274,19.835 6.862,20.103L7.912,18.92C8.493,19.146 9.098,19.308 9.714,19.403L10.032,20.953C10.675,21.016 11.325,21.016 11.968,20.953L12.286,19.403C12.902,19.308 13.507,19.146 14.088,18.92L15.138,20.103C15.727,19.835 16.289,19.513 16.814,19.135L16.315,17.634C16.802,17.244 17.244,16.802 17.634,16.315L19.135,16.814C19.513,16.289 19.835,15.727 20.103,15.138L18.92,14.088C19.146,13.507 19.308,12.902 19.403,12.286L20.953,11.968C21.016,11.325 21.016,10.675 20.953,10.032L19.403,9.714C19.308,9.098 19.146,8.493 18.92,7.912L20.103,6.862C19.835,6.274 19.513,5.711 19.135,5.186L17.634,5.685C17.244,5.198 16.802,4.756 16.315,4.366L16.814,2.865C16.289,2.487 15.727,2.165 15.138,1.897L14.088,3.08C13.507,2.854 12.902,2.692 12.286,2.597L11.968,1.047ZM11,8.999C12.105,8.999 13.001,9.895 13.001,11C13.001,12.105 12.105,13.001 11,13.001C9.895,13.001 8.999,12.105 8.999,11C8.999,9.895 9.895,8.999 11,8.999Z" style="fill:none;stroke:rgb(55,55,55);stroke-width:0.7px;"/>
        </g>
    </g>
</svg>
