<?xml version="1.0" encoding="UTF-8" standalone="no"?>
<!DOCTYPE svg PUBLIC "-//W3C//DTD SVG 1.1//EN" "http://www.w3.org/Graphics/SVG/1.1/DTD/svg11.dtd">
<svg width="100%" height="100%" viewBox="0 0 400 400" version="1.1" xmlns="http://www.w3.org/2000/svg" xmlns:xlink="http://www.w3.org/1999/xlink" xml:space="preserve" xmlns:serif="http://www.serif.com/" style="fill-rule:evenodd;clip-rule:evenodd;stroke-linecap:round;stroke-linejoin:round;stroke-miterlimit:0.280488;">
    <g>
        <g transform="matrix(1.12276,0,0,0.941757,51.7442,11.6487)">
            <path d="M137.895,0C214.001,0 275.79,89.617 275.79,200C275.79,310.383 214.001,400 137.895,400C61.789,400 -0,310.383 -0,200C-0,89.617 61.789,0 137.895,0ZM137.895,60.241C180.019,60.241 214.218,123.709 214.218,201.883C214.218,280.058 180.019,343.525 137.895,343.525C95.771,343.525 61.572,280.058 61.572,201.883C61.572,123.709 95.771,60.241 137.895,60.241Z" style="fill:rgb(161,210,255);"/>
        </g>
        <g transform="matrix(1.12276,0,0,0.941757,32.0926,11.6487)">
            <path d="M137.895,0C214.001,0 275.79,89.617 275.79,200C275.79,310.383 214.001,400 137.895,400C61.789,400 -0,310.383 -0,200C-0,89.617 61.789,0 137.895,0ZM137.895,60.241C180.019,60.241 214.218,123.709 214.218,201.883C214.218,280.058 180.019,343.525 137.895,343.525C95.771,343.525 61.572,280.058 61.572,201.883C61.572,123.709 95.771,60.241 137.895,60.241Z" style="fill:rgb(220,229,248);"/>
        </g>
        <g transform="matrix(1.13718,0,0,1.13718,-35.6185,-20.9298)">
            <path d="M49.428,172.309L106.502,172.309L49.731,251.964L105.563,251.964" style="fill:none;stroke:rgb(161,210,255);stroke-width:23.06px;"/>
            <path d="M146.869,172.309L191.36,172.309" style="fill:none;stroke:rgb(161,210,255);stroke-width:23.06px;"/>
            <path d="M146.869,210.929L191.36,210.929" style="fill:none;stroke:rgb(161,210,255);stroke-width:23.06px;"/>
            <path d="M146.869,172.309L146.869,251.962L191.36,251.964" style="fill:none;stroke:rgb(161,210,255);stroke-width:23.06px;"/>
            <path d="M231.356,172.309L231.298,251.964" style="fill:none;stroke:rgb(161,210,255);stroke-width:23.06px;"/>
            <path d="M231.356,172.309C231.356,172.309 283.521,162.613 283.264,189.121C283.1,206.138 261.931,206.875 234.832,207.233" style="fill:none;stroke:rgb(161,210,255);stroke-width:23.06px;"/>
            <path d="M259.048,210.929L283.265,251.964" style="fill:none;stroke:rgb(161,210,255);stroke-width:23.06px;"/>
            <g transform="matrix(1,0,0,1,10.3566,0.864304)">
                <path d="M335.431,170.578C302.548,170.499 299.892,252.446 336.136,251.964C368.752,251.531 368.286,170.657 335.431,170.578Z" style="fill:none;stroke:rgb(161,210,255);stroke-width:23.06px;"/>
            </g>
        </g>
        <g transform="matrix(1.13718,0,0,1.13718,-42.1361,-27.917)">
            <path d="M49.428,172.309L106.502,172.309L49.731,251.964L105.563,251.964" style="fill:none;stroke:rgb(255,176,130);stroke-width:23.06px;"/>
            <path d="M146.869,172.309L191.36,172.309" style="fill:none;stroke:rgb(255,176,130);stroke-width:23.06px;"/>
            <path d="M146.869,210.929L191.36,210.929" style="fill:none;stroke:rgb(255,176,130);stroke-width:23.06px;"/>
            <path d="M146.869,172.309L146.869,251.962L191.36,251.964" style="fill:none;stroke:rgb(255,176,130);stroke-width:23.06px;"/>
            <path d="M231.356,172.309L231.298,251.964" style="fill:none;stroke:rgb(255,176,130);stroke-width:23.06px;"/>
            <path d="M231.356,172.309C231.356,172.309 283.521,162.613 283.264,189.121C283.1,206.138 261.931,206.875 234.832,207.233" style="fill:none;stroke:rgb(255,176,130);stroke-width:23.06px;"/>
            <path d="M259.048,210.929L283.265,251.964" style="fill:none;stroke:rgb(255,176,130);stroke-width:23.06px;"/>
            <g transform="matrix(1,0,0,1,10.3566,0.864304)">
                <path d="M335.431,170.578C302.548,170.499 299.892,252.446 336.136,251.964C368.752,251.531 368.286,170.657 335.431,170.578Z" style="fill:none;stroke:rgb(255,176,130);stroke-width:23.06px;"/>
            </g>
        </g>
    </g>
    <g>
        <g transform="matrix(1.12276,0,0,0.941757,51.7442,11.6487)">
            <path d="M137.895,0C214.001,0 275.79,89.617 275.79,200C275.79,310.383 214.001,400 137.895,400C61.789,400 -0,310.383 -0,200C-0,89.617 61.789,0 137.895,0ZM137.895,60.241C180.019,60.241 214.218,123.709 214.218,201.883C214.218,280.058 180.019,343.525 137.895,343.525C95.771,343.525 61.572,280.058 61.572,201.883C61.572,123.709 95.771,60.241 137.895,60.241Z" style="fill:rgb(67,67,163);"/>
        </g>
        <g transform="matrix(1.12276,0,0,0.941757,32.0926,11.6487)">
            <path d="M137.895,0C214.001,0 275.79,89.617 275.79,200C275.79,310.383 214.001,400 137.895,400C61.789,400 -0,310.383 -0,200C-0,89.617 61.789,0 137.895,0ZM137.895,60.241C180.019,60.241 214.218,123.709 214.218,201.883C214.218,280.058 180.019,343.525 137.895,343.525C95.771,343.525 61.572,280.058 61.572,201.883C61.572,123.709 95.771,60.241 137.895,60.241Z" style="fill:rgb(220,229,248);"/>
        </g>
        <g transform="matrix(1.13718,0,0,1.13718,-35.6185,-20.9298)">
            <path d="M49.428,172.309L106.502,172.309L49.731,251.964L105.563,251.964" style="fill:none;stroke:rgb(67,67,163);stroke-width:23.06px;"/>
            <path d="M146.869,172.309L191.36,172.309" style="fill:none;stroke:rgb(67,67,163);stroke-width:23.06px;"/>
            <path d="M146.869,210.929L191.36,210.929" style="fill:none;stroke:rgb(67,67,163);stroke-width:23.06px;"/>
            <path d="M146.869,172.309L146.869,251.962L191.36,251.964" style="fill:none;stroke:rgb(67,67,163);stroke-width:23.06px;"/>
            <path d="M231.356,172.309L231.298,251.964" style="fill:none;stroke:rgb(67,67,163);stroke-width:23.06px;"/>
            <path d="M231.356,172.309C231.356,172.309 283.521,162.613 283.264,189.121C283.1,206.138 261.931,206.875 234.832,207.233" style="fill:none;stroke:rgb(67,67,163);stroke-width:23.06px;"/>
            <path d="M259.048,210.929L283.265,251.964" style="fill:none;stroke:rgb(67,67,163);stroke-width:23.06px;"/>
            <g transform="matrix(1,0,0,1,10.3566,0.864304)">
                <path d="M335.431,170.578C302.548,170.499 299.892,252.446 336.136,251.964C368.752,251.531 368.286,170.657 335.431,170.578Z" style="fill:none;stroke:rgb(67,67,163);stroke-width:23.06px;"/>
            </g>
        </g>
        <g transform="matrix(1.13718,0,0,1.13718,-42.1361,-27.917)">
            <path d="M49.428,172.309L106.502,172.309L49.731,251.964L105.563,251.964" style="fill:none;stroke:rgb(161,210,255);stroke-width:23.06px;"/>
            <path d="M146.869,172.309L191.36,172.309" style="fill:none;stroke:rgb(161,210,255);stroke-width:23.06px;"/>
            <path d="M146.869,210.929L191.36,210.929" style="fill:none;stroke:rgb(161,210,255);stroke-width:23.06px;"/>
            <path d="M146.869,172.309L146.869,251.962L191.36,251.964" style="fill:none;stroke:rgb(161,210,255);stroke-width:23.06px;"/>
            <path d="M231.356,172.309L231.298,251.964" style="fill:none;stroke:rgb(161,210,255);stroke-width:23.06px;"/>
            <path d="M231.356,172.309C231.356,172.309 283.521,162.613 283.264,189.121C283.1,206.138 261.931,206.875 234.832,207.233" style="fill:none;stroke:rgb(161,210,255);stroke-width:23.06px;"/>
            <path d="M259.048,210.929L283.265,251.964" style="fill:none;stroke:rgb(161,210,255);stroke-width:23.06px;"/>
            <g transform="matrix(1,0,0,1,10.3566,0.864304)">
                <path d="M335.431,170.578C302.548,170.499 299.892,252.446 336.136,251.964C368.752,251.531 368.286,170.657 335.431,170.578Z" style="fill:none;stroke:rgb(161,210,255);stroke-width:23.06px;"/>
            </g>
        </g>
    </g>
</svg>
