<?xml version="1.0" encoding="UTF-8" standalone="no"?>
<!DOCTYPE svg PUBLIC "-//W3C//DTD SVG 1.1//EN" "http://www.w3.org/Graphics/SVG/1.1/DTD/svg11.dtd">
<svg width="100%" height="100%" viewBox="0 0 400 400" version="1.1" xmlns="http://www.w3.org/2000/svg" xmlns:xlink="http://www.w3.org/1999/xlink" xml:space="preserve" xmlns:serif="http://www.serif.com/" style="fill-rule:evenodd;clip-rule:evenodd;stroke-linecap:round;stroke-linejoin:round;stroke-miterlimit:1.5;">
    <g>
        <g transform="matrix(0.881535,0.373496,-0.373496,0.881535,82.6566,13.9423)">
            <path d="M18.016,62.196C18.016,40.196 58.285,27.559 69.535,59.203C74.786,73.974 68.785,84.038 57.641,91.547C54.358,93.759 46.268,96.031 43.651,98.413C42.592,99.377 50.064,126.261 50.064,125.273" style="fill:none;stroke:rgb(201,206,253);stroke-width:5.22px;"/>
        </g>
        <g transform="matrix(0.53322,0.225919,-0.225919,0.53322,81.6868,65.7135)">
            <circle cx="53.981" cy="139.439" r="4.548" style="fill:rgb(201,206,253);"/>
        </g>
        <g transform="matrix(-0.684312,0.719041,0.759096,0.648203,279.404,12.1624)">
            <path d="M18.016,62.196C18.016,40.196 58.285,27.559 69.535,59.203C74.786,73.974 68.785,84.038 57.641,91.547C54.358,93.759 46.268,96.031 43.651,98.413C42.592,99.377 50.064,126.261 50.064,125.273" style="fill:none;stroke:rgb(201,206,253);stroke-width:5.16px;"/>
        </g>
        <g transform="matrix(-0.413015,0.433976,0.458152,0.391222,303.569,59.297)">
            <circle cx="53.981" cy="139.439" r="4.548" style="fill:rgb(201,206,253);"/>
        </g>
        <g transform="matrix(0.754756,0.0252585,-0.0252585,0.754756,157.02,-25.3245)">
            <path d="M18.016,62.196C18.016,40.196 58.285,27.559 69.535,59.203C74.786,73.974 68.785,84.038 57.641,91.547C54.358,93.759 46.268,96.031 43.651,98.413C42.592,99.377 50.064,126.261 50.064,125.273" style="fill:none;stroke:rgb(201,206,253);stroke-width:6.62px;"/>
        </g>
        <g transform="matrix(0.653159,0.0218584,-0.0218584,0.653159,161.533,-12.738)">
            <circle cx="53.981" cy="139.439" r="4.548" style="fill:rgb(201,206,253);"/>
        </g>
        <g transform="matrix(-0.889256,0.669257,0.706539,0.842333,297.275,-18.3926)">
            <path d="M18.016,62.196C18.016,40.196 58.285,27.559 69.535,59.203C74.786,73.974 68.785,84.038 57.641,91.547C54.358,93.759 46.268,96.031 43.651,98.413C42.592,99.377 50.064,126.261 50.064,125.273" style="fill:none;stroke:rgb(41,2,119);stroke-width:4.64px;"/>
        </g>
        <g transform="matrix(-0.532647,0.400872,0.423203,0.504541,314.539,37.142)">
            <circle cx="53.981" cy="139.439" r="4.548" style="fill:rgb(41,2,119);"/>
        </g>
        <g transform="matrix(0.793648,0.414892,-0.414892,0.793648,65.0658,13.5012)">
            <path d="M18.016,62.196C18.016,40.196 58.285,27.559 69.535,59.203C74.786,73.974 68.785,84.038 57.641,91.547C54.358,93.759 46.268,96.031 43.651,98.413C42.592,99.377 50.064,126.261 50.064,125.273" style="fill:none;stroke:rgb(41,2,119);stroke-width:5.58px;"/>
        </g>
        <g transform="matrix(0.558738,0.292089,-0.292089,0.558738,61.6061,49.6385)">
            <circle cx="53.981" cy="139.439" r="4.548" style="fill:rgb(41,2,119);"/>
        </g>
        <g transform="matrix(0.727965,-0.204506,0.204506,0.727965,122.771,14.872)">
            <path d="M18.016,62.196C18.016,40.196 58.285,27.559 69.535,59.203C74.786,73.974 68.785,84.038 57.641,91.547C54.358,93.759 46.268,96.031 43.651,98.413C42.592,99.377 49.589,123.682 50.064,125.273" style="fill:none;stroke:rgb(41,2,119);stroke-width:6.61px;"/>
        </g>
        <g transform="matrix(0.526859,-0.148009,0.148009,0.526859,140.105,37.7048)">
            <circle cx="53.981" cy="139.439" r="4.548" style="fill:rgb(41,2,119);"/>
        </g>
    </g>
    <g id="Layer1" transform="matrix(1.07584,0,0,1.07584,-15.1679,-29.0663)">
        <g transform="matrix(0.621695,0,0,0.621695,83.1168,154.54)">
            <path d="M101.876,60.775C101.876,60.775 95.378,-1.537 71.957,15.644C71.957,15.644 4.849,53.952 3.03,151.785C3.03,151.785 11.452,192.839 45.016,192.747C45.016,192.747 44.197,206.105 67.897,234.377C67.897,234.377 37.906,278.419 87.471,345.417C87.471,345.417 104.139,369.833 173.153,363.232C173.153,363.232 214.526,387.958 233.693,383.191C233.693,383.191 255.074,388.614 256.24,354.301C256.24,354.301 333.79,360.682 307.243,256.932C307.243,256.932 325.343,245.351 330.613,232.15C330.613,232.15 364.802,242.545 387.094,199.128C387.094,199.128 412.85,129.112 365.604,60.765C365.604,60.765 334.858,26.782 316.739,91.951C316.739,91.951 301.037,36.537 227.434,19.597C227.434,19.597 162.728,3.117 101.876,60.775Z" style="fill:rgb(247,241,219);"/>
        </g>
        <g transform="matrix(0.929507,0,0,0.929507,14.0987,27.0174)">
            <path d="M164.151,341.809C164.151,341.809 181.083,329.775 200.654,332.74C200.654,332.74 220.524,359.18 224.198,363.446C224.198,363.446 176.472,349.643 169.7,348.009C169.7,348.009 164.177,345.128 164.151,341.809Z" style="fill:rgb(228,219,184);"/>
        </g>
        <g transform="matrix(1.21762,0.175164,-0.175164,1.21762,1.67066,126.733)">
            <path d="M188.768,7.363C172.949,6.065 155.668,5.904 131.968,28.85C127.39,33.282 110.15,53.417 108.146,65.167C108.056,65.696 125.532,49.618 129.666,46.953C134.557,43.799 142.696,41.036 150.919,44.07C169.925,51.081 161.824,73.011 176.458,73.843C190.623,74.648 186.811,55.27 194.39,49.708C197.437,47.471 206.689,39.952 216.493,43.21C234.365,49.15 250.613,69.253 250.412,67.895C249.701,63.079 225.303,22.469 215.699,17.006C208.927,13.153 194.783,7.857 188.768,7.363Z" style="fill:rgb(170,154,133);stroke:black;stroke-opacity:0;stroke-width:3.48px;"/>
        </g>
        <g transform="matrix(1.21762,0.175164,-0.175164,1.21762,10.5455,129.82)">
            <path d="M230.666,120.508C246.298,110.739 248.844,80.97 242.732,65.866C220.635,11.266 193.397,6.033 173.757,5.417C158.181,4.929 124.782,9.246 98.702,66.459C90.362,84.753 93.891,112.025 114.989,126.487" style="fill:none;stroke:rgb(41,2,119);stroke-width:3.78px;"/>
        </g>
        <g transform="matrix(1.21762,0.175164,-0.175164,1.21762,10.5455,129.82)">
            <path d="M116.208,34.434C113.791,25.351 111.865,13.341 103.266,12.255C87.343,10.244 45.623,99.387 97.197,105.642" style="fill:none;stroke:rgb(41,2,119);stroke-width:3.78px;"/>
        </g>
        <g transform="matrix(1.21762,0.175164,-0.175164,1.21762,10.5455,129.82)">
            <path d="M226.205,33.945C230.673,21.748 228.552,14.459 238.228,11.924C260.379,6.12 294.456,102.495 243.105,103.992" style="fill:none;stroke:rgb(41,2,119);stroke-width:3.78px;"/>
        </g>
        <g transform="matrix(1.08668,0,0,1.08668,-5.57874,112.589)">
            <path d="M180.683,162.112C180.71,160.842 181.907,156.19 186.858,155.958C195.957,155.532 201.142,171.059 201.764,178.271C202.397,185.601 215.313,200.581 218.242,203.022C227.496,210.733 227.751,207.024 229.502,203.25C232.3,197.217 233.521,192.87 234.086,190.381" style="fill:none;stroke:rgb(41,2,119);stroke-opacity:0.99;stroke-width:4.28px;"/>
        </g>
        <g transform="matrix(1.08668,0,0,1.08668,-5.57874,112.589)">
            <path d="M180.66,162.703C180.7,163.469 180.9,169.863 180.846,171.425C180.646,177.109 176.065,186.378 178.22,191.629C180.823,197.973 186.492,199.384 187.735,201.456C196.339,215.797 204.96,232.67 220.589,239.227C232.033,244.028 246.406,239.847 252.137,233.373C258.62,226.052 264.003,210.241 257.875,187.247" style="fill:none;stroke:rgb(41,2,119);stroke-opacity:0.99;stroke-width:4.28px;"/>
        </g>
        <g transform="matrix(1.08668,0,0,1.08668,-0.605183,116.941)">
            <path d="M115.582,168.689C105.158,184.985 113.179,207.874 117.274,216.725C122.106,227.17 128.99,235.424 139.887,239.887C156.237,246.582 170.969,237.888 185.836,246.103C196.827,252.176 204.861,254.021 213.555,253.811C218.647,253.687 225.343,246.558 223.246,238.749" style="fill:none;stroke:rgb(41,2,119);stroke-opacity:0.99;stroke-width:4.28px;"/>
        </g>
        <g transform="matrix(1.08668,0,0,1.08668,-0.605183,116.941)">
            <path d="M145.493,190.815C146.658,195.066 149.157,201.063 150.17,203.757C155.6,218.184 165.891,216.588 190.365,224.359C195.054,225.848 207.227,230.543 210.921,232.61" style="fill:none;stroke:rgb(41,2,119);stroke-opacity:0.99;stroke-width:4.28px;"/>
        </g>
        <g transform="matrix(1.21762,0.175164,-0.175164,1.21762,10.5455,129.82)">
            <circle cx="135.589" cy="64.897" r="23.692" style="fill:white;stroke:rgb(41,2,119);stroke-width:1.51px;"/>
        </g>
        <g transform="matrix(1.21762,0.175164,-0.175164,1.21762,10.5455,129.82)">
            <ellipse cx="203.344" cy="64.945" rx="23.688" ry="23.644" style="fill:white;stroke:rgb(41,2,119);stroke-width:1.51px;"/>
        </g>
        <g transform="matrix(1.50281,0.216191,-0.175164,1.21762,-38.2736,123.66)">
            <path d="M169.408,84.513C172.431,85.422 174.561,87.24 174.161,88.569C173.761,89.898 170.983,90.239 167.96,89.33C164.936,88.421 162.807,86.604 163.206,85.275C163.606,83.946 166.385,83.604 169.408,84.513Z" style="fill:rgb(41,2,119);"/>
        </g>
        <g transform="matrix(1.21762,0.175164,-0.175164,1.21762,21.736,124.846)">
            <ellipse cx="137.447" cy="64.97" rx="3.11" ry="3.203" style="fill:rgb(41,2,119);"/>
        </g>
        <g transform="matrix(1.21762,0.175164,-0.175164,1.21762,21.736,124.846)">
            <ellipse cx="200" cy="64.97" rx="3.11" ry="3.203" style="fill:rgb(41,2,119);"/>
        </g>
        <g transform="matrix(1.21762,0.175164,-0.175164,1.21762,10.5455,129.82)">
            <path d="M97.338,30.737C101.922,29.012 106.971,35.547 105.052,53.559" style="fill:none;stroke:rgb(41,2,119);stroke-width:1.51px;"/>
        </g>
        <g transform="matrix(1.21762,0.175164,-0.175164,1.21762,10.5455,129.82)">
            <path d="M246.359,31.309C238.668,27.365 237.432,45.997 237.432,52.021" style="fill:none;stroke:rgb(41,2,119);stroke-width:1.51px;"/>
        </g>
        <g transform="matrix(1.21762,0.175164,-0.175164,1.21762,10.5455,129.82)">
            <path d="M119.562,47.306C117.657,48.791 104.388,58.175 97.936,69.305" style="fill:none;stroke:rgb(41,2,119);stroke-width:1.51px;"/>
        </g>
        <g transform="matrix(1.21762,0.175164,-0.175164,1.21762,10.5455,129.82)">
            <path d="M159.281,63.079C159.281,63.079 160.071,72.545 169.916,72.772C169.916,72.772 178.496,72.679 179.656,62.642" style="fill:none;stroke:rgb(41,2,119);stroke-width:1.51px;"/>
        </g>
        <g transform="matrix(1.21762,0.175164,-0.175164,1.21762,10.5455,129.82)">
            <path d="M215.383,44.472C215.383,44.472 237.433,56.454 241.687,66.783" style="fill:none;stroke:rgb(41,2,119);stroke-width:1.51px;"/>
        </g>
        <g transform="matrix(1.08668,0,0,1.08668,-0.044359,116.582)">
            <path d="M137.271,184.168C140.171,188.826 148.667,197.303 151.797,203.05C151.797,203.05 167.135,182.343 137.271,184.168Z" style="fill:rgb(247,241,219);"/>
        </g>
        <g transform="matrix(1.08668,0,0,1.08668,-0.666027,115.099)">
            <path d="M226.447,203.852C226.447,203.852 231.066,194.799 238.262,189.536C238.262,189.536 225.28,175.651 222.375,185.157C221.358,188.486 228.14,191.484 226.447,203.852Z" style="fill:rgb(247,241,219);"/>
        </g>
    </g>
</svg>
