<?xml version="1.0" encoding="UTF-8" standalone="no"?>
<!DOCTYPE svg PUBLIC "-//W3C//DTD SVG 1.1//EN" "http://www.w3.org/Graphics/SVG/1.1/DTD/svg11.dtd">
<svg width="100%" height="100%" viewBox="0 0 10 10" version="1.1" xmlns="http://www.w3.org/2000/svg" xmlns:xlink="http://www.w3.org/1999/xlink" xml:space="preserve" xmlns:serif="http://www.serif.com/" style="fill-rule:evenodd;clip-rule:evenodd;stroke-linejoin:round;stroke-miterlimit:2;">
    <g transform="matrix(0.555556,0,0,0.555556,0,0)">
        <circle cx="9" cy="9" r="9" style="fill:rgb(218,97,92);"/>
    </g>
    <g transform="matrix(0.555556,0,0,0.555556,0,0)">
        <path d="M9.68,11.02L8.316,11.02L7.81,5.025L10.186,5.025L9.68,11.02ZM8.998,11.823C9.335,11.823 9.614,11.933 9.834,12.153C10.054,12.373 10.164,12.652 10.164,12.989C10.164,13.326 10.054,13.601 9.834,13.814C9.614,14.034 9.335,14.144 8.998,14.144C8.66,14.144 8.382,14.034 8.162,13.814C7.942,13.601 7.832,13.326 7.832,12.989C7.832,12.652 7.942,12.373 8.162,12.153C8.382,11.933 8.66,11.823 8.998,11.823Z" style="fill:white;fill-rule:nonzero;"/>
    </g>
</svg>
