<?xml version="1.0" encoding="UTF-8" standalone="no"?>
<!DOCTYPE svg PUBLIC "-//W3C//DTD SVG 1.1//EN" "http://www.w3.org/Graphics/SVG/1.1/DTD/svg11.dtd">
<svg width="100%" height="100%" viewBox="0 0 400 400" version="1.1" xmlns="http://www.w3.org/2000/svg" xmlns:xlink="http://www.w3.org/1999/xlink" xml:space="preserve" xmlns:serif="http://www.serif.com/" style="fill-rule:evenodd;clip-rule:evenodd;stroke-linecap:round;stroke-linejoin:round;stroke-miterlimit:1.5;">
    <g transform="matrix(1.06418,0,0,1.06418,-57.9217,-36.9899)">
        <g transform="matrix(0.939692,0,0,0.939692,54.4286,34.7591)">
            <path d="M140.61,128.889C140.61,128.889 136.856,92.595 117.407,94.584C117.407,94.584 113.333,93.146 108.328,101.37C108.328,101.37 90.517,98.717 88.902,117.442C88.902,117.442 56.745,75.129 46.433,74.166C46.433,74.166 32.583,79.661 33.688,88.098C33.688,88.098 17.834,90.28 20.102,101.839C20.102,101.839 37.106,127.171 61.823,142.143C61.823,142.143 69.406,191.848 83.458,227.621C93.49,253.161 109.979,261.69 130.657,282.743C130.657,282.743 120.109,363.709 120.008,400L267.421,400C267.421,400 260.316,351.095 256.725,340.632C256.725,340.632 281.288,354.701 302.319,349.744C321.991,345.107 317.741,333.184 325.098,267.193C325.098,267.193 366.413,254.291 370.194,246.163C370.194,246.163 375.35,235.225 366.532,230.984C366.532,230.984 365.477,213.003 352.323,217.135C352.323,217.135 336.129,224.781 298.607,237.355C288.969,240.584 290.486,268.552 283.143,291.895C283.143,291.895 248.927,260.462 236.105,249.57C236.105,249.57 255.189,246.97 261.885,224.959L266.494,199.916C266.494,199.916 323.971,158.594 314.501,134.287C314.501,134.287 309.285,124.977 299.428,128.135C299.428,128.135 296.853,109.126 285.08,115.551C285.08,115.551 273.191,118.59 263.465,143.285C263.465,143.285 239.512,114.443 200.97,110.606C200.97,110.606 179.112,105.419 140.61,128.889ZM106.856,165.357L120.481,200.863L121.412,185.791C121.412,185.791 112.184,172.595 106.856,165.357Z" style="fill:rgb(252,251,233);"/>
        </g>
        <g transform="matrix(0.939692,0,0,0.96225,54.4286,25.7453)">
            <path d="M135.838,399.99C137.799,347.511 144.481,299.385 186.725,300.508C228.663,301.623 238.468,347.057 246.736,399.99L135.838,399.99Z" style="fill:rgb(242,222,201);"/>
        </g>
        <g transform="matrix(0.770936,0.574891,-0.574891,0.770936,177.348,9.23838)">
            <path d="M98.768,123.373C98.768,123.373 105.428,142.709 110.333,156.469L123.138,163.171C123.138,163.171 105.789,146.551 125.893,135.37C125.893,135.37 141.972,125.754 161.744,137.577L187.249,122.596C187.249,122.596 184.3,100.896 200.905,90.739C200.905,90.739 217.225,77.722 229.886,101.804L231.019,84.471C231.019,84.471 209.571,61.15 205.706,58.277C205.706,58.277 176.134,46.076 142.592,64.439C142.592,64.439 97.841,86.563 98.768,123.373Z" style="fill:rgb(176,147,127);"/>
        </g>
        <g transform="matrix(0.939692,0,0,0.939692,54.4286,34.7591)">
            <path d="M96.193,137.083C96.193,137.083 110.392,117.324 137.411,116.361C137.411,116.361 124.692,80.644 109.376,101.987C109.376,101.987 91.071,98.674 89.592,118.154C89.592,118.154 94.018,124.668 96.193,137.083Z" style="fill:rgb(176,147,127);"/>
        </g>
        <g transform="matrix(0.939692,0,0,0.939692,54.4286,34.7591)">
            <path d="M26.916,110.7C26.916,110.7 29.446,99.798 39.283,99.052C39.283,99.052 42.671,83.856 58.006,83.079C58.006,83.079 33.845,52.82 25.599,76.015C25.599,76.015 2.75,81.591 26.916,110.7Z" style="fill:rgb(176,147,127);"/>
        </g>
        <g transform="matrix(0.939692,0,0,0.939692,54.4286,34.7591)">
            <path d="M269.404,130.546C269.404,130.546 297.01,138.084 305.333,162.787C305.333,162.787 332.199,122.934 298.557,128.016C298.557,128.016 295.42,103.025 277.847,119.08L269.404,130.546Z" style="fill:rgb(176,147,127);"/>
        </g>
        <g transform="matrix(0.939692,0,0,0.939692,54.4286,34.7591)">
            <path d="M345.796,221.277C345.796,221.277 356.205,225.433 354.859,237.029C354.859,237.029 363.931,244.209 360.68,254.099C360.68,254.099 392.249,241.795 376.898,223.369C376.898,223.369 378.749,199.853 345.796,221.277Z" style="fill:rgb(176,147,127);"/>
        </g>
        <g transform="matrix(0.755079,0.585789,-0.590631,0.761321,181.243,6.05826)">
            <path d="M139.113,68.127C139.113,68.127 100.761,90.428 101.384,125.254C101.384,125.254 99.532,143.064 127.859,185.16C127.859,185.16 136.408,197.892 148.795,200.008C154.489,200.981 180.18,202.866 200.958,199.885C200.958,199.885 215.94,198.53 224.9,187.531C227.718,184.072 243.151,163.477 253.649,144.351C257.666,137.032 256.298,126.556 249.595,114.627C241.046,99.412 225.866,72.943 209.512,61.1C204.347,57.36 173.49,45.915 139.113,68.127Z" style="fill:none;stroke:rgb(41,2,119);stroke-width:4.9px;"/>
        </g>
        <g transform="matrix(0.803905,0.527806,-0.527806,0.803905,169.766,15.3277)">
            <path d="M95.102,114.465C95.102,114.465 83.237,98.549 70.244,94.392C63.567,92.255 51.039,96.748 54.45,108.228C48.371,107.825 38.089,118.024 48.557,131.652" style="fill:none;stroke:rgb(41,2,119);stroke-width:4.89px;"/>
        </g>
        <g transform="matrix(0.939692,0,0,0.939692,54.4286,34.7591)">
            <path d="M104.424,161.473C104.424,161.473 115.512,179.978 122.192,186.782" style="fill:none;stroke:rgb(41,2,119);stroke-width:5px;"/>
        </g>
        <g transform="matrix(0.770936,0.574891,-0.574891,0.770936,172.437,6.70077)">
            <path d="M210.009,56.764C205.784,42.453 201.658,22.036 213.647,16.501C218.836,14.106 225.686,18.222 227.257,23.25C227.257,23.25 234.329,12.5 244.701,18.376C253.61,23.423 259.224,55.05 244.798,97.877" style="fill:none;stroke:rgb(41,2,119);stroke-width:4.89px;"/>
        </g>
        <g transform="matrix(0.580975,0,0,1.03403,94.2891,64.2669)">
            <path d="M145.779,215.977C141.453,235.615 129.185,300.024 125.35,335.26" style="fill:none;stroke:rgb(41,2,119);stroke-width:5.6px;"/>
        </g>
        <g transform="matrix(0.694395,0,0,0.770585,119.511,168.643)">
            <path d="M231.226,171.302C231.226,171.302 263.77,278.051 268.622,314.038" style="fill:none;stroke:rgb(41,2,119);stroke-width:6.41px;"/>
        </g>
        <g transform="matrix(0.735568,0.548517,-0.558231,0.748594,183.505,19.6832)">
            <path d="M186.95,126.378C186.95,126.378 177.988,108.902 193.153,92.755C200.139,85.315 211.539,77.836 222.574,89.917C222.574,89.917 231.733,101.21 228.416,104.07C221.905,112.691 195.089,125.508 186.95,126.378Z" style="fill:white;stroke:rgb(41,2,119);stroke-width:2.03px;"/>
        </g>
        <g transform="matrix(-0.844778,0.358164,0.364507,0.859738,335.286,37.2327)">
            <path d="M186.95,126.378C186.95,126.378 177.988,108.902 193.153,92.755C200.139,85.315 211.539,77.836 222.574,89.917C222.574,89.917 231.733,101.21 228.416,104.07C221.905,112.691 195.089,125.508 186.95,126.378Z" style="fill:white;stroke:rgb(41,2,119);stroke-width:2.03px;"/>
        </g>
        <g transform="matrix(0.770936,0.574891,-0.574891,0.770936,178.396,8.78828)">
            <path d="M63.865,117.677C63.865,117.677 76.504,117.617 105.016,146.66" style="fill:none;stroke:rgb(41,2,119);stroke-width:1.95px;"/>
        </g>
        <g transform="matrix(0.770936,0.574891,-0.574891,0.770936,178.396,8.78828)">
            <path d="M219.141,30.611C219.141,30.611 213.888,45.181 223.72,77.138" style="fill:none;stroke:rgb(41,2,119);stroke-width:1.95px;"/>
        </g>
        <g transform="matrix(0.770936,0.574891,-0.574891,0.770936,178.234,6.19393)">
            <path d="M111.606,160.075L126.28,167.489" style="fill:none;stroke:rgb(41,2,119);stroke-width:1.95px;"/>
        </g>
        <g transform="matrix(0.761853,0.568118,-0.543773,0.729205,176.358,15.911)">
            <path d="M160.936,138.312L186.883,122.428" style="fill:none;stroke:rgb(41,2,119);stroke-width:2.02px;"/>
        </g>
        <g transform="matrix(0.652979,0.48693,-0.553127,0.74175,203.605,31.4836)">
            <path d="M229.617,106.331L230.319,85.81" style="fill:none;stroke:rgb(41,2,119);stroke-width:2.16px;"/>
        </g>
        <g transform="matrix(0.818403,0.610288,-0.612537,0.821419,174.218,-4.50442)">
            <path d="M181.156,140.993L196.249,168.51" style="fill:none;stroke:rgb(41,2,119);stroke-width:1.84px;"/>
        </g>
        <g transform="matrix(0.735352,0.619758,-0.619758,0.735352,188.827,10.4235)">
            <path d="M165.462,161.839C172.072,169.29 184.323,173.393 197.496,164.867C210.895,156.196 213.297,146.794 207.987,134.526" style="fill:none;stroke:rgb(41,2,119);stroke-width:1.95px;"/>
        </g>
        <g transform="matrix(1.13422,0.153949,-0.149027,1.00556,116.513,42.9603)">
            <ellipse cx="155.425" cy="137.033" rx="4.425" ry="8.953" style="fill:rgb(41,2,119);"/>
        </g>
        <g transform="matrix(-1.14029,-0.0808298,-0.09264,0.979451,397.353,75.0461)">
            <ellipse cx="155.425" cy="137.033" rx="4.425" ry="8.953" style="fill:rgb(41,2,119);"/>
        </g>
        <g transform="matrix(-1.17239,-0.128861,0.0933398,-0.849211,434.947,373.011)">
            <path d="M181.538,147.529C181.538,147.529 185.503,152.254 187.952,155.173C188.245,155.522 188.35,156.086 188.215,156.587C188.08,157.087 187.733,157.42 187.346,157.42C184.262,157.42 179.03,157.42 175.878,157.42C175.468,157.42 175.101,157.068 174.958,156.537C174.815,156.006 174.926,155.408 175.236,155.038C177.692,152.111 181.538,147.529 181.538,147.529Z" style="fill:rgb(41,2,119);"/>
        </g>
        <g transform="matrix(0.841809,0,0,0.832938,75.4502,72.5113)">
            <path d="M239.339,238.343C239.339,238.343 265.356,257.869 290.461,284.605" style="fill:none;stroke:rgb(41,2,119);stroke-width:5.61px;"/>
        </g>
        <g transform="matrix(0.818798,0,0,0.856895,77.4866,77.9832)">
            <path d="M294.381,286.947C294.381,286.947 298.392,260.124 304.095,233.144C304.095,233.144 303.999,210.665 321.357,206.98C321.357,206.98 356.524,198.948 372.61,188.919C405.753,168.256 416.683,196.606 379.378,209.579" style="fill:none;stroke:rgb(41,2,119);stroke-width:5.61px;"/>
        </g>
        <g transform="matrix(-0.818798,0,0,0.856895,404.873,-48.8798)">
            <path d="M288.955,322.717C288.955,322.717 312.866,266.068 318.453,244.209C318.453,244.209 318.741,231.604 329.559,223.375C339.612,215.728 375.029,160.998 393.552,172.997C400.948,177.788 401.377,188.689 382.711,205.52" style="fill:none;stroke:rgb(41,2,119);stroke-width:5.61px;"/>
        </g>
        <g transform="matrix(0.818798,0,0,0.775885,82.1201,95.0757)">
            <path d="M397.553,191.783C418.527,213.801 374.283,236.792 339.764,245.864C337.479,266.392 335.533,303.618 329.582,327.417C324.774,346.642 298.276,362.785 259.566,331.183" style="fill:none;stroke:rgb(41,2,119);stroke-width:5.89px;"/>
        </g>
        <g transform="matrix(-0.818798,0,0,0.856895,404.873,-48.8798)">
            <path d="M400.324,182.808C426.22,190.605 398.712,225.003 356.873,254.186C356.873,254.186 341.923,319.952 334.379,340.668C328.317,357.316 314.845,374.539 278.818,407.462" style="fill:none;stroke:rgb(41,2,119);stroke-width:5.61px;"/>
        </g>
    </g>
    <g transform="matrix(1.15944,-0.156028,0.151878,1.1286,-5.96689,-157.164)">
        <g transform="matrix(0.968613,0,0,0.813156,15.351,58.9936)">
            <rect x="208.78" y="313.144" width="66.31" height="54.296" style="fill:rgb(248,220,171);"/>
        </g>
        <g transform="matrix(0.103552,0,0,0.813156,219.426,58.9937)">
            <rect x="208.78" y="313.144" width="66.31" height="54.296" style="fill:rgb(161,210,255);"/>
        </g>
        <g transform="matrix(0.968613,0,0,0.262445,15.351,217.196)">
            <path d="M290.322,313.144L224.726,314.149L208.78,367.44L275.09,367.44L290.322,313.144Z" style="fill:rgb(255,238,208);"/>
        </g>
        <g transform="matrix(0.0449008,0,0,0.262445,238.025,217.196)">
            <path d="M509.769,313.591L376.355,313.71L67.26,367.44L220.467,367.44L509.769,313.591Z" style="fill:rgb(161,210,255);"/>
        </g>
        <g transform="matrix(0.886104,0,0,0.0479864,37.9673,290.415)">
            <path d="M284.903,313.144L212.886,313.791L208.275,390.626L280.57,388.582L284.903,313.144Z" style="fill:rgb(161,210,255);"/>
        </g>
        <g transform="matrix(0.2225,0,0,0.813156,235.353,58.9937)">
            <path d="M275.09,295.62L208.78,313.144L208.78,367.44L275.09,346.87L275.09,295.62Z" style="fill:rgb(242,207,146);"/>
        </g>
        <g transform="matrix(0.0529239,0,0,0.813156,275.862,57.6674)">
            <path d="M272.84,304.707L201.981,309.153L207.531,362.048L275.095,357.067L272.84,304.707Z" style="fill:rgb(161,210,255);"/>
        </g>
    </g>
    <g transform="matrix(1.1448,0.423154,-0.399068,1.07963,-56.8216,-422.109)">
        <g transform="matrix(0.968613,0,0,0.813156,15.351,58.9936)">
            <rect x="208.78" y="313.144" width="66.31" height="54.296" style="fill:rgb(248,220,171);"/>
        </g>
        <g transform="matrix(0.103552,0,0,0.813156,219.426,58.9937)">
            <rect x="208.78" y="313.144" width="66.31" height="54.296" style="fill:rgb(161,210,255);"/>
        </g>
        <g transform="matrix(0.968613,0,0,0.262445,15.351,217.196)">
            <path d="M290.322,313.144L224.726,314.149L208.78,367.44L275.09,367.44L290.322,313.144Z" style="fill:rgb(255,238,208);"/>
        </g>
        <g transform="matrix(0.0449008,0,0,0.262445,238.025,217.196)">
            <path d="M509.769,313.591L376.355,313.71L67.26,367.44L220.467,367.44L509.769,313.591Z" style="fill:rgb(161,210,255);"/>
        </g>
        <g transform="matrix(0.886104,0,0,0.0479864,37.9673,290.415)">
            <path d="M284.903,313.144L212.886,313.791L208.275,390.626L280.57,388.582L284.903,313.144Z" style="fill:rgb(161,210,255);"/>
        </g>
        <g transform="matrix(0.2225,0,0,0.813156,235.353,58.9937)">
            <path d="M275.09,295.62L208.78,313.144L208.78,367.44L275.09,346.87L275.09,295.62Z" style="fill:rgb(242,207,146);"/>
        </g>
        <g transform="matrix(0.0529239,0,0,0.813156,275.862,57.6674)">
            <path d="M272.84,304.707L201.981,309.153L207.531,362.048L275.095,357.067L272.84,304.707Z" style="fill:rgb(161,210,255);"/>
        </g>
    </g>
    <g transform="matrix(-1.87555,-0.180107,-0.169855,1.76879,624.558,-177.421)">
        <g transform="matrix(0.968613,0,0,0.813156,15.351,58.9936)">
            <rect x="208.78" y="313.144" width="66.31" height="54.296" style="fill:rgb(248,220,171);"/>
        </g>
        <g transform="matrix(0.103552,0,0,0.813156,219.426,58.9937)">
            <rect x="208.78" y="313.144" width="66.31" height="54.296" style="fill:rgb(161,210,255);"/>
        </g>
        <g transform="matrix(0.968613,0,0,0.262445,15.351,217.196)">
            <path d="M290.322,313.144L224.726,314.149L208.78,367.44L275.09,367.44L290.322,313.144Z" style="fill:rgb(255,238,208);"/>
        </g>
        <g transform="matrix(0.0449008,0,0,0.262445,238.025,217.196)">
            <path d="M509.769,313.591L376.355,313.71L67.26,367.44L220.467,367.44L509.769,313.591Z" style="fill:rgb(161,210,255);"/>
        </g>
        <g transform="matrix(0.886104,0,0,0.0479864,37.9673,290.415)">
            <path d="M284.903,313.144L212.886,313.791L208.275,390.626L280.57,388.582L284.903,313.144Z" style="fill:rgb(161,210,255);"/>
        </g>
        <g transform="matrix(0.2225,0,0,0.813156,235.353,58.9937)">
            <path d="M275.09,295.62L208.78,313.144L208.78,367.44L275.09,346.87L275.09,295.62Z" style="fill:rgb(242,207,146);"/>
        </g>
        <g transform="matrix(0.0529239,0,0,0.813156,275.862,57.6674)">
            <path d="M272.84,304.707L201.981,309.153L207.531,362.048L275.095,357.067L272.84,304.707Z" style="fill:rgb(161,210,255);"/>
        </g>
    </g>
</svg>
