<?xml version="1.0" encoding="UTF-8" standalone="no"?>
<!DOCTYPE svg PUBLIC "-//W3C//DTD SVG 1.1//EN" "http://www.w3.org/Graphics/SVG/1.1/DTD/svg11.dtd">
<svg width="100%" height="100%" viewBox="0 0 400 400" version="1.1" xmlns="http://www.w3.org/2000/svg" xmlns:xlink="http://www.w3.org/1999/xlink" xml:space="preserve" xmlns:serif="http://www.serif.com/" style="fill-rule:evenodd;clip-rule:evenodd;stroke-linejoin:round;stroke-miterlimit:2;">
    <g transform="matrix(39.3158,0,0,39.3158,2.52561,3.07638)">
        <g transform="matrix(1.04146,0,0,1.00804,-0.183921,-0.0803586)">
            <path d="M5.115,0.1C5.049,0.042 4.951,0.042 4.884,0.1C4.252,0.644 1.208,3.264 0.274,4.069C0.232,4.104 0.217,4.163 0.235,4.216C0.254,4.268 0.302,4.303 0.356,4.303C0.642,4.302 0.997,4.301 0.997,4.301C0.997,4.301 1.008,9.726 1.009,9.99C1.009,9.996 1.013,10 1.019,10C1.322,10 8.651,10 8.973,10C8.976,10 8.978,9.999 8.98,9.997C8.983,9.995 8.984,9.992 8.984,9.989C8.982,9.71 8.96,4.343 8.96,4.343C8.96,4.343 9.343,4.346 9.644,4.349C9.698,4.349 9.747,4.314 9.765,4.262C9.784,4.209 9.769,4.15 9.728,4.114C8.794,3.302 5.747,0.65 5.115,0.1Z" style="fill:rgb(68,51,163);"/>
        </g>
        <g transform="matrix(1,0,0,1,1.29771,0.0013137)">
            <path d="M5.249,5L2.156,5L2.156,9.696L5.249,9.696L5.249,5ZM4.994,5.254L4.994,9.441C4.994,9.441 2.41,9.441 2.41,9.441C2.41,9.441 2.41,5.254 2.41,5.254L4.994,5.254Z" style="fill:white;"/>
        </g>
    </g>
</svg>
