<?xml version="1.0" encoding="UTF-8" standalone="no"?>
<!DOCTYPE svg PUBLIC "-//W3C//DTD SVG 1.1//EN" "http://www.w3.org/Graphics/SVG/1.1/DTD/svg11.dtd">
<svg width="100%" height="100%" viewBox="0 0 400 400" version="1.1" xmlns="http://www.w3.org/2000/svg" xmlns:xlink="http://www.w3.org/1999/xlink" xml:space="preserve" xmlns:serif="http://www.serif.com/" style="fill-rule:evenodd;clip-rule:evenodd;stroke-linejoin:round;stroke-miterlimit:2;">
    <g>
        <g transform="matrix(20,0,0,20,2.24837e-07,-1.95284e-11)">
            <path d="M7.406,7.77C7.459,7.261 7.888,6.875 8.4,6.875L17.85,6.875C18.362,6.875 18.791,7.261 18.844,7.77L19.884,17.645C19.946,18.236 19.483,18.75 18.889,18.75L7.361,18.75C6.767,18.75 6.304,18.236 6.366,17.645L7.406,7.77Z" style="fill:rgb(149,149,228);fill-rule:nonzero;"/>
        </g>
        <g transform="matrix(20,0,0,20,2.24837e-07,-1.95284e-11)">
            <path d="M16.271,6.798L9.839,6.795C9.839,6.795 10.12,3.749 13.132,3.75C16.086,3.752 16.253,6.567 16.271,6.798L18.174,6.798C18.567,6.798 18.895,7.095 18.936,7.484C19.145,9.555 19.772,15.738 19.996,17.951C20.017,18.156 19.95,18.359 19.811,18.512C19.674,18.663 19.477,18.75 19.27,18.75L7.074,18.75C6.84,18.75 6.619,18.651 6.462,18.479C6.306,18.306 6.23,18.077 6.254,17.846C6.492,15.567 7.113,9.626 7.331,7.537C7.375,7.118 7.732,6.798 8.155,6.798L16.271,6.798ZM8.155,7.179L18.174,7.179C18.369,7.179 18.534,7.327 18.555,7.523L19.615,17.99C19.624,18.087 19.593,18.183 19.528,18.255C19.462,18.327 19.368,18.369 19.27,18.369L7.074,18.369C6.949,18.369 6.831,18.317 6.747,18.224C6.664,18.131 6.623,18.008 6.636,17.885C6.636,17.885 7.712,7.584 7.712,7.577C7.737,7.352 7.928,7.179 8.155,7.179ZM15.669,6.798L10.591,6.795C10.784,6.039 11.12,4.375 13.125,4.375C15.159,4.377 15.527,6.036 15.669,6.798Z" style="fill:rgb(67,67,163);"/>
        </g>
        <g transform="matrix(20,0,0,20,2.24837e-07,-1.95284e-11)">
            <path d="M1.176,5.295C1.218,4.776 1.652,4.375 2.173,4.375L11.577,4.375C12.098,4.375 12.532,4.776 12.574,5.295L13.664,18.92C13.71,19.502 13.251,20 12.667,20L1.083,20C0.499,20 0.04,19.502 0.086,18.92L1.176,5.295Z" style="fill:rgb(67,67,163);fill-rule:nonzero;"/>
        </g>
        <g transform="matrix(20,0,0,20,2.24837e-07,-1.95284e-11)">
            <path d="M10.021,4.064L3.589,4.06C3.589,4.06 3.87,-0.002 6.882,0C9.836,0.002 10.003,3.756 10.021,4.064L11.924,4.064C12.317,4.064 12.645,4.46 12.686,4.978C12.895,7.74 13.522,15.984 13.746,18.934C13.767,19.208 13.7,19.478 13.561,19.682C13.424,19.884 13.227,20 13.02,20L0.824,20C0.59,20 0.369,19.868 0.212,19.638C0.056,19.408 -0.02,19.102 0.004,18.794C0.242,15.756 0.863,7.834 1.081,5.05C1.125,4.49 1.482,4.064 1.905,4.064L10.021,4.064ZM1.905,4.572L11.924,4.572C12.119,4.572 12.284,4.77 12.305,5.03L13.365,18.986C13.374,19.116 13.342,19.244 13.278,19.34C13.211,19.436 13.118,19.492 13.02,19.492L0.824,19.492C0.699,19.492 0.581,19.422 0.497,19.298C0.414,19.174 0.373,19.01 0.386,18.846C0.386,18.846 1.462,5.112 1.462,5.102C1.487,4.802 1.678,4.572 1.905,4.572ZM9.494,4.064L4.159,4.06C4.159,3.125 4.877,0.508 6.882,0.508C8.916,0.51 9.494,3.125 9.494,4.064Z" style="fill:rgb(67,67,163);"/>
        </g>
    </g>
</svg>
