<?xml version="1.0" encoding="UTF-8" standalone="no"?>
<!DOCTYPE svg PUBLIC "-//W3C//DTD SVG 1.1//EN" "http://www.w3.org/Graphics/SVG/1.1/DTD/svg11.dtd">
<svg width="100%" height="100%" viewBox="0 0 400 400" version="1.1" xmlns="http://www.w3.org/2000/svg" xmlns:xlink="http://www.w3.org/1999/xlink" xml:space="preserve" xmlns:serif="http://www.serif.com/" style="fill-rule:evenodd;clip-rule:evenodd;stroke-linejoin:round;stroke-miterlimit:2;">
    <g transform="matrix(40.9458,0,0,39.6317,-4.70541,-0.082986)">
        <path d="M5.172,0.15C5.073,0.063 4.927,0.063 4.827,0.149C4.106,0.77 1.329,3.16 0.347,4.005C0.294,4.051 0.275,4.126 0.298,4.192C0.322,4.259 0.383,4.303 0.452,4.303C0.715,4.302 0.997,4.301 0.997,4.301C0.997,4.301 1.005,8.17 1.008,9.532C1.008,9.791 1.212,10 1.462,10L8.528,10C8.649,10 8.765,9.95 8.85,9.862C8.935,9.774 8.982,9.654 8.982,9.53C8.976,8.172 8.96,4.343 8.96,4.343C8.96,4.343 9.264,4.346 9.544,4.348C9.613,4.348 9.676,4.304 9.7,4.237C9.724,4.169 9.704,4.094 9.651,4.048C8.667,3.191 5.892,0.776 5.172,0.15ZM8.867,3.926C8.792,3.943 8.722,3.983 8.667,4.04C8.588,4.121 8.544,4.231 8.545,4.345C8.545,4.345 8.561,8.174 8.567,9.532C8.567,9.542 8.563,9.552 8.555,9.559C8.548,9.567 8.539,9.571 8.528,9.571L1.462,9.571C1.44,9.571 1.423,9.553 1.423,9.531C1.42,8.169 1.412,4.3 1.412,4.3C1.412,4.186 1.368,4.077 1.29,3.997C1.243,3.949 1.187,3.914 1.126,3.894L4.999,0.56L8.867,3.926Z" style="fill:rgb(196,196,196);"/>
    </g>
</svg>
