<?xml version="1.0" encoding="UTF-8" standalone="no"?>
<!DOCTYPE svg PUBLIC "-//W3C//DTD SVG 1.1//EN" "http://www.w3.org/Graphics/SVG/1.1/DTD/svg11.dtd">
<svg width="100%" height="100%" viewBox="0 0 70 38" version="1.1" xmlns="http://www.w3.org/2000/svg" xmlns:xlink="http://www.w3.org/1999/xlink" xml:space="preserve" xmlns:serif="http://www.serif.com/" style="fill-rule:evenodd;clip-rule:evenodd;stroke-linejoin:round;stroke-miterlimit:2;">
    <path d="M33.202,12.918C33.076,15.746 33.796,23.897 40.079,21.851C39.995,24.266 39.911,31.647 34.075,31.956C32.447,32.042 29.327,32.008 31.168,28.551L27.486,26.064C26.03,27.501 24.651,30.126 26.32,33.443C27.354,35.499 29.577,36.884 33.196,37.051C36.238,37.191 39.834,35.846 41.66,33.47C45.996,27.827 45.299,20.351 44.627,11.639L40.09,12.155C39.749,14.183 39.061,16.218 38.533,16.294C38.045,16.365 37.597,13.843 37.405,12.477L33.202,12.918ZM16.121,8.352C16.549,4.833 13.679,1.672 9.606,1.517C6.633,1.403 3.348,3.901 3.175,8.122C3.02,11.892 5.455,13.321 8.667,13.971C11.777,14.6 10.739,16.845 9.406,17.557C8.514,18.033 5.821,18.332 6.038,15.951L1.359,14.949C0.084,16.963 -0.276,22.694 7.509,23.53C11.403,23.948 15.865,20.919 16.318,16.356C16.677,12.756 14.791,9.663 8.865,8.496C8.865,8.496 9.222,5.654 11.247,8.376L16.121,8.352ZM45.173,24.994C45.485,21.474 46.835,1.452 53.1,0.362C54.761,0.073 56.789,0.222 57.927,2.671C58.59,4.097 59.636,8.732 59.809,11.814C61.546,11.745 66.988,10.869 67.409,7.294L69.028,7.266C68.966,8.645 68.49,12.825 59.889,13.612C59.986,17.252 60.111,21.794 59.664,25.671L54.832,25.672C54.907,22.789 55.104,17.75 54.769,14.023L51.622,13.925C50.923,17.636 50.186,21.601 49.856,25.241L45.173,24.994ZM20.358,18.686C21.911,18.589 25.401,17.924 24.704,14.16C24.362,12.315 22.293,11.281 20.003,11.93C17.906,12.526 15.953,15.646 16.781,18.726C17.414,21.083 20.821,23.439 25.161,21.574L23.749,19.155C23.749,19.155 21.941,19.867 20.358,18.686ZM28.383,18.806C30.499,18.954 33.451,16.96 32.407,13.989C31.784,12.218 29.679,10.788 27.453,12.333C25.761,13.507 24.117,16.845 25.503,19.877C26.699,22.491 30.57,23.836 34.286,21.219L32.49,18.921C31.604,19.461 29.385,20.212 28.383,18.806ZM20.046,15.726C20.046,15.726 20.229,15.357 20.513,15.096C20.798,14.834 21.185,14.68 21.592,15.109C21.806,15.334 21.059,15.705 20.046,15.726ZM28.539,15.724C28.539,15.724 28.724,15.392 28.933,15.151C29.141,14.91 29.373,14.759 29.467,15.122C29.519,15.325 29.245,15.54 28.539,15.724ZM53.738,6.486C53.146,7.515 51.968,11.489 52.014,12.22L54.729,12.324C54.784,11.326 54.256,7.698 53.738,6.486Z" style="fill:url(#_Linear1);"/>
    <defs>
        <linearGradient id="_Linear1" x1="0" y1="0" x2="1" y2="0" gradientUnits="userSpaceOnUse" gradientTransform="matrix(-71.2248,-19.229,19.229,-71.2248,69.0281,22.2992)"><stop offset="0" style="stop-color:rgb(230,232,244);stop-opacity:1"/><stop offset="0.36" style="stop-color:rgb(182,182,201);stop-opacity:1"/><stop offset="1" style="stop-color:rgb(38,38,47);stop-opacity:1"/></linearGradient>
    </defs>
</svg>
