<?xml version="1.0" encoding="UTF-8" standalone="no"?>
<!DOCTYPE svg PUBLIC "-//W3C//DTD SVG 1.1//EN" "http://www.w3.org/Graphics/SVG/1.1/DTD/svg11.dtd">
<svg width="100%" height="100%" viewBox="0 0 400 400" version="1.1" xmlns="http://www.w3.org/2000/svg" xmlns:xlink="http://www.w3.org/1999/xlink" xml:space="preserve" xmlns:serif="http://www.serif.com/" style="fill-rule:evenodd;clip-rule:evenodd;stroke-linecap:round;stroke-linejoin:round;stroke-miterlimit:1.5;">
    <g transform="matrix(1.08405,0,0,1.08405,-17.1327,-30.3255)">
        <path d="M120.879,86.273C120.879,86.273 130.404,69.047 115.588,65.67C115.588,65.67 110.093,66.035 105.925,69.757C105.925,69.757 101.181,64.658 94.954,68.871C94.954,68.871 93.115,72.684 94.649,82.484C94.649,82.484 64.738,77.817 62.865,114.282C62.865,114.282 63.407,129.211 63.722,132.907C63.722,132.907 60.58,154.663 71.436,157.27L85.016,155.426C85.016,155.426 84.919,183.806 78.231,196.39C78.231,196.39 67.304,178.406 58.011,182.756C58.011,182.756 49.98,184.136 41.25,213.647C41.25,213.647 38.549,223.218 48.362,220.83C48.362,220.83 54.698,227.817 57.617,217.699C58.965,213.026 60.542,211.105 62.451,209.684C62.451,209.684 67.968,218.901 69.999,222.473C70.216,222.854 69.999,222.473 69.999,222.473C69.999,222.473 56.251,286.014 74.972,293.344L53.382,307.221C53.382,307.221 50.192,296.616 47.271,285.008C50.574,281.197 44.731,268.078 32.696,275.974C32.696,275.974 24.872,270.597 21.857,283.295C21.857,283.295 22.077,301.802 26.5,318.789C26.5,318.789 23.878,353.428 53.382,336.491C53.382,336.491 67.319,333.583 94.339,327.49L103.517,367.372C103.517,367.372 89.135,368.354 81.982,370.723C71.805,368.889 61.689,389.812 82.602,389.415L129.458,389.415C129.458,389.415 139.873,388.871 131.092,368.021C131.092,368.021 130.06,326.831 132.975,313.49C132.975,313.49 144.786,310.285 146.223,291.403C146.223,291.403 186.822,282.39 211.043,170.181C211.043,170.181 215.14,141.813 204.646,143.692C204.646,143.692 200.103,145.688 194.005,167.387C194.005,167.387 177.443,232.104 142.966,247.865C142.966,247.865 142.88,192.864 136.026,169.12L130.005,146.473C130.005,146.473 136.099,141.167 138.298,120.943C138.298,120.943 154.372,108.771 154.541,97.618C154.541,97.618 150.984,91.676 146.198,92.979C146.198,92.979 149.944,85.219 141.175,82.235C141.175,82.235 133.788,81.73 126.023,89.415C126.023,89.415 125.12,87.166 120.879,86.273Z" style="fill:rgb(252,251,233);"/>
        <path d="M87.138,285.861C87.138,285.861 83.341,246.523 93.065,232.255C93.065,232.255 79.279,227.046 82.289,215.403C82.289,215.403 75.853,208.849 72.68,211.264C72.68,211.264 58.396,262.208 66.823,282.45C66.823,282.45 70.991,291.427 75.796,292.753L87.138,285.861Z" style="fill:rgb(242,222,201);"/>
        <path d="M62.505,125.193C62.505,125.193 61.027,99.084 72.838,89.314C72.838,89.314 89.271,75.412 126.561,89.068C126.561,89.068 115.943,100.743 113.013,104.007C113.013,104.007 114.609,109.541 115.912,120.943C115.912,120.943 99.629,125.658 92.753,127.56C92.753,127.56 94.906,112.808 82.132,114.547C82.132,114.547 73.82,116.231 71.29,124.997L62.505,125.193Z" style="fill:rgb(176,147,127);"/>
        <path d="M138.297,120.943C138.297,120.943 125.878,131.103 120.522,128.63L130.286,147.073C130.286,147.073 138.422,131.008 138.297,120.943Z" style="fill:rgb(176,147,127);"/>
        <g transform="matrix(0.922463,0,0,0.922463,15.8043,27.9741)">
            <path d="M85.443,56.255C85.443,56.255 99.243,50.506 115.565,58.236C115.565,58.236 120.096,42.6 108.522,40.864C108.522,40.864 100.736,40.718 97.408,45.486C97.408,45.486 83.464,33.354 85.443,56.255Z" style="fill:rgb(176,147,127);"/>
        </g>
        <g transform="matrix(0.922463,0,0,0.922463,15.8043,27.9741)">
            <path d="M120.266,66.546C120.266,66.546 136.867,50.394 141.642,63.128C141.642,63.128 143.042,69.379 141.336,71.011C141.336,71.011 156.126,68.082 146.759,85.931C146.759,85.931 143.339,91.261 140.61,93.323C140.61,93.323 142.212,76.168 120.266,66.546Z" style="fill:rgb(176,147,127);"/>
        </g>
        <g transform="matrix(0.922463,0,0,0.922463,15.8043,27.9741)">
            <path d="M34.308,281.695C34.308,281.695 22.039,277.039 16.036,282.361C16.036,282.361 9.834,280.211 6.561,283.401C6.561,283.401 6.38,263.027 17.551,268.45C17.551,268.45 37.06,257.898 33.694,278.474L34.308,281.695Z" style="fill:rgb(176,147,127);"/>
        </g>
        <g transform="matrix(0.922463,0,0,0.922463,15.8043,27.9741)">
            <path d="M70.101,372.785C70.101,372.785 61.892,368.463 59.116,380.585C59.116,380.585 55.884,393.622 72.657,391.822C72.657,391.822 87.008,395.143 95.085,392.582C95.085,392.582 101.751,369.756 72.932,374.574L70.101,372.785Z" style="fill:rgb(176,147,127);"/>
        </g>
        <g transform="matrix(0.922463,0,0,0.922463,15.8043,27.9741)">
            <path d="M30.496,192.515C30.496,192.515 32.123,195.961 35.501,194.032C35.501,194.032 40.071,202.291 47.156,200C47.156,200 46.029,212.636 38.89,211.263C38.89,211.263 34.186,210.756 33.66,209.527C33.66,209.527 23.083,210.575 30.496,192.515Z" style="fill:rgb(176,147,127);"/>
        </g>
        <g transform="matrix(1,0,0,1,-6.12114,2.06175)">
            <path d="M59.503,307.669C58.206,296.155 52.976,282.885 52.976,282.885C58.204,270.465 42.883,268.918 39.034,273.098C37.128,275.169 36.342,279.549 36.352,286.148" style="fill:none;stroke:rgb(41,2,119);stroke-width:2.77px;"/>
        </g>
        <g transform="matrix(1,0,0,1,-14.4177,-1.32685)">
            <path d="M155.077,211.733C155.077,211.733 157.321,237.391 157.694,266.744" style="fill:none;stroke:rgb(41,2,119);stroke-width:2.77px;"/>
        </g>
        <g transform="matrix(1,0,0,1,-14.4177,-1.32685)">
            <path d="M140.85,90.728C134.559,86.242 112.192,80.853 96.618,85.752C81.519,90.501 74.195,103.429 78.506,132.794C78.506,132.794 74.606,142.838 80.559,154.726C83.359,160.317 91.411,158.649 99.535,156.812C99.535,156.812 101.627,164.12 96.531,181.099" style="fill:none;stroke:rgb(41,2,119);stroke-width:2.77px;"/>
        </g>
        <g transform="matrix(1.22634,0,0,0.893188,-61.3577,5.04836)">
            <path d="M127.53,86.429C127.53,86.429 124.02,70.91 131.082,69.503C133.445,69.032 135.852,71.034 136.27,73.208C136.27,73.208 138.653,67.031 144.552,67.968C144.552,67.968 155.123,69.581 148.887,90.792" style="fill:none;stroke:rgb(41,2,119);stroke-width:2.58px;"/>
        </g>
        <g transform="matrix(0.97041,0,0,1,-10.5425,-1.32685)">
            <path d="M127.323,106.115C127.323,106.115 147.579,77.938 159.183,84.574C162.154,86.273 164.288,91.176 161.452,94.703C161.452,94.703 167.741,92.476 169.9,98.945C173.087,108.489 140.168,135.457 134.929,128.958" style="fill:none;stroke:rgb(41,2,119);stroke-width:2.81px;"/>
        </g>
        <g transform="matrix(1,0,0,1,-14.4177,-1.32685)">
            <path d="M152.716,122.27C152.716,122.27 152.38,133.974 144.722,147.607C144.722,147.607 149.186,161.221 151.635,174.877" style="fill:none;stroke:rgb(41,2,119);stroke-width:2.77px;"/>
        </g>
        <g transform="matrix(1,0,0,1.0535,-14.4177,-11.9844)">
            <path d="M90.578,199.198C90.578,199.198 66.452,279.485 89.43,289.162" style="fill:none;stroke:rgb(41,2,119);stroke-width:2.69px;"/>
        </g>
        <g transform="matrix(1,0,0,1,-14.4177,-1.32685)">
            <path d="M91.777,198.028C91.777,198.028 85.681,182.373 73.593,183.022C73.593,183.022 65.242,182.366 56.039,214.821C55.239,217.641 55.041,223.67 62.854,222.411" style="fill:none;stroke:rgb(41,2,119);stroke-width:2.77px;"/>
        </g>
        <g transform="matrix(1,0,0,1,-14.4177,-1.32685)">
            <path d="M67.017,198.483C67.017,198.483 54.687,222.112 66.156,224.076C66.156,224.076 71.744,226.08 74.012,212.736C74.012,212.736 79.302,211.077 84.161,202.123" style="fill:none;stroke:rgb(41,2,119);stroke-width:2.77px;"/>
        </g>
        <g transform="matrix(1,0,0,1,-14.4177,-1.32685)">
            <path d="M77.192,210.842L84.296,224.499" style="fill:none;stroke:rgb(41,2,119);stroke-width:2.77px;"/>
        </g>
        <path d="M83.645,221.486C83.645,221.486 83.534,228.778 89.647,231.417" style="fill:none;stroke:rgb(41,2,119);stroke-width:2.77px;"/>
        <g transform="matrix(1.08435,-0.129485,0.150032,1.25642,-45.6078,0.225729)">
            <path d="M93.046,111.642C91.121,110.043 94.981,99.672 108.043,101.858C110.773,102.314 117.302,105.493 111.82,113.054C110.92,114.296 95.397,113.596 93.046,111.642Z" style="fill:white;stroke:rgb(41,2,119);stroke-width:0.78px;"/>
        </g>
        <g transform="matrix(1.61851,0.135617,-0.0314419,0.956454,-83.8942,8.05221)">
            <ellipse cx="101.325" cy="105.731" rx="1.42" ry="4.098" style="fill:rgb(41,2,119);"/>
        </g>
        <g transform="matrix(-1.57731,-0.539782,0.58773,-1.71742,151.43,397.16)">
            <path d="M100.188,121.094C100.226,121.014 100.325,120.975 100.414,121.005C104.143,122.184 103.177,123.775 102.211,124.36C102.171,124.384 102.128,124.404 102.082,124.418C101.779,124.514 100.395,124.949 99.322,125.287C99.091,125.359 98.835,125.3 98.67,125.135C98.505,124.97 98.461,124.731 98.558,124.526C99.126,123.332 99.953,121.59 100.188,121.094Z" style="fill:rgb(41,2,119);"/>
        </g>
        <g transform="matrix(1,0,0,1,-14.279,1.11347)">
            <path d="M119.752,72.536C119.752,72.536 121.294,76.548 118.68,80.777" style="fill:none;stroke:rgb(41,2,119);stroke-width:0.92px;"/>
        </g>
        <g transform="matrix(1,0,0,1,-14.4177,-1.32685)">
            <path d="M157.33,97.421C157.33,97.421 144.656,100.746 130.33,122.27L107.171,128.958" style="fill:none;stroke:rgb(41,2,119);stroke-width:0.92px;"/>
        </g>
        <g transform="matrix(0.903024,0,0,1,-6.16235,15.0161)">
            <path d="M81.512,131.755C81.512,131.755 91.408,133.638 93.458,125.931" style="fill:none;stroke:rgb(41,2,119);stroke-width:0.97px;"/>
        </g>
        <g transform="matrix(1.04834,0.0696409,0.0550271,1.01658,-30.0768,4.23901)">
            <path d="M90.656,112.778L83.529,113.259" style="fill:none;stroke:rgb(41,2,119);stroke-width:0.84px;"/>
        </g>
        <g transform="matrix(0.771159,-0.10254,0.131809,0.991275,-15.2516,10.8198)">
            <rect x="79.342" y="184.028" width="111.25" height="38.895" style="fill:rgb(248,220,171);"/>
            <clipPath id="_clip1">
                <rect x="79.342" y="184.028" width="111.25" height="38.895"/>
            </clipPath>
            <g clip-path="url(#_clip1)">
                <g transform="matrix(1.17542,0.121589,-0.156295,0.914414,36.6655,21.0981)">
                    <path d="M58.743,185.607L139.375,175.532L137.393,159.826L145.8,154.046L152.501,153.211L144.301,159.032L146.19,174.775L154.082,173.759L162.213,166.522L162.888,172.866L154.87,180.279L146.81,181.196L149.506,202.686L142.577,203.516L140.024,181.932L59.598,191.71L58.743,185.607Z" style="fill:rgb(161,210,255);"/>
                </g>
            </g>
        </g>
        <g transform="matrix(1,0,0,1,-14.4177,-1.32685)">
            <path d="M84.609,186.434L92.061,181.706L177.092,170.328L170.399,175.027L84.609,186.434Z" style="fill:rgb(255,238,208);"/>
            <clipPath id="_clip2">
                <path d="M84.609,186.434L92.061,181.706L177.092,170.328L170.399,175.027L84.609,186.434Z"/>
            </clipPath>
            <g clip-path="url(#_clip2)">
                <g transform="matrix(0.922463,0,5.1207e-17,0.922463,30.2219,29.301)">
                    <path d="M58.743,185.607L139.375,175.532L137.393,159.826L145.8,154.046L152.501,153.211L144.301,159.032L146.19,174.775L154.082,173.759L162.213,166.522L162.888,172.866L154.87,180.279L146.81,181.196L149.506,202.686L142.577,203.516L140.024,181.932L59.598,191.71L58.743,185.607Z" style="fill:rgb(161,210,255);"/>
                </g>
            </g>
        </g>
        <path d="M161.108,212.255L167.358,206.414L162.674,169.001L155.982,173.7L161.108,212.255Z" style="fill:rgb(230,183,101);"/>
        <clipPath id="_clip3">
            <path d="M161.108,212.255L167.358,206.414L162.674,169.001L155.982,173.7L161.108,212.255Z"/>
        </clipPath>
        <g clip-path="url(#_clip3)">
            <g transform="matrix(0.922463,0,2.56035e-17,0.922463,15.8043,27.9741)">
                <path d="M58.743,185.607L139.375,175.532L137.393,159.826L145.8,154.046L152.501,153.211L144.301,159.032L146.19,174.775L154.082,173.759L162.213,166.522L162.888,172.866L154.87,180.279L146.81,181.196L149.506,202.686L142.577,203.516L140.024,181.932L59.598,191.71L58.743,185.607Z" style="fill:rgb(161,210,255);"/>
            </g>
        </g>
        <path d="M106.356,173.791L124.387,198.812L104.218,219.672L113.903,227.436C113.903,227.436 151.619,210.668 148.735,196.105C148.735,196.105 134.848,169.274 121.971,161.267L106.356,173.791Z" style="fill:rgb(252,251,233);"/>
        <g transform="matrix(0.994149,0,0,1.00448,0.670246,-1.05067)">
            <path d="M91.534,221.533C95.618,218.49 99.727,217.257 104.218,219.672L114.552,226.647C114.552,226.647 99.007,236.094 93.26,230.82C89.38,227.259 88.209,224.011 91.534,221.533Z" style="fill:rgb(252,251,233);"/>
        </g>
        <g transform="matrix(1,0,0,1,-14.4177,-1.32685)">
            <path d="M120.406,176.523C120.406,176.523 131.623,192.292 138.712,202.028C138.712,202.028 129.135,211.807 119.779,220.666" style="fill:none;stroke:rgb(41,2,119);stroke-width:2.77px;"/>
        </g>
        <g transform="matrix(1,0,0,1,-14.4177,-1.32685)">
            <path d="M141.283,164.583C141.283,164.583 161.968,188.617 163.112,200.352C163.112,200.352 165.806,212.488 127.639,229.216C126.272,230.921 116.071,237.941 103.96,232.696" style="fill:none;stroke:rgb(41,2,119);stroke-width:2.77px;"/>
        </g>
        <g transform="matrix(0.874527,0,0,1.0711,-0.225804,-17.2943)">
            <path d="M103.707,282.236C103.707,282.236 82.819,290.901 61.299,302.975" style="fill:none;stroke:rgb(41,2,119);stroke-width:2.83px;"/>
        </g>
        <g transform="matrix(0.959927,0,0,1,-7.98907,3.23548)">
            <path d="M41.577,272.229C39.041,269.543 33.34,270.507 31.287,281.772C30.233,287.555 33.688,302.701 36.164,315.51C36.164,315.51 36.859,332.639 41.935,335.682C50.295,340.694 57.749,336.624 63.933,333.25C63.933,333.25 139.071,317.336 151.211,308.383C151.211,308.383 166.994,297.83 157.742,263.047" style="fill:none;stroke:rgb(41,2,119);stroke-width:2.82px;"/>
        </g>
        <g transform="matrix(1,0,0,1,-14.4177,-1.32685)">
            <path d="M108.631,328.552L117.934,368.59C117.934,368.59 102.192,370.118 95.38,372.534C95.38,372.534 85.48,370.732 84.76,382.186C84.76,382.186 84.093,391.809 96.9,390.644" style="fill:none;stroke:rgb(41,2,119);stroke-width:2.77px;"/>
        </g>
        <g transform="matrix(1,0,0,1,-14.4177,-1.32685)">
            <path d="M107.655,374.613C94.019,367.747 86.45,389.818 101.066,391.221C107.006,391.791 127.789,391.133 142.655,390.742C147.586,390.612 152.424,383.406 145.482,368.9C145.482,368.9 144.001,329.494 147.983,316.157" style="fill:none;stroke:rgb(41,2,119);stroke-width:2.77px;"/>
        </g>
        <g transform="matrix(1,0,0,1,-14.4177,-1.32685)">
            <path d="M157.766,250.179C203.344,221.357 209.462,148.006 219.364,145.409C224.217,144.137 229.516,152.033 223.295,180.996C221.246,190.538 208.021,238.559 191.005,264.064C185.455,272.381 175.213,284.513 161.326,292.508" style="fill:none;stroke:rgb(41,2,119);stroke-width:2.77px;"/>
        </g>
    </g>
    <g transform="matrix(1.08405,0,0,1.08405,-17.1327,-30.3255)">
        <path d="M246.547,342.693C246.265,346.174 245.919,348.928 245.919,348.928C246.19,355.922 242.053,381.408 242.053,381.408C251.122,380.149 249.046,389.093 249.046,389.093C248.282,394.722 240.138,391.478 240.138,391.478C222.763,395.418 227.105,384.829 227.105,384.829L221.584,359.951C212.486,361.231 203.683,356.248 203.683,356.248C200.209,359.603 189.381,372.633 189.381,372.633C187.711,387.567 181.091,386.862 181.091,386.862C169.238,388.607 171.352,367.304 171.352,367.304C170.901,359.066 180.199,361.532 180.199,361.532C180.809,351.154 183.198,342.803 183.198,342.803C181.329,338.333 180.676,331.531 180.676,331.531C181.507,318.277 175.41,291.295 175.41,291.295C182.666,277.353 201.651,271.739 201.651,271.739L198.078,262.542C174.65,253.266 188.166,221.222 192.261,218.943C200.947,214.109 205.296,223.233 205.296,223.233C230.066,205.531 257.654,228.627 257.654,228.627C274.757,225.115 271.148,243.917 271.148,243.917C269.459,267.293 260.855,267.678 260.855,267.678C258.532,276.855 246.482,277.4 246.482,277.4C247.794,281.834 254.039,290.739 259.469,297.947C260.229,296.147 260.833,294.348 261.198,292.615C261.198,292.615 260.118,273.755 264.572,266.303C264.572,266.303 281.841,246.513 288.966,261.9C288.966,261.9 289.949,268.878 276.804,268.228C276.804,268.228 269.146,269.664 272.91,290.652C272.91,290.652 272.602,297.573 267.153,307.797C267.709,308.486 268.025,308.871 268.025,308.871C271.708,309.706 280.741,316.415 280.741,316.415C281.554,323.377 276.404,324.277 276.404,324.277C277.486,327.854 274.066,329.517 274.066,329.517C270.832,331.316 261.802,323.175 258.767,320.296C257.728,321.573 256.612,322.872 255.414,324.189C255.414,324.189 250.971,330.375 246.547,342.693ZM252.226,310.431C248.411,305.422 244.465,301.526 244.465,301.526C245.723,307.885 246.835,332.724 246.885,333.849C247.065,327.684 247.141,320.145 246.561,317.669C246.561,317.669 249.177,314.713 252.226,310.431Z" style="fill:rgb(247,241,219);"/>
        <path d="M195.986,353.23C195.986,353.23 213.221,362.333 222.506,360.438C222.506,360.438 231.786,356.688 234.598,331.98C235.352,325.352 236.351,309.964 233.163,302.29C230.181,295.111 215.371,287.217 203.541,295.468C199.372,298.375 186.773,312.418 191.026,340.882C191.558,344.446 193.24,350.455 195.986,353.23Z" style="fill:rgb(228,219,184);"/>
        <path d="M205.138,223.558C205.138,223.558 207.195,239.469 199.922,247.579C199.922,247.579 215.879,234.764 224.91,233.309C224.91,233.309 235.583,232.417 237.601,245.104C237.601,245.104 239.527,250.469 243.236,249.992C243.236,249.992 247.347,248.992 249.434,244.035C249.434,244.035 253,239.532 256.159,241.932C256.159,241.932 259.695,246.032 258.354,253.24C258.354,253.24 266.662,241.824 256.037,228.055C256.037,228.055 228.985,206.126 205.138,223.558Z" style="fill:rgb(170,154,133);"/>
        <g transform="matrix(0.922463,0,0,0.922463,15.8043,27.9741)">
            <path d="M292.164,248.284C292.164,248.284 271.66,244.766 266.288,265.957C266.288,265.957 265.46,277.021 266.009,283.767C266.009,283.767 265.549,288.788 264.173,290.937L272.082,302.059C276.01,297.482 279.891,282.5 277.018,273.588C276.954,273.389 276.022,259.936 291.084,260.626L292.164,248.284Z" style="fill:rgb(170,154,133);"/>
        </g>
        <g transform="matrix(0.922463,0,0,0.922463,15.8043,27.9741)">
            <path d="M255.559,306.24L249.803,313.47L250.502,339.848L262.512,316.088L255.559,306.24Z" style="fill:rgb(170,154,133);"/>
        </g>
        <g transform="matrix(0.922463,0,0,0.922463,15.8043,27.9741)">
            <path d="M176.502,362.753C176.502,362.753 166.742,356.632 168.9,368.667C170.166,375.725 165.774,389.267 178.957,389.005C178.957,389.005 187.313,391.168 187.837,370.459C187.837,370.459 185.51,355.274 176.502,362.753Z" style="fill:rgb(170,154,133);"/>
        </g>
        <g transform="matrix(0.922463,0,0,0.922463,15.8043,27.9741)">
            <path d="M229.098,389.069C229.098,389.069 232.184,389.846 236.106,389.069C236.106,389.069 238.663,382.931 242.839,384.872C242.839,384.872 247.4,381.991 251.006,384.477C251.006,384.477 257.245,397.752 245.241,395.13C245.241,395.13 236.615,397.613 229.877,393.344L229.098,389.069Z" style="fill:rgb(170,154,133);"/>
        </g>
        <g transform="matrix(1,0,0,1,-14.4177,-1.32685)">
            <path d="M286.825,322.77C286.825,322.77 291.884,325.46 289.61,329.36C289.61,329.36 286.682,332.972 281.698,328.341C281.698,328.341 274.946,325.845 271.839,319.265C271.839,319.265 264.634,307.741 258.765,301.526" style="fill:none;stroke:rgb(41,2,119);stroke-width:2.77px;"/>
        </g>
        <g transform="matrix(1,0,0,1,-14.4177,-1.32685)">
            <path d="M203.495,377.819C205.492,373.009 212.733,362.527 218.241,358.384" style="fill:none;stroke:rgb(41,2,119);stroke-width:2.77px;"/>
        </g>
        <g transform="matrix(1,0,0,1,-14.4177,-1.32685)">
            <path d="M256.829,293.319C256.829,293.319 264.455,326.419 259.533,353.111C259.533,353.111 258.964,368.856 255.769,383.427" style="fill:none;stroke:rgb(41,2,119);stroke-width:2.77px;"/>
        </g>
        <g transform="matrix(1,0,0,1,-14.4177,-1.32685)">
            <path d="M271.579,230.633C271.579,230.633 275.502,227.515 281.515,231.2C284.719,233.163 288.258,239.894 282.226,259.625C282.226,259.625 277.793,271.523 274.19,270.765" style="fill:none;stroke:rgb(41,2,119);stroke-width:2.77px;"/>
        </g>
        <g transform="matrix(1,0,0,1,-14.4177,-1.32685)">
            <path d="M281.528,306.884C281.528,306.884 286.53,301.043 286.489,289.166C286.481,286.788 283.763,270.152 294.102,269.644C296.978,269.502 303.347,269.446 302.88,262.79C302.617,259.026 298.642,257.422 291.396,258.851C288.451,259.432 283.534,261.367 280.392,265.939C280.392,265.939 274.402,273.621 275.553,288.077C275.553,288.077 276.014,294.555 273.715,298.061" style="fill:none;stroke:rgb(41,2,119);stroke-width:2.77px;"/>
        </g>
        <g transform="matrix(1,0,0,1,-14.4177,-1.32685)">
            <path d="M219.556,224.901C233.322,212.966 254.898,219.739 262.521,223.815C269.267,227.422 280.981,236.525 272.82,256.796C272.82,256.796 281.814,275.657 261.2,278.82C261.2,278.82 253.987,279.157 249.165,278.769" style="fill:none;stroke:rgb(41,2,119);stroke-width:2.77px;"/>
        </g>
        <g transform="matrix(1,0,0,1,-14.4177,-1.32685)">
            <path d="M218.716,240.706C218.716,240.706 224.145,219.277 211.119,218.927C207.994,218.843 198.061,222.244 199.531,245.727C199.531,245.727 200.886,264.212 216.092,263.864" style="fill:none;stroke:rgb(41,2,119);stroke-width:2.77px;"/>
        </g>
        <g transform="matrix(1,0,0,1,-14.4177,-1.32685)">
            <path d="M213.214,264.621L217.327,273.262" style="fill:none;stroke:rgb(41,2,119);stroke-width:2.77px;"/>
        </g>
        <g transform="matrix(1,0,0,1,-14.4177,-1.32685)">
            <path d="M210.402,354.206C210.402,354.206 224.084,361.974 236.31,361.221L241.655,385.73C241.655,385.73 238.662,393.905 248.275,393.469C248.275,393.469 258.712,395.577 257.075,387.415C257.075,387.415 255.63,381.461 250.022,384.874" style="fill:none;stroke:rgb(41,2,119);stroke-width:2.77px;"/>
        </g>
        <g transform="matrix(1,0,0,1,-14.4177,-1.32685)">
            <path d="M193.656,363.359C193.099,361.265 183.838,360.451 186.337,369.703C186.337,369.703 183.75,387.08 192.457,387.864C194.884,388.082 201.967,388.011 203.495,377.819C203.495,377.819 205.493,362.956 199.245,362.017C199.245,362.017 191.933,360.54 192.85,368.335" style="fill:none;stroke:rgb(41,2,119);stroke-width:2.77px;"/>
        </g>
        <g transform="matrix(1,0,0,1,-14.4177,-1.32685)">
            <path d="M255.702,393.133C255.702,393.133 260.726,395.015 262.974,390.772C264.047,388.748 264.059,381.074 256.592,383.909" style="fill:none;stroke:rgb(41,2,119);stroke-width:2.77px;"/>
        </g>
        <g transform="matrix(1,0,0,1,-14.4177,-1.32685)">
            <path d="M259.717,279.578C259.717,279.578 277.854,304.418 282.692,310.093C282.692,310.093 288.41,313.778 293.634,316.799C293.634,316.799 298.611,321.471 291.721,325.597" style="fill:none;stroke:rgb(41,2,119);stroke-width:2.77px;"/>
        </g>
        <g transform="matrix(1,0,0,1,-14.4177,-1.32685)">
            <path d="M260.52,347.315C260.52,347.315 265.044,331.551 271.882,321.668" style="fill:none;stroke:rgb(41,2,119);stroke-width:2.77px;"/>
        </g>
        <g transform="matrix(1,0,0,1,-14.4177,-1.32685)">
            <path d="M266.071,310.954L260.978,318.996" style="fill:none;stroke:rgb(41,2,119);stroke-width:2.77px;"/>
        </g>
        <g transform="matrix(1,0,0,1,-14.4177,-1.32685)">
            <path d="M217.211,273.359C217.211,273.359 200.097,276.795 190.497,292.304" style="fill:none;stroke:rgb(41,2,119);stroke-width:2.77px;"/>
        </g>
        <g transform="matrix(1.41328,0,0,1,-100.507,-1.32685)">
            <path d="M208.308,293.78L186.24,289.711L195.468,296.567L205.875,298.302L208.308,293.78Z" style="fill:rgb(255,238,208);"/>
            <clipPath id="_clip4">
                <path d="M208.308,293.78L186.24,289.711L195.468,296.567L205.875,298.302L208.308,293.78Z"/>
            </clipPath>
            <g clip-path="url(#_clip4)">
                <g transform="matrix(-0.65188,-0.0465156,-0.0329132,0.921289,297.382,154.497)">
                    <path d="M137.941,183.324L137.146,178.488L133.65,162.581L150.491,154.767L157.027,154.306L139.694,162.267L143.347,177.706L151.883,176.771L166.733,168.434L168.055,172.831L153.097,181.984L144.383,182.894L146.903,193.999L140.567,195.191L137.941,183.324Z" style="fill:rgb(161,210,255);"/>
                </g>
            </g>
        </g>
        <g transform="matrix(1.41328,0,0,1,-100.507,-1.32685)">
            <path d="M186.264,289.732L180.919,315.714L189.558,324.848L195.458,296.557L186.264,289.732Z" style="fill:rgb(248,220,171);"/>
            <clipPath id="_clip5">
                <path d="M186.264,289.732L180.919,315.714L189.558,324.848L195.458,296.557L186.264,289.732Z"/>
            </clipPath>
            <g clip-path="url(#_clip5)">
                <g transform="matrix(-0.65188,-0.0465156,-0.0329132,0.921289,297.382,154.497)">
                    <path d="M137.941,183.324L137.146,178.488L133.65,162.581L150.491,154.767L157.027,154.306L139.694,162.267L143.347,177.706L151.883,176.771L166.733,168.434L168.055,172.831L153.097,181.984L144.383,182.894L146.903,193.999L140.567,195.191L137.941,183.324Z" style="fill:rgb(161,210,255);"/>
                </g>
            </g>
        </g>
        <g transform="matrix(1.41328,0,0,1,-100.507,-1.32685)">
            <path d="M195.43,296.577L189.558,324.84L200.288,326.393C200.288,326.393 202.243,306.197 205.945,298.275L195.43,296.577Z" style="fill:rgb(230,183,101);"/>
            <clipPath id="_clip6">
                <path d="M195.43,296.577L189.558,324.84L200.288,326.393C200.288,326.393 202.243,306.197 205.945,298.275L195.43,296.577Z"/>
            </clipPath>
            <g clip-path="url(#_clip6)">
                <g transform="matrix(-0.65188,-0.0465156,-0.0329132,0.921289,297.382,154.497)">
                    <path d="M137.941,183.324L137.146,178.488L133.65,162.581L150.491,154.767L157.027,154.306L139.694,162.267L143.347,177.706L151.883,176.771L166.733,168.434L168.055,172.831L153.097,181.984L144.383,182.894L146.903,193.999L140.567,195.191L137.941,183.324Z" style="fill:rgb(161,210,255);"/>
                </g>
            </g>
        </g>
        <g transform="matrix(1,0,0,1,-14.4177,-1.32685)">
            <path d="M212.496,282.612C212.496,282.612 188.12,318.828 197.847,345.389C197.847,345.389 194.787,354.038 194.617,362.017" style="fill:none;stroke:rgb(41,2,119);stroke-width:2.77px;"/>
        </g>
        <g transform="matrix(0.432564,0.107523,-0.174446,0.701796,190.289,52.3367)">
            <circle cx="242.776" cy="244.677" r="12.763" style="fill:white;stroke:rgb(41,2,119);stroke-width:1.54px;"/>
        </g>
        <g transform="matrix(0.87919,0,0,0.87919,12.5865,29.6071)">
            <circle cx="242.776" cy="244.677" r="12.763" style="fill:white;stroke:rgb(41,2,119);stroke-width:1.05px;"/>
        </g>
        <g transform="matrix(0.609906,0.316298,-0.379778,0.732314,182.966,-16.3456)">
            <ellipse cx="258.648" cy="260.128" rx="4.35" ry="1.645" style="fill:rgb(41,2,119);"/>
        </g>
        <g transform="matrix(1,0,0,1,-9.40846,0.189535)">
            <circle cx="241.368" cy="244.687" r="1.464" style="fill:rgb(41,2,119);"/>
        </g>
        <g transform="matrix(0.825324,0,0,0.825324,55.2227,48.5059)">
            <circle cx="241.368" cy="244.687" r="1.464" style="fill:rgb(41,2,119);"/>
        </g>
        <g transform="matrix(1,0,0,1,-14.4177,-1.32685)">
            <path d="M275.444,245.907C275.444,245.907 277.102,236.708 280.311,239.529" style="fill:none;stroke:rgb(41,2,119);stroke-width:0.92px;"/>
        </g>
        <g transform="matrix(1,0,0,1,-14.4177,-1.32685)">
            <path d="M207.364,227.955C207.364,227.955 214.357,225.772 214.455,248.923C214.455,248.923 224.217,240.128 234.878,236.213" style="fill:none;stroke:rgb(41,2,119);stroke-width:0.92px;"/>
        </g>
        <g transform="matrix(1,0,0,1,-14.4177,-1.32685)">
            <path d="M251.422,243.697C251.422,243.697 252.332,250.288 257.002,251.25C257.002,251.25 260.407,252.287 263.013,246.395" style="fill:none;stroke:rgb(41,2,119);stroke-width:0.92px;"/>
        </g>
        <g transform="matrix(0.998922,0.0464243,-0.0464243,0.998922,-1.19346,-13.4537)">
            <path d="M244.486,260.913C244.379,262.92 246.611,264.15 255.002,261.527C256.808,262.588 261.922,266.948 261.903,263.404" style="fill:none;stroke:rgb(41,2,119);stroke-width:0.92px;"/>
        </g>
    </g>
    <g transform="matrix(1.08405,0,0,1.08405,-17.1327,-30.3255)">
        <path d="M293.359,238.418C293.359,238.418 288.901,233.131 286.482,246.151C286.482,246.151 281.85,276.819 287.69,284.471C287.69,284.471 285.6,297.632 307.861,300.225C307.861,300.225 291.26,313.202 288.754,315.929C288.754,315.929 278.625,314.148 278.932,322.319C278.932,322.319 280.434,324.396 282.567,324.348C282.567,324.348 280.428,332.908 287.798,332.018C287.798,332.018 295.317,327.95 296.654,326.535C296.654,326.535 310.114,317.412 313.747,316.714C313.747,316.714 311.063,348.236 322.604,358.777C322.604,358.777 321.131,378.656 319.02,381.86C319.02,381.86 311.039,378.844 312.949,388.522C312.949,388.522 314.067,394.75 321.358,390.885C321.358,390.885 329.312,395.799 332.893,390.105C332.893,390.105 334.85,380.051 335.662,378.038C335.662,378.038 337.144,380.269 342.585,380.523C342.585,380.523 350.816,393.118 358.459,383.873C358.459,383.873 366.34,372.736 369.994,365.996C369.994,365.996 376.548,353.328 374.027,342.456C374.027,342.456 386.365,322.768 376.144,277.734C376.144,277.734 369.301,259.285 374.484,246.301C374.484,246.301 376.472,237.342 370.426,238.882C370.426,238.882 366.435,240.52 364.094,244.64C364.094,244.64 361.918,234.182 358.13,235.603C358.13,235.603 353.907,236.235 354.665,240.644C354.665,240.644 349.12,236.235 347.639,243.656C347.639,243.656 348.242,249.568 348.049,250.091L343.764,253.699C343.764,253.699 329.461,232.927 303.991,247.097L293.359,238.418ZM349.662,359.467L339.136,365.386C339.136,365.386 344.707,369.03 345.449,369.767L349.662,359.467ZM360.625,269.66L353.483,291.041L366.283,318.814C366.283,318.814 368.515,290.566 360.625,269.66Z" style="fill:rgb(247,237,192);"/>
        <path d="M340.121,363.5C340.121,363.5 348.84,359.011 350.444,358.952C350.444,358.952 354.562,342.92 346.225,322.91C345.556,321.306 342.151,317.263 340.529,316.094C337.699,314.055 326.222,312.006 321.763,322.247C320.459,325.241 319.494,342.41 328.963,355.686C328.963,355.686 334.614,363.285 340.121,363.5Z" style="fill:rgb(230,215,147);"/>
        <g transform="matrix(0.922463,0,0,0.922463,15.8043,27.9741)">
            <path d="M375.78,238.573C375.78,238.573 381.056,226.606 386.65,228.239C386.65,228.239 394.507,229.803 387.378,245.276C387.378,245.276 386.035,262.203 391.103,275.193L378.055,277.826L373.6,257.981C373.6,257.981 375.992,242.54 375.78,238.573Z" style="fill:rgb(171,139,96);"/>
        </g>
        <g transform="matrix(0.922463,0,0,0.922463,15.8043,27.9741)">
            <path d="M303.195,306.926L295.214,312.899C295.214,312.899 281.091,313.014 287.889,322.212C287.889,322.212 289.384,336.576 302.675,322.898L311.174,313.24C310.476,309.822 306.831,307.097 303.195,306.926Z" style="fill:rgb(171,139,96);"/>
        </g>
        <path d="M309.791,279.824C309.791,279.824 308.314,270.012 298.705,271.487C298.705,271.487 296.161,271.532 293.409,274.562C293.409,274.562 293.319,263.498 293.959,258.668C293.959,258.668 294.535,246.116 291.344,247.307C291.344,247.307 286.771,247.694 285.693,248.506C285.693,248.506 285.31,237.228 292.008,237.429C292.008,237.429 297.604,236.063 302.476,248.309C302.476,248.309 322.271,234.742 343.243,253.24C343.243,253.24 346.604,250.818 347.512,250.341C347.512,250.341 350.871,252.171 349.834,258.606C349.834,258.606 344.648,277.795 343.562,280.692C343.562,280.692 336.15,270.06 324.968,270.411C324.968,270.411 313.752,270.154 309.791,279.824Z" style="fill:rgb(171,139,96);"/>
        <g transform="matrix(1,0,0,1,-14.4177,-1.32685)">
            <path d="M302.829,324.238C302.829,324.238 295.983,324.239 296.372,329.537C296.372,329.537 297.188,337.553 308.49,328.631C308.49,328.631 323.995,319.608 328.223,318.253" style="fill:none;stroke:rgb(41,2,119);stroke-width:2.77px;"/>
        </g>
        <g transform="matrix(1,0,0,1,-14.4177,-1.32685)">
            <path d="M357.428,254.36C354.746,246.969 330.999,245.581 323.594,247.477C319.789,248.452 305.64,248.759 307.623,282.158C307.623,282.158 299.081,286.617 304.867,294.39C307.597,298.059 315.148,301.312 328.262,301.116" style="fill:none;stroke:rgb(41,2,119);stroke-width:2.77px;"/>
        </g>
        <g transform="matrix(1,0,0,1,-14.4177,-1.32685)">
            <path d="M316.132,249.822C316.132,249.822 309.04,237.342 304.576,239.178C304.576,239.178 298.679,237.497 299.539,279.862C299.539,279.862 299.096,284.551 302.728,285.579" style="fill:none;stroke:rgb(41,2,119);stroke-width:2.77px;"/>
        </g>
        <g transform="matrix(0.593074,0.0344976,-0.0406419,0.698704,137.44,63.8837)">
            <rect x="295.651" y="209.496" width="91.318" height="43.828" style="fill:rgb(248,220,171);"/>
            <clipPath id="_clip7">
                <rect x="295.651" y="209.496" width="91.318" height="43.828"/>
            </clipPath>
            <g clip-path="url(#_clip7)">
                <g transform="matrix(-1.53551,0.195971,0.230875,1.30337,500.415,-31.8133)">
                    <path d="M94.73,182.103L139.825,175.416L138.467,164.496L154.979,156.305L161.083,155.542L144.737,163.406L146.19,174.775L159.382,173.065L173.18,166.467L173.959,171.514L160.323,178.734L146.835,180.723L149.316,198.461L143.676,199.448L141.007,181.521L95.861,188.295L94.73,182.103Z" style="fill:rgb(161,210,255);"/>
                </g>
            </g>
        </g>
        <g transform="matrix(0.922463,0,0,0.922463,15.8043,27.9741)">
            <path d="M359.59,240.816L354.296,248.294L361.089,251.58L362.322,246.23L359.59,240.816Z" style="fill:rgb(171,139,96);"/>
        </g>
        <g transform="matrix(1,0,0,1,-14.4177,-1.32685)">
            <path d="M355.835,261.425C355.835,261.425 357.336,253.965 362.356,250.877" style="fill:rgb(171,139,96);fill-opacity:0;stroke:rgb(41,2,119);stroke-width:2.77px;"/>
        </g>
        <g transform="matrix(0.922463,0,0,0.922463,15.8043,27.9741)">
            <path d="M366.907,228.086C366.907,228.086 355.491,224.712 362.322,247.587L363.921,258.586C363.921,258.586 368.803,263.582 373.6,258.6C373.6,258.6 380.695,214.428 366.907,228.086Z" style="fill:rgb(171,139,96);"/>
        </g>
        <g transform="matrix(1,0,0,1,-14.4177,-1.32685)">
            <path d="M353.31,294.714C353.31,294.714 361.699,276.418 363.728,256.731C363.728,256.731 358.629,239.522 367.028,239.847" style="fill:none;stroke:rgb(41,2,119);stroke-width:2.77px;"/>
        </g>
        <g transform="matrix(1,0,0,1,-14.4177,-1.32685)">
            <path d="M369.237,248.095C369.237,248.095 366.803,237.576 371.741,237.026C371.741,237.026 377.03,236.19 377.05,251.543C377.05,251.543 375.182,271.586 367.995,293.073C367.995,293.073 381.202,322.291 387.287,342.169C387.287,342.169 391.975,350.904 383.401,367.624C381.43,371.468 377.526,378.106 373.835,382.169C373.835,382.169 372.041,390.141 364.996,387.754C364.996,387.754 358.516,387.249 355.536,381.416C354.381,379.155 355.323,370.163 362.131,372.359C362.131,372.359 364.781,374.003 365.457,376.726" style="fill:none;stroke:rgb(41,2,119);stroke-width:2.77px;"/>
        </g>
        <g transform="matrix(1,0,0,1,-14.4177,-1.32685)">
            <path d="M356.199,382.638C356.199,382.638 346.455,381.145 350.446,372.454C351.58,369.987 354.293,366.351 359.094,371.734" style="fill:none;stroke:rgb(41,2,119);stroke-width:2.77px;"/>
        </g>
        <g transform="matrix(1,0,0,1,-14.4177,-1.32685)">
            <path d="M360.056,371.417C360.056,371.417 365.492,366.338 363.85,354.984" style="fill:none;stroke:rgb(41,2,119);stroke-width:2.77px;"/>
        </g>
        <g transform="matrix(1,0,0,1,-14.4177,-1.32685)">
            <path d="M349.493,379.218C349.493,379.218 348.515,381.941 347.622,389.483C347.622,389.483 347.664,393.631 342.919,393.992C342.919,393.992 330.343,396.64 334.075,385.897C334.075,385.897 336.211,381.525 340.035,384.375" style="fill:none;stroke:rgb(41,2,119);stroke-width:2.77px;"/>
        </g>
        <g transform="matrix(1,0,0,1,-14.4177,-1.32685)">
            <path d="M335.204,393.638C335.204,393.638 323.934,396.492 327.092,385.681C327.681,383.665 330.293,381.62 334.184,384.29" style="fill:none;stroke:rgb(41,2,119);stroke-width:2.77px;"/>
        </g>
        <g transform="matrix(1,0,0,1,-14.4177,-1.32685)">
            <path d="M352.829,368.722C352.829,368.722 355.434,363.03 362.762,362.03" style="fill:none;stroke:rgb(41,2,119);stroke-width:2.77px;"/>
        </g>
        <g transform="matrix(1,0,0,1,-14.4177,-1.32685)">
            <path d="M333.24,382.712C333.24,382.712 336.305,373.778 336.966,360.962C336.966,360.962 326.058,348.951 329.1,313.444" style="fill:none;stroke:rgb(41,2,119);stroke-width:2.77px;"/>
        </g>
        <g transform="matrix(1,0,0,1,-14.4177,-1.32685)">
            <path d="M324.102,301.315C324.102,301.315 306.207,314.927 302.572,317.977C302.572,317.977 294.896,316.992 293.816,322.386C293.816,322.386 293.437,325.213 296.071,326.247" style="fill:none;stroke:rgb(41,2,119);stroke-width:2.77px;"/>
        </g>
        <g transform="matrix(1,0,0,1,-14.4177,-1.32685)">
            <path d="M388.334,342.399C388.334,342.399 398.395,333.877 390.883,284.027C389.987,278.079 384.228,259.971 388.308,252.346C388.308,252.346 391.998,244.363 388.478,241.281C386.315,239.388 380.338,238.583 377.238,249.952" style="fill:none;stroke:rgb(41,2,119);stroke-width:2.77px;"/>
        </g>
        <g transform="matrix(1,0,0,1,-14.4177,-1.32685)">
            <path d="M375.11,264.997C375.11,264.997 376.772,275.191 380.131,291.449C381.982,300.408 382.087,310.394 381.351,323.685" style="fill:none;stroke:rgb(41,2,119);stroke-width:2.77px;"/>
        </g>
        <g transform="matrix(1.03387,0,0,1.06329,-30.5529,-17.1149)">
            <ellipse cx="343.86" cy="275.088" rx="9.802" ry="4.865" style="fill:white;stroke:rgb(41,2,119);stroke-width:0.88px;"/>
        </g>
        <g transform="matrix(0.674694,0,0,0.870548,68.3233,35.9125)">
            <ellipse cx="343.86" cy="275.088" rx="9.802" ry="4.865" style="fill:white;stroke:rgb(41,2,119);stroke-width:1.18px;"/>
        </g>
        <g transform="matrix(0.896718,0,0,1.08909,18.2696,-26.8062)">
            <ellipse cx="339.264" cy="276.707" rx="5.06" ry="2.148" style="fill:rgb(41,2,119);"/>
        </g>
        <g transform="matrix(0.614426,0,0,0.798266,90.3655,53.8761)">
            <ellipse cx="339.264" cy="276.707" rx="5.06" ry="2.148" style="fill:rgb(41,2,119);"/>
        </g>
        <g transform="matrix(0.659401,0,0,0.555494,86.7437,127.175)">
            <ellipse cx="339.264" cy="276.707" rx="5.06" ry="2.148" style="fill:rgb(41,2,119);"/>
        </g>
        <g transform="matrix(0.97795,0,0,0.972522,-7.35479,6.4058)">
            <path d="M320.31,274.119C320.31,274.119 323.685,275.9 324.612,281.41C324.612,281.41 325.964,276.379 331.131,273.65" style="fill:none;stroke:rgb(41,2,119);stroke-width:0.95px;"/>
        </g>
        <g transform="matrix(1,0,0,1,-14.4177,-1.32685)">
            <path d="M319.572,286.204C321.627,285.825 323.242,284.675 324.484,282.873C325.575,284.883 327.529,286.286 330.498,286.974" style="fill:none;stroke:rgb(41,2,119);stroke-width:0.92px;"/>
        </g>
        <g transform="matrix(1,0,0,1,-14.4177,-1.32685)">
            <path d="M345.959,272.846C345.959,272.846 355.238,276.125 357.775,282.348" style="fill:none;stroke:rgb(41,2,119);stroke-width:0.92px;"/>
        </g>
        <path d="M291.895,247.338C291.895,247.338 294.354,244.314 293.91,262.203" style="fill:none;stroke:rgb(41,2,119);stroke-width:0.92px;"/>
        <g transform="matrix(0.738718,0,0,1,69.4341,-1.27931)">
            <path d="M300.771,216.989L299.089,245.349L315.487,252.361L317.903,221.738L300.771,216.989Z" style="fill:rgb(242,207,146);"/>
            <clipPath id="_clip8">
                <path d="M300.771,216.989L299.089,245.349L315.487,252.361L317.903,221.738L300.771,216.989Z"/>
            </clipPath>
            <g clip-path="url(#_clip8)">
                <g transform="matrix(-1.24355,0.0839546,0.113649,0.918634,495.563,60.198)">
                    <path d="M94.73,182.103L139.825,175.416L138.467,164.496L154.979,156.305L161.083,155.542L144.737,163.406L146.19,174.775L159.382,173.065L173.18,166.467L173.959,171.514L160.323,178.734L146.835,180.723L149.316,198.461L143.676,199.448L141.007,181.521L95.861,188.295L94.73,182.103Z" style="fill:rgb(161,210,255);"/>
                </g>
            </g>
        </g>
        <g transform="matrix(1,0,0,1,-14.4177,-1.32685)">
            <path d="M306.037,217.037L355.115,220.621L372.848,224.937L318.696,221.789L306.037,217.037Z" style="fill:rgb(255,238,208);"/>
            <clipPath id="_clip9">
                <path d="M306.037,217.037L355.115,220.621L372.848,224.937L318.696,221.789L306.037,217.037Z"/>
            </clipPath>
            <g clip-path="url(#_clip9)">
                <g transform="matrix(-0.918634,0.0839546,0.0839546,0.918634,449.934,60.2456)">
                    <path d="M94.73,182.103L139.825,175.416L138.467,164.496L154.979,156.305L161.083,155.542L144.737,163.406L146.19,174.775L159.382,173.065L173.18,166.467L173.959,171.514L160.323,178.734L146.835,180.723L149.316,198.461L143.676,199.448L141.007,181.521L95.861,188.295L94.73,182.103Z" style="fill:rgb(161,210,255);"/>
                </g>
            </g>
        </g>
    </g>
</svg>
