<?xml version="1.0" encoding="UTF-8" standalone="no"?>
<!DOCTYPE svg PUBLIC "-//W3C//DTD SVG 1.1//EN" "http://www.w3.org/Graphics/SVG/1.1/DTD/svg11.dtd">
<svg width="100%" height="100%" viewBox="0 0 400 400" version="1.1" xmlns="http://www.w3.org/2000/svg" xmlns:xlink="http://www.w3.org/1999/xlink" xml:space="preserve" xmlns:serif="http://www.serif.com/" style="fill-rule:evenodd;clip-rule:evenodd;stroke-linecap:round;stroke-linejoin:round;stroke-miterlimit:1.5;">
    <g transform="matrix(0.851192,0,0,0.851192,-93.7625,59.534)">
        <g transform="matrix(0.902371,0,0,0.902371,167.114,81.6444)">
            <path d="M133.075,80.222C133.075,80.222 120.297,42.432 97.449,63.772C97.449,63.772 70.843,82.124 75.057,155.303C75.057,155.303 81.786,183.465 109.843,184.536C109.843,184.536 126.114,203.837 137.24,207.453C137.24,207.453 102.532,250.208 119.551,288.16C119.551,288.16 108.271,330.518 108.561,352.833L290.197,352.799C290.197,352.799 286.2,302.556 280.852,285.823C279.09,280.309 299.239,266.991 264.09,206.804C262.773,204.549 281.86,195.593 290.107,183.573C290.107,183.573 317.94,190.302 325.6,150.205C325.6,150.205 335.782,62.083 289.118,57.257C289.118,57.257 275.972,63.628 270.244,82.36C270.244,82.36 239.042,45.448 197.604,47.58C197.604,47.58 167.808,47.253 133.075,80.222Z" style="fill:rgb(247,241,219);"/>
        </g>
        <g transform="matrix(0.83562,0,0,0.83562,177.904,65.752)">
            <path d="M202.145,296.726C191.12,296.659 172.704,300.728 172.606,302.757C172.606,302.757 163.386,309.171 153.886,309.856C153.886,309.856 151.285,338.363 133.42,337.247C133.42,337.247 124.555,373.533 123.188,400L281.32,400.037C281.32,400.037 278.991,358.648 272.793,337.202C272.793,337.202 255.487,342.35 251.611,309.567C251.611,309.567 235.986,310.044 231.83,301.192C231.83,301.192 212.679,296.79 202.145,296.726Z" style="fill:rgb(228,219,184);"/>
        </g>
        <g transform="matrix(0.902371,0,0,0.902371,153.697,81.1053)">
            <path d="M117.516,139.179C117.516,139.179 132.981,80.365 179.616,57.413C179.616,57.413 195.507,48.189 215.062,47.633C215.062,47.633 236.892,47.893 259.932,61.115C266.698,64.998 307.864,97.977 311.292,139.577C311.292,139.577 288.543,103.164 258.378,103.319C258.378,103.319 234.942,104.094 227.465,129.652C227.465,129.652 224.7,142.145 213.789,141.469C213.789,141.469 204.102,142.728 199.612,129.533C199.612,129.533 192.204,102.042 166.367,103.609C166.367,103.609 139.298,103.884 117.516,139.179Z" style="fill:rgb(170,154,133);"/>
        </g>
        <g transform="matrix(0.902371,0,0,0.902371,167.88,82.5588)">
            <path d="M71.627,149.477C85.384,187.299 110.431,182.781 110.431,182.781C113.364,194.894 132.156,205.379 132.156,205.379L130.08,215.047C122.611,226.775 113.059,261.736 113.059,261.736C113.059,261.736 106.142,177.184 78.156,177.395C78.156,177.395 53.594,173.647 62.741,216.474C62.741,216.474 69.004,238.984 53.533,241.676C53.533,241.676 38.543,246.809 33.639,218.501C33.639,218.501 20.787,166.158 49.339,153.063C49.109,152.013 71.131,148.114 71.627,149.477Z" style="fill:rgb(170,154,133);"/>
        </g>
        <g transform="matrix(0.83562,0,0,0.83562,176.626,71.6235)">
            <path d="M203.702,198.522C203.702,198.522 195.541,203.194 193.202,203.6C193.202,203.6 195.441,219.629 204.868,219.203C204.868,219.203 212.923,219.341 215.715,203.812C215.715,203.812 206.338,201.048 203.702,198.522Z" style="fill:rgb(244,172,216);"/>
        </g>
        <g transform="matrix(0.902371,0,0,0.902371,167.114,81.6444)">
            <path d="M136.569,208.668C136.569,208.668 120.146,230.006 115.529,251.282C113.361,261.272 111.927,279.736 122.746,289.019C134.068,298.732 153.737,294.677 153.477,270.879" style="fill:none;stroke:rgb(41,2,119);stroke-width:5.6px;"/>
        </g>
        <g transform="matrix(-0.902371,0,0,0.902371,527.704,81.7252)">
            <path d="M136.569,208.668C136.569,208.668 120.146,230.006 115.529,251.282C113.361,261.272 111.927,279.736 122.746,289.019C134.068,298.732 153.737,294.677 153.477,270.879" style="fill:none;stroke:rgb(41,2,119);stroke-width:5.6px;"/>
        </g>
        <g transform="matrix(1.3153,0,0,1.51921,43.3626,-134.495)">
            <path d="M286.767,312.042C290.113,325.538 292.675,343.022 293.16,351.824" style="fill:none;stroke:rgb(41,2,119);stroke-width:3.55px;"/>
        </g>
        <g transform="matrix(0.902371,0,0,0.902371,167.114,81.6444)">
            <path d="M119.551,288.16C119.551,288.16 113.589,306.624 108.561,352.799" style="fill:none;stroke:rgb(41,2,119);stroke-width:5.6px;"/>
        </g>
        <g transform="matrix(0.902371,0,0,0.902371,167.88,82.5588)">
            <path d="M113.059,261.736C113.059,261.736 106.142,177.184 78.156,177.395C78.156,177.395 53.594,173.647 62.741,216.474C62.741,216.474 69.004,238.984 53.533,241.676C53.533,241.676 38.543,246.809 33.639,218.501C33.639,218.501 20.787,166.158 49.339,153.063C49.339,153.063 60.986,147.755 71.627,149.477" style="fill:none;stroke:rgb(41,2,119);stroke-width:5.6px;"/>
        </g>
        <g transform="matrix(0.902371,0,0,0.902371,167.114,81.6444)">
            <path d="M252.585,212.314C277.065,200.352 296.282,183.729 298.266,153.962C301.017,112.685 258.276,46.858 200.07,46.808C146.18,46.761 96.1,112.073 101.58,155.979C105.53,187.62 124.601,203.638 145.601,211.336" style="fill:none;stroke:rgb(41,2,119);stroke-width:5.6px;"/>
        </g>
        <g transform="matrix(0.902371,0,0,0.902371,167.114,81.6444)">
            <path d="M131.308,80.405C131.917,73.23 122.94,57.253 109.002,57.206C79.571,57.106 45.512,181.806 109.67,184.074" style="fill:none;stroke:rgb(41,2,119);stroke-width:5.6px;"/>
        </g>
        <g transform="matrix(-0.902371,0,0,0.902371,530.307,81.6444)">
            <path d="M132.103,81.997C129.211,74.1 125.606,56.469 108.665,57.23C74.879,58.746 52.923,190.379 112.315,183.142" style="fill:none;stroke:rgb(41,2,119);stroke-width:5.6px;"/>
        </g>
        <g>
            <g transform="matrix(0.735868,0.424853,-0.41781,0.723668,214.642,-40.538)">
                <rect x="306.937" y="244.285" width="33.331" height="67.387" style="fill:rgb(29,161,66);"/>
                <g transform="matrix(1,0,0,1,0.819588,0.0119357)">
                    <path d="M322.2,260.762L322.328,293.818" style="fill:none;stroke:white;stroke-width:2.79px;"/>
                </g>
                <g transform="matrix(1,0,0,1,4.22702,0.0389017)">
                    <path d="M322.2,260.762L322.328,293.818" style="fill:none;stroke:white;stroke-width:2.79px;"/>
                </g>
                <path d="M331.059,270.517C331.276,267.782 329.558,264.081 325.28,263.741C322.189,263.496 318.263,265.59 318.353,270.264C318.435,274.479 319.856,276.678 325.435,276.641C329.534,276.614 331.317,279.636 331.344,283.787C331.365,286.867 329.039,290.386 325.481,290.409C322.051,290.432 318.18,288.831 318.147,283.782" style="fill:none;stroke:white;stroke-width:2.79px;"/>
            </g>
            <g transform="matrix(0.820754,0.21992,-0.216274,0.807147,125.786,3.10543)">
                <rect x="306.937" y="244.285" width="33.331" height="67.387" style="fill:rgb(36,183,77);"/>
                <g transform="matrix(1,0,0,1,0.819588,0.0119357)">
                    <path d="M322.2,260.762L322.328,293.818" style="fill:none;stroke:white;stroke-width:2.79px;"/>
                </g>
                <g transform="matrix(1,0,0,1,4.22702,0.0389017)">
                    <path d="M322.2,260.762L322.328,293.818" style="fill:none;stroke:white;stroke-width:2.79px;"/>
                </g>
                <path d="M331.059,270.517C331.276,267.782 329.558,264.081 325.28,263.741C322.189,263.496 318.263,265.59 318.353,270.264C318.435,274.479 319.856,276.678 325.435,276.641C329.534,276.614 331.317,279.636 331.344,283.787C331.365,286.867 329.039,290.386 325.481,290.409C322.051,290.432 318.18,288.831 318.147,283.782" style="fill:none;stroke:white;stroke-width:2.79px;"/>
            </g>
            <g transform="matrix(0.849368,0.0239859,-0.0235882,0.835287,56.9595,64.0372)">
                <rect x="306.937" y="244.285" width="33.331" height="67.387" style="fill:rgb(49,205,93);"/>
                <g transform="matrix(1,0,0,1,0.819588,0.0119357)">
                    <path d="M322.2,260.762L322.328,293.818" style="fill:none;stroke:white;stroke-width:2.79px;"/>
                </g>
                <g transform="matrix(1,0,0,1,4.22702,0.0389017)">
                    <path d="M322.2,260.762L322.328,293.818" style="fill:none;stroke:white;stroke-width:2.79px;"/>
                </g>
                <path d="M331.059,270.517C331.276,267.782 329.558,264.081 325.28,263.741C322.189,263.496 318.263,265.59 318.353,270.264C318.435,274.479 319.856,276.678 325.435,276.641C329.534,276.614 331.317,279.636 331.344,283.787C331.365,286.867 329.039,290.386 325.481,290.409C322.051,290.432 318.18,288.831 318.147,283.782" style="fill:none;stroke:white;stroke-width:2.79px;"/>
            </g>
            <g transform="matrix(0.6812,0.411027,-0.435073,0.721052,266.592,-25.0141)">
                <rect x="306.937" y="244.285" width="33.331" height="67.387" style="fill:rgb(49,205,93);"/>
                <g transform="matrix(1,0,0,1,0.819588,0.0119357)">
                    <path d="M322.2,260.762L322.328,293.818" style="fill:none;stroke:white;stroke-width:2.87px;"/>
                </g>
                <g transform="matrix(1,0,0,1,4.22702,0.0389017)">
                    <path d="M322.2,260.762L322.328,293.818" style="fill:none;stroke:white;stroke-width:2.87px;"/>
                </g>
                <path d="M331.059,270.517C331.276,267.782 329.558,264.081 325.28,263.741C322.189,263.496 318.263,265.59 318.353,270.264C318.435,274.479 319.856,276.678 325.435,276.641C329.534,276.614 331.317,279.636 331.344,283.787C331.365,286.867 329.039,290.386 325.481,290.409C322.051,290.432 318.18,288.831 318.147,283.782" style="fill:none;stroke:white;stroke-width:2.87px;"/>
            </g>
            <g transform="matrix(0.83562,0,0,0.83562,178.646,65.752)">
                <path d="M131.117,285.323C131.117,285.323 170.805,257.568 172.041,284.133C172.041,284.133 175.461,290.69 171.798,295.75C171.798,295.75 181.139,306.064 154.266,308.909C154.266,308.909 131.545,298.053 131.117,285.323Z" style="fill:rgb(247,241,219);"/>
            </g>
            <g transform="matrix(-0.83562,0,0,0.83562,515.874,65.752)">
                <path d="M117.309,298.621C120.658,286.238 174.222,255.616 172.041,284.133C172.041,284.133 175.461,290.69 171.798,295.75C171.798,295.75 181.139,306.064 154.266,308.909C154.266,308.909 120.414,334.867 117.309,298.621Z" style="fill:rgb(247,241,219);"/>
            </g>
            <g transform="matrix(0.902371,0,0,0.902371,167.114,81.6444)">
                <path d="M154.533,257.073C154.533,257.073 172.566,249.03 173.54,257.913C174.104,263.048 170.733,265.9 154.853,268.488C154.853,268.488 150.094,276.532 141.347,275.126" style="fill:none;stroke:rgb(41,2,119);stroke-width:5.6px;"/>
            </g>
            <g transform="matrix(-0.902371,0,0,0.902371,527.704,81.7252)">
                <path d="M154.533,257.073C154.533,257.073 172.566,249.03 173.54,257.913C174.104,263.048 170.733,265.9 154.853,268.488C154.853,268.488 150.094,276.532 141.347,275.126" style="fill:none;stroke:rgb(41,2,119);stroke-width:5.6px;"/>
            </g>
            <g transform="matrix(1.1594,0,0,0.902371,132.478,81.6444)">
                <path d="M124.373,258.423C126.69,251.734 131.735,247.149 134.828,244.904C156.902,228.878 166.083,234.555 163.915,246.259" style="fill:none;stroke:rgb(41,2,119);stroke-width:5.6px;"/>
            </g>
            <g transform="matrix(-1.1594,0,0,0.902371,562.34,81.7252)">
                <path d="M124.373,258.423C126.69,251.734 131.735,247.149 134.828,244.904C156.902,228.878 166.083,234.555 163.915,246.259" style="fill:none;stroke:rgb(41,2,119);stroke-width:5.6px;"/>
            </g>
            <g transform="matrix(0.902371,0,0,0.902371,167.114,81.6444)">
                <path d="M153.843,247.876C153.843,247.876 175.932,237.859 172.725,253.162" style="fill:none;stroke:rgb(41,2,119);stroke-width:5.6px;"/>
            </g>
            <g transform="matrix(-0.902371,0,0,0.902371,527.704,81.7252)">
                <path d="M153.843,247.876C153.843,247.876 175.932,237.859 172.725,253.162" style="fill:none;stroke:rgb(41,2,119);stroke-width:5.6px;"/>
            </g>
        </g>
        <g transform="matrix(0.902371,0,0,0.902371,167.114,81.6444)">
            <circle cx="152.339" cy="136.537" r="33.28" style="fill:white;stroke:rgb(41,2,119);stroke-width:2.24px;"/>
        </g>
        <g transform="matrix(0.902371,0,0,0.902371,167.114,81.6444)">
            <ellipse cx="245.378" cy="136.599" rx="33.342" ry="33.28" style="fill:white;stroke:rgb(41,2,119);stroke-width:2.24px;"/>
        </g>
        <g transform="matrix(0.902371,0,0,0.902371,167.114,81.6444)">
            <ellipse cx="155.597" cy="134.697" rx="4.181" ry="4.306" style="fill:rgb(41,2,119);"/>
        </g>
        <g transform="matrix(0.902371,0,0,0.902371,167.114,81.6444)">
            <ellipse cx="239.687" cy="134.697" rx="4.181" ry="4.306" style="fill:rgb(41,2,119);"/>
        </g>
        <g transform="matrix(1.51725,0,0,0.902371,43.9452,81.5987)">
            <path d="M200.944,162.483C204.248,164.298 206.193,167.115 205.284,168.769C204.375,170.424 200.954,170.293 197.65,168.478C194.346,166.662 192.401,163.845 193.31,162.191C194.219,160.537 197.64,160.667 200.944,162.483Z" style="fill:rgb(41,2,119);"/>
        </g>
        <g transform="matrix(1.24766,0,0,0.451186,99.5538,158.163)">
            <path d="M179.073,185.104C183.365,199.822 198.463,176.127 198.463,176.127C198.463,176.127 214.785,202.682 219.012,184.831" style="fill:none;stroke:rgb(41,2,119);stroke-width:2.15px;"/>
        </g>
        <g transform="matrix(0.902371,0,0,0.902371,167.114,81.6444)">
            <path d="M300.517,80.564C290.386,78.279 288.433,101.195 289.378,111.527" style="fill:none;stroke:rgb(41,2,119);stroke-width:2.24px;"/>
        </g>
        <g transform="matrix(0.902371,0,0,0.902371,167.114,81.6444)">
            <path d="M102.262,80.405C111.028,81.02 112.922,99.145 111.481,109.244" style="fill:none;stroke:rgb(41,2,119);stroke-width:2.24px;"/>
        </g>
        <g transform="matrix(0.902371,0,0,1.2422,167.114,38.9173)">
            <path d="M183.986,125.977C186.03,131.034 188.2,136.775 199.021,136.73C209.385,136.687 211.978,131.037 213.855,125.732" style="fill:none;stroke:rgb(41,2,119);stroke-width:1.54px;"/>
        </g>
        <g transform="matrix(0.902371,0,0,0.902371,167.114,81.6444)">
            <path d="M102.09,140.513C102.09,140.513 112.759,115.212 138.177,106.443" style="fill:none;stroke:rgb(41,2,119);stroke-width:2.24px;"/>
        </g>
        <g transform="matrix(0.902371,0,0,0.902371,167.114,81.6444)">
            <path d="M298.292,142.095C298.292,142.095 287.187,116.454 258.903,106.15" style="fill:none;stroke:rgb(41,2,119);stroke-width:2.24px;"/>
        </g>
        <g transform="matrix(0.83562,0,0,0.83562,176.626,71.6235)">
            <path d="M193.256,204.035C195.448,212.806 198.741,218.944 204.619,218.939C210.595,218.934 213.464,212.721 215.565,204.386" style="fill:none;stroke:rgb(41,2,119);stroke-width:2.81px;"/>
        </g>
    </g>
</svg>
