<?xml version="1.0" encoding="UTF-8" standalone="no"?>
<!DOCTYPE svg PUBLIC "-//W3C//DTD SVG 1.1//EN" "http://www.w3.org/Graphics/SVG/1.1/DTD/svg11.dtd">
<svg width="100%" height="100%" viewBox="0 0 400 400" version="1.1" xmlns="http://www.w3.org/2000/svg" xmlns:xlink="http://www.w3.org/1999/xlink" xml:space="preserve" xmlns:serif="http://www.serif.com/" style="fill-rule:evenodd;clip-rule:evenodd;stroke-linecap:round;stroke-linejoin:round;stroke-miterlimit:1.5;">
    <g transform="matrix(0.860079,0,0,0.860079,7.08135,293.123)">
        <g transform="matrix(1.02049,0,0,1.02049,23.3484,-256.797)">
            <path d="M131.553,150.494C131.553,150.494 103.686,119.432 97.085,125.726C97.085,125.726 78.079,154.444 106.824,229.446C106.824,229.446 116.329,252.321 138.812,247.323C138.812,247.323 140.29,261.463 158.17,265.92C158.17,265.92 139.113,353.628 144.283,373.412L268.842,373.188C270.472,343.818 267.805,314.016 264.134,284.113C264.134,284.113 285.651,256.068 284.39,211.839C284.39,211.839 302.117,156.489 283.995,111.735C283.995,111.735 281.423,98.794 270.355,113.328L252.46,138.561C252.46,138.561 241.181,118.198 190.575,122.347C190.575,122.347 153.99,121.658 131.553,150.494Z" style="fill:rgb(247,237,192);"/>
        </g>
        <g transform="matrix(1,0,0,1,62.5396,-145.445)">
            <path d="M54.16,52.359C54.16,52.359 51.91,21.452 60.911,17.022C60.911,17.022 65.153,13.652 95.301,41.76C95.301,41.76 105.747,20.373 156.971,13.259C156.971,13.259 192.367,9.266 218.4,29.979C218.4,29.979 234.048,1.799 244.878,-2.839C244.878,-2.839 256.402,-3.18 258.176,36.505C251.423,34.497 241.83,23.613 231.934,59.218C231.934,59.218 233.337,76.42 231.4,84.539C231.4,84.539 230.966,101.826 226.187,111.085C226.187,111.085 206.332,95.989 188.297,100.745C188.297,100.745 167.182,103.295 164.45,122.477C164.45,122.477 152.852,97.41 131.33,100.517C131.33,100.517 116.784,98.521 103.452,125.468C103.452,125.468 90.114,105.718 85.666,85.131C85.666,85.131 81.707,60.419 66.369,51.982C66.369,51.982 59.745,50.719 54.16,52.359Z" style="fill:rgb(171,139,96);"/>
        </g>
        <g transform="matrix(0.715866,-0.0694341,0.0720576,0.742915,54.9649,-249.959)">
            <path d="M201.146,178.746C134.363,179.909 110.954,215.088 106.046,245.199C103.265,262.258 105.482,294.443 121.044,318.309C121.044,318.309 112.847,341.715 127.047,357.882C127.047,357.882 139.564,372.482 200,372.88C200,372.88 277.902,374.83 289.739,356.068C289.739,356.068 301.83,340.862 294.971,316.347C294.971,316.347 307.886,293.482 308.399,247.588C308.779,213.606 281.403,177.349 201.146,178.746Z" style="fill:none;stroke:rgb(41,2,119);stroke-width:7.93px;"/>
        </g>
        <g transform="matrix(-0.776264,0.0445834,0.040303,0.701736,380.208,-260.541)">
            <path d="M298.021,205.267C298.021,205.267 330.754,166.39 338.346,165.691C360.921,163.612 359.993,357.94 296.287,346.865" style="fill:none;stroke:rgb(41,2,119);stroke-width:7.84px;"/>
        </g>
        <g transform="matrix(0.724156,-0.0738385,0.0717069,0.703251,53.2911,-237.851)">
            <path d="M295.142,203.729C295.142,203.729 327.389,160.55 335.02,161.537C351.197,163.63 358.933,253.065 324.355,328.732" style="fill:none;stroke:rgb(41,2,119);stroke-width:8.1px;"/>
        </g>
        <g transform="matrix(1.02049,0,0,1.02049,17.5236,-256.797)">
            <path d="M154.449,319.565C154.449,319.565 145.456,360.201 149.003,373.412" style="fill:none;stroke:rgb(41,2,119);stroke-width:5.7px;"/>
        </g>
        <g transform="matrix(1.02049,0,1.41621e-17,0.876055,23.3484,-225.276)">
            <path d="M148.262,218.243C148.262,218.243 148.454,198.821 167.437,197.095C167.437,197.095 189.578,194.438 189.86,216.177C189.86,216.177 184.776,206.736 169.186,207.482C169.186,207.482 157.896,205.759 148.262,218.243Z" style="fill:rgb(224,161,142);"/>
        </g>
        <g transform="matrix(-1.02049,1.24974e-16,-1.39136e-16,-1.02049,368.398,193.988)">
            <path d="M148.262,218.243C148.262,218.243 149.66,200.913 169.061,200.523C169.061,200.523 188.048,199.393 189.86,216.177C189.86,216.177 184.65,205.262 169.061,206.009C169.061,206.009 157.896,205.759 148.262,218.243Z" style="fill:rgb(224,161,142);"/>
        </g>
        <g transform="matrix(0.691912,-0.0671108,0.0863295,0.890058,60.3539,-299.507)">
            <ellipse cx="156.937" cy="313.834" rx="29.891" ry="16.243" style="fill:white;stroke:rgb(41,2,119);stroke-width:2.9px;"/>
        </g>
        <g transform="matrix(1.02049,0,0,1.02049,25.8378,-251.183)">
            <path d="M146.513,265.436C146.513,265.436 138.038,237.342 148.423,235.726C148.423,235.726 156.654,233.474 156.131,249.54C156.131,249.54 158.282,234.177 166.622,235.726C175.523,237.378 170.206,248.268 169.219,251.04C169.219,251.04 175.018,249.318 177.128,254.092C177.128,254.092 180.641,260.424 169.219,272.77C169.219,272.77 168.503,319.009 146.513,313.328C146.513,313.328 117.964,307.147 146.513,265.436Z" style="fill:rgb(247,237,192);"/>
        </g>
        <g transform="matrix(1.02049,0,0,1.02049,28.1863,-217.603)">
            <path d="M133.867,261.542C132.874,253.462 138.132,243.144 144.211,232.53C144.211,232.53 136.689,204.447 149.43,202.644C149.43,202.644 154.445,203.099 155.972,209.641C155.972,209.641 158.534,200.544 164.409,202.059C164.409,202.059 171.925,201.928 167.93,217.961C167.93,217.961 179.872,220.738 168.994,239.666C168.994,239.666 164.806,259.551 161.482,265.939C156.804,274.931 138.834,274.251 133.867,261.542Z" style="fill:rgb(171,139,96);"/>
        </g>
        <g transform="matrix(1.02049,0,0,1.02049,28.1863,-217.603)">
            <path d="M155.787,211.347C155.787,211.347 157.576,200.897 164.143,201.941C169.388,202.774 170.009,209.068 167.644,217.779C167.644,217.779 182.371,219.453 168.03,239.441C168.03,239.441 168.948,278.151 145.776,278.343C139.63,278.394 122.8,269.445 143.148,233.173C143.148,233.173 136.642,202.716 148.956,202.253C153.013,202.1 155.747,205.175 156.137,216.948" style="fill:none;stroke:rgb(41,2,119);stroke-width:5.7px;"/>
        </g>
        <g transform="matrix(1.02049,0,0,1.02049,18.5851,-254.921)">
            <path d="M246.646,254.934C246.646,254.934 254.044,230.184 252.091,216.584C252.091,216.584 242.164,212.481 229.454,201.536C229.454,201.536 209.25,218.333 207.685,204.134C207.685,204.134 199.931,203.016 200,197.029C200,197.029 187.387,205.499 183.705,197.584C183.705,197.584 181.39,186.04 219.907,175.663C226.814,173.802 249.219,174.03 280.351,201.542C283.839,204.625 297.845,217.033 269.529,282.351C269.529,282.351 277.417,352.537 274.856,371.573" style="fill:rgb(247,237,192);"/>
        </g>
        <g transform="matrix(1.02049,0,0,1.02049,28.1863,-217.603)">
            <path d="M216.914,138.902C216.914,138.902 179.265,141.226 174.784,160.442C174.784,160.442 175.983,168.43 189.862,162.042C189.862,162.042 190.436,166.603 196.303,167.051C196.303,167.051 201.587,176.161 209.478,172.616C209.478,172.616 224.917,164.237 225.808,163.614C225.808,163.614 243.541,168.726 255.98,173.074C266.406,176.718 272.906,163.232 267.402,160.981C267.402,160.981 236.186,136.325 216.914,138.902Z" style="fill:rgb(171,139,96);"/>
        </g>
        <g transform="matrix(1.02049,0,0,1.02049,18.5851,-254.921)">
            <path d="M246.646,254.934C246.646,254.934 254.038,230.324 252.084,216.724C252.084,216.724 242.56,212.305 229.851,201.361C229.851,201.361 209.25,218.333 207.685,204.134C207.685,204.134 199.931,203.016 200,197.029C200,197.029 188.291,205.266 184.035,199.343C180.735,194.751 183.512,185.908 214.515,177.448C221.416,175.565 246.222,170.879 277.354,198.391C280.842,201.474 300.926,216.76 269.529,282.351C269.529,282.351 277.417,352.537 274.856,371.573" style="fill:none;stroke:rgb(41,2,119);stroke-width:5.7px;"/>
        </g>
        <g transform="matrix(0.715866,-0.0694341,0.0902458,0.930435,47.2079,-318.162)">
            <ellipse cx="208.579" cy="333.407" rx="11.893" ry="3.33" style="fill:rgb(41,2,119);"/>
        </g>
        <g transform="matrix(1.40304,-0.136085,0.0828836,0.85453,-71.4376,-278.391)">
            <ellipse cx="172.717" cy="314.752" rx="6.278" ry="5.517" style="fill:rgb(41,2,119);"/>
        </g>
        <g transform="matrix(0.267688,0.0978735,-0.122971,0.336331,179.97,-95.3464)">
            <path d="M140.237,191.597C140.238,191.665 140.238,191.733 140.238,191.8C140.238,205.527 124.385,216.672 104.858,216.672C85.331,216.672 69.477,205.527 69.477,191.8C69.477,191.733 69.478,191.665 69.479,191.597L140.237,191.597Z" style="fill:rgb(220,229,248);stroke:rgb(41,2,119);stroke-width:7.19px;"/>
        </g>
        <g transform="matrix(1.02049,0,0,1.02049,23.3484,-256.797)">
            <path d="M229.587,207.728C229.587,207.728 223.765,204.941 210.987,211.566" style="fill:none;stroke:rgb(41,2,119);stroke-width:2.28px;"/>
        </g>
        <g transform="matrix(0.715866,-0.0694341,0.0720576,0.742915,54.9649,-249.959)">
            <path d="M146.019,296.415C146.019,296.415 128.812,306.451 120.947,323.688" style="fill:none;stroke:rgb(41,2,119);stroke-width:3.17px;"/>
        </g>
        <g transform="matrix(0.715866,-0.0694341,0.0720576,0.742915,54.9649,-249.959)">
            <path d="M183.766,295.402C183.766,295.402 199.731,303.685 206.826,323.546C206.826,323.546 211.963,309.541 226.299,302.462" style="fill:none;stroke:rgb(41,2,119);stroke-width:3.17px;"/>
        </g>
        <g transform="matrix(0.439077,-0.0249508,0.0476347,0.838262,128.079,-212.373)">
            <circle cx="200.038" cy="250.483" r="7.587" style="fill:rgb(224,161,142);stroke:rgb(41,2,119);stroke-width:3.47px;"/>
        </g>
        <g transform="matrix(1.0225,0.0214173,0.0214173,1.24838,17.672,-317.197)">
            <path d="M199.524,234.481L200,239.548" style="fill:none;stroke:rgb(41,2,119);stroke-width:2px;"/>
        </g>
        <g transform="matrix(0.943093,-0.0914736,0.0939681,0.968811,10.1883,-300.512)">
            <path d="M293.779,222.667C293.779,222.667 286.583,219.914 276.827,249.228" style="fill:none;stroke:rgb(41,2,119);stroke-width:2.42px;"/>
        </g>
        <g transform="matrix(0.943093,-0.0914736,0.0939681,0.968811,10.1883,-300.512)">
            <path d="M103.467,223.373C103.467,223.373 115.09,222.256 121.481,263.818" style="fill:none;stroke:rgb(41,2,119);stroke-width:2.42px;"/>
        </g>
        <g transform="matrix(1.02049,0,0,1.02049,23.3484,-256.797)">
            <path d="M207.745,219.976C209.362,224.622 216.444,226.181 226.729,225.101C232.037,224.543 242.974,221.713 243.336,215.138" style="fill:none;stroke:rgb(41,2,119);stroke-width:2.28px;"/>
        </g>
    </g>
</svg>
