<?xml version="1.0" encoding="UTF-8" standalone="no"?>
<!DOCTYPE svg PUBLIC "-//W3C//DTD SVG 1.1//EN" "http://www.w3.org/Graphics/SVG/1.1/DTD/svg11.dtd">
<svg width="100%" height="100%" viewBox="0 0 400 400" version="1.1" xmlns="http://www.w3.org/2000/svg" xmlns:xlink="http://www.w3.org/1999/xlink" xml:space="preserve" xmlns:serif="http://www.serif.com/" style="fill-rule:evenodd;clip-rule:evenodd;stroke-linecap:round;stroke-linejoin:round;stroke-miterlimit:1.5;">
    <g transform="matrix(0.994146,-0.174771,0.174771,0.994146,-38.1879,-105.274)">
        <g transform="matrix(0.984896,0.173145,-0.173145,0.984896,41.5733,115.058)">
            <path d="M143.497,39.43C143.497,39.43 98.509,43.368 78.285,80.39L63.62,93.601C63.62,93.601 41.454,61.153 28.734,70.782C28.734,70.782 17.878,74.346 22.474,89.827C22.474,89.827 3.353,82.006 4.258,97.605C4.258,97.605 -0.954,139.976 78.826,170.704C88.531,189.406 97.776,201.525 106.89,204.906C106.89,204.906 83.327,330.919 81.09,394.451L263.919,394.604L233.7,191.754C233.7,191.754 260.007,169.794 263.049,147.621C263.049,147.621 266.516,141.512 256.222,116.373C256.222,116.373 281.249,34.077 260.857,17.091C260.857,17.091 250.794,10.535 241.493,17.483C241.493,17.483 235.751,-1.522 226.023,8.242C226.023,8.242 212.037,12.347 215.397,47.29C215.397,47.29 178.115,32.432 143.497,39.43Z" style="fill:rgb(252,251,233);"/>
        </g>
        <g transform="matrix(0.975732,0.171534,-0.171534,0.975732,19.2031,109.27)">
            <path d="M241.298,265.342C241.298,265.342 213.313,273.548 202.009,283.514L210.82,295.32C210.82,295.32 237.789,287.546 245.471,285.811L241.298,265.342Z" style="fill:rgb(242,222,201);"/>
        </g>
        <g transform="matrix(0.975732,0.171534,-0.171534,0.975732,19.2031,109.27)">
            <path d="M160.605,329.937C160.605,329.937 154.476,373.018 155.942,400.155L289.649,400C289.649,400 283.459,352.624 282.788,344.522L257.682,340.164L255.593,333.126C255.593,333.126 217.684,358.439 200.326,353.59C200.326,353.59 172.159,347.415 160.605,329.937Z" style="fill:rgb(242,222,201);"/>
        </g>
        <g transform="matrix(0.975732,0.171534,-0.171534,0.975732,19.2031,109.27)">
            <path d="M41.992,135.121C41.992,135.121 41.426,107.244 80.398,89.281C80.398,89.281 48.299,48.24 44.794,91.325C44.794,91.325 2.769,83.778 41.992,135.121Z" style="fill:rgb(176,147,127);"/>
        </g>
        <g transform="matrix(0.975732,0.171534,-0.171534,0.975732,19.2031,109.27)">
            <path d="M239.319,37.381C238.377,24.216 256.027,-8.482 267.816,20.611C267.816,20.611 297.469,-3.331 293.645,56.62C293.645,56.62 279.073,33.342 239.319,37.381Z" style="fill:rgb(176,147,127);"/>
        </g>
        <g transform="matrix(0.837576,0.147246,-0.147246,0.837576,42.1643,117.04)">
            <path d="M90.044,127.262C90.044,127.262 103.368,154.622 98.471,167.979L123.711,174.169C123.711,174.169 110.775,144.497 132.38,136.4C132.38,136.4 169.824,123.619 191.642,159.533L235.839,147.379C235.839,147.379 237.694,119.014 263.214,112.612C263.214,112.612 277.653,111.404 281.848,130.958L290.02,114.225C290.02,114.225 265.065,54.885 245.398,50.253C245.398,50.253 214.774,30.207 164.95,45.068C164.95,45.068 133.617,48.521 113.809,63.342C113.809,63.342 84.061,80.135 90.044,127.262Z" style="fill:rgb(176,147,127);"/>
        </g>
        <g transform="matrix(0.28753,0,0,0.28753,-18.3873,-78.2969)">
            <path d="M409.11,1012.75C498.261,881.478 696.853,890.544 768.473,896.073C858.142,902.995 973.183,958.897 997.235,1178.69C997.235,1178.69 1038.12,1274.1 1020.45,1339.95C1020.45,1339.95 973.938,1449.57 777.574,1530.61C777.574,1530.61 496.037,1508.03 417.571,1409.1C406.084,1394.62 391.073,1351.99 372.895,1304.69" style="fill:none;stroke:rgb(41,2,119);stroke-width:17.23px;"/>
        </g>
        <g transform="matrix(0.28753,0,0,0.28753,-33.3277,-82.6969)">
            <path d="M1067.28,917.771C1067.28,917.771 1025.29,961.432 1030.83,1102.89" style="fill:none;stroke:rgb(41,2,119);stroke-width:6.89px;"/>
        </g>
        <g transform="matrix(0.28753,0,0,0.28753,-18.3873,-78.2969)">
            <path d="M918.749,964.448C918.749,964.448 919.39,847.362 985.988,835.359C1002.03,832.467 1027.33,842.633 1024.89,877.862C1024.89,877.862 1115.66,847.945 1106.7,938.785C1106.7,938.785 1086.23,1102.95 1016.22,1222.07" style="fill:none;stroke:rgb(41,2,119);stroke-width:17.23px;"/>
        </g>
        <g transform="matrix(0.28753,0,0,0.28753,-28.3923,-87.6968)">
            <path d="M410.473,1335.03C344.531,1311.5 250.465,1212.46 211.978,1137.91C162.907,1042.87 217.801,980.564 267.357,1025.91C248.365,975.72 321.503,922.648 367.38,1001.14C384.413,1030.29 421.609,1100.08 441.166,1132.74" style="fill:none;stroke:rgb(41,2,119);stroke-width:17.23px;"/>
        </g>
        <g transform="matrix(0.300642,0,0,0.299742,-20.3194,-95.1995)">
            <path d="M467.033,1256.97C455.498,1240.9 458.463,1159.45 513.249,1154.08C629.958,1142.62 673.025,1254.09 663.909,1267.94C652.939,1284.6 483.486,1279.88 467.033,1256.97Z" style="fill:white;stroke:rgb(41,2,119);stroke-width:6.6px;"/>
        </g>
        <g transform="matrix(0.28753,-1.59611e-17,0,0.254224,-17.8775,-36.9685)">
            <path d="M819.426,1249.18C819.426,1249.18 806.564,1112.02 917.159,1108.02C956.415,1106.59 970.204,1192.99 959.874,1210.37C948.244,1229.94 866.729,1256.01 819.426,1249.18Z" style="fill:white;stroke:rgb(41,2,119);stroke-width:7.3px;"/>
        </g>
        <g transform="matrix(0.306182,3.75998e-17,-7.13e-18,0.254904,31.0339,-47.0035)">
            <ellipse cx="660.312" cy="1223.68" rx="20.279" ry="39.97" style="fill:rgb(41,2,119);"/>
        </g>
        <g transform="matrix(0.363525,1.00898e-17,1.60231e-17,0.288646,-89.2767,-83.039)">
            <ellipse cx="660.312" cy="1223.68" rx="20.279" ry="39.97" style="fill:rgb(41,2,119);"/>
        </g>
        <g transform="matrix(0.28753,0,0,0.28753,-16.8189,-79.2299)">
            <path d="M760.744,1299.22C760.744,1299.22 770.226,1445.84 770.614,1445.76" style="fill:none;stroke:rgb(41,2,119);stroke-width:6.89px;"/>
        </g>
        <g transform="matrix(-0.363607,0.0398855,-0.0466856,-0.425598,530.929,754.655)">
            <path d="M757.721,1148.02C757.721,1148.02 774.581,1159.81 786.847,1168.38C788.737,1169.7 789.451,1171.9 788.63,1173.86C787.809,1175.83 785.631,1177.14 783.188,1177.14C769.793,1177.14 750.696,1177.14 736.294,1177.14C733.243,1177.14 730.521,1175.5 729.495,1173.04C728.469,1170.59 729.361,1167.85 731.722,1166.2C743.537,1157.94 757.721,1148.02 757.721,1148.02Z" style="fill:rgb(41,2,119);"/>
        </g>
        <g transform="matrix(0.28753,6.93889e-18,-6.93889e-18,0.28753,-33.3277,-82.6969)">
            <path d="M1016.5,1222.69C1016.5,1222.69 1047.84,1181.58 1048.94,1178.08" style="fill-opacity:0;stroke:rgb(41,2,119);stroke-width:6.89px;"/>
        </g>
        <g transform="matrix(0.238922,0.00233727,0.00239425,0.27254,6.14503,-65.988)">
            <path d="M712.551,1259.19L871.968,1243.94" style="fill:none;stroke:rgb(41,2,119);stroke-width:7.66px;"/>
        </g>
        <g transform="matrix(0.837576,0.147246,-0.147246,0.837576,42.1643,117.04)">
            <path d="M76.395,106.933C76.395,106.933 105.037,78.113 127.384,72.636C127.384,72.636 156.146,60.391 190.533,54.128C215.916,49.504 245.581,49.054 262.718,54.478C267.363,59.26 270.817,63.837 271.629,67.958C272.104,70.369 271.675,72.624 270.051,74.673C270.051,74.673 214.732,71.968 176.421,82.96C176.421,82.96 109.516,101.061 90.101,124.599L76.395,106.933Z" style="fill:rgb(239,199,201);"/>
        </g>
        <g transform="matrix(0.28753,0,0,0.28753,-33.3277,-82.6969)">
            <path d="M311.625,1034.13C311.625,1034.13 369.746,1044.96 463.464,1234.11C463.464,1234.11 514.785,1257.82 533.729,1267.82" style="fill:none;stroke:rgb(41,2,119);stroke-width:6.89px;"/>
        </g>
        <g transform="matrix(0.984896,0.173145,-0.173145,0.984896,40.6587,114.394)">
            <path d="M77.591,108.307C77.591,108.307 111.931,78.979 158.174,70.324C158.174,70.324 202.759,60.524 232.35,65.992" style="fill:none;stroke:rgb(41,2,119);stroke-width:4.95px;"/>
        </g>
        <g transform="matrix(0.968929,0.247341,-0.247341,0.968929,64.8408,99.308)">
            <path d="M137.419,56.186C137.419,56.186 135.403,39.522 125.048,36.627C125.048,36.627 136.831,34.404 143.674,47.607C143.674,47.607 147.103,33.135 137.788,26.72C137.788,26.72 151.44,29.474 155.158,44.704C155.158,44.704 159.708,33.394 154.347,25C154.347,25 171.634,35.995 163.639,51.205" style="fill:rgb(176,147,127);stroke:rgb(41,2,119);stroke-width:1.98px;"/>
        </g>
        <g transform="matrix(0.984896,0.173145,-0.173145,0.984896,40.6587,114.394)">
            <path d="M65.71,94.951C65.71,94.951 100.066,53.251 172.577,46.62C172.577,46.62 231.563,31.993 233.536,65.398" style="fill:none;stroke:rgb(41,2,119);stroke-width:4.95px;"/>
        </g>
        <g transform="matrix(0.00750472,0.946642,-0.880563,0.0654936,385.145,145.102)">
            <path d="M41.976,211.442C41.976,211.442 50.187,228.942 56.424,242.235C57.851,245.279 57.607,249.017 55.782,252.047C53.957,255.077 50.827,256.942 47.565,256.942C43.044,256.942 38.098,256.942 33.514,256.942C29.961,256.942 26.791,254.94 25.163,251.668C23.534,248.396 23.685,244.331 25.56,240.96C32.851,227.85 41.976,211.442 41.976,211.442Z" style="fill:rgb(239,199,201);stroke:rgb(41,2,119);stroke-width:5.24px;"/>
        </g>
        <g transform="matrix(0.0389043,-0.991654,0.745916,-0.013577,40.5027,242.581)">
            <path d="M41.148,210.97C41.148,210.97 48.346,225.892 54.54,238.733C56.25,242.279 56.282,246.91 54.622,250.754C52.963,254.598 49.886,257.018 46.637,257.037C42.449,257.061 37.931,257.086 33.66,257.111C30.059,257.131 26.864,254.483 25.37,250.239C23.875,245.996 24.329,240.861 26.548,236.918C33.537,224.496 41.148,210.97 41.148,210.97Z" style="fill:rgb(239,199,201);stroke:rgb(41,2,119);stroke-width:5.49px;"/>
        </g>
        <g transform="matrix(0.903269,0.0532612,-0.106712,0.988974,184.269,-47.7199)">
            <rect x="36.075" y="238.116" width="19.09" height="19.09" style="fill:rgb(239,199,201);stroke:rgb(41,2,119);stroke-width:5.34px;"/>
        </g>
        <g transform="matrix(0.984896,0.173145,-0.173145,0.984896,40.6587,114.394)">
            <path d="M107.206,206.148C107.206,206.148 82.886,343.606 82.106,395.099" style="fill:none;stroke:rgb(41,2,119);stroke-width:4.95px;"/>
        </g>
        <g transform="matrix(0.984896,0.173145,-0.173145,0.984896,40.6587,114.394)">
            <path d="M254.538,320.196C254.538,320.196 263.727,375.59 264.935,395.099" style="fill:none;stroke:rgb(41,2,119);stroke-width:4.95px;"/>
        </g>
        <g transform="matrix(0.975732,0.171534,-0.171534,0.975732,19.2031,109.27)">
            <path d="M273.904,238.468C273.904,238.468 277.412,172.536 304.33,169.779C304.33,169.779 345.149,165.237 346.244,192.991C346.244,192.991 348.639,231.266 329.209,230.213C329.209,230.213 321.135,238.398 315.161,246.959L273.904,238.468Z" style="fill:rgb(252,251,233);"/>
        </g>
        <g transform="matrix(0.975732,0.171534,-0.171534,0.975732,19.2031,109.27)">
            <path d="M289.761,193.099C289.761,193.099 298.371,205.768 311.351,197.666C311.351,197.666 320.477,205.527 329.258,199.742C329.258,199.742 338.082,207.608 346.142,200.607C346.142,200.607 346.856,239.774 322.591,225.3C322.591,225.3 315.096,233.325 304.427,223.129C304.427,223.129 280.14,237.575 289.761,193.099Z" style="fill:rgb(176,147,127);"/>
        </g>
        <g transform="matrix(0.314236,0.0552427,-0.11122,0.63265,179.26,207.058)">
            <path d="M259.917,196.928C259.917,196.928 274.091,239.83 279.557,261.888" style="fill:none;stroke:rgb(41,2,119);stroke-width:9.77px;"/>
        </g>
        <g transform="matrix(0.975732,0.171534,-0.171534,0.975732,19.2031,109.27)">
            <path d="M330.209,229.077C330.209,229.077 327.299,235.103 322.684,238.099" style="fill:none;stroke:rgb(41,2,119);stroke-width:5px;"/>
        </g>
        <g transform="matrix(0.975732,0.171534,-0.171534,0.975732,19.2031,109.27)">
            <path d="M290.6,192.555C286.563,211.83 286.553,223.228 296.389,225.127C306.519,227.082 308.753,215.494 310.829,198.277" style="fill:none;stroke:rgb(41,2,119);stroke-width:5px;"/>
        </g>
        <g transform="matrix(0.975732,0.171534,-0.171534,0.975732,19.2031,109.27)">
            <path d="M305.532,224.803C317.937,232.193 327.544,227.759 328.682,198.855" style="fill:none;stroke:rgb(41,2,119);stroke-width:5px;"/>
        </g>
        <g transform="matrix(0.975732,0.171534,-0.171534,0.975732,35.9206,113.14)">
            <path d="M305.532,224.803C317.937,232.193 327.544,227.759 328.682,198.855C328.682,198.855 334.372,170.037 298.113,168.625C279.991,167.919 266.714,171.774 261.21,210.165L256.612,237.71" style="fill:none;stroke:rgb(41,2,119);stroke-width:5px;"/>
        </g>
        <g transform="matrix(1.38643,0.134413,-0.0951666,0.981613,-169.067,104.973)">
            <path d="M353.014,252.342C331.557,258.908 310.51,258.25 289.322,252.342L297.549,347.395C312.311,353.613 330.077,354.087 343.468,347.335L353.014,252.342Z" style="fill:rgb(209,209,209);"/>
        </g>
        <g transform="matrix(0.975732,0.171534,-0.171534,0.975732,19.2031,109.27)">
            <path d="M256.383,252.635L270.739,342.892" style="fill:none;stroke:rgb(181,181,181);stroke-width:2px;"/>
        </g>
        <g transform="matrix(0.975732,0.171534,-0.171534,0.975732,21.8659,109.738)">
            <path d="M279.154,252.635L286.92,342.892" style="fill:none;stroke:rgb(181,181,181);stroke-width:2px;"/>
        </g>
        <g transform="matrix(0.975747,0.171447,-0.166526,0.946736,22.4119,117.273)">
            <path d="M301.967,248.081L302.251,342.892" style="fill:none;stroke:rgb(181,181,181);stroke-width:2.03px;"/>
        </g>
        <g transform="matrix(1.38643,0.134413,-0.0951666,0.981613,-169.067,104.973)">
            <path d="M353.014,252.342C331.557,258.908 310.51,258.25 289.322,252.342L297.549,347.395C312.311,353.613 330.077,354.087 343.468,347.335L353.014,252.342Z" style="fill:none;stroke:rgb(41,2,119);stroke-width:4.1px;"/>
        </g>
        <g transform="matrix(0.983208,0.0953213,-0.0955989,0.986072,-25.6523,118.106)">
            <ellipse cx="307.131" cy="251.918" rx="44.965" ry="5.364" style="fill:rgb(162,162,162);stroke:rgb(41,2,119);stroke-width:5.01px;"/>
        </g>
        <g transform="matrix(-0.350225,0.0745298,-0.11225,-0.527477,312.441,485.773)">
            <path d="M140.237,191.597C140.238,191.665 140.238,191.733 140.238,191.8C140.238,205.527 124.385,216.672 104.858,216.672C85.331,216.672 69.477,205.527 69.477,191.8C69.477,191.733 69.478,191.665 69.479,191.597L140.237,191.597Z" style="fill:rgb(220,229,248);stroke:rgb(41,2,119);stroke-width:4.33px;"/>
        </g>
        <g transform="matrix(0.975732,0.171534,-0.171534,0.975732,19.2031,109.27)">
            <path d="M193.743,305.21C193.743,305.21 230.833,287.185 256.171,284.341C256.171,284.341 334.658,248.115 334.78,286.066C334.78,286.066 338.056,293.071 335.993,299.904C335.993,299.904 346.113,321.342 264.107,325.592C264.107,325.592 231.391,356.508 200.727,354.242C170.062,351.976 193.743,305.21 193.743,305.21Z" style="fill:rgb(252,251,233);"/>
        </g>
        <g transform="matrix(0.975732,0.171534,-0.171534,0.975732,19.2031,109.27)">
            <path d="M295.591,271.076C295.591,271.076 300.657,275.066 298.765,281.805C298.765,281.805 305.108,290.917 300.446,296.427C300.446,296.427 309.243,309.686 304.004,320.086C304.004,320.086 340.309,316.195 334.329,297.37C334.329,297.37 337.973,292.523 333.676,285.075C333.676,285.075 340.23,258.448 295.591,271.076Z" style="fill:rgb(176,147,127);"/>
        </g>
        <g transform="matrix(0.975732,0.171534,-0.171534,0.975732,19.2031,109.27)">
            <path d="M131.865,250.924C131.865,250.924 133.133,331.982 194.016,351.829C213.76,358.265 246.421,343.589 262.718,324.855C262.718,324.855 337.992,321.596 335.008,301.325C333.452,290.756 320.016,292.808 300.75,296.356" style="fill:none;stroke:rgb(41,2,119);stroke-width:5px;"/>
        </g>
        <g transform="matrix(0.975732,0.171534,-0.171534,0.975732,19.2031,109.27)">
            <path d="M334.718,299.001C336.678,288.921 334.139,273.653 299.114,282.073" style="fill:none;stroke:rgb(41,2,119);stroke-width:5px;"/>
        </g>
        <g transform="matrix(0.975732,0.171534,-0.171534,0.975732,20.6719,98.2164)">
            <path d="M334.718,299.001C336.678,288.921 334.139,273.653 299.114,282.073C299.114,282.073 269.962,289.286 257.684,294.755C257.684,294.755 218.818,301.631 192.857,316.677" style="fill:none;stroke:rgb(41,2,119);stroke-width:5px;"/>
        </g>
        <g transform="matrix(0.975732,0.171534,-0.171534,0.975732,19.2031,109.27)">
            <path d="M197.991,263.737C198.802,276.992 205.247,289.957 210.206,295.961" style="fill:none;stroke:rgb(41,2,119);stroke-width:5px;"/>
        </g>
        <g transform="matrix(0.975732,0.171534,-0.171534,0.975732,19.2031,109.27)">
            <path d="M172.858,173.698C178.466,189.093 199.722,200.571 223.181,193.802C244.633,187.612 253.573,169.792 250.098,153.687" style="fill:none;stroke:rgb(41,2,119);stroke-width:2px;"/>
        </g>
    </g>
</svg>
