<?xml version="1.0" encoding="UTF-8" standalone="no"?>
<!DOCTYPE svg PUBLIC "-//W3C//DTD SVG 1.1//EN" "http://www.w3.org/Graphics/SVG/1.1/DTD/svg11.dtd">
<svg width="100%" height="100%" viewBox="0 0 400 400" version="1.1" xmlns="http://www.w3.org/2000/svg" xmlns:xlink="http://www.w3.org/1999/xlink" xml:space="preserve" xmlns:serif="http://www.serif.com/" style="fill-rule:evenodd;clip-rule:evenodd;stroke-linecap:round;stroke-linejoin:round;stroke-miterlimit:1.5;">
    <g transform="matrix(1,0,0,1,43.0526,41.6175)">
        <g transform="matrix(1,0,0,1,-27.6611,-64.0549)">
            <path d="M384.609,187.543C384.609,187.543 310.811,198.128 280.183,213.267C280.183,213.267 226.515,193.444 231.879,220.062C231.879,220.062 226.405,226.126 231.879,233.941C231.879,233.941 217.826,244.323 241.706,249.059C241.706,249.059 305.025,256.627 384.609,238.033L384.609,187.543Z" style="fill:rgb(247,241,219);"/>
            <path d="M384.609,187.543C384.609,187.543 306.23,202.941 280.742,213.374C253.292,202.323 224.567,203.296 233.561,220.062" style="fill:none;stroke:rgb(41,2,119);stroke-width:5px;"/>
            <path d="M384.609,238.191C280.879,258.005 228.874,252.292 227.838,240.133C227.1,231.477 237.26,231.506 247.535,232.093" style="fill:none;stroke:rgb(41,2,119);stroke-width:5px;"/>
            <path d="M231.793,231.872C227.148,226.328 227.294,217.032 250.113,221.034" style="fill:none;stroke:rgb(41,2,119);stroke-width:5px;"/>
        </g>
        <g transform="matrix(3.03405,0,0,2.71764,-611.318,-692.962)">
            <g transform="matrix(0.968613,0,0,0.813156,15.351,58.9936)">
                <rect x="208.78" y="313.144" width="66.31" height="54.296" style="fill:rgb(248,220,171);"/>
            </g>
            <g transform="matrix(0.103552,0,0,0.813156,219.426,58.9937)">
                <rect x="208.78" y="313.144" width="66.31" height="54.296" style="fill:rgb(161,210,255);"/>
            </g>
            <g transform="matrix(0.968613,0,0,0.262445,15.351,217.196)">
                <path d="M290.322,313.144L224.726,314.149L208.78,367.44L275.09,367.44L290.322,313.144Z" style="fill:rgb(255,238,208);"/>
            </g>
            <g transform="matrix(0.0449008,0,0,0.262445,238.025,217.196)">
                <path d="M509.769,313.591L376.355,313.71L67.26,367.44L220.467,367.44L509.769,313.591Z" style="fill:rgb(161,210,255);"/>
            </g>
            <g transform="matrix(0.886104,0,0,0.0479864,37.9673,290.415)">
                <path d="M284.903,313.144L212.886,313.791L208.275,390.626L280.57,388.582L284.903,313.144Z" style="fill:rgb(161,210,255);"/>
            </g>
            <g transform="matrix(0.2225,0,0,0.813156,235.353,58.9937)">
                <path d="M275.09,295.62L208.78,313.144L208.78,367.44L275.09,346.87L275.09,295.62Z" style="fill:rgb(242,207,146);"/>
            </g>
            <g transform="matrix(0.0529239,0,0,0.813156,275.862,57.6674)">
                <path d="M272.84,304.707L201.981,309.153L207.531,362.048L275.095,357.067L272.84,304.707Z" style="fill:rgb(161,210,255);"/>
            </g>
        </g>
        <g transform="matrix(1,0,0,1,-27.6611,11.8456)">
            <path d="M384.609,188.154C384.609,188.154 310.811,198.128 280.183,213.267C280.183,213.267 226.515,193.444 231.879,220.062C231.879,220.062 226.405,226.126 231.879,233.941C231.879,233.941 217.826,244.323 241.706,249.059C241.706,249.059 305.025,256.627 384.609,238.033L384.609,188.154Z" style="fill:rgb(247,241,219);"/>
            <path d="M384.609,188.154C384.609,188.154 306.23,202.941 280.742,213.374C253.292,202.323 224.567,203.296 233.561,220.062" style="fill:none;stroke:rgb(41,2,119);stroke-width:5px;"/>
            <path d="M384.609,238.191C280.879,258.005 228.874,252.292 227.838,240.133C227.1,231.477 237.26,231.506 247.535,232.093" style="fill:none;stroke:rgb(41,2,119);stroke-width:5px;"/>
            <path d="M231.793,231.872C227.148,226.328 227.294,217.032 250.113,221.034" style="fill:none;stroke:rgb(41,2,119);stroke-width:5px;"/>
        </g>
    </g>
    <g transform="matrix(1,0,0,1,-8.9063,21.2273)">
        <path d="M97.022,121.878C98.529,130.892 99.661,140.132 105.962,146.276C99.448,152.455 98.182,161.492 97.022,170.674C96.36,161.564 95.272,152.586 88.082,146.276C94.337,140.956 96.103,131.78 97.022,121.878Z" style="fill:rgb(255,213,71);"/>
    </g>
    <g transform="matrix(1,0,0,1,46.7521,-27.5686)">
        <path d="M97.022,121.878C98.529,130.892 99.661,140.132 105.962,146.276C99.448,152.455 98.182,161.492 97.022,170.674C96.36,161.564 95.272,152.586 88.082,146.276C94.337,140.956 96.103,131.78 97.022,121.878Z" style="fill:rgb(255,213,71);"/>
    </g>
    <g transform="matrix(0.5,0,0,0.574104,26.1951,116.023)">
        <path d="M97.022,121.878C98.529,130.892 99.661,140.132 105.962,146.276C99.448,152.455 98.182,161.492 97.022,170.674C96.36,161.564 95.272,152.586 88.082,146.276C94.337,140.956 96.103,131.78 97.022,121.878Z" style="fill:rgb(255,213,71);"/>
    </g>
    <g transform="matrix(0.5,0,0,0.574104,235.767,45.1207)">
        <path d="M97.022,121.878C98.529,130.892 99.661,140.132 105.962,146.276C99.448,152.455 98.182,161.492 97.022,170.674C96.36,161.564 95.272,152.586 88.082,146.276C94.337,140.956 96.103,131.78 97.022,121.878Z" style="fill:rgb(255,213,71);"/>
    </g>
    <g transform="matrix(1.00528,0,0,0.861155,64.1669,17.1389)">
        <path d="M97.022,121.878C98.529,130.892 99.661,140.132 105.962,146.276C99.448,152.455 98.182,161.492 97.022,170.674C96.36,161.564 95.272,152.586 88.082,146.276C94.337,140.956 96.103,131.78 97.022,121.878Z" style="fill:rgb(255,213,71);"/>
    </g>
    <g transform="matrix(1.00528,0,0,0.861155,173.287,27.3792)">
        <path d="M97.022,121.878C98.529,130.892 99.661,140.132 105.962,146.276C99.448,152.455 98.182,161.492 97.022,170.674C96.36,161.564 95.272,152.586 88.082,146.276C94.337,140.956 96.103,131.78 97.022,121.878Z" style="fill:rgb(255,213,71);"/>
    </g>
</svg>
