<svg width="17" height="16" viewBox="0 0 17 16" fill="none" xmlns="http://www.w3.org/2000/svg">
<g clip-path="url(#clip0_2139_14950)">
<path d="M15.132 8.44141H7V16.0014H15.132V8.44141Z" fill="#F8DCAB"/>
<path fill-rule="evenodd" clip-rule="evenodd" d="M17 6L8.95556 6.04516L7 8.43999H15.132L17 6Z" fill="#FFEED0"/>
<path fill-rule="evenodd" clip-rule="evenodd" d="M16.993 6L15.125 8.44V16L16.993 13.1359V6Z" fill="#F2CF92"/>
<path d="M10.8381 8.44141H9.96875V16.0014H10.8381V8.44141Z" fill="#A1D2FF"/>
<path fill-rule="evenodd" clip-rule="evenodd" d="M12.4844 6.01953L11.7259 6.02488L9.96875 8.43944H10.8397L12.4844 6.01953Z" fill="#A1D2FF"/>
<path fill-rule="evenodd" clip-rule="evenodd" d="M16.2219 7.03516L8.14231 7.04047L7.625 7.67181L15.7358 7.65501L16.2219 7.03516Z" fill="#A1D2FF"/>
<path fill-rule="evenodd" clip-rule="evenodd" d="M16.2053 7.03516L15.7305 7.65421L15.7677 15.0192L16.2204 14.3256L16.2053 7.03516Z" fill="#A1D2FF"/>
</g>
<path d="M11.999 5.08014C11.999 5.35628 12.2229 5.58014 12.499 5.58014C12.7752 5.58014 12.999 5.35628 12.999 5.08014H11.999ZM2.99903 12.5798L2.69898 12.9798C2.91983 13.1454 3.23318 13.1008 3.39892 12.8799L2.99903 12.5798ZM1.30005 10.6802C1.07916 10.5144 0.765754 10.5592 0.600039 10.7801C0.434325 11.001 0.479055 11.3144 0.699947 11.4801L1.30005 10.6802ZM4.89989 10.8802C5.06566 10.6594 5.021 10.346 4.80015 10.1802C4.5793 10.0144 4.26588 10.0591 4.10011 10.2799L4.89989 10.8802ZM12.999 5.08014C12.999 1.94857 9.76009 -0.0971725 6.87272 0.658992C5.39495 1.046 4.03216 2.14762 3.18141 4.10749C2.33601 6.05504 1.99651 8.84231 2.50341 12.6458L3.49465 12.5137C3.00204 8.81744 3.35027 6.22987 4.09872 4.50568C4.84181 2.7938 5.97895 1.92678 7.12607 1.62637C9.48846 1.00769 11.999 2.71195 11.999 5.08014H12.999ZM3.29908 12.1798L1.30005 10.6802L0.699947 11.4801L2.69898 12.9798L3.29908 12.1798ZM3.39892 12.8799L4.89989 10.8802L4.10011 10.2799L2.59914 12.2796L3.39892 12.8799Z" fill="#373737"/>
<defs>
<clipPath id="clip0_2139_14950">
<rect width="10" height="10" fill="white" transform="translate(7 6)"/>
</clipPath>
</defs>
</svg>
