<svg width="16" height="16" viewBox="0 0 16 16" fill="none" xmlns="http://www.w3.org/2000/svg">
<circle cx="8" cy="8" r="7.75" fill="white" stroke="#373737" stroke-width="0.5"/>
<path d="M6.08398 4.66699C6.08398 4.25278 5.7482 3.91699 5.33398 3.91699C4.91977 3.91699 4.58398 4.25278 4.58398 4.66699H6.08398ZM4.58398 11.3337C4.58398 11.7479 4.91977 12.0837 5.33398 12.0837C5.7482 12.0837 6.08398 11.7479 6.08398 11.3337H4.58398ZM4.58398 4.66699V8.00033H6.08398V4.66699H4.58398ZM4.58398 8.00033V11.3337H6.08398V8.00033H4.58398Z" fill="#373737"/>
<path d="M11.416 4.66699C11.416 4.25278 11.0802 3.91699 10.666 3.91699C10.2518 3.91699 9.91602 4.25278 9.91602 4.66699H11.416ZM9.91602 11.3337C9.91602 11.7479 10.2518 12.0837 10.666 12.0837C11.0802 12.0837 11.416 11.7479 11.416 11.3337H9.91602ZM9.91602 4.66699V8.00033H11.416V4.66699H9.91602ZM9.91602 8.00033V11.3337H11.416V8.00033H9.91602Z" fill="#373737"/>
</svg>
