<?xml version="1.0" encoding="UTF-8" standalone="no"?>
<!DOCTYPE svg PUBLIC "-//W3C//DTD SVG 1.1//EN" "http://www.w3.org/Graphics/SVG/1.1/DTD/svg11.dtd">
<svg width="100%" height="100%" viewBox="0 0 400 250" version="1.1" xmlns="http://www.w3.org/2000/svg" xmlns:xlink="http://www.w3.org/1999/xlink" xml:space="preserve" xmlns:serif="http://www.serif.com/" style="fill-rule:evenodd;clip-rule:evenodd;stroke-linecap:round;stroke-linejoin:round;stroke-miterlimit:1.5;">
    <g transform="matrix(1.13879,0,0,1.13234,10.7114,-45.4841)">
        <path d="M122.063,121.229C111.574,105.885 89.802,35.135 127.275,49.609C127.275,49.609 145.815,26.731 151.479,63.328C151.479,63.328 186.638,48.201 243.454,72.363C243.454,72.363 256.885,36.015 270.985,57.667C270.985,57.667 300.631,35.815 290.82,90.798C290.82,90.798 281.522,128.142 261.16,145.9C261.16,145.9 265.348,186.763 191.901,198.091C191.901,198.091 172.73,205.324 157.077,193.871C157.077,193.871 106.656,173.745 115.518,143.536C115.518,143.536 120.576,134.085 123.577,130.487C123.577,130.487 121.824,122.533 122.063,121.229Z" style="fill:rgb(252,251,233);"/>
        <g transform="matrix(-0.949063,0,0,1.11766,409.175,-145.208)">
            <path d="M174.414,194.675C174.414,194.675 183.199,225.518 168.204,245.798L183.049,253.515C183.049,253.515 178.622,236.654 190.933,233.249C192.646,232.775 219.382,231.054 226.951,246.912L256.169,244.491C256.169,244.491 260.979,226.945 284.901,227.872C284.901,227.872 296.317,227.853 296.276,244.546C296.276,244.546 318.754,231.654 277.861,190.054C277.861,190.054 237.788,169.573 174.414,194.675Z" style="fill:rgb(176,147,127);"/>
        </g>
        <path d="M106.602,74.68C106.602,74.68 128.448,58.915 150.585,61.865C150.585,61.865 146.726,28.579 127.818,49.327C127.818,49.327 103.173,35.264 106.602,74.68Z" style="fill:rgb(176,147,127);"/>
        <g transform="matrix(-1.05925,0,0,1,406.376,8.06271)">
            <path d="M107.855,78.875C107.855,78.875 126.705,56.935 151.901,60.441C151.901,60.441 141.018,28.976 127.808,49.311C127.808,49.311 100.797,30.184 107.855,78.875Z" style="fill:rgb(176,147,127);"/>
        </g>
        <g transform="matrix(-0.817334,0,0,0.92499,391.43,-101.027)">
            <path d="M181.218,187.107C255.758,161.661 293.283,175.692 302.129,182.875C311.166,190.213 333.778,213.258 327.754,250.754C334.206,257.496 340.75,264.566 338.985,272.662C331.843,305.406 276.565,324.583 268.025,325.302C259.461,326.024 247.466,323.648 242.626,323.183" style="fill:none;stroke:rgb(41,2,119);stroke-width:3.03px;"/>
        </g>
        <g transform="matrix(-0.76747,0,0,1.07349,376.018,-142.213)">
            <path d="M175.596,221.184C176.079,186.821 150.995,169.027 136.961,186.227C125.103,178.633 114.426,181.901 109.475,189.897C103.154,200.108 110.847,239.221 149.555,268.609C149.555,268.609 148.588,276.57 151.03,281.776" style="fill:none;stroke:rgb(41,2,119);stroke-width:2.83px;"/>
        </g>
        <g transform="matrix(-0.801596,-0.159618,-0.175099,0.879344,437.435,-52.3953)">
            <path d="M316.619,188.91C319.998,171.212 337.776,158.363 347.16,179.391C347.16,179.391 365.31,171.606 369.55,188.067C373.736,204.317 354.741,242.763 336.088,259.048" style="fill:none;stroke:rgb(41,2,119);stroke-width:3.08px;"/>
        </g>
        <g transform="matrix(-0.23301,0,0,0.176772,294.072,-20.5164)">
            <path d="M679.269,738.532C618.53,708.155 534.065,787.063 551.896,874.634C555.542,892.543 712.174,870.935 712.583,842.642C713.511,778.376 696.059,746.929 679.269,738.532Z" style="fill:white;stroke:rgb(41,2,119);stroke-width:4.25px;"/>
        </g>
        <g transform="matrix(0.248345,0.0264689,-0.0190409,0.178651,72.2161,-34.2803)">
            <path d="M683.516,738.704C622.526,725.953 549.952,764.715 553.648,872.583C554.283,891.12 722.27,889.47 723.88,853.554C728.154,758.19 696.353,741.387 683.516,738.704Z" style="fill:white;stroke:rgb(41,2,119);stroke-width:4.05px;"/>
        </g>
        <g transform="matrix(-0.567239,-0.0418992,-0.0506724,0.686013,209.062,-81.8505)">
            <ellipse cx="76.664" cy="296.307" rx="7.134" ry="10.897" style="fill:rgb(41,2,119);"/>
        </g>
        <g transform="matrix(-0.593519,-0.0653211,-0.0783892,0.712258,279.854,-83.2933)">
            <ellipse cx="76.664" cy="296.307" rx="7.134" ry="10.897" style="fill:rgb(41,2,119);"/>
        </g>
        <g transform="matrix(1.16565,0.120683,0.0704261,-1.07593,-156.041,401.583)">
            <path d="M268.663,268.661C268.663,268.661 273.866,272.805 277.126,275.402C277.495,275.695 277.658,276.207 277.533,276.672C277.407,277.137 277.02,277.45 276.572,277.45C272.793,277.45 266.486,277.45 262.835,277.45C262.384,277.45 261.969,277.146 261.792,276.685C261.615,276.223 261.713,275.701 262.038,275.372C264.604,272.773 268.663,268.661 268.663,268.661Z" style="fill:rgb(41,2,119);"/>
        </g>
        <g transform="matrix(-0.815796,-0.0221833,0.0254646,0.570974,379.987,-0.647717)">
            <path d="M257.584,261.45L261.395,312" style="fill:none;stroke:rgb(41,2,119);stroke-width:1.29px;"/>
        </g>
        <g transform="matrix(-0.852674,-0.00237557,0.00238606,0.831261,386.783,-72.9909)">
            <path d="M226.939,245.743L259.526,242.504" style="fill:none;stroke:rgb(41,2,119);stroke-width:1.05px;"/>
        </g>
        <g transform="matrix(-0.838321,0.0238552,-0.056275,2.00647,405.051,-376.375)">
            <path d="M185.244,254.224L168.802,250.073C168.802,250.073 164.292,225.118 150.005,219.308" style="fill:none;stroke:rgb(41,2,119);stroke-width:0.56px;"/>
        </g>
        <g transform="matrix(-0.873765,0,0,0.931196,415.385,-118.083)">
            <path d="M325.79,188.771C325.79,188.771 319.869,197.841 321.326,211.608" style="fill:none;stroke:rgb(41,2,119);stroke-width:0.98px;"/>
        </g>
        <path d="M123.453,122.423L127.991,128.682" style="fill:none;stroke:rgb(41,2,119);stroke-width:0.88px;"/>
        <g transform="matrix(0.996041,0.0888943,-0.0888943,0.996041,15.5366,-18.4593)">
            <path d="M175.39,175.338L181.096,182.917C177.406,179.492 173.602,179.492 169.684,182.917L175.39,175.338Z" style="fill:rgb(239,199,201);stroke:rgb(41,2,119);stroke-width:0.88px;"/>
        </g>
        <path d="M143.47,106.419C149.504,110.44 155.707,112.525 161.674,113.613" style="fill:none;stroke:rgb(41,2,119);stroke-width:0.88px;"/>
        <g transform="matrix(-0.616202,0.787588,-0.787588,-0.616202,388.451,61.461)">
            <path d="M143.47,106.419C149.504,110.44 155.707,112.525 161.674,113.613" style="fill:none;stroke:rgb(41,2,119);stroke-width:0.88px;"/>
        </g>
    </g>
    <g transform="matrix(0.149725,0.261574,-0.225727,0.127747,123.608,-34.7786)">
        <path d="M82.815,228.629C82.746,221.01 135.681,219.47 188.548,219.47C241.414,219.47 293.467,218.358 294.281,228.629C294.281,286.985 246.903,334.362 188.548,334.362C130.192,334.362 82.815,286.985 82.815,228.629Z" style="fill:rgb(195,221,254);"/>
        <path d="M82.815,228.629C82.746,221.01 135.681,219.47 188.548,219.47C241.414,219.47 293.467,218.358 294.281,228.629C294.281,286.985 246.903,334.362 188.548,334.362C130.192,334.362 82.815,286.985 82.815,228.629ZM86.14,229.823C86.503,229.615 87.029,229.335 87.506,229.151C89.553,228.365 92.471,227.7 96.106,227.109C114.883,224.058 151.74,223.325 188.564,223.325C225.379,223.325 261.798,222.757 280.613,225.937C284.333,226.565 287.313,227.32 289.385,228.302C289.968,228.579 290.66,229.094 290.958,229.324C290.576,285.4 244.702,330.507 188.531,330.507C132.537,330.507 86.777,285.671 86.14,229.823Z" style="fill:rgb(41,2,119);"/>
        <g transform="matrix(1.07065,0,0,1.18168,-20.7918,-4.14786)">
            <ellipse cx="195.525" cy="195.871" rx="98.755" ry="16.476" style="fill:rgb(118,163,221);"/>
            <path d="M195.525,179.395C250.03,179.395 294.281,186.777 294.281,195.871C294.281,204.965 250.03,212.347 195.525,212.347C141.02,212.347 96.77,204.965 96.77,195.871C96.77,186.777 141.02,179.395 195.525,179.395ZM99.949,195.884C99.995,195.816 100.05,195.74 100.098,195.685C100.407,195.335 100.823,195.001 101.324,194.662C103.023,193.515 105.529,192.448 108.718,191.423C124.991,186.188 157.782,182.657 195.54,182.657L195.54,182.657C233.297,182.657 266.086,186.187 282.358,191.422C285.543,192.446 288.047,193.511 289.744,194.657C290.242,194.994 290.655,195.325 290.961,195.673C291.006,195.723 291.057,195.794 291.101,195.858C291.055,195.926 291,196.002 290.952,196.057C290.643,196.407 290.227,196.741 289.726,197.08C288.027,198.227 285.521,199.294 282.332,200.319C266.059,205.554 233.268,209.085 195.51,209.085C157.753,209.085 124.964,205.555 108.692,200.32C105.507,199.296 103.003,198.231 101.306,197.085C100.808,196.749 100.395,196.418 100.089,196.07C100.044,196.019 99.993,195.948 99.949,195.884Z" style="fill:rgb(41,2,119);"/>
        </g>
    </g>
    <g transform="matrix(-0.230879,0.194633,-0.16796,-0.196988,444.989,112.143)">
        <path d="M82.815,228.629C82.746,221.01 135.681,219.47 188.548,219.47C241.414,219.47 293.467,218.358 294.281,228.629C294.281,286.985 246.903,334.362 188.548,334.362C130.192,334.362 82.815,286.985 82.815,228.629Z" style="fill:rgb(195,221,254);"/>
        <path d="M82.815,228.629C82.746,221.01 135.681,219.47 188.548,219.47C241.414,219.47 293.467,218.358 294.281,228.629C294.281,286.985 246.903,334.362 188.548,334.362C130.192,334.362 82.815,286.985 82.815,228.629ZM86.134,229.812C86.493,229.608 87.005,229.338 87.471,229.159C89.517,228.372 92.435,227.707 96.07,227.117C114.847,224.066 151.705,223.333 188.529,223.333C225.346,223.333 261.766,222.765 280.582,225.944C284.306,226.574 287.29,227.33 289.364,228.313C289.981,228.606 290.671,229.126 290.964,229.357C290.582,285.421 244.718,330.499 188.566,330.499C132.557,330.499 86.78,285.661 86.134,229.812Z" style="fill:rgb(41,2,119);"/>
        <g transform="matrix(1.07065,0,0,1.18168,-20.7918,-4.14786)">
            <ellipse cx="195.525" cy="195.871" rx="98.755" ry="16.476" style="fill:rgb(118,163,221);"/>
            <path d="M195.525,179.395C250.03,179.395 294.281,186.777 294.281,195.871C294.281,204.965 250.03,212.347 195.525,212.347C141.02,212.347 96.77,204.965 96.77,195.871C96.77,186.777 141.02,179.395 195.525,179.395ZM99.947,195.856C99.989,195.795 100.037,195.729 100.08,195.68C100.386,195.332 100.799,195.002 101.297,194.665C102.994,193.519 105.499,192.454 108.685,191.429C124.958,186.194 157.749,182.664 195.508,182.664L195.508,182.664C233.268,182.664 266.061,186.195 282.335,191.43C285.525,192.456 288.033,193.523 289.732,194.671C290.234,195.01 290.651,195.344 290.959,195.695C291.006,195.747 291.058,195.82 291.103,195.886C291.061,195.947 291.013,196.013 290.97,196.062C290.664,196.41 290.251,196.741 289.753,197.077C288.056,198.224 285.551,199.288 282.365,200.313C266.092,205.548 233.301,209.078 195.542,209.078C157.782,209.078 124.989,205.548 108.715,200.312C105.525,199.286 103.017,198.219 101.318,197.071C100.816,196.732 100.399,196.398 100.091,196.047C100.044,195.995 99.992,195.922 99.947,195.856Z" style="fill:rgb(41,2,119);"/>
        </g>
    </g>
    <g transform="matrix(2.00536,0,0,1.99401,-117.099,-207.47)">
        <g transform="matrix(1.76927,0,0,1.76927,-51.2816,-118.812)">
            <path d="M74.524,186.114L76.389,193.234C83.714,191.728 81.209,183.218 74.524,186.114Z" style="fill:none;stroke:rgb(41,2,119);stroke-width:1.41px;"/>
        </g>
        <g transform="matrix(1.76927,0,0,1.76927,-54.7135,-118.411)">
            <circle cx="92.894" cy="160.92" r="0.584" style="fill:rgb(41,2,119);"/>
        </g>
        <g transform="matrix(2.0594,0,0,2.0594,-63.3866,-144.365)">
            <circle cx="92.894" cy="160.92" r="0.584" style="fill:rgb(41,2,119);"/>
        </g>
        <g transform="matrix(1.86145,0,0,1.86145,-70.1364,-81.4954)">
            <circle cx="92.894" cy="160.92" r="0.584" style="fill:rgb(41,2,119);"/>
        </g>
        <g transform="matrix(1.76927,0,0,1.76927,-53.4651,-116.849)">
            <path d="M70.817,158.708C64.608,158.305 66.064,168.554 72.67,165.814" style="fill:none;stroke:rgb(41,2,119);stroke-width:1.41px;"/>
        </g>
        <g transform="matrix(1.76927,0,0,1.76927,-53.4651,-116.849)">
            <path d="M72.67,158.028L76.112,160.862L77.296,156.554" style="fill:none;stroke:rgb(41,2,119);stroke-width:1.41px;"/>
        </g>
        <g transform="matrix(1.76927,0,0,1.76927,-53.4651,-116.849)">
            <path d="M76.204,160.862L77.296,164.473" style="fill:none;stroke:rgb(41,2,119);stroke-width:1.41px;"/>
        </g>
        <g transform="matrix(1.76927,0,0,1.76927,-53.4651,-116.849)">
            <path d="M80.108,155.954L82.394,162.96L86.74,161.661" style="fill:none;stroke:rgb(41,2,119);stroke-width:1.41px;"/>
        </g>
        <g transform="matrix(1.7665,-0.0989806,0.0989806,1.7665,-68.6079,-107.464)">
            <path d="M88.504,155.29C88.552,149.282 95.425,154.969 90.828,156.359L91.437,158.452" style="fill:none;stroke:rgb(41,2,119);stroke-width:0.85px;"/>
        </g>
        <g transform="matrix(2.05617,-0.115211,0.115211,2.05617,-79.5593,-131.624)">
            <path d="M88.504,155.29C88.552,149.282 95.425,154.969 90.828,156.359L91.437,158.452" style="fill:none;stroke:rgb(41,2,119);stroke-width:0.73px;"/>
        </g>
        <g transform="matrix(1.85854,-0.104138,0.104138,1.85854,-84.7547,-69.9786)">
            <path d="M88.504,155.29C88.552,149.282 95.425,154.969 90.828,156.359L91.437,158.452" style="fill:none;stroke:rgb(41,2,119);stroke-width:0.81px;"/>
        </g>
        <g transform="matrix(1.76927,0,0,1.76927,-53.4651,-116.849)">
            <path d="M72.478,180.761L72.866,171.597L78.014,179.001" style="fill:none;stroke:rgb(41,2,119);stroke-width:1.41px;"/>
        </g>
        <g transform="matrix(1.76927,0,0,1.76927,-53.4651,-116.849)">
            <path d="M72.928,176.829L75.62,176.012" style="fill:none;stroke:rgb(41,2,119);stroke-width:1.41px;"/>
        </g>
        <g transform="matrix(1.60588,-0.172148,0.159451,1.75083,-68.6573,-99.4829)">
            <path d="M77.099,169.965L84.786,177.36" style="fill:none;stroke:rgb(41,2,119);stroke-width:1.49px;"/>
        </g>
        <g transform="matrix(-0.638296,-1.63807,1.50256,-0.665176,-118.545,438.411)">
            <path d="M77.099,169.965L85.351,175.378" style="fill:none;stroke:rgb(41,2,119);stroke-width:1.44px;"/>
        </g>
        <g transform="matrix(1.76927,0,0,1.76927,-53.4651,-116.849)">
            <path d="M85.034,167.738L87.695,175.818" style="fill:none;stroke:rgb(41,2,119);stroke-width:1.41px;"/>
        </g>
        <g transform="matrix(1.79996,-0.0147588,-0.00524964,1.77252,-55.1597,-116.158)">
            <path d="M83.92,167.915L86.004,167.239" style="fill:none;stroke:rgb(41,2,119);stroke-width:1.41px;"/>
        </g>
        <g transform="matrix(1.76927,0,0,1.76927,-53.4651,-116.849)">
            <path d="M86.397,176.384L89.23,175.48" style="fill:none;stroke:rgb(41,2,119);stroke-width:1.41px;"/>
        </g>
        <g transform="matrix(1.76511,0.121212,-0.121212,1.76511,-32.3256,-126.606)">
            <path d="M94.671,167.332C94.671,167.332 93.739,164.234 90.987,165.289C88.326,166.309 89.173,170.728 92.638,169.429C96.461,167.996 97.748,172.676 94.397,173.898C92.485,174.595 91.472,173.49 91.06,172.433" style="fill:none;stroke:rgb(41,2,119);stroke-width:1.41px;"/>
        </g>
    </g>
    <g transform="matrix(1.91323,0,0,1.9024,-154.283,-179.954)">
        <g transform="matrix(1.42619,1.25921,-1.21101,1.38222,330.306,-144.674)">
            <circle cx="92.894" cy="160.92" r="0.584" style="fill:rgb(41,2,119);"/>
        </g>
        <g transform="matrix(1.48,1.12908,-1.15737,1.35861,322.869,-98.538)">
            <circle cx="92.894" cy="160.92" r="0.584" style="fill:rgb(41,2,119);"/>
        </g>
        <g transform="matrix(1.49171,1.17991,-1.12932,1.4505,311.596,-145.737)">
            <path d="M88.504,155.29C88.552,149.282 95.425,154.969 90.828,156.359L91.437,158.452" style="fill:none;stroke:rgb(41,2,119);stroke-width:0.84px;"/>
        </g>
        <g transform="matrix(1.59548,1.25713,-1.20789,1.54544,320.464,-137.157)">
            <path d="M88.504,155.29C88.552,149.282 95.425,154.969 90.828,156.359L91.437,158.452" style="fill:none;stroke:rgb(41,2,119);stroke-width:0.79px;"/>
        </g>
        <g transform="matrix(0.934263,-0.0322145,0.045311,0.8643,4.43349,38.1494)">
            <path d="M249.244,197.554L243.722,213.505" style="fill:none;stroke:rgb(41,2,119);stroke-width:2.88px;"/>
        </g>
        <g transform="matrix(0.92847,0,0,0.92847,15.2977,19.0417)">
            <path d="M243.093,169.415C244.483,166.524 244.681,164.089 240.107,162.49C234.27,160.451 231.613,168.321 238.351,170.597C243.764,172.425 242.88,182.817 234.731,179.673C231.581,178.458 230.802,176.217 231.616,173.924" style="fill:none;stroke:rgb(41,2,119);stroke-width:2.82px;"/>
        </g>
        <g transform="matrix(0.936785,-0.0401515,0.0380274,0.887226,23.9359,68.3044)">
            <path d="M243.093,169.415C244.483,166.524 244.681,164.089 240.107,162.49C234.27,160.451 231.613,168.321 238.351,170.597C243.764,172.425 242.88,182.817 234.731,179.673C231.581,178.458 230.802,176.217 231.616,173.924" style="fill:none;stroke:rgb(41,2,119);stroke-width:2.87px;"/>
        </g>
        <g transform="matrix(0.92847,0,0,0.92847,15.2977,19.0417)">
            <path d="M244.031,182.56L249.882,165.999C260.767,169.055 258.324,177.659 247.826,173.553" style="fill:none;stroke:rgb(41,2,119);stroke-width:2.82px;"/>
        </g>
        <g transform="matrix(0.92847,0,0,0.92847,15.2977,19.0417)">
            <path d="M260.97,169.708L254.863,186.367" style="fill:none;stroke:rgb(41,2,119);stroke-width:2.82px;"/>
        </g>
        <g transform="matrix(0.92847,0,0,0.92847,15.2977,19.0417)">
            <path d="M258.211,178.184L265.576,180.539" style="fill:none;stroke:rgb(41,2,119);stroke-width:2.82px;"/>
        </g>
        <g transform="matrix(0.92847,0,0,0.92847,15.2977,19.0417)">
            <path d="M268.969,172.422C268.099,175.133 262.804,189.247 262.804,189.247" style="fill:none;stroke:rgb(41,2,119);stroke-width:2.82px;"/>
        </g>
        <g transform="matrix(0.936785,-0.0401515,0.0380274,0.887226,4.94571,35.2493)">
            <path d="M221.968,206.651L227.155,190.163C238.332,192.455 235.834,202.053 225.183,197.76" style="fill:none;stroke:rgb(41,2,119);stroke-width:2.87px;"/>
        </g>
        <g transform="matrix(0.936785,-0.0401515,0.0380274,0.887226,14.8624,38.1105)">
            <path d="M221.968,206.651L227.155,190.163C238.332,192.455 235.834,202.053 225.183,197.76" style="fill:none;stroke:rgb(41,2,119);stroke-width:2.87px;"/>
        </g>
        <g transform="matrix(0.936785,-0.0401515,0.0380274,0.887226,4.94571,35.2493)">
            <path d="M239.629,202.61L239.621,212.117" style="fill:none;stroke:rgb(41,2,119);stroke-width:2.87px;"/>
        </g>
        <g transform="matrix(0.936785,-0.0401515,0.0380274,0.887226,4.68837,35.7606)">
            <path d="M248.219,196.711L251.787,198.062" style="fill:none;stroke:rgb(41,2,119);stroke-width:2.87px;"/>
        </g>
        <g transform="matrix(0.873323,-0.00924586,-0.0353068,0.881955,36.7331,29.0155)">
            <path d="M241.522,213.02L245.486,214.252" style="fill:none;stroke:rgb(41,2,119);stroke-width:3.06px;"/>
        </g>
        <g transform="matrix(0.936785,-0.0401515,0.0380274,0.887226,4.94571,35.2493)">
            <path d="M260.886,220.379L267.529,203.632L269.693,212.919L277.444,207.69L270.926,224.616" style="fill:none;stroke:rgb(41,2,119);stroke-width:2.87px;"/>
        </g>
    </g>
</svg>
