<?xml version="1.0" encoding="UTF-8" standalone="no"?>
<!DOCTYPE svg PUBLIC "-//W3C//DTD SVG 1.1//EN" "http://www.w3.org/Graphics/SVG/1.1/DTD/svg11.dtd">
<svg width="100%" height="100%" viewBox="0 0 400 400" version="1.1" xmlns="http://www.w3.org/2000/svg" xmlns:xlink="http://www.w3.org/1999/xlink" xml:space="preserve" xmlns:serif="http://www.serif.com/" style="fill-rule:evenodd;clip-rule:evenodd;stroke-linecap:round;stroke-linejoin:round;stroke-miterlimit:1.5;">
    <g transform="matrix(1.00939,-0.00517658,0.00524171,1.02208,-39.2587,5.10372)">
        <g transform="matrix(1.02085,0.00517035,-0.00523539,1.00817,26.6622,-20.6803)">
            <path d="M73.622,226.234C73.622,226.234 78.661,179.972 51.398,188.932C51.398,188.932 44.632,190.474 38.956,203.73C38.956,203.73 17.634,193.096 15.83,224.616C15.83,224.616 14.869,263.47 58.651,311.627C58.651,311.627 58.28,334.761 69.767,346.992C69.767,346.992 124.194,378.131 177.253,377.101C177.253,377.101 227.764,359.544 240.149,328.899C240.149,328.899 242.994,294.776 242.337,283.718C244.571,263.32 263.897,252.443 283.739,244.011C283.739,244.011 301.201,228.058 273.654,223.301C273.654,223.301 298.102,212.796 276.28,206.708C276.28,206.708 239.327,194.729 214.348,216.791C214.348,216.791 204.153,197.045 129.107,196.873C129.107,196.873 102.542,195.003 73.622,226.234Z" style="fill:rgb(252,251,233);"/>
        </g>
        <g transform="matrix(0.990675,0.0050175,-0.00508062,0.978367,38.9186,-4.79633)">
            <path d="M9.925,245.738C9.925,245.738 26.985,215.259 63.356,210.933C63.356,210.933 66.964,175.009 41.754,176.991C41.754,176.991 28.758,184.353 28.928,194.438C28.928,194.438 21.171,186.668 11.075,194.469C11.075,194.469 -4.146,201.285 9.925,245.738Z" style="fill:rgb(176,147,127);"/>
        </g>
        <g transform="matrix(0.990675,0.0050175,-0.00508062,0.978367,38.9186,-4.79633)">
            <path d="M237.767,194.125C237.767,194.125 253.786,221.07 253.184,249.762C253.184,249.762 257.045,245.927 271.912,239.843C271.912,239.843 286.477,234.235 285.552,222.33C285.253,218.488 279.242,215.269 270.323,214.079C270.323,214.079 280.723,211.2 280.882,204.459C280.882,204.459 279.822,188.668 237.767,194.125Z" style="fill:rgb(176,147,127);"/>
        </g>
        <g transform="matrix(0.837576,0.147246,-0.147246,0.837576,43.3683,116.897)">
            <path d="M86.182,97.643C86.182,97.643 88.37,149.524 87.89,157.21L114.475,177.942C114.475,177.942 102.241,144.642 133.168,134.536C133.168,134.536 166.741,119.791 185.018,161.008L234.668,148.045C234.668,148.045 231.335,110.831 259.998,104.528C259.998,104.528 278.789,97.094 284.558,127.138L289.502,118.626C289.502,118.626 270.784,59.435 244.085,50.727C244.085,50.727 210.388,36.662 164.95,45.068C164.95,45.068 133.617,48.521 113.809,63.342C113.809,63.342 89.245,81.008 86.182,97.643Z" style="fill:rgb(176,147,127);"/>
        </g>
        <g transform="matrix(0.28753,0,0,0.28753,-18.3873,-78.2969)">
            <path d="M413.887,1009.02C442.27,968.155 469.964,944.401 503.605,926.24C600.248,874.068 706.411,900.286 753.35,903.996C806.405,908.189 847.364,926.178 860.898,931.473C874.719,936.88 974.143,960.135 997.235,1178.69C997.235,1178.69 1041.97,1262.38 1024.3,1328.23C1024.3,1328.23 993.552,1438.19 785.623,1526.42C785.623,1526.42 563.743,1526.81 416.754,1430.3C416.754,1430.3 370.136,1399 361.684,1296.56" style="fill:none;stroke:rgb(41,2,119);stroke-width:10.27px;"/>
        </g>
        <g transform="matrix(0.28753,0,0,0.28753,-33.3277,-82.6969)">
            <path d="M1172.96,1004.41C1172.96,1004.41 1032.73,990.975 1031.41,1099.13" style="fill:none;stroke:rgb(41,2,119);stroke-width:6.85px;"/>
        </g>
        <g transform="matrix(0.28753,0,0,0.28753,-28.3923,-87.6968)">
            <path d="M395.792,1327.89C395.792,1327.89 192.586,1101.25 255.745,964.955C261.196,953.192 288.04,921.313 332.445,948.52C332.445,948.52 338.952,902.581 383.014,892.182C383.014,892.182 435.083,879.14 447.536,957.784C447.536,957.784 453.019,1063.97 441.166,1132.74" style="fill:none;stroke:rgb(41,2,119);stroke-width:10.27px;"/>
        </g>
        <g transform="matrix(0.300642,0,0,0.299742,-24.2969,-93.9274)">
            <path d="M451.848,1244.28C451.848,1244.28 437.418,1169.6 510.529,1148.02C510.529,1148.02 604.891,1117.96 647.759,1205.21C647.759,1205.21 675.716,1268.05 660.729,1267.96C660.729,1267.96 462.704,1306.77 451.848,1244.28Z" style="fill:white;stroke:rgb(41,2,119);stroke-width:6.56px;"/>
        </g>
        <g transform="matrix(0.28753,0,0,0.306513,-18.3873,-102.114)">
            <path d="M819.119,1244.28C819.119,1244.28 822.943,1103.61 941.815,1126.14C957.552,1129.12 968.447,1136.3 976.375,1180.69C976.375,1180.69 984.637,1231.61 946.814,1244.28C946.814,1244.28 819.586,1267.56 819.119,1244.28Z" style="fill:white;stroke:rgb(41,2,119);stroke-width:6.62px;"/>
        </g>
        <g transform="matrix(0.374759,0,0,0.288646,-103.222,-81.3495)">
            <ellipse cx="660.312" cy="1223.68" rx="20.279" ry="39.97" style="fill:rgb(41,2,119);"/>
        </g>
        <g transform="matrix(0.315645,0,0,0.243115,24.2222,-31.6593)">
            <ellipse cx="660.312" cy="1223.68" rx="20.279" ry="39.97" style="fill:rgb(41,2,119);"/>
        </g>
        <g transform="matrix(0.28753,0,0,0.28753,-18.3873,-78.2969)">
            <path d="M760.744,1299.22C760.744,1299.22 767.602,1455.03 767.989,1454.95" style="fill:none;stroke:rgb(41,2,119);stroke-width:6.85px;"/>
        </g>
        <g transform="matrix(0.28753,0,0,0.28753,-18.3873,-78.2969)">
            <path d="M618.678,1361.99C618.678,1361.99 636.792,1458.13 767.989,1454.95C767.989,1454.95 876.201,1447.64 873.251,1346.49" style="fill:none;stroke:rgb(41,2,119);stroke-width:6.85px;"/>
        </g>
        <g transform="matrix(-0.363607,0.0398855,-0.0466856,-0.425598,529.378,755.026)">
            <path d="M757.721,1148.02C757.721,1148.02 774.751,1159.93 787.033,1168.51C788.91,1169.82 789.614,1171.99 788.794,1173.92C787.974,1175.85 785.805,1177.14 783.37,1177.14C769.918,1177.14 750.621,1177.14 736.136,1177.14C733.092,1177.14 730.369,1175.53 729.331,1173.11C728.292,1170.69 729.161,1167.99 731.503,1166.35C743.36,1158.06 757.721,1148.02 757.721,1148.02Z" style="fill:rgb(41,2,119);"/>
        </g>
        <g transform="matrix(0.28753,6.93889e-18,-6.93889e-18,0.28753,-33.3277,-82.6969)">
            <path d="M1028.39,1218.52C1028.39,1218.52 1049.8,1182.56 1049.33,1182.5" style="fill-opacity:0;stroke:rgb(41,2,119);stroke-width:6.85px;"/>
        </g>
        <g transform="matrix(0.266254,0,0,0.272745,-14.7947,-64.2754)">
            <path d="M712.551,1259.19L871.081,1245.95" style="fill:none;stroke:rgb(41,2,119);stroke-width:7.3px;"/>
        </g>
        <g transform="matrix(0.28753,0,0,0.28753,-33.3277,-82.6969)">
            <path d="M349.57,930.537C349.57,930.537 381.783,1071.09 438.778,1195.8C438.778,1195.8 492.154,1254.61 509.083,1271.14" style="fill:none;stroke:rgb(41,2,119);stroke-width:6.85px;"/>
        </g>
        <g transform="matrix(1.02085,0.00517035,-0.00523539,1.00817,26.6622,-20.6803)">
            <path d="M71.474,346.992C71.474,346.992 41.277,340.196 42.102,390.444C42.102,390.444 71.669,396.055 83.656,387.478C83.656,387.478 91.797,402.244 103.684,392.407C103.684,392.407 113.648,400.441 123.559,392.407C123.559,392.407 137.149,400.903 141.877,384.589C141.877,384.589 148.505,349.336 99.652,344.705C99.652,344.705 88.159,343.094 71.474,346.992Z" style="fill:rgb(252,251,233);"/>
        </g>
        <g transform="matrix(0.990675,0.0050175,-0.00508062,0.978367,38.9186,-4.79633)">
            <path d="M69.381,368.405C69.381,368.405 83.695,371.06 91.21,367.91C91.21,367.91 102.936,371.94 110.432,367.656C110.432,367.656 126.181,371.005 131.257,362.772C131.257,362.772 142.908,396.562 113.239,388.571C113.239,388.571 109.952,394.091 92.202,390.099C92.202,390.099 73.085,399.308 69.381,368.405Z" style="fill:rgb(176,147,127);"/>
        </g>
        <g transform="matrix(1.02085,0.00517035,-0.00523539,1.00817,26.6622,-20.6803)">
            <path d="M42.127,390.428C42.127,390.428 40.17,342.621 71.112,346.676C71.112,346.676 129.285,335.668 139.601,368.318C139.601,368.318 149.082,400.089 122.065,392.451" style="fill:none;stroke:rgb(41,2,119);stroke-width:2.91px;"/>
        </g>
        <g transform="matrix(1.02085,0.00517035,-0.00523539,1.00817,26.6622,-20.6803)">
            <path d="M117.877,369.674C117.877,369.674 136.29,403.42 102.865,393.774" style="fill:none;stroke:rgb(41,2,119);stroke-width:2.91px;"/>
        </g>
        <g transform="matrix(1.02085,0.00517035,-0.00523539,1.00817,26.6622,-20.6803)">
            <path d="M99.604,370.597C99.604,370.597 114.559,405.932 88.228,393.29C85.029,391.754 80.452,384.458 79.681,369.674" style="fill:none;stroke:rgb(41,2,119);stroke-width:2.91px;"/>
        </g>
        <g transform="matrix(1.02085,0.00517035,-0.00523539,1.00817,26.6622,-20.6803)">
            <path d="M82.735,386.709C82.735,386.709 78.881,394.448 64.453,390.636" style="fill:none;stroke:rgb(41,2,119);stroke-width:2.91px;"/>
        </g>
    </g>
    <g transform="matrix(0.878102,0,0,0.878102,137.143,176.602)">
        <g transform="matrix(1.17351,0,0,1.17351,-159.732,-215.291)">
            <path d="M231.79,287.822C231.79,287.822 214.27,263.229 202.981,299.964C202.981,299.964 193.581,339.429 212.982,358.596C212.982,358.596 215.844,364.51 224.264,360.782L228.292,367.181C228.292,367.181 227.878,370.913 228.292,383.746L355.451,385.035C355.451,385.035 356.945,373.45 352.901,362.306C352.901,362.306 359.461,353.152 361.337,342.707C361.337,342.707 376.108,287.099 341.053,264.635C341.053,264.635 303.598,234.417 255.519,260.061C255.519,260.061 241.325,267.567 231.79,287.822Z" style="fill:rgb(247,241,219);"/>
        </g>
        <g transform="matrix(1,-1.62858e-17,1.62858e-17,1,14.8218,61.6796)">
            <path d="M120.913,33.022C120.913,33.022 102.979,45.761 94.688,72.974C94.688,72.974 90.913,85.051 90.464,101.022C90.464,101.022 97.873,87.386 107.344,80.063C109.842,78.132 124.203,70.953 137.082,80.302C137.082,80.302 144.672,84.569 147.784,91.426C147.784,91.426 153.783,100.552 159.745,98.118C159.745,98.118 166.935,95.192 167.879,86.078C167.879,86.078 172.012,73.155 184.766,68.826C184.766,68.826 199.362,61.454 221.893,70.743C221.893,70.743 236.622,80.336 239.026,86.464C239.026,86.464 242.16,52.835 225.708,36.396C225.708,36.396 197.299,10.182 161.872,17.319C161.872,17.319 136.217,20.676 120.913,33.022Z" style="fill:rgb(170,154,133);"/>
        </g>
        <g transform="matrix(0.991464,-0.130177,0.130181,0.985423,-5.21273,86.1994)">
            <path d="M239.567,159.463C265.771,126.769 260.518,96.026 260.518,96.026C257.393,78.24 248.992,52.803 248.992,52.803C237.834,37.675 227.797,27.674 211.394,21.202C193.021,13.951 168.708,16.672 168.708,16.672C141.386,19.442 127.012,34.435 122.47,38.861C122.47,38.861 103.919,55.363 99.023,89.247C99.023,89.247 84.672,117.361 92.758,136.664C92.758,136.664 99.872,156.905 129.386,162.745" style="fill:none;stroke:rgb(41,2,119);stroke-width:3.43px;"/>
        </g>
        <g transform="matrix(0.991464,-0.130177,0.130181,0.985423,-5.21273,86.1994)">
            <path d="M241.167,50.96C241.167,50.96 246.759,34.933 255.391,31.473C255.391,31.473 276.006,21.62 285.205,57.191C285.205,57.191 295.704,96.276 284.442,123.034C284.442,123.034 278.472,139.905 258.888,136.487C258.888,136.487 249.971,134.858 246.46,129.997" style="fill:rgb(247,241,219);"/>
        </g>
        <g transform="matrix(1,-1.62858e-17,1.62858e-17,1,26.3483,61.6796)">
            <path d="M213.961,43.948C215.754,41.17 219.237,67.149 228.684,84.422C228.684,84.422 224.666,79.805 214.182,72.709C214.182,72.709 214.331,55.363 211.409,49.649C211.409,49.649 210.416,49.443 213.961,43.948Z" style="fill:rgb(170,154,133);"/>
        </g>
        <g transform="matrix(0.991464,-0.130177,0.130181,0.985423,-5.21273,86.1994)">
            <path d="M241.167,50.96C241.167,50.96 246.759,34.933 255.391,31.473C255.391,31.473 276.006,21.62 285.205,57.191C285.205,57.191 295.704,96.276 284.442,123.034C284.442,123.034 278.472,139.905 258.888,136.487C258.888,136.487 249.971,134.858 246.46,129.997" style="fill:none;stroke:rgb(41,2,119);stroke-width:3.43px;"/>
        </g>
        <g transform="matrix(0.991464,-0.130177,0.130181,0.985423,-5.21273,86.1994)">
            <path d="M110.634,53.887C110.634,53.887 107.641,39.87 95.409,39.746C95.409,39.746 77.442,38.445 70.232,81.056C70.232,81.056 63.841,125.27 85.086,135.938C85.086,135.938 88.457,136.97 90.287,135.738" style="fill:none;stroke:rgb(41,2,119);stroke-width:3.43px;"/>
        </g>
        <g transform="matrix(1.03302,0,0,0.870367,15.1681,62.6553)">
            <path d="M232.966,196.446C232.966,196.446 235.682,171.528 227.012,163.55C223.31,160.143 211.365,152.763 200,163.101C193.267,169.226 189.271,176.345 188.692,192.884C188.692,192.884 187.055,208.798 191.806,208.974C191.806,208.974 198.563,211.766 198.533,194.296C198.533,194.296 197.82,209.467 203.514,209.676C203.514,209.676 209.008,211.465 208.598,195.64C208.598,195.64 207.232,209.125 214.442,209.297C214.442,209.297 220.518,209.75 219.498,196.706C219.498,196.706 224.302,191.944 223.893,174.303" style="fill:rgb(247,241,219);stroke:rgb(41,2,119);stroke-width:3.58px;"/>
        </g>
        <g transform="matrix(1.23364,0,0,1.10203,-173.51,-189.071)">
            <path d="M229.134,386.219L240.389,386.219L237.427,369.852L230.25,366.784L229.134,386.219Z" style="fill:rgb(252,251,233);"/>
        </g>
        <g transform="matrix(-1.03302,0,0,0.870367,350.234,62.6553)">
            <path d="M232.966,196.446C232.966,196.446 235.682,171.528 227.012,163.55C223.31,160.143 211.365,152.763 200,163.101C193.267,169.226 189.271,176.345 188.692,192.884C188.692,192.884 187.055,208.798 191.806,208.974C191.806,208.974 198.563,211.766 198.533,194.296C198.533,194.296 197.82,209.467 203.514,209.676C203.514,209.676 209.008,211.465 208.598,195.64C208.598,195.64 207.232,209.125 214.442,209.297C214.442,209.297 220.518,209.75 219.498,196.706C219.498,196.706 224.302,191.944 223.893,174.303" style="fill:rgb(247,241,219);stroke:rgb(41,2,119);stroke-width:3.58px;"/>
        </g>
        <g transform="matrix(1.04881,-0.137707,0.125656,0.951169,-24.5623,94.2465)">
            <ellipse cx="142.383" cy="94.476" rx="26.325" ry="28.558" style="fill:white;stroke:rgb(41,2,119);stroke-width:2.25px;"/>
        </g>
        <g transform="matrix(1.04881,-0.137707,0.125656,0.951169,47.8997,84.7324)">
            <ellipse cx="142.383" cy="94.476" rx="26.325" ry="28.558" style="fill:white;stroke:rgb(41,2,119);stroke-width:2.25px;"/>
        </g>
        <g transform="matrix(-0.128576,0.62506,-1.12851,-0.239259,329.11,108.296)">
            <ellipse cx="165.31" cy="117.077" rx="4.54" ry="5.956" style="fill:rgb(41,2,119);"/>
        </g>
        <g transform="matrix(0.878268,-0.115315,0.102089,0.772778,19.8112,103.719)">
            <ellipse cx="206.16" cy="91.18" rx="3.988" ry="3.87" style="fill:rgb(41,2,119);"/>
        </g>
        <g transform="matrix(0.878268,-0.115315,0.102089,0.772778,-52.733,113.055)">
            <ellipse cx="206.16" cy="91.18" rx="3.988" ry="3.87" style="fill:rgb(41,2,119);"/>
        </g>
        <g transform="matrix(0.975552,-0.186656,0.185449,0.96145,-8.74523,95.6392)">
            <path d="M96.712,92.697C96.712,92.697 102.925,84.731 110.634,77.465" style="fill:none;stroke:rgb(41,2,119);stroke-width:2.31px;"/>
        </g>
        <g transform="matrix(0.984862,-0.12931,0.128232,0.970672,-6.27313,89.4041)">
            <path d="M158.61,83.943C158.61,83.943 163.165,94.695 169.229,95.05C169.229,95.05 176.426,96.614 181.091,82.857" style="fill:none;stroke:rgb(41,2,119);stroke-width:2.31px;"/>
        </g>
        <g transform="matrix(0.984862,-0.12931,0.128232,0.970672,-6.27313,89.4041)">
            <path d="M253.585,93.898C253.585,93.898 239.222,66.653 206.312,67.066" style="fill:none;stroke:rgb(41,2,119);stroke-width:2.31px;"/>
        </g>
        <g transform="matrix(0.984862,-0.12931,0.128232,0.970672,-6.27313,89.4041)">
            <path d="M255.801,104.837C249.663,88.199 254.619,52.416 272.724,50.923" style="fill:none;stroke:rgb(41,2,119);stroke-width:2.31px;"/>
        </g>
        <g transform="matrix(0.984862,-0.12931,0.128232,0.970672,-6.27313,89.4041)">
            <path d="M92.372,54.812C92.372,54.812 102.423,64.135 98.661,92.786" style="fill:none;stroke:rgb(41,2,119);stroke-width:2.31px;"/>
        </g>
        <g transform="matrix(0.855068,-0.043873,0.0512419,0.998686,29.4573,64.5272)">
            <path d="M131.573,137.838C131.573,137.838 134.519,146.431 154.442,140.014C162.166,137.525 160.954,135.663 172.596,138.047C188.753,141.355 196.597,139.237 200,131.124" style="fill:none;stroke:rgb(41,2,119);stroke-width:2.45px;"/>
        </g>
    </g>
    <g transform="matrix(1.03046,0,0,1.03046,-3.11743,-12.4457)">
        <path d="M147.186,107.802C147.186,107.802 126.388,87.218 117.219,96.778C117.219,96.778 111.927,105.641 132.778,150.281C132.778,150.281 130.757,160.518 151.303,184.406L162.956,195.184C172.921,196.68 192.35,199.942 206.142,211.581C206.142,211.581 226.074,195.37 255.023,200C255.023,200 249.011,175.589 248.013,170.542C253.683,173.713 260.362,164.711 264.574,154.787C272.812,135.376 269.519,68.6 257.682,68.872C257.682,68.872 257.259,62.108 228.456,97.231C228.456,97.231 178.932,76.632 147.186,107.802Z" style="fill:rgb(247,237,192);"/>
        <g transform="matrix(0.281649,-0.00144442,0.00146259,0.285192,-53.4823,-60.5373)">
            <path d="M914.941,964.112C914.941,964.112 945.434,902.031 1125.94,927.782C1147.8,930.9 1206.4,964.148 1118.02,988.486C1118.02,988.486 1217.93,999.305 1161.86,1056.6C1127.62,1091.59 1021.11,1095.01 1011.77,1207.78" style="fill:none;stroke:rgb(41,2,119);stroke-width:10.27px;"/>
        </g>
        <g transform="matrix(-0.985794,0.167959,0.167959,0.985794,394.655,39.7994)">
            <path d="M134.059,26.696C134.059,26.696 134.295,6.845 140.285,5.059C140.285,5.059 149.212,6.121 173.819,30.338C178.406,24.506 219.944,0.974 254.693,25.321C254.693,25.321 273.138,1.827 282.706,8.595C282.706,8.595 287.622,12.417 284.774,25.21C284.774,25.21 278.204,20.956 274.177,24.999C274.177,24.999 267.737,34.859 265.589,41.527L268.408,58.076C268.408,58.076 257.685,42.519 244.032,46.087C244.032,46.087 232.402,48.57 227.884,64.047C227.884,64.047 223.595,51.343 211.486,46.67C211.486,46.67 196.287,40.94 185.939,50.625C185.939,50.625 173.355,56.371 174.891,74.3C156.716,39.575 147.502,18.969 134.059,26.696Z" style="fill:rgb(171,139,96);"/>
        </g>
        <g transform="matrix(-0.922128,0.157112,0.169228,0.993243,388.137,36.4727)">
            <path d="M266.698,29.424C266.698,29.424 280.184,10.357 293.142,12.058C296.682,12.523 302.628,24.564 289.362,67.776" style="fill:none;stroke:rgb(41,2,119);stroke-width:2.99px;"/>
        </g>
        <g transform="matrix(-0.922128,0.157112,0.169228,0.993243,388.137,36.4727)">
            <path d="M178.916,101.412C172.713,112.495 164.471,108.384 164.471,108.384C135.655,92.546 131.66,10.532 144.226,9.82C153.753,11.719 180.236,34.522 180.236,34.522C180.236,34.522 193.126,17.519 238.262,19.494C238.262,19.494 279.627,20.648 281.165,62.252C281.165,62.252 294.088,63.929 288.752,79.566C288.752,79.566 276.165,106.903 268.161,119.239" style="fill:none;stroke:rgb(41,2,119);stroke-width:2.99px;"/>
        </g>
        <path d="M158.3,205.51C158.3,205.51 165.012,213.987 170.444,200C170.444,200 173.68,185.245 152.145,184.505C152.145,184.505 139.71,179.315 139.815,200C139.815,200 140.327,210.151 147.186,204.423C147.186,204.423 151.638,211.042 158.3,205.51Z" style="fill:rgb(171,139,96);"/>
        <g transform="matrix(-1,0,0,1,403.866,8.24047)">
            <path d="M159.928,204.435C159.928,204.435 164.735,215.892 171.595,197.625C172.523,195.154 175.16,195.49 176.455,192.154C176.455,192.154 173.68,185.245 152.145,184.505C152.145,184.505 140.751,179.393 140.856,200.078C140.856,200.078 141.792,209.448 150.292,204.435C150.292,204.435 152.587,209.545 159.928,204.435Z" style="fill:rgb(171,139,96);"/>
        </g>
        <g transform="matrix(0.824096,0.197675,-0.201457,0.839862,65.3612,-0.107995)">
            <path d="M148.484,185.476C148.484,185.476 133.851,186.09 141.397,206.6C141.397,206.6 145.145,215.192 151.13,208.05" style="fill:none;stroke:rgb(41,2,119);stroke-width:3.4px;"/>
        </g>
        <g transform="matrix(-0.824096,0.197675,0.201457,0.839862,337.618,7.74398)">
            <path d="M148.484,185.476C148.484,185.476 133.851,186.09 141.397,206.6C141.397,206.6 145.145,215.192 151.13,208.05" style="fill:none;stroke:rgb(41,2,119);stroke-width:3.4px;"/>
        </g>
        <g transform="matrix(0.824096,0.197675,-0.201457,0.839862,65.3612,-0.107995)">
            <path d="M151.13,195.299C151.13,195.299 149.571,216.029 160.596,207.22" style="fill:none;stroke:rgb(41,2,119);stroke-width:3.4px;"/>
        </g>
        <g transform="matrix(-0.824096,0.197675,0.201457,0.839862,337.618,7.74398)">
            <path d="M151.13,195.299C151.13,195.299 149.571,216.029 160.596,207.22" style="fill:none;stroke:rgb(41,2,119);stroke-width:3.4px;"/>
        </g>
        <g transform="matrix(0.824096,0.197675,-0.201457,0.839862,65.3612,-0.107995)">
            <path d="M162.333,195.299C162.333,195.299 161.43,211.712 169.981,207.78C169.981,207.78 176.857,204.845 173.714,193.223C173.714,193.223 171.433,180.265 148.381,185.476" style="fill:none;stroke:rgb(41,2,119);stroke-width:3.4px;"/>
        </g>
        <g transform="matrix(-0.824096,0.197675,0.201457,0.839862,337.618,7.74398)">
            <path d="M162.333,195.299C162.333,195.299 161.43,211.712 169.981,207.78C169.981,207.78 176.857,204.845 173.714,193.223C173.714,193.223 171.433,180.265 148.381,185.476" style="fill:none;stroke:rgb(41,2,119);stroke-width:3.4px;"/>
        </g>
        <path d="M246.741,171.068C246.741,171.068 250.866,178.101 253.79,192.186" style="fill:none;stroke:rgb(41,2,119);stroke-width:2.91px;"/>
        <path d="M223.44,191.212C223.44,191.212 224.46,199.925 233.145,207.083" style="fill:none;stroke:rgb(41,2,119);stroke-width:2.91px;"/>
        <g transform="matrix(0.989897,0,0,0.989897,-0.944979,3.77465)">
            <path d="M176.616,147.549C176.616,147.549 181.316,143.07 183.093,141.166C183.093,141.166 190.822,147 194.494,146.345C194.494,146.345 188.952,156.582 184.196,155.873C184.196,155.873 180.634,155.713 180.203,152.945C180.203,152.945 176.95,147.746 176.616,147.549Z" style="fill:rgb(224,161,142);stroke:black;stroke-opacity:0;stroke-width:1.96px;"/>
        </g>
        <g transform="matrix(-0.922128,0.157112,0.169228,0.993243,393.644,35.3907)">
            <ellipse cx="215.996" cy="59.51" rx="18.843" ry="10.398" style="fill:white;stroke:rgb(41,2,119);stroke-width:2px;"/>
        </g>
        <g transform="matrix(-0.738302,0.125792,0.154195,0.905006,309.19,54.8807)">
            <ellipse cx="215.996" cy="59.51" rx="18.843" ry="10.398" style="fill:white;stroke:rgb(41,2,119);stroke-width:2.32px;"/>
        </g>
        <g transform="matrix(-0.626421,0.061792,0.060602,0.614357,328.151,81.6474)">
            <ellipse cx="243.485" cy="73.495" rx="11.043" ry="3.649" style="fill:rgb(41,2,119);"/>
        </g>
        <g transform="matrix(-0.9298,0.118801,0.14863,1.16326,397.982,39.4596)">
            <ellipse cx="216.923" cy="54.359" rx="7.904" ry="3.59" style="fill:rgb(41,2,119);"/>
        </g>
        <g transform="matrix(-0.743766,0.105772,0.145406,0.995358,312.332,58.8573)">
            <ellipse cx="216.923" cy="54.359" rx="7.904" ry="3.59" style="fill:rgb(41,2,119);"/>
        </g>
        <g transform="matrix(-0.922128,0.157112,0.169228,0.993243,394.699,39.1906)">
            <path d="M232,49.883C232,49.883 240.666,56.441 244.009,64.057C244.009,64.057 247.383,51.61 255.503,48.46" style="fill:none;stroke:rgb(41,2,119);stroke-width:2px;"/>
        </g>
        <g transform="matrix(-0.922128,0.157112,0.169228,0.993243,353.38,45.042)">
            <path d="M232,49.883C232,49.883 239.312,53.68 241.929,59.558" style="fill:none;stroke:rgb(41,2,119);stroke-width:2px;"/>
        </g>
        <g transform="matrix(-0.922128,0.157112,0.169228,0.993243,394.686,37.5854)">
            <path d="M233.918,74.845C233.918,74.845 235.284,76.516 238.842,79.582C242.607,82.827 248.908,84.24 250.054,78.585C250.054,78.585 250.795,76.545 252.816,73.244" style="fill:none;stroke:rgb(41,2,119);stroke-width:2px;"/>
        </g>
        <g transform="matrix(-0.80683,-0.0781011,-0.052654,0.858603,380.571,97.2841)">
            <path d="M218.963,76.346C218.963,76.346 219.14,79.2 224.943,80.272C224.943,80.272 236.108,82.025 243.702,74.887" style="fill:none;stroke:rgb(41,2,119);stroke-width:2.36px;"/>
        </g>
        <g transform="matrix(-0.922128,0.157112,0.115351,0.677025,395.806,59.868)">
            <path d="M242.077,67.374C242.077,67.374 249.725,76.041 253.103,75.764C253.103,75.764 256.395,75.762 256.667,73.046" style="fill:none;stroke:rgb(41,2,119);stroke-width:2.37px;"/>
        </g>
        <g transform="matrix(-0.922128,0.157112,0.169228,0.993243,388.137,36.4727)">
            <path d="M145.965,29.445C145.965,29.445 153.817,26.886 181.701,78.929C181.701,78.929 175.17,59.148 200.208,50.407" style="fill:none;stroke:rgb(41,2,119);stroke-width:2px;"/>
        </g>
        <g transform="matrix(-0.922128,0.157112,0.169228,0.993243,388.137,36.4727)">
            <path d="M290.043,27.458C290.043,27.458 285.956,25.039 278.077,46.335" style="fill:none;stroke:rgb(41,2,119);stroke-width:2px;"/>
        </g>
    </g>
</svg>
