<?xml version="1.0" encoding="UTF-8" standalone="no"?>
<!DOCTYPE svg PUBLIC "-//W3C//DTD SVG 1.1//EN" "http://www.w3.org/Graphics/SVG/1.1/DTD/svg11.dtd">
<svg width="100%" height="100%" viewBox="0 0 400 400" version="1.1" xmlns="http://www.w3.org/2000/svg" xmlns:xlink="http://www.w3.org/1999/xlink" xml:space="preserve" xmlns:serif="http://www.serif.com/" style="fill-rule:evenodd;clip-rule:evenodd;stroke-linecap:round;stroke-linejoin:round;stroke-miterlimit:1.5;">
    <g>
        <g transform="matrix(1,0,0,1,-7.56227,-61.376)">
            <path d="M91.007,250.433C97.051,238.884 109.152,230.996 123.081,230.996C139.302,230.996 153.044,241.695 157.629,256.416C159.644,256.068 161.712,255.887 163.823,255.887C178.598,255.887 191.317,264.764 196.932,277.472C200.352,276.4 203.987,275.822 207.757,275.822C207.855,275.822 207.953,275.822 208.048,275.823C207.856,274.411 207.757,272.97 207.757,271.506C207.757,253.93 222.026,239.661 239.601,239.661C257.177,239.661 271.446,253.93 271.446,271.506C297.833,271.506 319.257,292.929 319.257,319.317C319.257,345.704 297.833,367.127 271.446,367.127C252.98,367.127 236.945,356.636 228.981,341.292C223.019,345.621 215.684,348.176 207.757,348.176C203.406,348.176 199.234,347.406 195.37,345.996C195.413,346.715 195.435,347.443 195.435,348.176C195.435,368.143 179.225,384.353 159.258,384.353C147.196,384.353 136.505,378.437 129.932,369.353C125.496,370.881 120.739,371.71 115.79,371.71C94.157,371.71 76.194,355.873 72.872,335.174C51.525,332.423 35.007,314.157 35.007,292.064C35.007,268.073 54.485,248.596 78.475,248.596C82.832,248.596 87.04,249.238 91.007,250.433Z" style="fill:rgb(236,235,243);"/>
        </g>
        <g transform="matrix(0.614499,-0.226455,0.226455,0.614499,-70.6363,195.426)">
            <path d="M91.007,250.433C97.051,238.884 109.152,230.996 123.081,230.996C139.302,230.996 153.044,241.695 157.629,256.416C159.644,256.068 161.712,255.887 163.823,255.887C178.598,255.887 191.317,264.764 196.932,277.472C200.352,276.4 203.987,275.822 207.757,275.822C207.855,275.822 207.953,275.822 208.048,275.823C207.856,274.411 207.757,272.97 207.757,271.506C207.757,253.93 222.026,239.661 239.601,239.661C257.177,239.661 271.446,253.93 271.446,271.506C297.833,271.506 319.257,292.929 319.257,319.317C319.257,345.704 297.833,367.127 271.446,367.127C252.98,367.127 236.945,356.636 228.981,341.292C223.019,345.621 215.684,348.176 207.757,348.176C203.406,348.176 199.234,347.406 195.37,345.996C195.413,346.715 195.435,347.443 195.435,348.176C195.435,368.143 179.225,384.353 159.258,384.353C147.196,384.353 136.505,378.437 129.932,369.353C125.496,370.881 120.739,371.71 115.79,371.71C94.157,371.71 76.194,355.873 72.872,335.174C51.525,332.423 35.007,314.157 35.007,292.064C35.007,268.073 54.485,248.596 78.475,248.596C82.832,248.596 87.04,249.238 91.007,250.433Z" style="fill:rgb(236,235,243);"/>
        </g>
        <g transform="matrix(-0.7597,0,0,0.7597,417.164,95.0749)">
            <path d="M91.007,250.433C97.051,238.884 109.152,230.996 123.081,230.996C139.302,230.996 153.044,241.695 157.629,256.416C159.644,256.068 161.712,255.887 163.823,255.887C178.598,255.887 191.317,264.764 196.932,277.472C200.352,276.4 203.987,275.822 207.757,275.822C207.855,275.822 207.953,275.822 208.048,275.823C207.856,274.411 207.757,272.97 207.757,271.506C207.757,253.93 222.026,239.661 239.601,239.661C257.177,239.661 271.446,253.93 271.446,271.506C297.833,271.506 319.257,292.929 319.257,319.317C319.257,345.704 297.833,367.127 271.446,367.127C252.98,367.127 236.945,356.636 228.981,341.292C223.019,345.621 215.684,348.176 207.757,348.176C203.406,348.176 199.234,347.406 195.37,345.996C195.413,346.715 195.435,347.443 195.435,348.176C195.435,368.143 179.225,384.353 159.258,384.353C147.196,384.353 136.505,378.437 129.932,369.353C125.496,370.881 120.739,371.71 115.79,371.71C94.157,371.71 76.194,355.873 72.872,335.174C51.525,332.423 35.007,314.157 35.007,292.064C35.007,268.073 54.485,248.596 78.475,248.596C82.832,248.596 87.04,249.238 91.007,250.433Z" style="fill:rgb(236,235,243);"/>
        </g>
        <g transform="matrix(1,0,0,1,-11.024,-69.0609)">
            <path d="M91.007,250.433C97.051,238.884 109.152,230.996 123.081,230.996C139.302,230.996 153.044,241.695 157.629,256.416C159.644,256.068 161.712,255.887 163.823,255.887C178.598,255.887 191.317,264.764 196.932,277.472C200.352,276.4 203.987,275.822 207.757,275.822C207.855,275.822 207.953,275.822 208.048,275.823C207.856,274.411 207.757,272.97 207.757,271.506C207.757,253.93 222.026,239.661 239.601,239.661C257.177,239.661 271.446,253.93 271.446,271.506C297.833,271.506 319.257,292.929 319.257,319.317C319.257,345.704 297.833,367.127 271.446,367.127C252.98,367.127 236.945,356.636 228.981,341.292C223.019,345.621 215.684,348.176 207.757,348.176C203.406,348.176 199.234,347.406 195.37,345.996C195.413,346.715 195.435,347.443 195.435,348.176C195.435,368.143 179.225,384.353 159.258,384.353C147.196,384.353 136.505,378.437 129.932,369.353C125.496,370.881 120.739,371.71 115.79,371.71C94.157,371.71 76.194,355.873 72.872,335.174C51.525,332.423 35.007,314.157 35.007,292.064C35.007,268.073 54.485,248.596 78.475,248.596C82.832,248.596 87.04,249.238 91.007,250.433Z" style="fill:white;"/>
        </g>
        <g transform="matrix(0.614499,-0.226455,0.226455,0.614499,-74.5038,188.518)">
            <path d="M91.007,250.433C97.051,238.884 109.152,230.996 123.081,230.996C139.302,230.996 153.044,241.695 157.629,256.416C159.644,256.068 161.712,255.887 163.823,255.887C178.598,255.887 191.317,264.764 196.932,277.472C200.352,276.4 203.987,275.822 207.757,275.822C207.855,275.822 207.953,275.822 208.048,275.823C207.856,274.411 207.757,272.97 207.757,271.506C207.757,253.93 222.026,239.661 239.601,239.661C257.177,239.661 271.446,253.93 271.446,271.506C297.833,271.506 319.257,292.929 319.257,319.317C319.257,345.704 297.833,367.127 271.446,367.127C252.98,367.127 236.945,356.636 228.981,341.292C223.019,345.621 215.684,348.176 207.757,348.176C203.406,348.176 199.234,347.406 195.37,345.996C195.413,346.715 195.435,347.443 195.435,348.176C195.435,368.143 179.225,384.353 159.258,384.353C147.196,384.353 136.505,378.437 129.932,369.353C125.496,370.881 120.739,371.71 115.79,371.71C94.157,371.71 76.194,355.873 72.872,335.174C51.525,332.423 35.007,314.157 35.007,292.064C35.007,268.073 54.485,248.596 78.475,248.596C82.832,248.596 87.04,249.238 91.007,250.433Z" style="fill:rgb(236,235,243);"/>
        </g>
        <g transform="matrix(0.614499,-0.226455,0.226455,0.614499,-74.5038,191.488)">
            <path d="M91.007,250.433C97.051,238.884 109.152,230.996 123.081,230.996C139.302,230.996 153.044,241.695 157.629,256.416C159.644,256.068 161.712,255.887 163.823,255.887C178.598,255.887 191.317,264.764 196.932,277.472C200.352,276.4 203.987,275.822 207.757,275.822C207.855,275.822 207.953,275.822 208.048,275.823C207.856,274.411 207.757,272.97 207.757,271.506C207.757,253.93 222.026,239.661 239.601,239.661C257.177,239.661 271.446,253.93 271.446,271.506C297.833,271.506 319.257,292.929 319.257,319.317C319.257,345.704 297.833,367.127 271.446,367.127C252.98,367.127 236.945,356.636 228.981,341.292C223.019,345.621 215.684,348.176 207.757,348.176C203.406,348.176 199.234,347.406 195.37,345.996C195.413,346.715 195.435,347.443 195.435,348.176C195.435,368.143 179.225,384.353 159.258,384.353C147.196,384.353 136.505,378.437 129.932,369.353C125.496,370.881 120.739,371.71 115.79,371.71C94.157,371.71 76.194,355.873 72.872,335.174C51.525,332.423 35.007,314.157 35.007,292.064C35.007,268.073 54.485,248.596 78.475,248.596C82.832,248.596 87.04,249.238 91.007,250.433Z" style="fill:white;"/>
        </g>
        <g transform="matrix(-0.7597,0,0,0.7597,419.794,85.2876)">
            <path d="M91.007,250.433C97.051,238.884 109.152,230.996 123.081,230.996C139.302,230.996 153.044,241.695 157.629,256.416C159.644,256.068 161.712,255.887 163.823,255.887C178.598,255.887 191.317,264.764 196.932,277.472C200.352,276.4 203.987,275.822 207.757,275.822C207.855,275.822 207.953,275.822 208.048,275.823C207.856,274.411 207.757,272.97 207.757,271.506C207.757,253.93 222.026,239.661 239.601,239.661C257.177,239.661 271.446,253.93 271.446,271.506C297.833,271.506 319.257,292.929 319.257,319.317C319.257,345.704 297.833,367.127 271.446,367.127C252.98,367.127 236.945,356.636 228.981,341.292C223.019,345.621 215.684,348.176 207.757,348.176C203.406,348.176 199.234,347.406 195.37,345.996C195.413,346.715 195.435,347.443 195.435,348.176C195.435,368.143 179.225,384.353 159.258,384.353C147.196,384.353 136.505,378.437 129.932,369.353C125.496,370.881 120.739,371.71 115.79,371.71C94.157,371.71 76.194,355.873 72.872,335.174C51.525,332.423 35.007,314.157 35.007,292.064C35.007,268.073 54.485,248.596 78.475,248.596C82.832,248.596 87.04,249.238 91.007,250.433Z" style="fill:rgb(236,235,243);"/>
        </g>
        <g transform="matrix(-0.7597,0,0,0.7597,419.794,89.2367)">
            <path d="M91.007,250.433C97.051,238.884 109.152,230.996 123.081,230.996C139.302,230.996 153.044,241.695 157.629,256.416C159.644,256.068 161.712,255.887 163.823,255.887C178.598,255.887 191.317,264.764 196.932,277.472C200.352,276.4 203.987,275.822 207.757,275.822C207.855,275.822 207.953,275.822 208.048,275.823C207.856,274.411 207.757,272.97 207.757,271.506C207.757,253.93 222.026,239.661 239.601,239.661C257.177,239.661 271.446,253.93 271.446,271.506C297.833,271.506 319.257,292.929 319.257,319.317C319.257,345.704 297.833,367.127 271.446,367.127C252.98,367.127 236.945,356.636 228.981,341.292C223.019,345.621 215.684,348.176 207.757,348.176C203.406,348.176 199.234,347.406 195.37,345.996C195.413,346.715 195.435,347.443 195.435,348.176C195.435,368.143 179.225,384.353 159.258,384.353C147.196,384.353 136.505,378.437 129.932,369.353C125.496,370.881 120.739,371.71 115.79,371.71C94.157,371.71 76.194,355.873 72.872,335.174C51.525,332.423 35.007,314.157 35.007,292.064C35.007,268.073 54.485,248.596 78.475,248.596C82.832,248.596 87.04,249.238 91.007,250.433Z" style="fill:white;"/>
        </g>
    </g>
    <g>
        <g>
            <g transform="matrix(0.588873,-0.0534203,0.161322,1.09409,-26.3803,-5.02492)">
                <rect x="295.651" y="209.496" width="91.318" height="43.828" style="fill:rgb(248,220,171);"/>
            </g>
            <g transform="matrix(0.721125,-0.133373,0.28767,1.55538,-111.512,-94.1002)">
                <path d="M300.771,216.989L299.089,245.349L315.487,252.361L317.903,221.738L300.771,216.989Z" style="fill:rgb(242,207,146);"/>
            </g>
            <g transform="matrix(0.976183,-0.180546,0.28767,1.55538,-193.38,-79.035)">
                <path d="M306.037,217.037L359.756,219.906L372.848,224.937L318.696,221.789L306.037,217.037Z" style="fill:rgb(255,238,208);"/>
            </g>
            <g transform="matrix(-0.872604,0.296438,0.346219,1.41367,263.168,-66.5639)">
                <path d="M101.096,180.895L139.837,175.638L138.519,164.317L151.821,157.836L157.963,156.94L144.737,163.406L146.218,174.876L159.382,173.065L172.408,166.796L173.092,171.845L160.323,178.734L146.752,180.559L148.774,197.135L142.757,197.825L140.664,181.256L101.939,186.514L101.096,180.895Z" style="fill:rgb(161,210,255);"/>
            </g>
        </g>
        <g>
            <g transform="matrix(-0.418562,0.0637787,0.149313,0.987054,365.987,18.3479)">
                <rect x="295.651" y="209.496" width="91.318" height="43.828" style="fill:rgb(248,220,171);"/>
            </g>
            <g transform="matrix(-0.528744,0.0186755,0.172066,1.41416,403.451,-75.5224)">
                <path d="M300.771,216.989L299.089,245.349L315.487,252.361L317.903,221.738L300.771,216.989Z" style="fill:rgb(242,207,146);"/>
            </g>
            <g transform="matrix(-0.715759,0.0252809,0.172066,1.41416,463.46,-77.7094)">
                <path d="M306.037,217.037L359.756,219.906L372.848,224.937L318.696,221.789L306.037,217.037Z" style="fill:rgb(255,238,208);"/>
            </g>
            <g transform="matrix(0.671966,0.0955014,0.0979741,1.30122,151.783,18.8623)">
                <path d="M101.169,181.374L139.825,175.416L138.603,164.313L154.344,157.464L160.296,156.6L144.912,163.357L146.098,174.563L159.3,172.516L172.284,165.669L172.872,170.276L160.006,177.17L146.604,179.298L149.316,198.461L143.676,199.448L140.633,180.16L101.867,186.196L101.169,181.374Z" style="fill:rgb(161,210,255);"/>
            </g>
        </g>
        <g>
            <g transform="matrix(0.642925,0.0373973,-0.044058,0.757434,-16.7863,80.688)">
                <rect x="295.651" y="209.496" width="91.318" height="43.828" style="fill:rgb(248,220,171);"/>
            </g>
            <g transform="matrix(0.800811,0,0,1.08405,-90.5083,10.0478)">
                <path d="M300.771,216.989L299.089,245.349L315.487,252.361L317.903,221.738L300.771,216.989Z" style="fill:rgb(242,207,146);"/>
            </g>
            <g transform="matrix(1.08405,0,0,1.08405,-181.408,9.99626)">
                <path d="M306.037,217.037L355.115,220.621L372.848,224.937L318.696,221.789L306.037,217.037Z" style="fill:rgb(255,238,208);"/>
            </g>
            <g transform="matrix(-0.99585,0.0910113,0.0910113,0.99585,306.344,75.3057)">
                <path d="M101.192,181.616L140.069,175.687L138.467,164.332L151.423,158.277L157.758,157.228L144.737,163.406L146.19,174.775L159.361,172.75L172.276,165.926L173.031,171.378L160.207,178.606L146.835,180.723L148.997,196.364L142.996,197.264L140.951,181.48L102.104,187.738L101.192,181.616Z" style="fill:rgb(161,210,255);"/>
            </g>
        </g>
        <g>
            <g transform="matrix(-0.586906,0.265127,0.312347,0.691438,373.622,63.9668)">
                <rect x="295.651" y="209.496" width="91.318" height="43.828" style="fill:rgb(248,220,171);"/>
            </g>
            <g transform="matrix(-0.747715,0.286742,0.388162,1.01218,417.162,-28.387)">
                <path d="M300.771,216.989L299.089,245.349L315.487,252.361L317.903,221.738L300.771,216.989Z" style="fill:rgb(242,207,146);"/>
            </g>
            <g transform="matrix(-1.01218,0.388162,0.388162,1.01218,502.016,-60.9832)">
                <path d="M306.037,217.037L355.115,220.621L372.848,224.937L318.696,221.789L306.037,217.037Z" style="fill:rgb(255,238,208);"/>
            </g>
            <g transform="matrix(0.96241,-0.271602,0.271602,0.96241,69.9883,174.643)">
                <path d="M101.201,181.596L140.37,175.837L138.47,164.317L151.178,158.324L157.573,157.205L144.748,163.409L146.541,174.896L159.347,172.907L172.296,165.889L173.003,171.199L160.228,178.767L147.602,180.559L150.045,196.207L143.649,197.161L141.3,181.475L102.046,187.315L101.201,181.596Z" style="fill:rgb(161,210,255);"/>
            </g>
        </g>
        <g>
            <g transform="matrix(-0.735156,-0.0713025,-0.0840019,0.866092,376.963,128.71)">
                <rect x="295.651" y="209.496" width="91.318" height="43.828" style="fill:rgb(248,220,171);"/>
            </g>
            <g transform="matrix(-0.907456,-0.141597,-0.191679,1.22842,472.993,61.6977)">
                <path d="M300.771,216.989L299.089,245.349L315.487,252.361L317.903,221.738L300.771,216.989Z" style="fill:rgb(242,207,146);"/>
            </g>
            <g transform="matrix(-1.22842,-0.191679,-0.191679,1.22842,576.007,77.712)">
                <path d="M306.037,217.037L355.115,220.621L372.848,224.937L318.696,221.789L306.037,217.037Z" style="fill:rgb(255,238,208);"/>
            </g>
            <g transform="matrix(1.11238,0.279215,-0.279215,1.11238,11.7525,65.4758)">
                <path d="M101.096,180.976L140.001,175.406L138.561,164.309L153.41,157.953L159.461,156.944L144.749,163.373L146.19,174.775L159.37,173.068L172.302,165.988L173.038,171.449L160.226,178.763L146.835,180.723L148.889,196.403L142.636,197.319L140.835,181.332L101.989,186.822L101.096,180.976Z" style="fill:rgb(161,210,255);"/>
            </g>
        </g>
    </g>
    <g transform="matrix(0.387953,0.671955,-0.763947,0.441065,267.355,-170.364)">
        <g transform="matrix(1,0,0,1,4.61051,-4.25866)">
            <path d="M241.334,112.233C241.902,108.154 245.62,105.273 249.712,105.741C254.467,106.286 260.636,106.992 265.413,107.539C267.376,107.764 269.166,108.771 270.376,110.333C271.586,111.895 272.115,113.88 271.843,115.837C271.472,118.5 271.144,120.857 271.144,120.857L240.62,117.362C240.62,117.362 240.957,114.941 241.334,112.233ZM360.798,112.233C360.23,108.154 356.512,105.273 352.42,105.741C347.665,106.286 341.496,106.992 336.719,107.539C334.756,107.764 332.967,108.771 331.756,110.333C330.546,111.895 330.017,113.88 330.29,115.837C330.66,118.5 330.988,120.857 330.988,120.857L361.512,117.362C361.512,117.362 361.175,114.941 360.798,112.233ZM381.377,109.844C381.179,107.745 380.116,105.823 378.444,104.539C376.772,103.255 374.64,102.725 372.562,103.076C372.003,103.17 371.443,103.265 370.893,103.357C367.103,103.997 364.45,107.453 364.811,111.279C364.975,113.006 365.105,114.383 365.105,114.383L381.544,111.609C381.544,111.609 381.476,110.892 381.377,109.844ZM220.756,109.844C220.954,107.745 222.017,105.823 223.689,104.539C225.361,103.255 227.492,102.725 229.571,103.076C230.13,103.17 230.69,103.265 231.24,103.357C235.03,103.997 237.683,107.453 237.321,111.279C237.158,113.006 237.028,114.383 237.028,114.383L220.589,111.609C220.589,111.609 220.656,110.892 220.756,109.844Z" style="fill:rgb(69,65,122);"/>
        </g>
        <g transform="matrix(0.738888,0,0,0.738888,176.878,-37.3634)">
            <path d="M167.007,103.166L129.376,69.828C128.355,68.924 128.149,67.409 128.89,66.264C129.632,65.12 131.099,64.689 132.341,65.251C145.375,71.147 162.586,78.933 170.467,82.498C173.068,83.675 174.74,86.265 174.74,89.12C174.74,86.265 176.411,83.675 179.012,82.498C186.893,78.933 204.104,71.147 217.138,65.251C218.381,64.689 219.847,65.12 220.589,66.264C221.33,67.409 221.124,68.924 220.103,69.828L182.541,103.106C186.129,105.41 188.634,109.281 189.058,113.809C192.483,142.963 195.745,174.012 197.801,201.406L283.865,189.299C287.6,188.774 291.176,190.992 292.366,194.571C293.555,198.15 292.018,202.067 288.711,203.882C266.829,215.892 241.603,229.737 231.664,235.192C228.839,236.743 225.599,237.371 222.399,236.989L199.703,234.282C199.897,239.711 200,244.81 200,249.51C200,276.569 194.634,299.157 174.878,299.157C155.121,299.157 149.479,277.188 149.479,250.128C149.479,245.229 149.593,239.893 149.805,234.203L127.08,236.914C123.88,237.296 120.64,236.667 117.815,235.116C107.876,229.661 82.65,215.816 60.768,203.806C57.462,201.992 55.924,198.074 57.113,194.495C58.303,190.916 61.88,188.698 65.614,189.224L151.75,201.341C153.84,173.936 157.132,142.916 160.584,113.797C161.008,109.312 163.473,105.474 167.007,103.166ZM174.74,100.844L174.74,99.617L174.74,100.844Z" style="fill:rgb(69,65,122);"/>
        </g>
        <g transform="matrix(0.992123,-0.113591,0.125264,0.899672,-20.083,65.5576)">
            <path d="M365.656,94.724C365.656,92.195 364.616,89.763 362.767,87.967C360.918,86.172 358.413,85.163 355.809,85.163L344.267,85.163C339.077,85.163 334.891,89.227 334.891,94.266C334.891,96.869 334.891,99.015 334.891,99.015L365.656,99.015L365.656,94.724Z" style="fill:rgb(184,184,184);"/>
        </g>
        <g transform="matrix(0.534339,-0.0901554,0.0674649,0.714053,173.064,69.6146)">
            <path d="M365.656,96.915C365.656,93.918 363.739,90.926 360.383,88.685C357.027,86.443 352.547,85.163 348.06,85.163C348.058,85.163 348.057,85.163 348.055,85.163C340.568,85.163 334.891,88.955 334.891,93.955C334.891,96.696 334.891,99.015 334.891,99.015L365.656,99.015L365.656,96.915Z" style="fill:rgb(184,184,184);"/>
        </g>
        <g transform="matrix(-0.992123,-0.113591,-0.125264,0.899672,609.384,65.5576)">
            <path d="M365.656,94.724C365.656,92.195 364.616,89.763 362.767,87.967C360.918,86.172 358.413,85.163 355.809,85.163L344.267,85.163C339.077,85.163 334.891,89.227 334.891,94.266C334.891,96.869 334.891,99.015 334.891,99.015L365.656,99.015L365.656,94.724Z" style="fill:rgb(184,184,184);"/>
        </g>
        <g transform="matrix(-0.534339,-0.0901554,-0.0674649,0.714053,416.238,69.6146)">
            <path d="M365.656,96.915C365.656,93.918 363.739,90.926 360.383,88.685C357.027,86.443 352.547,85.163 348.06,85.163C348.058,85.163 348.057,85.163 348.055,85.163C340.568,85.163 334.891,88.955 334.891,93.955C334.891,96.696 334.891,99.015 334.891,99.015L365.656,99.015L365.656,96.915Z" style="fill:rgb(184,184,184);"/>
        </g>
        <g transform="matrix(0.738888,0,0,0.738888,165.852,-37.3634)">
            <path d="M167.007,103.166L129.376,69.828C128.355,68.924 128.149,67.409 128.89,66.264C129.632,65.12 131.099,64.689 132.341,65.251C145.375,71.147 162.586,78.933 170.467,82.498C173.068,83.675 174.74,86.265 174.74,89.12C174.74,86.265 176.411,83.675 179.012,82.498C186.893,78.933 204.104,71.147 217.138,65.251C218.381,64.689 219.847,65.12 220.589,66.264C221.33,67.409 221.124,68.924 220.103,69.828L182.541,103.106C186.129,105.41 188.634,109.281 189.058,113.809C192.483,142.963 195.745,174.012 197.801,201.406L283.865,189.299C287.6,188.774 291.176,190.992 292.366,194.571C293.555,198.15 292.018,202.067 288.711,203.882C266.829,215.892 241.603,229.737 231.664,235.192C228.839,236.743 225.599,237.371 222.399,236.989L199.703,234.282C199.897,239.711 200,244.81 200,249.51C200,276.569 194.634,299.157 174.878,299.157C155.121,299.157 149.479,277.188 149.479,250.128C149.479,245.229 149.593,239.893 149.805,234.203L127.08,236.914C123.88,237.296 120.64,236.667 117.815,235.116C107.876,229.661 82.65,215.816 60.768,203.806C57.462,201.992 55.924,198.074 57.113,194.495C58.303,190.916 61.88,188.698 65.614,189.224L151.75,201.341C153.84,173.936 157.132,142.916 160.584,113.797C161.008,109.312 163.473,105.474 167.007,103.166ZM174.74,100.844L174.74,99.617L174.74,100.844Z" style="fill:rgb(161,202,245);"/>
        </g>
        <path d="M311.056,153.257C311.056,152.956 310.92,152.668 310.678,152.455C310.436,152.243 310.109,152.123 309.767,152.123C309.222,152.123 308.582,152.123 308.004,152.123C307.57,152.123 307.154,152.275 306.848,152.545C306.541,152.815 306.369,153.181 306.369,153.562C306.369,156.444 306.369,162.833 306.369,165.005C306.369,165.413 306.745,165.744 307.209,165.744C307.209,165.744 307.209,165.744 307.21,165.744C308.23,165.744 309.208,165.387 309.929,164.753C310.65,164.119 311.056,163.258 311.056,162.361C311.056,159.387 311.056,155.235 311.056,153.257Z" style="fill:white;"/>
        <g transform="matrix(0.928723,0,0,0.585858,21.3482,12.7216)">
            <path d="M311.056,154.059C311.056,152.99 310.434,152.123 309.668,152.123C309.186,152.123 308.638,152.123 308.13,152.123C307.157,152.123 306.369,153.223 306.369,154.579C306.369,157.643 306.369,162.732 306.369,164.813C306.369,165.327 306.667,165.744 307.036,165.744C307.038,165.744 307.04,165.744 307.042,165.744C309.259,165.744 311.056,163.238 311.056,160.148C311.056,157.983 311.056,155.648 311.056,154.059Z" style="fill:white;"/>
        </g>
        <g transform="matrix(0.886148,0,0,0.559,34.0145,6.364)">
            <path d="M311.056,154.152C311.056,153.031 310.404,152.123 309.601,152.123C309.162,152.123 308.675,152.123 308.214,152.123C307.725,152.123 307.255,152.395 306.909,152.877C306.563,153.36 306.369,154.015 306.369,154.697C306.369,157.908 306.369,163.204 306.369,165.068C306.369,165.441 306.585,165.744 306.853,165.744C306.854,165.744 306.855,165.744 306.855,165.744C307.969,165.744 309.038,165.127 309.825,164.028C310.613,162.93 311.056,161.44 311.056,159.887C311.056,157.839 311.056,155.674 311.056,154.152Z" style="fill:white;"/>
        </g>
        <g transform="matrix(0.821208,0,0,0.518035,53.0219,2.82938)">
            <path d="M311.056,154.312C311.056,153.732 310.89,153.175 310.596,152.764C310.302,152.354 309.902,152.123 309.486,152.123C309.125,152.123 308.737,152.123 308.36,152.123C307.26,152.123 306.369,153.367 306.369,154.901C306.369,158.188 306.369,163.436 306.369,165.168C306.369,165.486 306.553,165.744 306.781,165.744C306.784,165.744 306.787,165.744 306.79,165.744C309.146,165.744 311.056,163.081 311.056,159.796C311.056,157.846 311.056,155.8 311.056,154.312Z" style="fill:white;"/>
        </g>
        <g transform="matrix(-1,0,0,1,589.232,0)">
            <path d="M311.056,153.257C311.056,152.956 310.92,152.668 310.678,152.455C310.436,152.243 310.109,152.123 309.767,152.123C309.222,152.123 308.582,152.123 308.004,152.123C307.57,152.123 307.154,152.275 306.848,152.545C306.541,152.815 306.369,153.181 306.369,153.562C306.369,156.609 306.369,163.579 306.369,165.336C306.369,165.561 306.576,165.744 306.833,165.744C306.943,165.744 307.07,165.744 307.21,165.744C308.23,165.744 309.208,165.387 309.929,164.753C310.65,164.119 311.056,163.258 311.056,162.361C311.056,159.387 311.056,155.235 311.056,153.257Z" style="fill:white;"/>
        </g>
        <g transform="matrix(-0.928723,0,0,0.585858,568.582,12.7216)">
            <path d="M311.056,154.059C311.056,152.99 310.434,152.123 309.668,152.123C309.186,152.123 308.638,152.123 308.13,152.123C307.157,152.123 306.369,153.223 306.369,154.579C306.369,158.122 306.369,164.375 306.369,165.55C306.369,165.602 306.383,165.651 306.409,165.687C306.435,165.723 306.471,165.744 306.507,165.744C306.625,165.744 306.811,165.744 307.042,165.744C309.259,165.744 311.056,163.238 311.056,160.148C311.056,157.983 311.056,155.648 311.056,154.059Z" style="fill:white;"/>
        </g>
        <g transform="matrix(-0.886148,0,0,0.559,556.162,6.364)">
            <path d="M311.056,154.152C311.056,153.031 310.404,152.123 309.601,152.123C309.162,152.123 308.675,152.123 308.214,152.123C307.725,152.123 307.255,152.395 306.909,152.877C306.563,153.36 306.369,154.015 306.369,154.697C306.369,157.908 306.369,163.204 306.369,165.068C306.369,165.441 306.585,165.744 306.853,165.744C306.854,165.744 306.855,165.744 306.855,165.744C307.969,165.744 309.038,165.127 309.825,164.028C310.613,162.93 311.056,161.44 311.056,159.887C311.056,157.839 311.056,155.674 311.056,154.152Z" style="fill:white;"/>
        </g>
        <g transform="matrix(-0.821208,0,0,0.518035,536.904,2.82938)">
            <path d="M311.056,154.312C311.056,153.732 310.89,153.175 310.596,152.764C310.302,152.354 309.902,152.123 309.486,152.123C309.125,152.123 308.737,152.123 308.36,152.123C307.26,152.123 306.369,153.367 306.369,154.901C306.369,158.192 306.369,163.449 306.369,165.175C306.369,165.489 306.551,165.744 306.777,165.744C306.781,165.744 306.786,165.744 306.79,165.744C309.146,165.744 311.056,163.081 311.056,159.796C311.056,157.846 311.056,155.8 311.056,154.312Z" style="fill:white;"/>
        </g>
    </g>
    <g transform="matrix(0.518522,-0.11404,0.11404,0.518522,-8.45593,30.7435)">
        <g transform="matrix(1.01787,0,0,1.01787,-19.6356,-16.0968)">
            <path d="M215.78,24.607C319.373,24.607 403.477,108.711 403.477,212.303C403.477,315.896 28.083,315.896 28.083,212.303C28.083,108.711 112.187,24.607 215.78,24.607Z" style="fill:rgb(253,61,60);"/>
            <g>
                <clipPath id="_clip1">
                    <path d="M215.78,24.607C319.373,24.607 403.477,108.711 403.477,212.303C403.477,315.896 28.083,315.896 28.083,212.303C28.083,108.711 112.187,24.607 215.78,24.607Z"/>
                </clipPath>
                <g clip-path="url(#_clip1)">
                    <g transform="matrix(1,0,0,1,0,27.1628)">
                        <circle cx="215.78" cy="212.303" r="187.697" style="fill:rgb(191,92,109);"/>
                    </g>
                </g>
            </g>
        </g>
        <path d="M200,36.598L200,170.69" style="fill:none;stroke:rgb(253,61,60);stroke-width:3.2px;"/>
        <path d="M10.238,209.571C10.238,209.571 129.318,282.125 150.285,297.463" style="fill:none;stroke:rgb(253,61,60);stroke-width:3.2px;"/>
        <g transform="matrix(-1,0,0,1,397.365,0)">
            <path d="M10.238,209.571C10.238,209.571 129.318,282.125 150.285,297.463" style="fill:none;stroke:rgb(253,61,60);stroke-width:3.2px;"/>
        </g>
        <path d="M33.978,127.001L162.978,265.768" style="fill:none;stroke:rgb(253,61,60);stroke-width:3.2px;"/>
        <g transform="matrix(-1,0,0,1,397.365,0)">
            <path d="M33.978,127.001L162.978,265.768" style="fill:none;stroke:rgb(253,61,60);stroke-width:3.2px;"/>
        </g>
        <g transform="matrix(1.00174,0.00417835,0.00417835,1.01003,-0.991613,-2.3794)">
            <path d="M105.512,62.423L168.643,182.323" style="fill:none;stroke:rgb(253,61,60);stroke-width:3.17px;"/>
        </g>
        <g transform="matrix(-1.00174,0.00417835,-0.00417835,1.01003,398.356,-2.3794)">
            <path d="M105.512,62.423L168.643,182.323" style="fill:none;stroke:rgb(253,61,60);stroke-width:3.17px;"/>
        </g>
    </g>
    <g transform="matrix(0.518522,-0.11404,0.11404,0.518522,-4.66559,49.0814)">
        <path d="M156.276,254.302C156.276,254.302 127.68,234.388 114.418,222.268C110.008,218.237 96.965,207.668 85.761,213.107C85.761,213.107 65.831,221.694 72.641,242.382C74.91,249.275 80.114,260.454 88.023,256.116C91.147,254.402 94.451,251.261 88.41,239.479C84.04,230.955 93.105,223.465 98.723,229.086C102.152,232.516 140.7,264.45 152.725,271.07" style="fill:rgb(170,154,133);stroke:rgb(68,19,163);stroke-width:3.2px;"/>
        <g transform="matrix(1,0,0,1,-0.900616,-0.0631138)">
            <path d="M168.036,153.072C168.036,153.072 161.584,134.642 152.07,144.992C152.07,144.992 131.648,164.681 148.336,189.856L161.882,233.503C161.882,233.503 143.662,296.464 154.624,313.391L138.572,330.793L155.804,345.024L187.814,320.316C187.814,320.316 202.312,322.57 214.512,320.682L244.328,344.039L261.537,325.685L245.181,312.821C245.181,312.821 255.381,299.283 239.514,233.503L261.537,177.194C261.537,177.194 254.197,139.388 239.514,142.942C239.514,142.942 234.842,144.873 232.279,154.383C232.279,154.383 221.305,134.267 200,136.289C200,136.289 183.69,132.748 168.036,153.072Z" style="fill:rgb(247,241,219);"/>
        </g>
        <g transform="matrix(1.04885,0,0,0.917104,-17.1179,25.6992)">
            <path d="M205.764,224.806C219.112,224.576 223.76,230.572 228.168,248.737C231.952,264.333 235.092,299.776 231.818,309.66C228.644,319.24 214.368,322.068 207.006,322.068C199.372,322.068 186.682,319.726 181.818,310.358C177.302,301.66 180.665,261.809 184.855,249.146C188.677,237.597 191.043,225.061 205.764,224.806Z" style="fill:rgb(228,219,184);"/>
        </g>
        <g transform="matrix(0.463571,0,0,0.463571,106.709,113.768)">
            <path d="M110.175,115.912C110.175,115.912 141.704,47.792 201.243,46.725C233.565,46.146 259.436,64.076 289.549,116.285C289.549,116.285 268.048,89.997 242.007,90.676C242.007,90.676 220.57,93.401 213.587,111.978C213.587,111.978 212.087,123.952 199.127,123.956C192.561,123.958 185.393,121.246 183.708,111.978C183.708,111.978 175.899,89.109 150.062,90.676C150.062,90.676 134.638,91.333 115.288,110.498C113.611,112.16 111.904,113.96 110.175,115.912Z" style="fill:rgb(170,154,133);"/>
        </g>
        <g transform="matrix(0.463571,0,0,0.463571,106.709,113.768)">
            <path d="M182.943,49.532C182.943,49.532 153.163,52.646 119.947,99.722C119.947,99.722 93.01,134.288 101.95,169.817C104.992,181.907 114.341,194.374 129.71,204.049C129.71,204.049 136.234,207.902 145.601,211.336" style="fill:none;stroke:rgb(68,19,163);stroke-width:7px;"/>
        </g>
        <g transform="matrix(0.463571,0,0,0.463571,106.709,113.768)">
            <path d="M263.156,211.336C270.393,207.715 281.311,196.562 281.311,196.562C281.311,196.562 298.416,180.479 297.986,152.77C297.986,152.77 299.215,128.034 282.314,102.205C282.314,102.205 262.884,71.523 241.091,57.786C239.085,56.522 223.826,45.911 199.523,47.581C193.957,47.963 189.57,47.963 182.943,49.532" style="fill:none;stroke:rgb(68,19,163);stroke-width:7px;"/>
        </g>
        <g transform="matrix(0.463571,0,0,0.463571,106.709,113.768)">
            <path d="M129.758,86.348C129.989,77.245 121.184,64.199 115.283,62.379C99.111,57.395 87.013,80.751 81.278,93.579C76.655,103.92 73.704,112.718 72.189,124.956C70.713,136.877 71.697,154.544 80.618,171.373C86.436,182.347 94.089,189.009 107.735,183.787" style="fill:none;stroke:rgb(68,19,163);stroke-width:7px;"/>
        </g>
        <g transform="matrix(-0.463571,0,0,0.463571,293.291,113.768)">
            <path d="M129.758,86.348C129.989,77.245 121.184,64.199 115.283,62.379C99.111,57.395 87.013,80.751 81.278,93.579C76.655,103.92 73.704,112.718 72.189,124.956C70.713,136.877 71.697,154.544 80.618,171.373C86.436,182.347 94.089,189.009 107.735,183.787" style="fill:none;stroke:rgb(68,19,163);stroke-width:7px;"/>
        </g>
        <g transform="matrix(0.463571,0,0,0.463571,106.709,113.768)">
            <path d="M297.986,83.114C291.46,83.742 288.433,101.195 289.378,111.527" style="fill:none;stroke:rgb(70,0,167);stroke-width:3px;"/>
        </g>
        <g transform="matrix(0.463571,0,0,0.463571,106.709,113.768)">
            <path d="M102.21,83.114C108.736,83.742 111.763,101.195 110.818,111.527" style="fill:none;stroke:rgb(68,19,163);stroke-width:3px;"/>
        </g>
        <g transform="matrix(0.463571,0,0,0.463571,106.577,107.907)">
            <path d="M103.011,152.468C103.011,152.468 112.044,113.263 140.35,105.39" style="fill:none;stroke:rgb(68,19,163);stroke-width:3px;"/>
        </g>
        <g transform="matrix(0.463571,0,0,0.463571,106.577,107.907)">
            <path d="M295.422,143.854C295.422,143.854 285.369,113.263 257.064,105.39" style="fill:none;stroke:rgb(68,19,163);stroke-width:3px;"/>
        </g>
        <g transform="matrix(0.463571,0,0,0.463571,106.577,107.907)">
            <circle cx="152.339" cy="136.537" r="33.28" style="fill:white;stroke:rgb(68,19,163);stroke-width:3px;"/>
        </g>
        <g transform="matrix(0.463571,0,0,0.464435,106.577,107.817)">
            <ellipse cx="245.378" cy="136.599" rx="33.342" ry="33.28" style="fill:white;stroke:rgb(68,19,163);stroke-width:3px;"/>
        </g>
        <path d="M192.624,190.95C192.624,190.95 196.948,189.916 198.738,188.492C198.738,188.492 202.646,190.324 205.683,190.935C205.683,190.935 203.686,200.714 199.326,200.756C199.326,200.756 195.25,201.304 192.624,190.95Z" style="fill:rgb(255,186,228);"/>
        <g transform="matrix(0.551118,0,0,0.551118,89.129,91.3977)">
            <path d="M174.819,176.223C180.861,186.624 199.021,175.809 199.021,175.809" style="fill:none;stroke:rgb(68,19,163);stroke-width:2.54px;"/>
        </g>
        <g transform="matrix(0.551118,0,0,0.551118,89.129,91.3977)">
            <path d="M199.523,175.884C222.354,186.918 223.775,175.809 223.775,175.809" style="fill:none;stroke:rgb(68,19,163);stroke-width:2.54px;"/>
        </g>
        <g transform="matrix(0.463571,0,0,0.463571,106.577,107.907)">
            <ellipse cx="155.597" cy="134.697" rx="4.181" ry="4.306" style="fill:rgb(68,19,163);"/>
        </g>
        <g transform="matrix(0.463571,0,0,0.463571,106.577,107.907)">
            <ellipse cx="239.687" cy="134.697" rx="4.181" ry="4.306" style="fill:rgb(68,19,163);"/>
        </g>
        <g transform="matrix(0.463571,0,0,0.463571,106.577,107.907)">
            <path d="M200.944,162.483C204.248,164.298 206.193,167.115 205.284,168.769C204.375,170.424 200.954,170.293 197.65,168.478C194.346,166.662 192.401,163.845 193.31,162.191C194.219,160.537 197.64,160.667 200.944,162.483Z" style="fill:rgb(68,19,163);"/>
        </g>
        <g transform="matrix(0.463571,0,0,0.463571,106.577,107.907)">
            <path d="M183.986,125.977C183.986,125.977 187.458,137.004 199.021,136.73C199.021,136.73 210.983,137.529 213.855,125.732" style="fill:none;stroke:rgb(68,19,163);stroke-width:3px;"/>
        </g>
        <path d="M192.861,191.007C192.861,191.007 194.763,200.513 199.09,200.452C200.278,200.435 203.259,200.833 205.773,191.022" style="fill:none;stroke:rgb(68,19,163);stroke-width:1.4px;"/>
        <g transform="matrix(1,0,0,0.883891,0,26.1241)">
            <path d="M237.121,224.995C237.121,224.995 256.286,306.982 245.31,324.531L260.65,341.318" style="fill:none;stroke:rgb(68,19,163);stroke-width:3.39px;"/>
        </g>
        <g transform="matrix(-1,0,0,0.883891,400.186,26.1241)">
            <path d="M236.56,224.995C236.56,224.995 256.929,310.078 245.31,324.531L258.596,341.318" style="fill:none;stroke:rgb(68,19,163);stroke-width:3.39px;"/>
        </g>
        <g transform="matrix(1,0,0,1,-1.23918,-10.8955)">
            <path d="M158.981,354.064L188.686,331.558C188.686,331.558 203.466,333.145 215.702,331.558L243.266,354.233" style="fill:none;stroke:rgb(68,19,163);stroke-width:3.2px;"/>
        </g>
        <g transform="matrix(1,0,0,1,8.53634,-8.52153)">
            <path d="M152.878,324.609C152.878,324.609 151.903,305.897 138.572,317.251C138.572,317.251 132.053,313.046 127.628,320.862C127.628,320.862 119.329,320.217 125.56,333.253C125.56,333.253 131.377,356.334 146.902,351.639C146.902,351.639 165.306,348.411 152.878,324.609Z" style="fill:rgb(247,241,219);"/>
            <g transform="matrix(1,0,0,1,-0.0342284,0.181531)">
                <path d="M147.774,328.823C147.774,328.823 152.83,306.969 138.572,317.251C138.572,317.251 132.053,313.046 127.628,320.862C127.628,320.862 119.329,320.217 125.56,333.253C125.56,333.253 131.377,356.334 146.902,351.639C146.902,351.639 160.202,352.625 147.774,328.823Z" style="fill:rgb(170,154,133);"/>
            </g>
            <g transform="matrix(1,0,0,1,-1.23918,-10.8955)">
                <path d="M129.517,330.813C129.517,330.813 122.644,332.043 124.901,338.816C124.901,338.816 130.008,363.418 145.962,363.607C149.828,363.653 162.443,360.883 158.36,343.345" style="fill:none;stroke:rgb(68,19,163);stroke-width:3.2px;"/>
            </g>
            <g transform="matrix(1,0,0,1,-1.23918,-10.8955)">
                <path d="M133.165,341.251C133.165,341.251 127.033,332.695 133.403,328.324C133.403,328.324 135.391,326.892 138.113,327.656" style="fill:none;stroke:rgb(68,19,163);stroke-width:3.2px;"/>
            </g>
            <g transform="matrix(1,0,0,1,-1.23918,-10.8955)">
                <path d="M141.829,338.707C141.829,338.707 133.011,327.29 144.319,324.596C144.319,324.596 153.203,322.225 153.846,334.374" style="fill:none;stroke:rgb(68,19,163);stroke-width:3.2px;"/>
            </g>
        </g>
        <g transform="matrix(1,0,0,1,-9.39668,-8.52098)">
            <g transform="matrix(-1,0,0,1,399.848,0)">
                <path d="M152.878,324.609C152.878,324.609 151.903,305.897 138.572,317.251C138.572,317.251 132.053,313.046 127.628,320.862C127.628,320.862 119.329,320.217 125.56,333.253C125.56,333.253 131.377,356.334 146.902,351.639C146.902,351.639 165.306,348.411 152.878,324.609Z" style="fill:rgb(247,241,219);"/>
            </g>
            <g transform="matrix(-1,0,0,1,400.313,0.442684)">
                <path d="M147.774,328.823C147.774,328.823 152.83,306.969 138.572,317.251C138.572,317.251 132.053,313.046 127.628,320.862C127.628,320.862 119.329,320.217 125.56,333.253C125.56,333.253 131.377,356.334 146.902,351.639C146.902,351.639 160.202,352.625 147.774,328.823Z" style="fill:rgb(170,154,133);"/>
            </g>
            <g transform="matrix(-1,0,0,1,401.239,-10.8955)">
                <path d="M129.517,330.813C129.517,330.813 122.644,332.043 124.901,338.816C124.901,338.816 130.008,363.418 145.962,363.607C145.962,363.607 163.183,361.273 158.36,343.345" style="fill:none;stroke:rgb(68,19,163);stroke-width:3.2px;"/>
            </g>
            <g transform="matrix(-1,0,0,1,401.239,-10.8955)">
                <path d="M132.665,341.318C132.665,341.318 125.647,331.418 132.775,328.315C132.775,328.315 135.391,326.892 138.113,327.656" style="fill:none;stroke:rgb(68,19,163);stroke-width:3.2px;"/>
            </g>
            <g transform="matrix(-1,0,0,1,401.239,-10.8955)">
                <path d="M141.829,338.707C141.829,338.707 133.011,327.29 144.319,324.596C144.319,324.596 153.203,322.225 153.846,334.374" style="fill:none;stroke:rgb(68,19,163);stroke-width:3.2px;"/>
            </g>
        </g>
        <g transform="matrix(0.359617,0.9331,-0.9331,0.359617,338.192,-108.449)">
            <g transform="matrix(1,0,0,1,102.732,-0.080361)">
                <path d="M173.32,204.34L146.473,169.637C146.473,169.637 141.916,156.465 136.201,153.807C136.201,153.807 132.428,144.173 128.088,152.029C128.088,152.029 124.655,149.475 122.539,156.482C122.539,156.482 112.997,153.098 120.244,164.619C120.244,164.619 124.725,174.833 132.442,178.143L161.112,226.503L181.934,215.544L173.32,204.34Z" style="fill:rgb(247,241,219);"/>
            </g>
            <g transform="matrix(0.990335,0,0,0.980604,107.821,3.02143)">
                <path d="M152.956,219.39C152.956,219.39 141.158,197.846 128.506,178.063C128.506,178.063 121.281,174.61 117.202,165.832C117.202,165.832 112.674,159.384 114.489,157.176C116.021,155.312 117.967,155.584 118.552,156.401" style="fill:none;stroke:rgb(68,19,163);stroke-width:3.25px;"/>
            </g>
            <g transform="matrix(1,0,0,1,108.75,2.53455)">
                <path d="M121.372,149.579C119.967,148.869 112.005,150.207 120.106,158.32" style="fill:none;stroke:rgb(68,19,163);stroke-width:3.2px;"/>
            </g>
            <g transform="matrix(1,0,0,1,106.718,0)">
                <path d="M126.732,157.653C121.858,152.7 125.249,149.66 125.249,149.66C125.249,149.66 129.156,146.436 133.008,154.189C133.008,154.189 139.617,160.644 142.139,169.452L176.87,215.049" style="fill:none;stroke:rgb(68,19,163);stroke-width:3.2px;"/>
            </g>
        </g>
        <g transform="matrix(-0.359617,0.9331,0.9331,0.359617,62.9041,-109.098)">
            <g transform="matrix(1,0,0,1,102.732,-0.080361)">
                <path d="M173.32,204.34L146.473,169.637C146.473,169.637 141.916,156.465 136.201,153.807C136.201,153.807 132.428,144.173 128.088,152.029C128.088,152.029 124.655,149.475 122.539,156.482C122.539,156.482 112.997,153.098 120.244,164.619C120.244,164.619 124.725,174.833 132.442,178.143L161.112,226.503L181.452,215.39L173.32,204.34Z" style="fill:rgb(247,241,219);"/>
            </g>
            <g transform="matrix(0.990335,0,0,0.980604,107.821,3.02143)">
                <path d="M153.157,220.705C153.157,220.705 141.158,197.846 128.506,178.063C128.506,178.063 121.281,174.61 117.202,165.832C117.202,165.832 112.674,159.384 114.489,157.176C116.021,155.312 117.967,155.584 118.552,156.401" style="fill:none;stroke:rgb(68,19,163);stroke-width:3.25px;"/>
            </g>
            <g transform="matrix(1,0,0,1,108.75,2.53455)">
                <path d="M121.372,149.579C119.967,148.869 112.005,150.207 120.106,158.32" style="fill:none;stroke:rgb(68,19,163);stroke-width:3.2px;"/>
            </g>
            <g transform="matrix(1,0,0,1,106.718,0)">
                <path d="M126.732,157.653C121.858,152.7 125.249,149.66 125.249,149.66C125.249,149.66 129.156,146.436 133.008,154.189C133.008,154.189 139.617,160.644 142.139,169.452L176.87,215.049" style="fill:none;stroke:rgb(68,19,163);stroke-width:3.2px;"/>
            </g>
        </g>
    </g>
    <g transform="matrix(0.518522,-0.11404,0.11404,0.518522,-8.45593,30.7435)">
        <path d="M205.361,341.978L199.806,318.078L196.689,342.163" style="fill:none;stroke:rgb(253,61,60);stroke-width:3.2px;"/>
    </g>
    <g transform="matrix(0.518522,-0.11404,0.11404,0.518522,-8.45593,30.7435)">
        <path d="M197.96,310.445C197.96,310.445 178.462,324.185 187.618,330.961C187.618,330.961 199.911,339.78 199.806,312.836C199.806,312.836 200.381,336.845 211.977,333.078C211.977,333.078 222.881,326.962 202.309,310.445" style="fill:none;stroke:rgb(253,61,60);stroke-width:3.2px;"/>
    </g>
    <g transform="matrix(0.518522,-0.11404,0.11404,0.518522,-8.45593,30.7435)">
        <path d="M150.435,309.726C150.435,309.726 242.583,308.162 247.08,302.812C247.08,302.812 173.021,316.283 149.851,317.897C149.851,317.897 230.63,315.92 248.946,312.105C248.946,312.105 160.395,311.238 151.515,304.687C151.515,304.687 232.686,318.255 249.76,318.076" style="fill:none;stroke:rgb(253,61,60);stroke-width:3.2px;"/>
    </g>
    <g transform="matrix(0.801606,0.25871,-0.25871,0.801606,95.2663,-43.2634)">
        <path d="M277.985,125.73C284.786,129.289 295.737,144.922 297.623,152.468C302.061,170.22 299.377,181.432 280.168,191.427C259.832,202.011 249.082,182.653 260.041,172.647C269.495,164.014 289.628,164.921 295.177,177.527C302.058,193.157 294.473,221.55 287.428,231.085" style="fill:none;stroke:rgb(192,223,255);stroke-width:4.75px;"/>
    </g>
    <g transform="matrix(0.703046,0.0241373,-0.0383295,1.11642,124.989,12.5276)">
        <path d="M277.985,125.73C284.786,129.289 295.737,144.922 297.623,152.468C302.061,170.22 299.377,181.432 280.168,191.427C259.832,202.011 249.082,182.653 260.041,172.647C269.495,164.014 289.628,164.921 295.177,177.527C302.058,193.157 294.473,221.55 287.428,231.085" style="fill:none;stroke:rgb(192,223,255);stroke-width:4.29px;"/>
    </g>
    <g transform="matrix(-0.561701,-0.167696,-0.196036,0.656627,262.744,182.588)">
        <path d="M277.985,125.73C284.786,129.289 295.737,144.922 297.623,152.468C302.061,170.22 299.377,181.432 280.168,191.427C259.832,202.011 249.082,182.653 260.041,172.647C269.495,164.014 289.628,164.921 295.177,177.527C302.058,193.157 294.473,221.55 287.428,231.085" style="fill:none;stroke:rgb(192,223,255);stroke-width:6.27px;"/>
    </g>
</svg>
