<?xml version="1.0" encoding="UTF-8" standalone="no"?>
<!DOCTYPE svg PUBLIC "-//W3C//DTD SVG 1.1//EN" "http://www.w3.org/Graphics/SVG/1.1/DTD/svg11.dtd">
<svg width="100%" height="100%" viewBox="0 0 400 400" version="1.1" xmlns="http://www.w3.org/2000/svg" xmlns:xlink="http://www.w3.org/1999/xlink" xml:space="preserve" xmlns:serif="http://www.serif.com/" style="fill-rule:evenodd;clip-rule:evenodd;stroke-linecap:round;stroke-linejoin:round;stroke-miterlimit:1.5;">
    <g transform="matrix(1,0,0,1,-33.8126,0)">
        <ellipse cx="175.34" cy="332.387" rx="125.855" ry="29.881" style="fill:rgb(61,204,243);fill-opacity:0.43;"/>
    </g>
    <g transform="matrix(1,0,0,1.22511,92.0427,-60.7566)">
        <ellipse cx="175.34" cy="332.387" rx="125.855" ry="29.881" style="fill:rgb(255,0,16);fill-opacity:0.42;"/>
    </g>
    <g transform="matrix(0.812825,0,0,0.766537,74.5801,47.7197)">
        <ellipse cx="175.34" cy="332.387" rx="125.855" ry="29.881" style="fill:rgb(232,184,92);fill-opacity:0.49;"/>
    </g>
    <g transform="matrix(1.59416,0,0,1.59541,40.5588,-199.961)">
        <g transform="matrix(0.478945,0,0,0.478945,22.4635,173.704)">
            <path d="M135.217,47.214C135.217,47.214 130.472,28.681 116.902,28.468C116.902,28.468 103.31,106.941 122.627,116.645C122.627,116.645 121.59,127.044 148.237,134.296L132.839,159.601C132.839,159.601 119.521,155.008 104.71,155.528C104.71,155.528 87.901,141.51 81.752,150.024C81.752,150.024 75.717,156.457 90.089,159.859C90.089,159.859 86.055,164.366 90.732,168.077C90.732,168.077 81.768,173.181 90.556,179.043C90.556,179.043 103.616,191.609 112.892,177.632C112.892,177.632 130.678,188.467 148.854,182.751C148.854,182.751 126.981,251.157 133.224,269.814C133.224,269.814 146.199,285.579 145.62,295.764L139.721,313.839C139.721,313.839 138.864,314.027 137.583,316.918C137.583,316.918 131.199,309.981 128.704,314.217C128.704,314.217 121.972,336.442 138.402,329.933C138.402,329.933 141.171,336.969 154.254,330.95C154.254,330.95 166.01,335.985 170.591,326.692C170.591,326.692 171.575,316.52 170.887,313.419C170.887,313.419 186.17,296.193 171.631,293.387L171.871,277.851C171.871,277.851 193.636,280.259 205.195,277.812C205.195,277.812 212.666,292.271 211.772,297.603L203.956,315.276C203.956,315.276 195.096,309.145 194.023,317.038C194.023,317.038 187.714,334.94 204.418,330.011C204.418,330.011 205.937,337.08 218.124,329.951C218.124,329.951 230.735,339.074 237.303,326.353L237.185,313.818C237.185,313.818 254.417,295.536 236.865,293.285L238.263,275.951C238.263,275.951 250.283,276.486 253.856,255.662C253.856,255.662 282.722,239.806 308.069,182.081C308.069,182.081 316.052,158.393 316.297,140.623C316.297,140.623 317.357,128.193 330.482,133.375C330.482,133.375 349.515,147.672 354.497,134.26C354.497,134.26 359.019,119.456 337.112,117.145C337.112,117.145 306.31,98.586 302.237,136.28C302.237,136.28 300.974,187.165 253.042,234.448C253.042,234.448 250.927,190.879 241.05,155.279C241.05,155.279 244.196,141.477 238.67,122.887C238.67,122.887 256.64,129.558 263.229,100.603C263.229,100.603 271.22,52.368 261.519,28.693C261.519,28.693 262.226,8.888 245.395,26.852L218.124,82.549L135.217,47.214Z" style="fill:rgb(247,237,192);"/>
        </g>
        <g transform="matrix(0.664387,0,0,0.478945,-8.98585,173.704)">
            <path d="M194.777,277.95C194.777,277.95 180.56,280.281 164.016,275.664C164.016,275.664 147.955,272.256 155.361,245.975C155.361,245.975 161.375,216.431 160.725,197.042C160.42,187.924 164.888,178.556 174.05,177.968C182.064,177.454 200.465,175.638 203.615,197.449C206.332,216.259 207.523,229.682 208.061,248.447C208.376,259.451 186.607,260.158 191.512,271.02L194.777,277.95Z" style="fill:rgb(230,215,147);"/>
        </g>
        <g transform="matrix(0.478945,0,0,0.478945,22.4635,173.704)">
            <path d="M145.09,40.375C145.09,40.375 126.461,4.507 119.581,16.661L116.055,34.519C116.055,34.519 132.54,26.523 132.079,52.167C132.079,52.167 123.875,64.815 130.077,88.843C130.077,88.843 146.793,74.377 157.575,98.473C157.575,98.473 159.128,89.944 178.568,82.619C178.568,82.619 224.746,78.228 231.019,116.645C231.019,116.645 223.923,33.547 263.229,27.308C263.229,27.308 261.119,5.631 251.837,9.51C251.837,9.51 229.248,22.788 217.689,39.136C217.689,39.136 180.054,21.518 145.09,40.375Z" style="fill:rgb(171,139,96);"/>
        </g>
        <g transform="matrix(0.478945,0,0,0.478945,22.4635,173.704)">
            <path d="M202.378,137.275C202.378,137.275 196.384,131.978 188.932,129.533C188.932,129.533 176.74,104.866 167.789,115.609C167.789,115.609 165.598,122.055 174.091,128.3C174.091,128.3 167.576,129.995 168.914,136.641C168.914,136.641 159.408,138.283 167.959,148.378C167.959,148.378 174.847,161.318 187.965,152.947C187.965,152.947 199.197,168.445 208.607,172.524C208.607,172.524 214.791,171.222 209.364,160.568C209.364,160.568 228.7,159.11 213.235,146.413L202.378,137.275Z" style="fill:rgb(171,139,96);"/>
        </g>
        <g transform="matrix(0.478945,0,0,0.478945,22.4635,173.704)">
            <path d="M133.365,161.199C133.365,161.199 136.304,166.614 131.577,166.183C131.577,166.183 104.731,156.74 104.655,162.593C104.655,162.593 114.954,169.83 105.223,173.716C105.223,173.716 112.625,180.249 104.002,182.898C104.002,182.898 82.671,182.442 88.656,169.182C88.656,169.182 84.459,161.209 91.119,159.397C91.119,159.397 77.428,152.179 82.25,148.006C82.25,148.006 87.765,141.938 106.892,156.36L133.365,161.199Z" style="fill:rgb(171,139,96);"/>
        </g>
        <g transform="matrix(0.478945,0,0,0.478945,22.4635,173.704)">
            <path d="M292.199,178.258C292.199,178.258 299.687,157.315 305.176,121.774C305.176,121.774 308.005,113.823 323.502,112.899C323.502,112.899 357.174,117.256 353.754,135.097C353.754,135.097 351.234,148.299 328.764,132.323C328.764,132.323 316.394,127.681 316.282,149.619C316.282,149.619 309.766,176.105 306.573,182.898C303.38,189.691 305.789,172.977 292.199,178.258Z" style="fill:rgb(171,139,96);"/>
        </g>
        <g transform="matrix(0.671418,0,0,0.671418,3.37686,148.51)">
            <path d="M183.693,64.454C163.794,56.853 145.325,60.353 138.346,63.395C131.035,66.582 111.614,74.78 122.537,108.371C122.537,108.371 100.466,125.867 140.526,134.987" style="fill:none;stroke:rgb(41,2,119);stroke-width:3.57px;"/>
        </g>
        <g transform="matrix(0.727148,0,0,0.671418,-6.61369,148.51)">
            <path d="M179.273,72.331C179.273,72.331 196.654,44.089 207.709,44.348C217.101,44.568 223.726,131.693 197.993,125.183" style="fill:none;stroke:rgb(41,2,119);stroke-width:3.42px;"/>
        </g>
        <g transform="matrix(0.844083,0,0,0.671418,-19.4018,148.51)">
            <path d="M131.925,65.931C131.925,65.931 124.85,46.975 119.179,47.508C113.275,48.063 109.14,115.111 119.375,120.73" style="fill:none;stroke:rgb(41,2,119);stroke-width:3.14px;"/>
        </g>
        <g transform="matrix(0.671418,0,0,0.671418,3.37686,148.51)">
            <path d="M133.369,133.447C133.369,133.447 130.456,139.107 123.704,151.499" style="fill:none;stroke:rgb(41,2,119);stroke-width:3.57px;"/>
        </g>
        <g transform="matrix(0.504856,0,0,0.671418,28.8316,144.92)">
            <path d="M116.928,159.185C116.928,159.185 109.688,155.701 87.178,153.144C87.178,153.144 65.645,142.29 64.947,150.469C64.947,150.469 64.391,155.421 75.477,156.777C75.477,156.777 68.635,158.776 73.215,163.488C73.215,163.488 67.736,164.661 72.171,169.715C72.171,169.715 87.409,179.89 94.208,169.301C94.208,169.301 110.82,177.126 128.438,173.211" style="fill:none;stroke:rgb(41,2,119);stroke-width:4.03px;"/>
        </g>
        <g transform="matrix(0.463346,0.200474,-0.266614,0.616215,113.274,123.393)">
            <path d="M116.928,159.185C116.928,159.185 109.688,155.701 87.178,153.144C87.178,153.144 65.645,142.29 64.947,150.469C64.947,150.469 64.391,155.421 75.477,156.777C75.477,156.777 68.635,158.776 73.215,163.488C73.215,163.488 67.736,164.661 72.171,169.715C72.171,169.715 87.409,179.89 94.208,169.301C94.208,169.301 171.566,199.267 133.815,140.132C126.911,129.318 103.634,133.474 112.733,149.022" style="fill:none;stroke:rgb(41,2,119);stroke-width:4.03px;"/>
        </g>
        <g transform="matrix(0.478945,0,0,0.415121,22.4635,183.631)">
            <path d="M240.501,155.543C240.501,155.543 272.255,295.824 237.339,294.906" style="fill:none;stroke:rgb(41,2,119);stroke-width:5.34px;"/>
        </g>
        <g transform="matrix(0.478945,0,0,0.415121,22.4635,183.631)">
            <path d="M151.506,162.443C147.461,218.099 124.167,266.789 133.384,288.948C136.736,297.007 143.982,301.596 145.596,317.142C145.596,317.142 142.94,327.271 140.108,338.078" style="fill:none;stroke:rgb(41,2,119);stroke-width:5.34px;"/>
        </g>
        <g transform="matrix(0.353097,0,0,0.39478,42.1861,189.204)">
            <path d="M148.794,350.309C148.794,350.309 134.545,333.431 130.242,345.781C130.242,345.781 122.203,370.334 148.794,363.264" style="fill:none;stroke:rgb(41,2,119);stroke-width:6.39px;"/>
        </g>
        <g transform="matrix(0.458235,0,0,0.478945,26.6479,173.704)">
            <path d="M217.947,320.557C217.947,320.557 214.02,315.384 210.178,313.512C208.729,312.806 207.284,312.565 206.021,313.048C204.779,313.524 203.652,314.714 202.921,317.059C202.92,317.063 202.919,317.068 202.917,317.072C202.917,317.072 201.834,320.772 202.082,324.617C202.255,327.305 203.09,330.042 205.255,331.76C207.519,333.556 211.315,334.291 217.552,332.437L217.114,330.961C211.588,332.604 208.218,332.144 206.212,330.553C204.392,329.11 203.764,326.777 203.618,324.518C203.396,321.067 204.327,317.742 204.392,317.517C204.931,315.787 205.658,314.836 206.572,314.486C207.466,314.144 208.478,314.397 209.503,314.896C213.083,316.64 216.719,321.485 216.719,321.485L217.947,320.557Z" style="fill:none;stroke:rgb(41,2,119);stroke-width:5.11px;"/>
        </g>
        <g transform="matrix(0.353097,0,0,0.39478,42.1861,189.204)">
            <path d="M166.381,347.811C166.235,346.255 164.688,344.414 162.426,343.153C159.134,341.318 154.477,340.709 151.267,343.579C149.109,345.507 147.548,349.127 147.75,355.321C147.75,355.304 147.824,360.295 151.625,363.431C154.117,365.487 158.221,366.825 165.026,365.285C165.703,365.25 168.905,364.927 171.748,362.051C174.679,359.087 177.33,353.243 175.846,341.659C177.223,340.098 183.28,332.986 185.039,326.738C185.757,324.191 185.757,321.778 184.629,319.865C183.487,317.929 181.191,316.434 177.126,315.891L176.817,317.738C180.007,318.165 181.886,319.217 182.782,320.737C183.691,322.279 183.592,324.228 183.014,326.282C181.117,333.017 173.951,340.788 173.951,340.788C173.77,340.985 173.687,341.24 173.721,341.493C175.201,352.485 172.934,358.031 170.183,360.814C167.675,363.351 164.855,363.424 164.855,363.424C164.771,363.424 164.689,363.434 164.608,363.453C158.74,364.799 155.182,363.824 153.041,362.058C149.877,359.448 149.838,355.283 149.838,355.283L149.838,355.266C149.66,349.821 150.846,346.596 152.743,344.9C155.209,342.696 158.793,343.328 161.321,344.738C162.94,345.641 164.195,346.854 164.299,347.967L166.381,347.811Z" style="fill:none;stroke:rgb(41,2,119);stroke-width:6.39px;"/>
        </g>
        <g transform="matrix(0.353097,0,0,0.39478,74.0152,189.16)">
            <path d="M166.202,349.463C166.351,342.377 148.214,334.507 148.794,355.635C148.794,355.635 148.43,368.314 165.996,364.655C165.996,364.655 177.833,364.216 174.758,341.381C174.758,341.381 195.107,319.24 176.972,316.814" style="fill:none;stroke:rgb(41,2,119);stroke-width:6.39px;"/>
        </g>
        <g transform="matrix(0.353097,0,0,0.39478,42.1861,189.204)">
            <path d="M129.101,344.289C129.101,344.289 120.122,334.353 116.435,346.072C116.435,346.072 111.619,367.555 132.281,362.51" style="fill:none;stroke:rgb(41,2,119);stroke-width:6.39px;"/>
        </g>
        <g transform="matrix(0.353097,0,0,0.39478,74.0152,189.16)">
            <path d="M129.101,344.289C129.101,344.289 120.122,334.353 116.435,346.072C116.435,346.072 111.619,367.555 132.281,362.51" style="fill:none;stroke:rgb(41,2,119);stroke-width:6.39px;"/>
        </g>
        <g transform="matrix(0.428883,0,0,0.415121,28.8043,183.631)">
            <path d="M174.71,319.151C174.71,319.151 177.958,311.31 176.546,297.668" style="fill:none;stroke:rgb(41,2,119);stroke-width:5.67px;"/>
        </g>
        <g transform="matrix(0.428883,0,0,0.415121,60.2658,182.485)">
            <path d="M174.71,319.151C174.71,319.151 177.958,311.31 176.546,297.668" style="fill:none;stroke:rgb(41,2,119);stroke-width:5.67px;"/>
        </g>
        <g transform="matrix(0.478945,0,0,0.415121,22.4635,183.631)">
            <path d="M164.872,294.906C164.872,294.906 177.623,299.463 203.743,297.668" style="fill:none;stroke:rgb(41,2,119);stroke-width:5.34px;"/>
        </g>
        <g transform="matrix(0.478945,0,0,0.415121,22.4635,183.631)">
            <path d="M200,288.282C200,288.282 210.418,298.572 211.469,319.151L205.159,337.858" style="fill:none;stroke:rgb(41,2,119);stroke-width:5.34px;"/>
        </g>
        <g transform="matrix(0.478945,0,0,0.478945,22.4635,173.704)">
            <path d="M254.95,256.121C274.414,243.4 310.275,193.444 315.519,148.915C317.026,136.123 318.019,126.787 333.822,134.077C341.609,137.669 348.534,142.677 352.439,136.694C356.119,131.055 356.229,124.386 341.094,118.14C328.42,112.91 309.312,107.591 303.398,127.742C300.572,137.371 298.799,167.39 288.759,185.663C282.808,196.493 268.757,220.763 254.95,233.848" style="fill:none;stroke:rgb(41,2,119);stroke-width:5px;"/>
        </g>
        <g transform="matrix(0.409829,0,0,0.294541,33.5675,189.828)">
            <ellipse cx="157.686" cy="105.542" rx="8.525" ry="3.215" style="fill:rgb(41,2,119);"/>
        </g>
        <g transform="matrix(0.478945,0,0,0.478945,19.7171,177.025)">
            <ellipse cx="192.039" cy="84.665" rx="19.429" ry="9.197" style="fill:white;stroke:rgb(41,2,119);stroke-width:2px;"/>
        </g>
        <g transform="matrix(0.478945,0,0,0.478945,22.4635,173.704)">
            <ellipse cx="140.567" cy="91.6" rx="11.332" ry="6.935" style="fill:white;stroke:rgb(41,2,119);stroke-width:2px;"/>
        </g>
        <g transform="matrix(0.58358,0,0,0.834853,10.4081,138.9)">
            <ellipse cx="140.236" cy="93.169" rx="4.215" ry="1.569" style="fill:rgb(41,2,119);"/>
        </g>
        <g transform="matrix(0.881273,0,0,0.977545,-8.17926,124.711)">
            <ellipse cx="140.236" cy="93.169" rx="4.215" ry="1.569" style="fill:rgb(41,2,119);stroke:rgb(41,2,119);stroke-width:1.03px;"/>
        </g>
        <g transform="matrix(0.478945,0,0,0.478945,22.4635,173.704)">
            <path d="M149.89,87.588C149.89,87.588 153.314,89.042 157.36,96.481C157.36,96.481 165.652,87.459 172.507,85.192" style="fill:none;stroke:rgb(41,2,119);stroke-width:2px;"/>
        </g>
        <g transform="matrix(0.478945,0,0,0.478945,22.4635,173.704)">
            <path d="M141.661,106.587C141.661,106.587 152.555,104.646 156.577,99.667C156.577,99.667 160.277,107.723 171.025,108.773" style="fill:none;stroke:rgb(41,2,119);stroke-width:2px;"/>
        </g>
        <g transform="matrix(0.478945,0,0,0.478945,22.4635,173.704)">
            <path d="M130.851,52.613C130.851,52.613 133.758,34.162 124.126,33.288" style="fill:none;stroke:rgb(41,2,119);stroke-width:2px;"/>
        </g>
        <g transform="matrix(0.478945,0,0,0.478571,22.4635,173.715)">
            <path d="M196.296,83.824C229.764,89.393 231.019,116.712 231.019,116.712C231.019,116.712 227.077,40.042 254.226,30.643" style="fill:none;stroke:rgb(41,2,119);stroke-width:2px;"/>
        </g>
        <g transform="matrix(0.478945,0,0,0.478945,22.4635,173.704)">
            <path d="M132.734,95.022C132.734,95.022 134.977,100.338 130.378,104.394C130.378,104.394 143.005,103.103 142.855,99.884L132.734,95.022Z" style="fill:rgb(247,237,192);"/>
        </g>
        <g transform="matrix(0.478945,0,0,0.478945,22.4635,173.704)">
            <path d="M142.855,99.884C142.855,99.884 142.246,93.539 132.079,95.346" style="fill:rgb(247,237,192);stroke:rgb(41,2,119);stroke-width:2px;"/>
        </g>
        <g transform="matrix(0.478945,0,0,0.478945,22.4635,173.704)">
            <path d="M206.409,94.871L178.589,99.884C178.589,99.884 177.303,109.898 194.724,108.773C194.724,108.773 211.081,104.075 206.409,94.871Z" style="fill:rgb(247,237,192);"/>
        </g>
        <g transform="matrix(0.478945,0,0,0.478945,22.4635,173.704)">
            <path d="M177.618,102.075C177.618,102.075 178.727,93.648 209.161,95.022" style="fill:rgb(247,237,192);stroke:rgb(41,2,119);stroke-width:2px;"/>
        </g>
        <g transform="matrix(0.478945,0,0,0.478945,22.7097,173.729)">
            <g transform="matrix(0.761617,-0.170413,0.170413,0.761617,-12.4761,23.9792)">
                <ellipse cx="66.653" cy="121.829" rx="8.689" ry="3.787" style="fill:rgb(123,182,179);"/>
            </g>
            <g transform="matrix(-0.676968,-0.388106,-0.388458,0.677046,449.85,172.907)">
                <ellipse cx="66.653" cy="121.829" rx="8.689" ry="3.787" style="fill:rgb(123,182,179);"/>
            </g>
            <g transform="matrix(0.761617,-0.170413,0.170413,0.761617,3.71594,31.3917)">
                <ellipse cx="66.653" cy="121.829" rx="8.689" ry="3.787" style="fill:rgb(123,182,179);"/>
            </g>
            <g transform="matrix(-0.676968,-0.388106,-0.388458,0.677046,432.187,175.196)">
                <ellipse cx="66.653" cy="121.829" rx="8.689" ry="3.787" style="fill:rgb(123,182,179);"/>
            </g>
            <g transform="matrix(0.601398,0.275315,-0.275315,0.601398,80.035,-6.21964)">
                <path d="M48.609,162.18L43.202,138.485L70.793,133.396L73.311,161.437" style="fill:none;stroke:rgb(123,182,179);stroke-width:3.02px;"/>
            </g>
            <g transform="matrix(-0.656013,0.0850383,0.0847601,0.655886,370.435,116.691)">
                <path d="M48.609,162.18L43.202,138.485L70.793,133.396L73.311,161.437" style="fill:none;stroke:rgb(123,182,179);stroke-width:3.02px;"/>
            </g>
            <g transform="matrix(0.740203,-0.562051,0.562051,0.740203,-61.7238,35.8993)">
                <ellipse cx="66.653" cy="121.829" rx="8.689" ry="3.787" style="fill:rgb(247,143,209);"/>
            </g>
            <g transform="matrix(0.876546,-0.16756,0.167066,0.876171,-59.2285,-99.4763)">
                <ellipse cx="66.653" cy="121.829" rx="8.689" ry="3.787" style="fill:rgb(247,143,209);"/>
            </g>
            <g transform="matrix(-0.540461,-0.755846,-0.756189,0.540721,493.357,198.863)">
                <ellipse cx="66.653" cy="121.829" rx="8.689" ry="3.787" style="fill:rgb(247,143,209);"/>
            </g>
            <g transform="matrix(0.775764,0,0,0.775764,2.96504,-5.55132)">
                <path d="M73.367,117.153L73.318,84.862C73.106,83.268 77.846,91.056 83.205,92.981C83.205,92.981 90.674,94.348 84.091,105.689" style="fill:none;stroke:rgb(247,143,209);stroke-width:2.58px;"/>
            </g>
            <g transform="matrix(0.667024,0.330875,-0.331392,0.667024,14.0998,-107.526)">
                <path d="M73.367,117.153L73.318,84.862C73.106,83.268 77.846,91.056 83.205,92.981C83.205,92.981 90.674,94.348 84.091,105.689" style="fill:none;stroke:rgb(247,143,209);stroke-width:2.58px;"/>
            </g>
            <g transform="matrix(-0.740978,-0.22952,-0.229879,0.740978,443.851,140.132)">
                <path d="M73.367,117.153L73.318,84.862C73.106,83.268 77.846,91.056 83.205,92.981C83.205,92.981 90.674,94.348 84.091,105.689" style="fill:none;stroke:rgb(247,143,209);stroke-width:2.58px;"/>
            </g>
            <g transform="matrix(0.305821,-0.854065,0.854065,0.305821,150.35,166.356)">
                <ellipse cx="66.653" cy="121.829" rx="8.689" ry="3.787" style="fill:rgb(239,187,66);"/>
            </g>
            <g transform="matrix(-0.740645,-0.524508,-0.524234,0.73988,123.007,-40.1272)">
                <ellipse cx="66.653" cy="121.829" rx="8.689" ry="3.787" style="fill:rgb(239,187,66);"/>
            </g>
            <g transform="matrix(0.649957,-0.423516,0.423516,0.649957,179.012,96.6402)">
                <path d="M73.367,117.153L73.318,84.862C73.106,83.268 77.846,91.056 83.205,92.981C83.205,92.981 90.674,94.348 84.091,105.689" style="fill:none;stroke:rgb(239,187,66);stroke-width:2.58px;"/>
            </g>
            <g transform="matrix(-0.775528,0.025403,0.0259852,0.775149,59.519,-80.8229)">
                <path d="M73.367,117.153L73.318,84.862C73.106,83.268 77.846,91.056 83.205,92.981C83.205,92.981 90.674,94.348 84.091,105.689" style="fill:none;stroke:rgb(239,187,66);stroke-width:2.58px;"/>
            </g>
            <g transform="matrix(0.653903,-0.496522,0.496522,0.653903,186.251,23.0694)">
                <ellipse cx="66.653" cy="121.829" rx="8.689" ry="3.787" style="fill:rgb(167,128,246);"/>
            </g>
            <g transform="matrix(0.788595,-0.229225,0.228859,0.788317,-98.8043,117.803)">
                <ellipse cx="66.653" cy="121.829" rx="8.689" ry="3.787" style="fill:rgb(167,128,246);"/>
            </g>
            <g transform="matrix(0.653903,-0.496522,0.496522,0.653903,204.985,23.0694)">
                <ellipse cx="66.653" cy="121.829" rx="8.689" ry="3.787" style="fill:rgb(167,128,246);"/>
            </g>
            <g transform="matrix(0.788595,-0.229225,0.228859,0.788317,-81.316,124.515)">
                <ellipse cx="66.653" cy="121.829" rx="8.689" ry="3.787" style="fill:rgb(167,128,246);"/>
            </g>
            <g transform="matrix(0.661421,0,0,0.661421,262.768,-41.1183)">
                <path d="M48.609,162.18L43.202,138.485L70.793,133.396L73.311,161.437" style="fill:none;stroke:rgb(167,128,246);stroke-width:3.02px;"/>
            </g>
            <g transform="matrix(0.617441,0.236975,-0.237345,0.617441,-4.34202,85.2976)">
                <path d="M48.609,162.18L43.202,138.485L70.793,133.396L73.311,161.437" style="fill:none;stroke:rgb(167,128,246);stroke-width:3.02px;"/>
            </g>
        </g>
        <g transform="matrix(0.478945,0,0,0.478945,22.7097,173.729)">
            <path d="M110.179,205.928L116.984,208.602" style="fill:none;stroke:rgb(105,165,22);stroke-width:2px;"/>
        </g>
        <g transform="matrix(-0.31066,0.364716,-0.36465,-0.310289,252.122,251.378)">
            <path d="M110.179,205.928L116.984,208.602" style="fill:none;stroke:rgb(105,165,22);stroke-width:2px;"/>
        </g>
        <g transform="matrix(-0.388665,-0.27987,0.27987,-0.388665,135.383,429.548)">
            <path d="M110.179,205.928L116.984,208.602" style="fill:none;stroke:rgb(105,165,22);stroke-width:2px;"/>
        </g>
        <g transform="matrix(0.351157,0.0340849,0.0340849,0.469853,30.1479,168.876)">
            <path d="M106.415,223.177L116.984,220.358" style="fill:none;stroke:rgb(105,165,22);stroke-width:2.14px;"/>
        </g>
        <g transform="matrix(-0.253724,0.245324,-0.379836,-0.278443,250.992,260.186)">
            <path d="M106.415,223.177L116.984,220.358" style="fill:none;stroke:rgb(105,165,22);stroke-width:2.14px;"/>
        </g>
        <g transform="matrix(-0.265048,-0.232858,0.246898,-0.401205,126.51,429.14)">
            <path d="M106.415,223.177L116.984,220.358" style="fill:none;stroke:rgb(105,165,22);stroke-width:2.14px;"/>
        </g>
        <g transform="matrix(0.354889,0.0784928,0.0784928,0.42928,18.835,171.576)">
            <path d="M111.7,235.117L119.992,229.87" style="fill:none;stroke:rgb(105,165,22);stroke-width:2.03px;"/>
        </g>
        <g transform="matrix(-0.289955,0.219395,-0.377751,-0.218341,256.275,249.822)">
            <path d="M111.7,235.117L119.992,229.87" style="fill:none;stroke:rgb(105,165,22);stroke-width:2.03px;"/>
        </g>
        <g transform="matrix(-0.242126,-0.271076,0.187152,-0.394229,137.268,433.56)">
            <path d="M111.7,235.117L119.992,229.87" style="fill:none;stroke:rgb(105,165,22);stroke-width:2.03px;"/>
        </g>
    </g>
</svg>
