<svg width="80" height="80" viewBox="0 0 80 80" fill="none" xmlns="http://www.w3.org/2000/svg">
<g clip-path="url(#clip0_2635_15872)">
<path d="M40.0009 80.0018C62.0928 80.0018 80.0017 62.0928 80.0017 40.0009C80.0017 17.909 62.0928 0 40.0009 0C17.909 0 0 17.909 0 40.0009C0 62.0928 17.909 80.0018 40.0009 80.0018Z" fill="white"/>
<path fill-rule="evenodd" clip-rule="evenodd" d="M40.0009 0C62.0774 0 80.0011 17.9236 80.0011 40.0009C80.0011 62.0774 62.0774 80.0011 40.0009 80.0011C17.9236 80.0011 0 62.0774 0 40.0009C0 17.9236 17.9236 0 40.0009 0ZM40.0009 0.800492C61.6359 0.800492 79.2013 18.3652 79.2013 40.0009C79.2013 61.6359 61.6359 79.2013 40.0009 79.2013C18.3652 79.2013 0.799792 61.6359 0.799792 40.0009C0.799792 18.3652 18.3652 0.800492 40.0009 0.800492Z" fill="#C4C4C4"/>
<g opacity="0.3">
<path fill-rule="evenodd" clip-rule="evenodd" d="M57.1875 32.4287C57.1875 32.4287 50.0447 28.2324 46.9835 28.2324C44.6675 28.2324 42.7872 30.1127 42.7872 32.4287C42.7872 34.7447 44.6675 36.6251 46.9835 36.6251C50.0447 36.6251 57.1875 32.4287 57.1875 32.4287Z" fill="#9595E4"/>
<path fill-rule="evenodd" clip-rule="evenodd" d="M57.21 32.375C57.21 32.375 61.4062 25.2322 61.4062 22.171C61.4062 19.855 59.526 17.9747 57.21 17.9747C54.894 17.9747 53.0136 19.855 53.0136 22.171C53.0136 25.2322 57.21 32.375 57.21 32.375Z" fill="#9595E4"/>
<path fill-rule="evenodd" clip-rule="evenodd" d="M57.189 32.3735C57.189 32.3735 55.1055 24.3555 52.9409 22.1909C51.3033 20.5533 48.6441 20.5533 47.0065 22.1909C45.3689 23.8285 45.3688 26.4878 47.0064 28.1254C49.171 30.29 57.189 32.3735 57.189 32.3735Z" fill="#9595E4"/>
<path fill-rule="evenodd" clip-rule="evenodd" d="M57.189 32.3735C57.189 32.3735 55.1055 24.3555 52.9409 22.1909C51.3033 20.5533 48.6441 20.5533 47.0065 22.1909C45.3689 23.8285 45.3688 26.4878 47.0064 28.1254C49.171 30.29 57.189 32.3735 57.189 32.3735ZM56.0354 31.2199C54.6378 30.8102 52.3981 30.1025 50.4809 29.2646C49.2598 28.7308 48.1691 28.1566 47.5722 27.5597C46.2468 26.2342 46.2467 24.0821 47.5722 22.7566C48.8976 21.4312 51.0498 21.4312 52.3752 22.7566C52.9722 23.3535 53.5463 24.4442 54.0801 25.6654C54.9181 27.5825 55.6258 29.8224 56.0354 31.2199Z" fill="#A3A3FF"/>
<path fill-rule="evenodd" clip-rule="evenodd" d="M57.1875 32.4287C57.1875 32.4287 64.3303 28.2324 67.3915 28.2324C69.7075 28.2324 71.5878 30.1127 71.5878 32.4287C71.5878 34.7447 69.7075 36.6251 67.3915 36.6251C64.3303 36.6251 57.1875 32.4287 57.1875 32.4287Z" fill="#9595E4"/>
<path fill-rule="evenodd" clip-rule="evenodd" d="M57.21 32.375C57.21 32.375 61.4062 39.5178 61.4062 42.579C61.4062 44.895 59.526 46.7753 57.21 46.7753C54.894 46.7753 53.0136 44.895 53.0136 42.579C53.0136 39.5178 57.21 32.375 57.21 32.375Z" fill="#9595E4"/>
<path fill-rule="evenodd" clip-rule="evenodd" d="M57.189 32.3735C57.189 32.3735 65.207 34.457 67.3716 36.6216C69.0092 38.2592 69.0092 40.9184 67.3716 42.556C65.734 44.1936 63.0747 44.1937 61.4371 42.5561C59.2725 40.3915 57.189 32.3735 57.189 32.3735Z" fill="#9595E4"/>
<path fill-rule="evenodd" clip-rule="evenodd" d="M57.189 32.3735C57.189 32.3735 65.207 34.457 67.3716 36.6216C69.0092 38.2592 69.0092 40.9184 67.3716 42.556C65.734 44.1936 63.0747 44.1937 61.4371 42.5561C59.2725 40.3915 57.189 32.3735 57.189 32.3735ZM58.3426 33.5271C59.7402 33.9368 61.98 34.6444 63.8971 35.4824C65.1183 36.0162 66.209 36.5903 66.8059 37.1873C68.1313 38.5127 68.1313 40.6649 66.8059 41.9903C65.4804 43.3158 63.3283 43.3157 62.0028 41.9903C61.4059 41.3934 60.8317 40.3027 60.2979 39.0816C59.46 37.1644 58.7522 34.9246 58.3426 33.5271Z" fill="#A3A3FF"/>
<path fill-rule="evenodd" clip-rule="evenodd" d="M57.186 32.3735C57.186 32.3735 49.168 34.457 47.0034 36.6216C45.3658 38.2592 45.3658 40.9184 47.0034 42.556C48.641 44.1936 51.3003 44.1937 52.9379 42.5561C55.1025 40.3915 57.186 32.3735 57.186 32.3735Z" fill="#9595E4"/>
<path fill-rule="evenodd" clip-rule="evenodd" d="M57.186 32.3735C57.186 32.3735 49.168 34.457 47.0034 36.6216C45.3658 38.2592 45.3658 40.9184 47.0034 42.556C48.641 44.1936 51.3003 44.1937 52.9379 42.5561C55.1025 40.3915 57.186 32.3735 57.186 32.3735ZM56.0324 33.527C55.6227 34.9247 54.915 37.1644 54.0771 39.0816C53.5433 40.3027 52.9691 41.3934 52.3722 41.9903C51.0467 43.3157 48.8946 43.3158 47.5691 41.9903C46.2437 40.6649 46.2437 38.5127 47.5691 37.1873C48.166 36.5903 49.2567 36.0162 50.4779 35.4824C52.395 34.6444 54.6349 33.9367 56.0324 33.527Z" fill="#A3A3FF"/>
<path fill-rule="evenodd" clip-rule="evenodd" d="M57.186 32.3735C57.186 32.3735 59.2695 24.3555 61.4341 22.1909C63.0717 20.5533 65.7309 20.5533 67.3685 22.1909C69.0061 23.8285 69.0062 26.4878 67.3686 28.1254C65.204 30.29 57.186 32.3735 57.186 32.3735Z" fill="#9595E4"/>
<path fill-rule="evenodd" clip-rule="evenodd" d="M57.186 32.3735C57.186 32.3735 59.2695 24.3555 61.4341 22.1909C63.0717 20.5533 65.7309 20.5533 67.3685 22.1909C69.0061 23.8285 69.0062 26.4878 67.3686 28.1254C65.204 30.29 57.186 32.3735 57.186 32.3735ZM58.3396 31.2199C58.7492 29.8223 59.4569 27.5825 60.2949 25.6654C60.8287 24.4442 61.4028 23.3535 61.9998 22.7566C63.3252 21.4312 65.4774 21.4312 66.8028 22.7566C68.1283 24.0821 68.1282 26.2342 66.8028 27.5597C66.2059 28.1566 65.1152 28.7308 63.8941 29.2646C61.9769 30.1025 59.7371 30.8103 58.3396 31.2199Z" fill="#A3A3FF"/>
</g>
<g opacity="0.5">
<path fill-rule="evenodd" clip-rule="evenodd" d="M47.9707 32.4287C47.9707 32.4287 40.8279 28.2324 37.7667 28.2324C35.4507 28.2324 33.5704 30.1127 33.5704 32.4287C33.5704 34.7447 35.4507 36.6251 37.7667 36.6251C40.8279 36.6251 47.9707 32.4287 47.9707 32.4287Z" fill="#9595E4"/>
<path fill-rule="evenodd" clip-rule="evenodd" d="M47.9932 32.375C47.9932 32.375 52.1895 25.2322 52.1895 22.171C52.1895 19.855 50.3092 17.9747 47.9932 17.9747C45.6772 17.9747 43.7968 19.855 43.7968 22.171C43.7968 25.2322 47.9932 32.375 47.9932 32.375Z" fill="#9595E4"/>
<path fill-rule="evenodd" clip-rule="evenodd" d="M47.9722 32.3735C47.9722 32.3735 45.8887 24.3555 43.7241 22.1909C42.0865 20.5533 39.4273 20.5533 37.7897 22.1909C36.1521 23.8285 36.152 26.4878 37.7896 28.1254C39.9542 30.29 47.9722 32.3735 47.9722 32.3735Z" fill="#9595E4"/>
<path fill-rule="evenodd" clip-rule="evenodd" d="M47.9722 32.3735C47.9722 32.3735 45.8887 24.3555 43.7241 22.1909C42.0865 20.5533 39.4273 20.5533 37.7897 22.1909C36.1521 23.8285 36.152 26.4878 37.7896 28.1254C39.9542 30.29 47.9722 32.3735 47.9722 32.3735ZM46.8187 31.2199C45.421 30.8102 43.1813 30.1025 41.2641 29.2646C40.043 28.7308 38.9523 28.1566 38.3554 27.5597C37.03 26.2342 37.0299 24.0821 38.3554 22.7566C39.6808 21.4312 41.833 21.4312 43.1585 22.7566C43.7554 23.3535 44.3295 24.4442 44.8633 25.6654C45.7013 27.5825 46.409 29.8224 46.8187 31.2199Z" fill="#A3A3FF"/>
<path fill-rule="evenodd" clip-rule="evenodd" d="M47.9707 32.4287C47.9707 32.4287 55.1135 28.2324 58.1747 28.2324C60.4907 28.2324 62.371 30.1127 62.371 32.4287C62.371 34.7447 60.4907 36.6251 58.1747 36.6251C55.1135 36.6251 47.9707 32.4287 47.9707 32.4287Z" fill="#9595E4"/>
<path fill-rule="evenodd" clip-rule="evenodd" d="M47.9932 32.375C47.9932 32.375 52.1895 39.5178 52.1895 42.579C52.1895 44.895 50.3092 46.7753 47.9932 46.7753C45.6772 46.7753 43.7968 44.895 43.7968 42.579C43.7968 39.5178 47.9932 32.375 47.9932 32.375Z" fill="#9595E4"/>
<path fill-rule="evenodd" clip-rule="evenodd" d="M47.9722 32.3735C47.9722 32.3735 55.9902 34.457 58.1548 36.6216C59.7924 38.2592 59.7924 40.9184 58.1548 42.556C56.5172 44.1936 53.8579 44.1937 52.2203 42.5561C50.0557 40.3915 47.9722 32.3735 47.9722 32.3735Z" fill="#9595E4"/>
<path fill-rule="evenodd" clip-rule="evenodd" d="M47.9722 32.3735C47.9722 32.3735 55.9902 34.457 58.1548 36.6216C59.7924 38.2592 59.7924 40.9184 58.1548 42.556C56.5172 44.1936 53.8579 44.1937 52.2203 42.5561C50.0557 40.3915 47.9722 32.3735 47.9722 32.3735ZM49.1258 33.527C50.5234 33.9367 52.7632 34.6444 54.6803 35.4824C55.9015 36.0162 56.9922 36.5903 57.5891 37.1873C58.9145 38.5127 58.9145 40.6649 57.5891 41.9903C56.2636 43.3158 54.1115 43.3157 52.786 41.9903C52.1891 41.3934 51.615 40.3027 51.0811 39.0816C50.2432 37.1644 49.5354 34.9246 49.1258 33.527Z" fill="#A3A3FF"/>
<path fill-rule="evenodd" clip-rule="evenodd" d="M47.9692 32.3735C47.9692 32.3735 39.9512 34.457 37.7866 36.6216C36.149 38.2592 36.149 40.9184 37.7866 42.556C39.4242 44.1936 42.0835 44.1937 43.7211 42.5561C45.8857 40.3915 47.9692 32.3735 47.9692 32.3735Z" fill="#9595E4"/>
<path fill-rule="evenodd" clip-rule="evenodd" d="M47.9692 32.3735C47.9692 32.3735 39.9512 34.457 37.7866 36.6216C36.149 38.2592 36.149 40.9184 37.7866 42.556C39.4242 44.1936 42.0835 44.1937 43.7211 42.5561C45.8857 40.3915 47.9692 32.3735 47.9692 32.3735ZM46.8156 33.527C46.4059 34.9247 45.6983 37.1644 44.8603 39.0816C44.3265 40.3027 43.7523 41.3934 43.1554 41.9903C41.8299 43.3157 39.6778 43.3158 38.3523 41.9903C37.0269 40.6649 37.0269 38.5127 38.3523 37.1873C38.9492 36.5903 40.0399 36.0162 41.2611 35.4824C43.1782 34.6444 45.4181 33.9367 46.8156 33.527Z" fill="#A3A3FF"/>
<path fill-rule="evenodd" clip-rule="evenodd" d="M47.9692 32.3735C47.9692 32.3735 50.0527 24.3555 52.2173 22.1909C53.8549 20.5533 56.5141 20.5533 58.1517 22.1909C59.7894 23.8285 59.7894 26.4878 58.1518 28.1254C55.9872 30.29 47.9692 32.3735 47.9692 32.3735Z" fill="#9595E4"/>
<path fill-rule="evenodd" clip-rule="evenodd" d="M47.9692 32.3735C47.9692 32.3735 50.0527 24.3555 52.2173 22.1909C53.8549 20.5533 56.5141 20.5533 58.1517 22.1909C59.7894 23.8285 59.7894 26.4878 58.1518 28.1254C55.9872 30.29 47.9692 32.3735 47.9692 32.3735ZM49.1228 31.2199C49.5325 29.8223 50.2401 27.5825 51.0781 25.6654C51.6119 24.4442 52.186 23.3535 52.783 22.7566C54.1084 21.4312 56.2606 21.4312 57.586 22.7566C58.9115 24.0821 58.9114 26.2342 57.586 27.5597C56.9891 28.1566 55.8984 28.7308 54.6773 29.2646C52.7601 30.1025 50.5203 30.8103 49.1228 31.2199Z" fill="#A3A3FF"/>
<path d="M47.9394 35.6669C49.7332 35.6669 51.1874 34.2127 51.1874 32.4189C51.1874 30.6251 49.7332 29.1709 47.9394 29.1709C46.1456 29.1709 44.6914 30.6251 44.6914 32.4189C44.6914 34.2127 46.1456 35.6669 47.9394 35.6669Z" fill="#EFEE80"/>
</g>
<g opacity="0.3">
<path fill-rule="evenodd" clip-rule="evenodd" d="M22.658 32.2724C22.658 32.2724 29.8008 28.0762 32.862 28.0762C35.178 28.0762 37.0583 29.9565 37.0583 32.2724C37.0583 34.5884 35.178 36.4688 32.862 36.4688C29.8008 36.4688 22.658 32.2724 22.658 32.2724Z" fill="#9595E4"/>
<path fill-rule="evenodd" clip-rule="evenodd" d="M22.6355 32.2188C22.6355 32.2188 18.4393 25.0759 18.4393 22.0147C18.4393 19.6988 20.3196 17.8184 22.6355 17.8184C24.9515 17.8184 26.8319 19.6988 26.8319 22.0147C26.8319 25.0759 22.6355 32.2188 22.6355 32.2188Z" fill="#9595E4"/>
<path fill-rule="evenodd" clip-rule="evenodd" d="M22.6565 32.2172C22.6565 32.2172 24.74 24.1993 26.9046 22.0347C28.5422 20.3971 31.2014 20.397 32.839 22.0347C34.4767 23.6723 34.4767 26.3315 32.8391 27.9692C30.6745 30.1338 22.6565 32.2172 22.6565 32.2172Z" fill="#9595E4"/>
<path fill-rule="evenodd" clip-rule="evenodd" d="M22.6565 32.2172C22.6565 32.2172 24.74 24.1993 26.9046 22.0347C28.5422 20.3971 31.2014 20.397 32.839 22.0347C34.4767 23.6723 34.4767 26.3315 32.8391 27.9692C30.6745 30.1338 22.6565 32.2172 22.6565 32.2172ZM23.8101 31.0636C24.2198 29.6661 24.9274 27.4262 25.7654 25.5092C26.2992 24.288 26.8733 23.1973 27.4703 22.6003C28.7957 21.2749 30.9479 21.275 32.2733 22.6004C33.5988 23.9259 33.5987 26.078 32.2733 27.4034C31.6764 28.0003 30.5857 28.5745 29.3646 29.1083C27.4474 29.9463 25.2076 30.6541 23.8101 31.0636Z" fill="#A3A3FF"/>
<path fill-rule="evenodd" clip-rule="evenodd" d="M22.658 32.2724C22.658 32.2724 15.5152 28.0762 12.454 28.0762C10.1381 28.0762 8.25772 29.9565 8.25772 32.2724C8.25772 34.5884 10.1381 36.4688 12.454 36.4688C15.5152 36.4688 22.658 32.2724 22.658 32.2724Z" fill="#9595E4"/>
<path fill-rule="evenodd" clip-rule="evenodd" d="M22.6355 32.2188C22.6355 32.2188 18.4393 39.3616 18.4393 42.4228C18.4393 44.7387 20.3196 46.619 22.6355 46.619C24.9515 46.619 26.8319 44.7387 26.8319 42.4228C26.8319 39.3616 22.6355 32.2188 22.6355 32.2188Z" fill="#9595E4"/>
<path fill-rule="evenodd" clip-rule="evenodd" d="M22.6565 32.2172C22.6565 32.2172 14.6385 34.3007 12.4739 36.4653C10.8363 38.1029 10.8363 40.7621 12.4739 42.3998C14.1116 44.0374 16.7708 44.0374 18.4084 42.3998C20.573 40.2352 22.6565 32.2172 22.6565 32.2172Z" fill="#9595E4"/>
<path fill-rule="evenodd" clip-rule="evenodd" d="M22.6565 32.2172C22.6565 32.2172 14.6385 34.3007 12.4739 36.4653C10.8363 38.1029 10.8363 40.7621 12.4739 42.3998C14.1116 44.0374 16.7708 44.0374 18.4084 42.3998C20.573 40.2352 22.6565 32.2172 22.6565 32.2172ZM21.5029 33.3708C21.0933 34.7684 20.3856 37.0082 19.5476 38.9253C19.0138 40.1464 18.4396 41.2371 17.8427 41.8341C16.5173 43.1595 14.3651 43.1595 13.0396 41.834C11.7142 40.5086 11.7142 38.3564 13.0396 37.031C13.6365 36.4341 14.7272 35.8599 15.9484 35.3262C17.8655 34.4881 20.1054 33.7804 21.5029 33.3708Z" fill="#A3A3FF"/>
<path fill-rule="evenodd" clip-rule="evenodd" d="M22.6596 32.2172C22.6596 32.2172 30.6775 34.3007 32.8421 36.4653C34.4797 38.1029 34.4798 40.7621 32.8421 42.3998C31.2045 44.0374 28.5452 44.0374 26.9076 42.3998C24.743 40.2352 22.6596 32.2172 22.6596 32.2172Z" fill="#9595E4"/>
<path fill-rule="evenodd" clip-rule="evenodd" d="M22.6596 32.2172C22.6596 32.2172 30.6775 34.3007 32.8421 36.4653C34.4797 38.1029 34.4798 40.7621 32.8421 42.3998C31.2045 44.0374 28.5452 44.0374 26.9076 42.3998C24.743 40.2352 22.6596 32.2172 22.6596 32.2172ZM23.8132 33.3708C25.2107 33.7805 27.4505 34.4881 29.3676 35.3262C30.5888 35.8599 31.6795 36.4341 32.2764 37.031C33.6018 38.3564 33.6018 40.5086 32.2764 41.834C30.9509 43.1595 28.7988 43.1595 27.4734 41.8341C26.8764 41.2371 26.3023 40.1464 25.7685 38.9253C24.9305 37.0082 24.2227 34.7683 23.8132 33.3708Z" fill="#A3A3FF"/>
<path fill-rule="evenodd" clip-rule="evenodd" d="M22.6596 32.2172C22.6596 32.2172 20.576 24.1993 18.4114 22.0347C16.7738 20.3971 14.1147 20.397 12.477 22.0347C10.8394 23.6723 10.8393 26.3315 12.477 27.9692C14.6416 30.1338 22.6596 32.2172 22.6596 32.2172Z" fill="#9595E4"/>
<path fill-rule="evenodd" clip-rule="evenodd" d="M22.6596 32.2172C22.6596 32.2172 20.576 24.1993 18.4114 22.0347C16.7738 20.3971 14.1147 20.397 12.477 22.0347C10.8394 23.6723 10.8393 26.3315 12.477 27.9692C14.6416 30.1338 22.6596 32.2172 22.6596 32.2172ZM21.506 31.0636C20.1084 30.654 17.8686 29.9463 15.9514 29.1083C14.7303 28.5745 13.6396 28.0003 13.0427 27.4034C11.7173 26.078 11.7172 23.9259 13.0427 22.6004C14.3681 21.275 16.5204 21.2749 17.8458 22.6003C18.4427 23.1973 19.0169 24.288 19.5506 25.5092C20.3887 27.4262 21.0963 29.6662 21.506 31.0636Z" fill="#A3A3FF"/>
</g>
<g opacity="0.5">
<path fill-rule="evenodd" clip-rule="evenodd" d="M31.7166 32.2724C31.7166 32.2724 38.8594 28.0762 41.9206 28.0762C44.2366 28.0762 46.1169 29.9565 46.1169 32.2724C46.1169 34.5884 44.2366 36.4688 41.9206 36.4688C38.8594 36.4688 31.7166 32.2724 31.7166 32.2724Z" fill="#9595E4"/>
<path fill-rule="evenodd" clip-rule="evenodd" d="M31.6941 32.2188C31.6941 32.2188 27.4979 25.0759 27.4979 22.0147C27.4979 19.6988 29.3782 17.8184 31.6941 17.8184C34.0101 17.8184 35.8905 19.6988 35.8905 22.0147C35.8905 25.0759 31.6941 32.2188 31.6941 32.2188Z" fill="#9595E4"/>
<path fill-rule="evenodd" clip-rule="evenodd" d="M31.7151 32.2172C31.7151 32.2172 33.7986 24.1993 35.9632 22.0347C37.6008 20.3971 40.26 20.397 41.8976 22.0347C43.5353 23.6723 43.5353 26.3315 41.8977 27.9692C39.7331 30.1338 31.7151 32.2172 31.7151 32.2172Z" fill="#9595E4"/>
<path fill-rule="evenodd" clip-rule="evenodd" d="M31.7151 32.2172C31.7151 32.2172 33.7986 24.1993 35.9632 22.0347C37.6008 20.3971 40.26 20.397 41.8976 22.0347C43.5353 23.6723 43.5353 26.3315 41.8977 27.9692C39.7331 30.1338 31.7151 32.2172 31.7151 32.2172ZM32.8687 31.0636C33.2784 29.6661 33.986 27.4262 34.824 25.5092C35.3578 24.288 35.9319 23.1973 36.5289 22.6003C37.8543 21.2749 40.0065 21.275 41.3319 22.6004C42.6574 23.9259 42.6573 26.078 41.3319 27.4034C40.735 28.0003 39.6443 28.5745 38.4232 29.1083C36.506 29.9463 34.2662 30.6541 32.8687 31.0636Z" fill="#A3A3FF"/>
<path fill-rule="evenodd" clip-rule="evenodd" d="M31.7166 32.2724C31.7166 32.2724 24.5738 28.0762 21.5126 28.0762C19.1967 28.0762 17.3163 29.9565 17.3163 32.2724C17.3163 34.5884 19.1967 36.4688 21.5126 36.4688C24.5738 36.4688 31.7166 32.2724 31.7166 32.2724Z" fill="#9595E4"/>
<path fill-rule="evenodd" clip-rule="evenodd" d="M31.6941 32.2188C31.6941 32.2188 27.4979 39.3616 27.4979 42.4228C27.4979 44.7387 29.3782 46.619 31.6941 46.619C34.0101 46.619 35.8905 44.7387 35.8905 42.4228C35.8905 39.3616 31.6941 32.2188 31.6941 32.2188Z" fill="#9595E4"/>
<path fill-rule="evenodd" clip-rule="evenodd" d="M31.7151 32.2172C31.7151 32.2172 23.6971 34.3007 21.5325 36.4653C19.8949 38.1029 19.8949 40.7621 21.5325 42.3998C23.1702 44.0374 25.8294 44.0374 27.467 42.3998C29.6316 40.2352 31.7151 32.2172 31.7151 32.2172Z" fill="#9595E4"/>
<path fill-rule="evenodd" clip-rule="evenodd" d="M31.7151 32.2172C31.7151 32.2172 23.6971 34.3007 21.5325 36.4653C19.8949 38.1029 19.8949 40.7621 21.5325 42.3998C23.1702 44.0374 25.8294 44.0374 27.467 42.3998C29.6316 40.2352 31.7151 32.2172 31.7151 32.2172ZM30.5615 33.3708C30.1518 34.7684 29.4442 37.0082 28.6062 38.9253C28.0724 40.1464 27.4982 41.2371 26.9013 41.8341C25.5759 43.1595 23.4237 43.1595 22.0982 41.834C20.7728 40.5086 20.7728 38.3564 22.0982 37.031C22.6951 36.4341 23.7858 35.8599 25.007 35.3262C26.9241 34.4881 29.164 33.7804 30.5615 33.3708Z" fill="#A3A3FF"/>
<path fill-rule="evenodd" clip-rule="evenodd" d="M31.7182 32.2172C31.7182 32.2172 39.7361 34.3007 41.9007 36.4653C43.5383 38.1029 43.5383 40.7621 41.9007 42.3998C40.2631 44.0374 37.6038 44.0374 35.9662 42.3998C33.8016 40.2352 31.7182 32.2172 31.7182 32.2172Z" fill="#9595E4"/>
<path fill-rule="evenodd" clip-rule="evenodd" d="M31.7182 32.2172C31.7182 32.2172 39.7361 34.3007 41.9007 36.4653C43.5383 38.1029 43.5383 40.7621 41.9007 42.3998C40.2631 44.0374 37.6038 44.0374 35.9662 42.3998C33.8016 40.2352 31.7182 32.2172 31.7182 32.2172ZM32.8718 33.3708C34.2693 33.7805 36.5091 34.4881 38.4262 35.3262C39.6474 35.8599 40.7381 36.4341 41.335 37.031C42.6604 38.3564 42.6604 40.5086 41.335 41.834C40.0095 43.1595 37.8574 43.1595 36.532 41.8341C35.935 41.2371 35.3609 40.1465 34.8271 38.9253C33.9891 37.0082 33.2813 34.7683 32.8718 33.3708Z" fill="#A3A3FF"/>
<path fill-rule="evenodd" clip-rule="evenodd" d="M31.7182 32.2172C31.7182 32.2172 29.6346 24.1993 27.47 22.0347C25.8324 20.3971 23.1732 20.397 21.5356 22.0347C19.898 23.6723 19.8979 26.3315 21.5355 27.9692C23.7002 30.1338 31.7182 32.2172 31.7182 32.2172Z" fill="#9595E4"/>
<path fill-rule="evenodd" clip-rule="evenodd" d="M31.7182 32.2172C31.7182 32.2172 29.6346 24.1993 27.47 22.0347C25.8324 20.3971 23.1732 20.397 21.5356 22.0347C19.898 23.6723 19.8979 26.3315 21.5355 27.9692C23.7002 30.1338 31.7182 32.2172 31.7182 32.2172ZM30.5646 31.0636C29.167 30.654 26.9272 29.9463 25.01 29.1083C23.7889 28.5745 22.6982 28.0003 22.1013 27.4034C20.7759 26.078 20.7758 23.9259 22.1013 22.6004C23.4267 21.275 25.5789 21.2749 26.9044 22.6003C27.5013 23.1973 28.0755 24.288 28.6092 25.5092C29.4473 27.4262 30.1549 29.6662 30.5646 31.0636Z" fill="#A3A3FF"/>
<path d="M31.7479 35.5107C29.9541 35.5107 28.4999 34.0565 28.4999 32.2627C28.4999 30.4688 29.9541 29.0146 31.7479 29.0146C33.5417 29.0146 34.9959 30.4688 34.9959 32.2627C34.9959 34.0565 33.5417 35.5107 31.7479 35.5107Z" fill="#EFEE80"/>
</g>
<path fill-rule="evenodd" clip-rule="evenodd" d="M39.6873 32.4287C39.6873 32.4287 32.5445 28.2324 29.4833 28.2324C27.1674 28.2324 25.287 30.1127 25.287 32.4287C25.287 34.7447 27.1674 36.6251 29.4833 36.6251C32.5445 36.6251 39.6873 32.4287 39.6873 32.4287Z" fill="#9595E4"/>
<path fill-rule="evenodd" clip-rule="evenodd" d="M39.7098 32.375C39.7098 32.375 43.9061 25.2322 43.9061 22.171C43.9061 19.855 42.0258 17.9747 39.7098 17.9747C37.3938 17.9747 35.5134 19.855 35.5134 22.171C35.5134 25.2322 39.7098 32.375 39.7098 32.375Z" fill="#9595E4"/>
<path fill-rule="evenodd" clip-rule="evenodd" d="M39.6889 32.3735C39.6889 32.3735 37.6053 24.3555 35.4407 22.1909C33.8031 20.5533 31.144 20.5533 29.5063 22.1909C27.8687 23.8285 27.8686 26.4878 29.5062 28.1254C31.6709 30.29 39.6889 32.3735 39.6889 32.3735Z" fill="#9595E4"/>
<path fill-rule="evenodd" clip-rule="evenodd" d="M39.6889 32.3735C39.6889 32.3735 37.6053 24.3555 35.4407 22.1909C33.8031 20.5533 31.144 20.5533 29.5063 22.1909C27.8687 23.8285 27.8686 26.4878 29.5062 28.1254C31.6709 30.29 39.6889 32.3735 39.6889 32.3735ZM38.5353 31.2199C37.1377 30.8102 34.8979 30.1025 32.9807 29.2646C31.7596 28.7308 30.6689 28.1566 30.072 27.5597C28.7466 26.2342 28.7465 24.0821 30.072 22.7566C31.3974 21.4312 33.5496 21.4312 34.8751 22.7566C35.472 23.3535 36.0462 24.4442 36.5799 25.6654C37.418 27.5825 38.1256 29.8224 38.5353 31.2199Z" fill="#A3A3FF"/>
<path fill-rule="evenodd" clip-rule="evenodd" d="M39.6873 32.4287C39.6873 32.4287 46.8301 28.2324 49.8913 28.2324C52.2073 28.2324 54.0876 30.1127 54.0876 32.4287C54.0876 34.7447 52.2073 36.6251 49.8913 36.6251C46.8301 36.6251 39.6873 32.4287 39.6873 32.4287Z" fill="#9595E4"/>
<path fill-rule="evenodd" clip-rule="evenodd" d="M39.7098 32.375C39.7098 32.375 43.9061 39.5178 43.9061 42.579C43.9061 44.895 42.0258 46.7753 39.7098 46.7753C37.3938 46.7753 35.5134 44.895 35.5134 42.579C35.5134 39.5178 39.7098 32.375 39.7098 32.375Z" fill="#9595E4"/>
<path fill-rule="evenodd" clip-rule="evenodd" d="M39.6889 32.3735C39.6889 32.3735 47.7068 34.457 49.8714 36.6216C51.509 38.2592 51.5091 40.9184 49.8714 42.556C48.2338 44.1936 45.5745 44.1937 43.9369 42.5561C41.7723 40.3915 39.6889 32.3735 39.6889 32.3735Z" fill="#9595E4"/>
<path fill-rule="evenodd" clip-rule="evenodd" d="M39.6889 32.3735C39.6889 32.3735 47.7068 34.457 49.8714 36.6216C51.509 38.2592 51.5091 40.9184 49.8714 42.556C48.2338 44.1936 45.5745 44.1937 43.9369 42.5561C41.7723 40.3915 39.6889 32.3735 39.6889 32.3735ZM40.8425 33.5271C42.24 33.9368 44.4798 34.6444 46.3969 35.4824C47.6181 36.0162 48.7088 36.5903 49.3057 37.1873C50.6311 38.5127 50.6311 40.6649 49.3057 41.9903C47.9802 43.3158 45.8281 43.3157 44.5027 41.9903C43.9057 41.3934 43.3316 40.3027 42.7978 39.0816C41.9598 37.1644 41.252 34.9246 40.8425 33.5271Z" fill="#A3A3FF"/>
<path fill-rule="evenodd" clip-rule="evenodd" d="M39.6858 32.3735C39.6858 32.3735 31.6678 34.457 29.5032 36.6216C27.8656 38.2592 27.8656 40.9184 29.5032 42.556C31.1409 44.1936 33.8001 44.1937 35.4377 42.5561C37.6023 40.3915 39.6858 32.3735 39.6858 32.3735Z" fill="#9595E4"/>
<path fill-rule="evenodd" clip-rule="evenodd" d="M39.6858 32.3735C39.6858 32.3735 31.6678 34.457 29.5032 36.6216C27.8656 38.2592 27.8656 40.9184 29.5032 42.556C31.1409 44.1936 33.8001 44.1937 35.4377 42.5561C37.6023 40.3915 39.6858 32.3735 39.6858 32.3735ZM38.5322 33.527C38.1226 34.9247 37.4149 37.1644 36.5769 39.0816C36.0431 40.3027 35.4689 41.3934 34.872 41.9903C33.5466 43.3157 31.3944 43.3158 30.0689 41.9903C28.7435 40.6649 28.7435 38.5127 30.0689 37.1873C30.6658 36.5903 31.7565 36.0162 32.9777 35.4824C34.8948 34.6444 37.1347 33.9367 38.5322 33.527Z" fill="#A3A3FF"/>
<path fill-rule="evenodd" clip-rule="evenodd" d="M39.6858 32.3735C39.6858 32.3735 41.7693 24.3555 43.9339 22.1909C45.5715 20.5533 48.2307 20.5533 49.8683 22.1909C51.506 23.8285 51.506 26.4878 49.8684 28.1254C47.7038 30.29 39.6858 32.3735 39.6858 32.3735Z" fill="#9595E4"/>
<path fill-rule="evenodd" clip-rule="evenodd" d="M39.6858 32.3735C39.6858 32.3735 41.7693 24.3555 43.9339 22.1909C45.5715 20.5533 48.2307 20.5533 49.8683 22.1909C51.506 23.8285 51.506 26.4878 49.8684 28.1254C47.7038 30.29 39.6858 32.3735 39.6858 32.3735ZM40.8394 31.2199C41.2491 29.8223 41.9567 27.5825 42.7947 25.6654C43.3285 24.4442 43.9026 23.3535 44.4996 22.7566C45.825 21.4312 47.9772 21.4312 49.3026 22.7566C50.6281 24.0821 50.6281 26.2342 49.3026 27.5597C48.7057 28.1566 47.615 28.7308 46.3939 29.2646C44.4767 30.1025 42.2369 30.8103 40.8394 31.2199Z" fill="#A3A3FF"/>
<path d="M39.656 35.6669C41.4498 35.6669 42.904 34.2127 42.904 32.4189C42.904 30.6251 41.4498 29.1709 39.656 29.1709C37.8622 29.1709 36.408 30.6251 36.408 32.4189C36.408 34.2127 37.8622 35.6669 39.656 35.6669Z" fill="#EFEE80"/>
<path d="M26.6577 56.324V60.632C27.2417 60.632 27.7537 60.628 28.1937 60.62C28.6337 60.612 29.0457 60.6 29.4297 60.584C29.8217 60.56 30.2057 60.532 30.5817 60.5C30.9577 60.46 31.3737 60.408 31.8297 60.344L31.9257 61.1C31.4537 61.164 31.0217 61.216 30.6297 61.256C30.2377 61.296 29.8217 61.328 29.3817 61.352C28.9417 61.368 28.4377 61.38 27.8697 61.388C27.3097 61.396 26.6217 61.4 25.8057 61.4V56.324H26.6577ZM33.7617 58.712H35.4417V59.456H33.7617V63.5H32.9217V55.664H33.7617V58.712ZM28.0377 65.744H34.0977V66.5H27.1857V62.84H28.0377V65.744ZM44.5059 66.632H43.6539V55.664H44.5059V66.632ZM37.5699 61.352C37.7619 61.136 37.9139 60.94 38.0259 60.764C38.1379 60.588 38.2259 60.416 38.2899 60.248C38.3539 60.072 38.3939 59.892 38.4099 59.708C38.4339 59.524 38.4459 59.312 38.4459 59.072V56.456H39.3219V59.012C39.3219 59.244 39.3299 59.448 39.3459 59.624C39.3619 59.792 39.3939 59.956 39.4419 60.116C39.4899 60.268 39.5619 60.42 39.6579 60.572C39.7539 60.724 39.8819 60.892 40.0419 61.076C40.2819 61.356 40.5739 61.672 40.9179 62.024C41.2699 62.376 41.6739 62.756 42.1299 63.164L41.5779 63.74C41.1939 63.38 40.8379 63.04 40.5099 62.72C40.1899 62.392 39.9099 62.1 39.6699 61.844C39.4859 61.652 39.3179 61.468 39.1659 61.292C39.0219 61.116 38.9339 60.988 38.9019 60.908H38.8899C38.8819 60.948 38.8499 61.012 38.7939 61.1C38.7379 61.18 38.6659 61.272 38.5779 61.376C38.4979 61.48 38.4099 61.592 38.3139 61.712C38.2179 61.824 38.1259 61.928 38.0379 62.024C37.9339 62.136 37.8059 62.268 37.6539 62.42C37.5099 62.572 37.3539 62.732 37.1859 62.9C37.0179 63.068 36.8419 63.24 36.6579 63.416C36.4739 63.592 36.2939 63.756 36.1179 63.908L35.5539 63.32C35.9539 62.968 36.3179 62.632 36.6459 62.312C36.9819 61.992 37.2899 61.672 37.5699 61.352ZM48.5421 61.28V59.636C48.1821 59.476 47.8981 59.276 47.6901 59.036C47.4821 58.788 47.3781 58.496 47.3781 58.16V57.752C47.3781 57.44 47.4701 57.168 47.6541 56.936C47.8461 56.696 48.0981 56.496 48.4101 56.336C48.7301 56.176 49.0981 56.056 49.5141 55.976C49.9301 55.896 50.3661 55.856 50.8221 55.856C51.2781 55.856 51.7141 55.896 52.1301 55.976C52.5461 56.056 52.9101 56.176 53.2221 56.336C53.5421 56.496 53.7941 56.696 53.9781 56.936C54.1701 57.168 54.2661 57.44 54.2661 57.752V58.16C54.2661 58.496 54.1621 58.788 53.9541 59.036C53.7461 59.276 53.4661 59.476 53.1141 59.636V61.28H55.8621V62H45.7821V61.28H48.5421ZM50.8221 66.92C50.3261 66.92 49.8661 66.872 49.4421 66.776C49.0261 66.688 48.6661 66.56 48.3621 66.392C48.0581 66.224 47.8181 66.02 47.6421 65.78C47.4661 65.548 47.3781 65.292 47.3781 65.012V64.604C47.3781 64.324 47.4661 64.068 47.6421 63.836C47.8181 63.596 48.0581 63.392 48.3621 63.224C48.6661 63.056 49.0261 62.928 49.4421 62.84C49.8661 62.744 50.3261 62.696 50.8221 62.696C51.3101 62.696 51.7661 62.744 52.1901 62.84C52.6141 62.928 52.9781 63.056 53.2821 63.224C53.5861 63.392 53.8261 63.596 54.0021 63.836C54.1781 64.068 54.2661 64.324 54.2661 64.604V65.012C54.2661 65.292 54.1781 65.548 54.0021 65.78C53.8261 66.02 53.5861 66.224 53.2821 66.392C52.9781 66.56 52.6141 66.688 52.1901 66.776C51.7661 66.872 51.3101 66.92 50.8221 66.92ZM50.8221 63.416C50.4781 63.416 50.1461 63.448 49.8261 63.512C49.5141 63.568 49.2341 63.652 48.9861 63.764C48.7461 63.876 48.5541 64.012 48.4101 64.172C48.2661 64.324 48.1941 64.492 48.1941 64.676V64.94C48.1941 65.124 48.2661 65.292 48.4101 65.444C48.5541 65.604 48.7461 65.74 48.9861 65.852C49.2341 65.964 49.5141 66.048 49.8261 66.104C50.1461 66.168 50.4781 66.2 50.8221 66.2C51.1661 66.2 51.4941 66.168 51.8061 66.104C52.1261 66.048 52.4061 65.964 52.6461 65.852C52.8941 65.74 53.0901 65.604 53.2341 65.444C53.3781 65.292 53.4501 65.124 53.4501 64.94V64.676C53.4501 64.492 53.3781 64.324 53.2341 64.172C53.0901 64.012 52.8941 63.876 52.6461 63.764C52.4061 63.652 52.1261 63.568 51.8061 63.512C51.4941 63.448 51.1661 63.416 50.8221 63.416ZM50.8221 56.576C50.4941 56.576 50.1701 56.604 49.8501 56.66C49.5381 56.716 49.2581 56.8 49.0101 56.912C48.7621 57.016 48.5621 57.144 48.4101 57.296C48.2661 57.448 48.1941 57.62 48.1941 57.812V58.1C48.1941 58.292 48.2661 58.464 48.4101 58.616C48.5621 58.768 48.7621 58.9 49.0101 59.012C49.2581 59.116 49.5381 59.196 49.8501 59.252C50.1701 59.308 50.4941 59.336 50.8221 59.336C51.1501 59.336 51.4701 59.308 51.7821 59.252C52.1021 59.196 52.3821 59.116 52.6221 59.012C52.8701 58.9 53.0701 58.768 53.2221 58.616C53.3741 58.464 53.4501 58.292 53.4501 58.1V57.812C53.4501 57.62 53.3741 57.448 53.2221 57.296C53.0701 57.144 52.8701 57.016 52.6221 56.912C52.3821 56.8 52.1021 56.716 51.7821 56.66C51.4701 56.604 51.1501 56.576 50.8221 56.576ZM50.8221 60.056C50.2941 60.056 49.8101 60.008 49.3701 59.912V61.28H52.2861V59.912C51.8301 60.008 51.3421 60.056 50.8221 60.056Z" fill="#808080"/>
</g>
<defs>
<clipPath id="clip0_2635_15872">
<rect width="80" height="80" fill="white"/>
</clipPath>
</defs>
</svg>
