<?xml version="1.0" encoding="UTF-8" standalone="no"?>
<!DOCTYPE svg PUBLIC "-//W3C//DTD SVG 1.1//EN" "http://www.w3.org/Graphics/SVG/1.1/DTD/svg11.dtd">
<svg width="100%" height="100%" viewBox="0 0 80 80" version="1.1" xmlns="http://www.w3.org/2000/svg" xmlns:xlink="http://www.w3.org/1999/xlink" xml:space="preserve" xmlns:serif="http://www.serif.com/" style="fill-rule:evenodd;clip-rule:evenodd;stroke-linejoin:round;stroke-miterlimit:2;">
    <g>
        <path d="M40.001,80.002C62.093,80.002 80.002,62.093 80.002,40.001C80.002,17.909 62.093,0 40.001,0C17.909,0 0,17.909 0,40.001C0,62.093 17.909,80.002 40.001,80.002Z" style="fill:white;fill-rule:nonzero;"/>
        <path d="M40.001,0C62.077,0 80.001,17.924 80.001,40.001C80.001,62.077 62.077,80.001 40.001,80.001C17.924,80.001 0,62.077 0,40.001C0,17.924 17.924,0 40.001,0ZM40.001,0.8C61.636,0.8 79.201,18.365 79.201,40.001C79.201,61.636 61.636,79.201 40.001,79.201C18.365,79.201 0.8,61.636 0.8,40.001C0.8,18.365 18.365,0.8 40.001,0.8Z" style="fill:rgb(128,128,128);"/>
        <path d="M24.1,57.106C24.092,58.379 23.695,59.453 22.91,60.328C22.129,61.199 20.955,61.852 19.389,62.285L19.096,61.688C19.986,61.449 20.734,61.141 21.34,60.762C21.949,60.383 22.418,59.94 22.746,59.432L19.166,59.695L19.025,59.074L23.039,58.875C23.195,58.508 23.287,58.121 23.315,57.715L19.541,57.715L19.541,57.106L24.1,57.106ZM20.643,62.461L27.287,62.461L27.287,64.84L21.393,64.84L21.393,66.152L27.686,66.152L27.686,66.762L20.678,66.762L20.678,64.254L26.561,64.254L26.561,63.07L20.643,63.07L20.643,62.461ZM24.135,59.156L26.549,59.156L26.549,56.578L27.287,56.578L27.287,61.981L26.549,61.981L26.549,59.777L24.135,59.777L24.135,59.156ZM37.647,66.926L36.92,66.926L36.92,61.266L34.799,61.266L34.799,60.633L36.92,60.633L36.92,56.578L37.647,56.578L37.647,66.926ZM29.514,57.563L34.154,57.563L34.154,61.09L30.275,61.09L30.275,63.773L30.311,63.773C31.33,63.773 32.193,63.75 32.9,63.703C33.607,63.656 34.326,63.563 35.057,63.422L35.115,64.055C34.361,64.191 33.623,64.285 32.9,64.336C32.178,64.387 31.315,64.414 30.311,64.418L29.537,64.418L29.537,60.469L33.428,60.469L33.428,58.195L29.514,58.195L29.514,57.563ZM46.576,60.293L43.623,60.293L43.623,62.086C44.389,62.082 45.061,62.059 45.639,62.016C46.217,61.969 46.815,61.883 47.432,61.758L47.525,62.367C46.877,62.496 46.252,62.584 45.65,62.631C45.053,62.674 44.353,62.695 43.553,62.695L42.897,62.695L42.897,59.707L45.85,59.707L45.85,58.043L42.873,58.043L42.873,57.445L46.576,57.445L46.576,60.293ZM44.443,63.563L45.182,63.563L45.182,66.047L51.486,66.047L51.486,66.668L44.443,66.668L44.443,63.563ZM47.01,59.543L48.404,59.543L48.404,56.777L49.131,56.777L49.131,64.066L48.404,64.066L48.404,60.176L47.01,60.176L47.01,59.543ZM50.443,56.578L51.147,56.578L51.147,64.359L50.443,64.359L50.443,56.578ZM62.244,65.484L52.775,65.484L52.775,64.863L62.244,64.863L62.244,65.484ZM53.268,62.367C53.818,62.27 54.395,62.053 54.996,61.717C55.598,61.381 56.1,60.967 56.502,60.475C56.908,59.978 57.111,59.461 57.111,58.922L57.111,58.289L53.561,58.289L53.561,57.656L61.435,57.656L61.435,58.289L57.873,58.289L57.873,58.922C57.873,59.465 58.076,59.981 58.482,60.469C58.893,60.957 59.4,61.367 60.006,61.699C60.615,62.027 61.201,62.238 61.764,62.332L61.447,62.93C60.935,62.824 60.416,62.641 59.889,62.379C59.361,62.113 58.883,61.783 58.453,61.389C58.027,60.994 57.711,60.56 57.504,60.088C57.297,60.565 56.978,61.002 56.549,61.4C56.123,61.795 55.648,62.127 55.125,62.397C54.602,62.662 54.088,62.852 53.584,62.965L53.268,62.367Z" style="fill:rgb(55,55,55);fill-rule:nonzero;"/>
        <circle cx="32" cy="29" r="18" style="fill:rgb(146,206,125);"/>
        <circle cx="32" cy="29" r="14" style="fill:white;"/>
        <circle cx="50" cy="29" r="18" style="fill:rgb(125,143,206);"/>
        <circle cx="50" cy="29" r="14" style="fill:white;"/>
    </g>
</svg>
