<svg width="80" height="80" viewBox="0 0 80 80" fill="none" xmlns="http://www.w3.org/2000/svg">
<g clip-path="url(#clip0_3840_23427)">
<path d="M40.0009 80.0018C62.0928 80.0018 80.0017 62.0928 80.0017 40.0009C80.0017 17.909 62.0928 0 40.0009 0C17.909 0 0 17.909 0 40.0009C0 62.0928 17.909 80.0018 40.0009 80.0018Z" fill="white"/>
<path fill-rule="evenodd" clip-rule="evenodd" d="M40.0009 0C62.0774 0 80.0011 17.9236 80.0011 40.0009C80.0011 62.0774 62.0774 80.0011 40.0009 80.0011C17.9236 80.0011 0 62.0774 0 40.0009C0 17.9236 17.9236 0 40.0009 0ZM40.0009 0.800492C61.6359 0.800492 79.2013 18.3652 79.2013 40.0009C79.2013 61.6359 61.6359 79.2013 40.0009 79.2013C18.3652 79.2013 0.799792 61.6359 0.799792 40.0009C0.799792 18.3652 18.3652 0.800492 40.0009 0.800492Z" fill="#C4C4C4"/>
<path d="M19.0116 60.884C19.6196 60.66 20.1436 60.46 20.5836 60.284C21.0236 60.1 21.3916 59.928 21.6876 59.768C21.9916 59.608 22.2356 59.452 22.4196 59.3C22.6036 59.14 22.7476 58.976 22.8516 58.808L19.0716 58.928L19.0476 58.196L23.0796 58.112C23.1036 57.896 23.1156 57.656 23.1156 57.392V56.876H19.3596V56.132H23.9316V57.428C23.9316 57.668 23.9196 57.888 23.8956 58.088H26.7276V55.664H27.5676V61.16H26.7276V58.832H23.7396C23.6436 59.096 23.4956 59.34 23.2956 59.564C23.0956 59.788 22.8196 60.004 22.4676 60.212C22.1236 60.42 21.6916 60.636 21.1716 60.86C20.6596 61.076 20.0356 61.316 19.2996 61.58L19.0116 60.884ZM27.5676 61.808V64.592H21.6876V65.948H27.8556V66.668H20.8596V63.884H26.7396V62.54H20.7996V61.808H27.5676ZM30.3678 63.152H31.9638C32.5718 63.152 33.1878 63.136 33.8118 63.104C34.4438 63.064 35.0398 63 35.5998 62.912L35.6958 63.644C35.0558 63.748 34.3998 63.82 33.7278 63.86C33.0638 63.892 32.4038 63.908 31.7478 63.908H29.5278V59.708H33.2718V57.296H29.5278V56.552H34.1118V60.452H30.3678V63.152ZM37.0878 59.54V55.664H37.9278V66.632H37.0878V60.308H34.9638V59.54H37.0878ZM45.624 58.808V57.092H42.6V56.348H46.452V59.528H43.428V61.244C44.18 61.244 44.876 61.232 45.516 61.208C46.156 61.176 46.792 61.116 47.424 61.028L47.52 61.76C47.2 61.8 46.88 61.836 46.56 61.868C46.24 61.9 45.892 61.924 45.516 61.94C45.14 61.956 44.716 61.968 44.244 61.976C43.772 61.984 43.224 61.988 42.6 61.988V58.808H45.624ZM45.3 65.768H51.66V66.512H44.448V63.068H45.3V65.768ZM48.54 58.604V55.808H49.368V63.248H48.54V59.348H47.064V58.604H48.54ZM51.42 63.512H50.592V55.664H51.42V63.512ZM53.7042 56.696H61.2642V57.428H57.9162V57.956C57.9162 58.268 57.9322 58.528 57.9642 58.736C58.0042 58.936 58.0722 59.116 58.1682 59.276C58.2722 59.436 58.4122 59.588 58.5882 59.732C58.7722 59.876 59.0082 60.044 59.2962 60.236C59.5762 60.42 59.9362 60.636 60.3762 60.884C60.8162 61.132 61.2882 61.384 61.7922 61.64L61.3602 62.276C60.9362 62.06 60.4962 61.824 60.0402 61.568C59.5922 61.304 59.1882 61.056 58.8282 60.824C58.4122 60.552 58.1002 60.332 57.8922 60.164C57.6842 59.996 57.5522 59.856 57.4962 59.744H57.4842C57.4362 59.856 57.3042 60 57.0882 60.176C56.8802 60.344 56.5682 60.564 56.1522 60.836C55.7922 61.068 55.3842 61.316 54.9282 61.58C54.4722 61.844 54.0282 62.088 53.5962 62.312L53.1522 61.652C53.6562 61.396 54.1322 61.144 54.5802 60.896C55.0282 60.64 55.3922 60.42 55.6722 60.236C55.9602 60.044 56.1922 59.876 56.3682 59.732C56.5522 59.588 56.6922 59.436 56.7882 59.276C56.8922 59.116 56.9602 58.936 56.9922 58.736C57.0322 58.528 57.0522 58.268 57.0522 57.956V57.428H53.7042V56.696ZM62.5242 64.352V65.084H52.4442V64.352H62.5242Z" fill="#808080"/>
<circle cx="32" cy="29" r="18" fill="#92CE7D"/>
<circle cx="32" cy="29" r="14" fill="white"/>
<circle cx="50" cy="29" r="18" fill="#7D8FCE"/>
<circle cx="50" cy="29" r="14" fill="white"/>
</g>
<defs>
<clipPath id="clip0_3840_23427">
<rect width="80" height="80" fill="white"/>
</clipPath>
</defs>
</svg>
