<?xml version="1.0" encoding="UTF-8" standalone="no"?>
<!DOCTYPE svg PUBLIC "-//W3C//DTD SVG 1.1//EN" "http://www.w3.org/Graphics/SVG/1.1/DTD/svg11.dtd">
<svg width="100%" height="100%" viewBox="0 0 400 400" version="1.1" xmlns="http://www.w3.org/2000/svg" xmlns:xlink="http://www.w3.org/1999/xlink" xml:space="preserve" xmlns:serif="http://www.serif.com/" style="fill-rule:evenodd;clip-rule:evenodd;stroke-linecap:round;stroke-linejoin:round;stroke-miterlimit:1.5;">
    <g transform="matrix(1.08398,0,0,1.08398,-20.413,-2.15447)">
        <g transform="matrix(1.59841,0,0,1.61258,-29.6285,-99.6681)">
            <path d="M231.386,148.388L138.425,128.149L60.11,152.698L153.35,177.248L231.386,148.388Z" style="fill:rgb(196,166,127);stroke:rgb(41,2,119);stroke-width:0.57px;"/>
        </g>
        <g transform="matrix(1.08882,0,0,1.08882,-2.27709,-31.6061)">
            <path d="M178.089,127.283L178.215,193.584" style="fill:none;stroke:rgb(41,2,119);stroke-width:0.85px;"/>
        </g>
        <g transform="matrix(0.876966,0,0,1.08882,4.17169,-31.6061)">
            <path d="M240.962,200L71.019,163.641L71.019,308.539L240.962,355.838L240.962,200Z" style="fill:rgb(242,222,196);stroke:rgb(41,2,119);stroke-width:0.93px;"/>
        </g>
        <g transform="matrix(0.287212,0,0,0.299836,120.573,153.784)">
            <path d="M240.962,208.806C240.962,203.562 237.419,198.92 232.201,197.331C205.167,189.094 122.748,163.983 87.4,153.213C83.578,152.048 79.406,152.7 76.169,154.968C72.932,157.235 71.019,160.846 71.019,164.688C71.019,185.919 71.019,222.067 71.019,238.559C71.019,243.735 74.472,248.332 79.595,249.977C106.391,258.579 188.866,285.053 224.396,296.458C228.231,297.689 232.45,297.078 235.733,294.815C239.016,292.552 240.962,288.915 240.962,285.04C240.962,263.197 240.962,225.763 240.962,208.806Z" style="fill:rgb(242,242,242);"/>
        </g>
        <g transform="matrix(0.733969,0,0,1.08882,163.362,-31.6061)">
            <path d="M240.962,157.255L71.019,200L71.019,355.838L240.962,301.571L240.962,157.255Z" style="fill:rgb(242,222,196);stroke:rgb(41,2,119);stroke-width:0.99px;"/>
        </g>
        <g transform="matrix(1.04696,0,0,1.08882,10.8893,-31.6061)">
            <path d="M224.652,189.281L87.302,153.609L172.764,127.283L314.558,157.255L224.652,189.281Z" style="fill:rgb(236,202,156);stroke:rgb(41,2,119);stroke-width:0.86px;"/>
        </g>
        <g transform="matrix(1.08882,0,0,1.08882,-2.27709,-34.7799)">
            <path d="M200,202.915L63.123,166.556L126.667,146.443L262.026,179.638L200,202.915Z" style="fill:rgb(236,202,156);stroke:rgb(41,2,119);stroke-width:0.85px;"/>
        </g>
    </g>
    <g transform="matrix(1.43167e-16,-1.80604,1.0072,2.85709e-13,97.4912,399.448)">
        <path d="M200,26.65C200,25.86 199.825,25.102 199.513,24.544C199.202,23.985 198.779,23.671 198.339,23.671C193.123,23.671 177.109,23.671 171.893,23.671C171.452,23.671 171.03,23.985 170.718,24.544C170.407,25.102 170.232,25.86 170.232,26.65C170.232,44.397 170.232,135.439 170.232,135.439L200,135.439L200,26.65Z" style="fill:rgb(195,221,254);"/>
    </g>
    <g transform="matrix(-4.66007e-16,1.95955,-2.11445,-3.0003e-16,464.594,-216.348)">
        <path d="M142.857,88.271C143.051,88.056 143.338,87.932 143.64,87.932C143.942,87.932 144.229,88.056 144.423,88.271C147.974,92.208 162.629,108.456 168.131,114.556C168.512,114.979 168.595,115.568 168.344,116.067C168.092,116.566 167.551,116.885 166.957,116.885C157.437,116.885 129.844,116.885 120.323,116.885C119.729,116.885 119.188,116.566 118.937,116.067C118.685,115.568 118.768,114.979 119.149,114.556C124.651,108.456 139.306,92.208 142.857,88.271Z" style="fill:rgb(195,221,254);"/>
    </g>
    <g transform="matrix(1.18026,0,0,1.18026,12.3249,-51.9954)">
        <path d="M221.724,194.041L85.591,160.163L112.974,151.771L247.97,184.123L221.724,194.041Z" style="fill:rgb(164,149,129);fill-opacity:0.38;"/>
    </g>
    <g transform="matrix(1,0,0,1,4.20553,9.3404)">
        <path d="M269.808,167.61L269.801,345.932L300.789,331.233L300.789,155.976L269.808,167.61Z" style="fill:rgb(164,149,129);fill-opacity:0.38;"/>
    </g>
</svg>
