<svg width="80" height="80" viewBox="0 0 80 80" fill="none" xmlns="http://www.w3.org/2000/svg">
<g clip-path="url(#clip0_2635_16392)">
<path d="M40.0009 80.0018C62.0928 80.0018 80.0017 62.0928 80.0017 40.0009C80.0017 17.909 62.0928 0 40.0009 0C17.909 0 0 17.909 0 40.0009C0 62.0928 17.909 80.0018 40.0009 80.0018Z" fill="white"/>
<path fill-rule="evenodd" clip-rule="evenodd" d="M40.0009 0C62.0774 0 80.0011 17.9236 80.0011 40.0009C80.0011 62.0774 62.0774 80.0011 40.0009 80.0011C17.9236 80.0011 0 62.0774 0 40.0009C0 17.9236 17.9236 0 40.0009 0ZM40.0009 0.800492C61.6359 0.800492 79.2013 18.3652 79.2013 40.0009C79.2013 61.6359 61.6359 79.2013 40.0009 79.2013C18.3652 79.2013 0.799792 61.6359 0.799792 40.0009C0.799792 18.3652 18.3652 0.800492 40.0009 0.800492Z" fill="#C4C4C4"/>
<path d="M21.8695 61.712V64.544H15.9895V65.948H22.1575V66.668H15.1615V63.836H21.0415V62.444H15.1015V61.712H21.8695ZM21.8695 61.064H21.0295V55.664H21.8695V61.064ZM16.0015 60.788C15.6095 60.788 15.2495 60.728 14.9215 60.608C14.5935 60.488 14.3095 60.328 14.0695 60.128C13.8375 59.928 13.6535 59.696 13.5175 59.432C13.3895 59.168 13.3255 58.892 13.3255 58.604V58.076C13.3255 57.788 13.3895 57.512 13.5175 57.248C13.6535 56.984 13.8375 56.752 14.0695 56.552C14.3095 56.352 14.5935 56.192 14.9215 56.072C15.2495 55.952 15.6095 55.892 16.0015 55.892C16.3935 55.892 16.7535 55.952 17.0815 56.072C17.4095 56.192 17.6895 56.352 17.9215 56.552C18.1615 56.752 18.3455 56.984 18.4735 57.248C18.6095 57.512 18.6775 57.788 18.6775 58.076V58.604C18.6775 58.892 18.6095 59.168 18.4735 59.432C18.3455 59.696 18.1615 59.928 17.9215 60.128C17.6895 60.328 17.4095 60.488 17.0815 60.608C16.7535 60.728 16.3935 60.788 16.0015 60.788ZM16.0015 56.648C15.7295 56.648 15.4775 56.688 15.2455 56.768C15.0215 56.848 14.8255 56.956 14.6575 57.092C14.4975 57.228 14.3695 57.388 14.2735 57.572C14.1855 57.756 14.1415 57.948 14.1415 58.148V58.532C14.1415 58.74 14.1855 58.936 14.2735 59.12C14.3695 59.296 14.4975 59.452 14.6575 59.588C14.8255 59.724 15.0215 59.832 15.2455 59.912C15.4775 59.992 15.7295 60.032 16.0015 60.032C16.2735 60.032 16.5215 59.992 16.7455 59.912C16.9775 59.832 17.1735 59.724 17.3335 59.588C17.5015 59.452 17.6295 59.296 17.7175 59.12C17.8135 58.936 17.8615 58.74 17.8615 58.532V58.148C17.8615 57.948 17.8135 57.756 17.7175 57.572C17.6295 57.388 17.5015 57.228 17.3335 57.092C17.1735 56.956 16.9775 56.848 16.7455 56.768C16.5215 56.688 16.2735 56.648 16.0015 56.648ZM30.7777 64.268C30.2817 64.316 29.7897 64.36 29.3017 64.4C28.8217 64.432 28.2977 64.46 27.7297 64.484C27.1697 64.508 26.5417 64.524 25.8457 64.532C25.1577 64.54 24.3537 64.544 23.4337 64.544V63.8C24.0417 63.8 24.6017 63.8 25.1137 63.8C25.6337 63.8 26.1217 63.792 26.5777 63.776V62.408C26.2417 62.376 25.9337 62.308 25.6537 62.204C25.3737 62.092 25.1337 61.952 24.9337 61.784C24.7337 61.616 24.5777 61.432 24.4657 61.232C24.3617 61.024 24.3097 60.808 24.3097 60.584V60.128C24.3097 59.888 24.3737 59.656 24.5017 59.432C24.6297 59.208 24.8057 59.012 25.0297 58.844C25.2617 58.676 25.5377 58.544 25.8577 58.448C26.1857 58.344 26.5417 58.292 26.9257 58.292C27.3177 58.292 27.6737 58.344 27.9937 58.448C28.3137 58.544 28.5857 58.676 28.8097 58.844C29.0417 59.012 29.2217 59.208 29.3497 59.432C29.4777 59.656 29.5417 59.888 29.5417 60.128V60.584C29.5417 60.8 29.4897 61.008 29.3857 61.208C29.2897 61.408 29.1497 61.588 28.9657 61.748C28.7817 61.908 28.5577 62.048 28.2937 62.168C28.0377 62.28 27.7497 62.356 27.4297 62.396V63.752C28.0617 63.736 28.6377 63.712 29.1577 63.68C29.6857 63.64 30.2017 63.592 30.7057 63.536L30.7777 64.268ZM32.3857 66.632H31.5337V55.664H32.3857V66.632ZM26.9257 59.012C26.6457 59.012 26.3937 59.048 26.1697 59.12C25.9457 59.184 25.7537 59.272 25.5937 59.384C25.4417 59.496 25.3217 59.62 25.2337 59.756C25.1537 59.892 25.1137 60.032 25.1137 60.176V60.536C25.1137 60.68 25.1537 60.824 25.2337 60.968C25.3217 61.104 25.4417 61.228 25.5937 61.34C25.7537 61.452 25.9457 61.544 26.1697 61.616C26.3937 61.68 26.6457 61.712 26.9257 61.712C27.2057 61.712 27.4577 61.68 27.6817 61.616C27.9057 61.544 28.0937 61.452 28.2457 61.34C28.4057 61.228 28.5257 61.104 28.6057 60.968C28.6937 60.824 28.7377 60.68 28.7377 60.536V60.176C28.7377 60.032 28.6937 59.892 28.6057 59.756C28.5257 59.62 28.4057 59.496 28.2457 59.384C28.0937 59.272 27.9057 59.184 27.6817 59.12C27.4577 59.048 27.2057 59.012 26.9257 59.012ZM27.3337 56.936H30.0457V57.68H23.7097V56.936H26.4937V55.568H27.3337V56.936ZM36.2179 61.28V59.636C35.8579 59.476 35.5739 59.276 35.3659 59.036C35.1579 58.788 35.0539 58.496 35.0539 58.16V57.752C35.0539 57.44 35.1459 57.168 35.3299 56.936C35.5219 56.696 35.7739 56.496 36.0859 56.336C36.4059 56.176 36.7739 56.056 37.1899 55.976C37.6059 55.896 38.0419 55.856 38.4979 55.856C38.9539 55.856 39.3899 55.896 39.8059 55.976C40.2219 56.056 40.5859 56.176 40.8979 56.336C41.2179 56.496 41.4699 56.696 41.6539 56.936C41.8459 57.168 41.9419 57.44 41.9419 57.752V58.16C41.9419 58.496 41.8379 58.788 41.6299 59.036C41.4219 59.276 41.1419 59.476 40.7899 59.636V61.28H43.5379V62H33.4579V61.28H36.2179ZM38.4979 66.92C38.0019 66.92 37.5419 66.872 37.1179 66.776C36.7019 66.688 36.3419 66.56 36.0379 66.392C35.7339 66.224 35.4939 66.02 35.3179 65.78C35.1419 65.548 35.0539 65.292 35.0539 65.012V64.604C35.0539 64.324 35.1419 64.068 35.3179 63.836C35.4939 63.596 35.7339 63.392 36.0379 63.224C36.3419 63.056 36.7019 62.928 37.1179 62.84C37.5419 62.744 38.0019 62.696 38.4979 62.696C38.9859 62.696 39.4419 62.744 39.8659 62.84C40.2899 62.928 40.6539 63.056 40.9579 63.224C41.2619 63.392 41.5019 63.596 41.6779 63.836C41.8539 64.068 41.9419 64.324 41.9419 64.604V65.012C41.9419 65.292 41.8539 65.548 41.6779 65.78C41.5019 66.02 41.2619 66.224 40.9579 66.392C40.6539 66.56 40.2899 66.688 39.8659 66.776C39.4419 66.872 38.9859 66.92 38.4979 66.92ZM38.4979 63.416C38.1539 63.416 37.8219 63.448 37.5019 63.512C37.1899 63.568 36.9099 63.652 36.6619 63.764C36.4219 63.876 36.2299 64.012 36.0859 64.172C35.9419 64.324 35.8699 64.492 35.8699 64.676V64.94C35.8699 65.124 35.9419 65.292 36.0859 65.444C36.2299 65.604 36.4219 65.74 36.6619 65.852C36.9099 65.964 37.1899 66.048 37.5019 66.104C37.8219 66.168 38.1539 66.2 38.4979 66.2C38.8419 66.2 39.1699 66.168 39.4819 66.104C39.8019 66.048 40.0819 65.964 40.3219 65.852C40.5699 65.74 40.7659 65.604 40.9099 65.444C41.0539 65.292 41.1259 65.124 41.1259 64.94V64.676C41.1259 64.492 41.0539 64.324 40.9099 64.172C40.7659 64.012 40.5699 63.876 40.3219 63.764C40.0819 63.652 39.8019 63.568 39.4819 63.512C39.1699 63.448 38.8419 63.416 38.4979 63.416ZM38.4979 56.576C38.1699 56.576 37.8459 56.604 37.5259 56.66C37.2139 56.716 36.9339 56.8 36.6859 56.912C36.4379 57.016 36.2379 57.144 36.0859 57.296C35.9419 57.448 35.8699 57.62 35.8699 57.812V58.1C35.8699 58.292 35.9419 58.464 36.0859 58.616C36.2379 58.768 36.4379 58.9 36.6859 59.012C36.9339 59.116 37.2139 59.196 37.5259 59.252C37.8459 59.308 38.1699 59.336 38.4979 59.336C38.8259 59.336 39.1459 59.308 39.4579 59.252C39.7779 59.196 40.0579 59.116 40.2979 59.012C40.5459 58.9 40.7459 58.768 40.8979 58.616C41.0499 58.464 41.1259 58.292 41.1259 58.1V57.812C41.1259 57.62 41.0499 57.448 40.8979 57.296C40.7459 57.144 40.5459 57.016 40.2979 56.912C40.0579 56.8 39.7779 56.716 39.4579 56.66C39.1459 56.604 38.8259 56.576 38.4979 56.576ZM38.4979 60.056C37.9699 60.056 37.4859 60.008 37.0459 59.912V61.28H39.9619V59.912C39.5059 60.008 39.0179 60.056 38.4979 60.056ZM50.2861 58.808V57.092H47.2621V56.348H51.1141V59.528H48.0901V61.244C48.8421 61.244 49.5381 61.232 50.1781 61.208C50.8181 61.176 51.4541 61.116 52.0861 61.028L52.1821 61.76C51.8621 61.8 51.5421 61.836 51.2221 61.868C50.9021 61.9 50.5541 61.924 50.1781 61.94C49.8021 61.956 49.3781 61.968 48.9061 61.976C48.4341 61.984 47.8861 61.988 47.2621 61.988V58.808H50.2861ZM49.9621 65.768H56.3221V66.512H49.1101V63.068H49.9621V65.768ZM53.2021 58.604V55.808H54.0301V63.248H53.2021V59.348H51.7261V58.604H53.2021ZM56.0821 63.512H55.2541V55.664H56.0821V63.512ZM58.3663 56.696H65.9263V57.428H62.5783V57.956C62.5783 58.268 62.5943 58.528 62.6263 58.736C62.6663 58.936 62.7343 59.116 62.8303 59.276C62.9343 59.436 63.0743 59.588 63.2503 59.732C63.4343 59.876 63.6703 60.044 63.9583 60.236C64.2383 60.42 64.5983 60.636 65.0383 60.884C65.4783 61.132 65.9503 61.384 66.4543 61.64L66.0223 62.276C65.5983 62.06 65.1583 61.824 64.7023 61.568C64.2543 61.304 63.8503 61.056 63.4903 60.824C63.0743 60.552 62.7623 60.332 62.5543 60.164C62.3463 59.996 62.2143 59.856 62.1583 59.744H62.1463C62.0983 59.856 61.9663 60 61.7503 60.176C61.5423 60.344 61.2303 60.564 60.8143 60.836C60.4543 61.068 60.0463 61.316 59.5903 61.58C59.1343 61.844 58.6903 62.088 58.2583 62.312L57.8143 61.652C58.3183 61.396 58.7943 61.144 59.2423 60.896C59.6903 60.64 60.0543 60.42 60.3343 60.236C60.6223 60.044 60.8543 59.876 61.0303 59.732C61.2143 59.588 61.3543 59.436 61.4503 59.276C61.5543 59.116 61.6223 58.936 61.6543 58.736C61.6943 58.528 61.7143 58.268 61.7143 57.956V57.428H58.3663V56.696ZM67.1863 64.352V65.084H57.1063V64.352H67.1863Z" fill="#808080"/>
<path d="M20.3792 40.53H17.3022V29.361H14.8542V26.675H20.3792V40.53ZM28.4012 26.675H33.7732C35.2806 26.675 36.5952 26.9697 37.7172 27.559C38.8392 28.137 39.7006 28.953 40.3012 30.007C40.9019 31.0497 41.2022 32.251 41.2022 33.611C41.2022 34.971 40.9019 36.178 40.3012 37.232C39.7006 38.2747 38.8392 39.085 37.7172 39.663C36.5952 40.241 35.2806 40.53 33.7732 40.53H28.4012V26.675ZM33.8242 37.793C35.1616 37.793 36.2099 37.4303 36.9692 36.705C37.7286 35.9683 38.1082 34.937 38.1082 33.611C38.1082 32.285 37.7286 31.2537 36.9692 30.517C36.2099 29.7803 35.1616 29.412 33.8242 29.412H31.4952V37.793H33.8242ZM50.8628 37.844H45.4908L44.5218 40.53H41.3258L46.6978 26.675H49.9108L55.2828 40.53H51.8318L50.8628 37.844ZM49.9108 35.158L48.1768 30.33L46.4428 35.158H49.9108ZM61.2437 36.178V40.53H58.1497V36.178L52.9647 26.675H56.5007L59.8327 33.22L63.1477 26.675H66.4287L61.2437 36.178Z" fill="#373737"/>
</g>
<defs>
<clipPath id="clip0_2635_16392">
<rect width="80" height="80" fill="white"/>
</clipPath>
</defs>
</svg>
