<svg width="80" height="80" viewBox="0 0 80 80" fill="none" xmlns="http://www.w3.org/2000/svg">
<g clip-path="url(#clip0_2635_16105)">
<path d="M40.0009 80.0018C62.0928 80.0018 80.0017 62.0928 80.0017 40.0009C80.0017 17.909 62.0928 0 40.0009 0C17.909 0 0 17.909 0 40.0009C0 62.0928 17.909 80.0018 40.0009 80.0018Z" fill="white"/>
<path fill-rule="evenodd" clip-rule="evenodd" d="M40.0009 0C62.0774 0 80.0011 17.9236 80.0011 40.0009C80.0011 62.0774 62.0774 80.0011 40.0009 80.0011C17.9236 80.0011 0 62.0774 0 40.0009C0 17.9236 17.9236 0 40.0009 0ZM40.0009 0.800492C61.6359 0.800492 79.2013 18.3652 79.2013 40.0009C79.2013 61.6359 61.6359 79.2013 40.0009 79.2013C18.3652 79.2013 0.799792 61.6359 0.799792 40.0009C0.799792 18.3652 18.3652 0.800492 40.0009 0.800492Z" fill="#C4C4C4"/>
<path fill-rule="evenodd" clip-rule="evenodd" d="M14.0521 24.9596C14.0159 23.3545 27.0096 22.8739 39.9906 22.7178C52.9713 22.5618 65.7496 22.1739 65.9755 24.3355C66.1233 36.6305 54.61 46.7523 40.2816 46.9245C25.9528 47.0967 14.1999 37.2547 14.0521 24.9596Z" fill="#C3DDFE"/>
<path fill-rule="evenodd" clip-rule="evenodd" d="M14.0521 24.9596C14.0159 23.3545 27.0096 22.8739 39.9906 22.7178C52.9713 22.5618 65.7496 22.1739 65.9755 24.3355C66.1233 36.6305 54.61 46.7523 40.2816 46.9245C25.9528 47.0967 14.1999 37.2547 14.0521 24.9596ZM14.2976 24.9566C14.2976 24.9558 14.2976 24.955 14.2976 24.9541C14.2967 24.9183 14.3236 24.8897 14.3566 24.8569C14.4027 24.811 14.4646 24.7677 14.5404 24.7245C14.7704 24.5936 15.1116 24.4751 15.5503 24.3632C19.2648 23.4154 29.6335 23.0878 39.9936 22.9633C49.066 22.8542 58.0393 22.6301 62.6842 23.2469C63.8435 23.4007 64.726 23.6033 65.2601 23.8807C65.5282 24.0199 65.7037 24.162 65.7296 24.3494C65.8682 36.516 54.4571 46.5086 40.2786 46.679C26.095 46.8495 14.4439 37.1272 14.2976 24.9566Z" fill="#290277"/>
<path d="M40.0884 28.516C54.4265 28.3436 66.0278 26.3674 66.0005 24.1019C65.9733 21.8365 54.3279 20.1396 39.9898 20.312C25.6517 20.4843 14.0504 22.4606 14.0776 24.726C14.1049 26.9915 25.7503 28.6883 40.0884 28.516Z" fill="#79ADEF"/>
<path fill-rule="evenodd" clip-rule="evenodd" d="M39.9898 20.312C54.3184 20.1397 65.9736 21.8378 66.0008 24.1019C66.028 26.3661 54.417 28.3438 40.0884 28.516C25.7597 28.6882 14.1048 26.9902 14.0776 24.726C14.0504 22.4619 25.6611 20.4842 39.9898 20.312ZM39.9927 20.5575C49.9914 20.4373 58.6845 21.227 63.0095 22.488C64.086 22.802 64.8855 23.1405 65.3524 23.5069C65.6021 23.7026 65.7525 23.8948 65.755 24.1049C65.7575 24.315 65.6118 24.5107 65.3668 24.7124C64.9089 25.0899 64.1178 25.4475 63.0492 25.7873C58.7557 27.1519 50.0841 28.1503 40.0854 28.2705C30.0868 28.3907 21.3936 27.601 17.0686 26.34C15.9921 26.026 15.1927 25.6875 14.7258 25.3211C14.476 25.1254 14.3257 24.9332 14.3232 24.7231C14.3206 24.513 14.4663 24.3172 14.7113 24.1156C15.1692 23.7381 15.9603 23.3804 17.029 23.0407C21.3224 21.676 29.9941 20.6776 39.9927 20.5575Z" fill="#290277"/>
<path d="M33.4048 24.9661L33.7236 22.5439L34.901 23.6875L35.9289 22.8079L36.41 24.7022" stroke="#290277" stroke-width="0.4" stroke-miterlimit="1.5" stroke-linecap="round" stroke-linejoin="round"/>
<path d="M36.858 25.1485L37.9193 22.6387L39.1653 25.2033" stroke="#290277" stroke-width="0.4" stroke-miterlimit="1.5" stroke-linecap="round" stroke-linejoin="round"/>
<path d="M37.623 24.1654L38.8817 23.9824" stroke="#290277" stroke-width="0.4" stroke-miterlimit="1.5" stroke-linecap="round" stroke-linejoin="round"/>
<path d="M40.1193 24.9743L40.3789 22.4482L42.2368 23.2078L40.3035 23.9263" stroke="#290277" stroke-width="0.4" stroke-miterlimit="1.5" stroke-linecap="round" stroke-linejoin="round"/>
<path d="M41.0786 23.79L41.8533 24.9771" stroke="#290277" stroke-width="0.4" stroke-miterlimit="1.5" stroke-linecap="round" stroke-linejoin="round"/>
<path d="M42.9969 22.4482L43.0365 24.7911" stroke="#290277" stroke-width="0.4" stroke-miterlimit="1.5" stroke-linecap="round" stroke-linejoin="round"/>
<path d="M45.0459 22.832L43.1888 23.6515L45.1076 24.6666" stroke="#290277" stroke-width="0.4" stroke-miterlimit="1.5" stroke-linecap="round" stroke-linejoin="round"/>
<path d="M18.6996 62.372H25.8276V63.092H24.4596V65.888H25.8756V66.608H18.6636V65.888H20.1036V63.092H18.6996V62.372ZM19.9716 61.184C19.5636 61.184 19.1916 61.116 18.8556 60.98C18.5276 60.844 18.2476 60.668 18.0156 60.452C17.7916 60.236 17.6156 59.996 17.4876 59.732C17.3676 59.46 17.3076 59.192 17.3076 58.928V58.328C17.3076 58.064 17.3676 57.8 17.4876 57.536C17.6156 57.264 17.7916 57.02 18.0156 56.804C18.2476 56.588 18.5276 56.412 18.8556 56.276C19.1916 56.14 19.5636 56.072 19.9716 56.072C20.3796 56.072 20.7476 56.14 21.0756 56.276C21.4116 56.412 21.6916 56.588 21.9156 56.804C22.1476 57.02 22.3236 57.264 22.4436 57.536C22.5716 57.8 22.6356 58.064 22.6356 58.328V58.928C22.6356 59.192 22.5716 59.46 22.4436 59.732C22.3236 59.996 22.1476 60.236 21.9156 60.452C21.6916 60.668 21.4116 60.844 21.0756 60.98C20.7476 61.116 20.3796 61.184 19.9716 61.184ZM19.9716 56.828C19.6916 56.828 19.4396 56.876 19.2156 56.972C18.9916 57.06 18.7956 57.18 18.6276 57.332C18.4676 57.476 18.3436 57.644 18.2556 57.836C18.1676 58.02 18.1236 58.212 18.1236 58.412V58.844C18.1236 59.044 18.1676 59.24 18.2556 59.432C18.3436 59.616 18.4676 59.784 18.6276 59.936C18.7956 60.08 18.9916 60.2 19.2156 60.296C19.4396 60.384 19.6916 60.428 19.9716 60.428C20.2436 60.428 20.4916 60.384 20.7156 60.296C20.9476 60.208 21.1436 60.092 21.3036 59.948C21.4716 59.796 21.5996 59.624 21.6876 59.432C21.7756 59.24 21.8196 59.044 21.8196 58.844V58.412C21.8196 58.212 21.7756 58.02 21.6876 57.836C21.5996 57.644 21.4716 57.476 21.3036 57.332C21.1436 57.18 20.9476 57.06 20.7156 56.972C20.4916 56.876 20.2436 56.828 19.9716 56.828ZM20.9316 65.888H23.6316V63.092H20.9316V65.888ZM25.5876 58.256H27.2676V59H25.5876V61.724H24.7476V55.664H25.5876V58.256ZM36.7278 60.128H31.2678V56.204H36.6798V56.972H32.1198V59.36H36.7278V60.128ZM39.4758 66.632H38.6238V55.664H39.4758V66.632ZM37.8558 62.144C37.3118 62.2 36.7718 62.244 36.2358 62.276C35.6998 62.308 35.1038 62.336 34.4478 62.36V66.284H33.5838V62.396C33.1518 62.404 32.6838 62.412 32.1798 62.42C31.6758 62.42 31.1238 62.42 30.5238 62.42V61.676C31.3878 61.676 32.1758 61.672 32.8878 61.664C33.6078 61.648 34.2598 61.632 34.8438 61.616C35.4358 61.592 35.9718 61.564 36.4518 61.532C36.9398 61.5 37.3838 61.46 37.7838 61.412L37.8558 62.144ZM50.892 61.412C51.012 60.868 51.104 60.292 51.168 59.684C51.232 59.068 51.264 58.496 51.264 57.968V57.116H44.94V56.384H52.128V57.692C52.128 58.332 52.096 58.976 52.032 59.624C51.968 60.264 51.88 60.86 51.768 61.412H53.7V62.144H49.08V66.632H48.228V62.144H43.62V61.412H50.892ZM62.5242 60.152H55.4442V55.976H56.2722V57.344H61.6962V55.976H62.5242V60.152ZM64.0242 61.424V62.144H59.5242V64.352H58.6842V62.144H53.9442V61.424H64.0242ZM56.2842 65.756H62.7642V66.5H55.4322V63.38H56.2842V65.756ZM56.2722 59.42H61.6962V58.052H56.2722V59.42Z" fill="#808080"/>
</g>
<defs>
<clipPath id="clip0_2635_16105">
<rect width="80" height="80" fill="white"/>
</clipPath>
</defs>
</svg>
