<svg width="80" height="80" viewBox="0 0 80 80" fill="none" xmlns="http://www.w3.org/2000/svg">
<g clip-path="url(#clip0_2635_15802)">
<path d="M40.0009 80.0018C62.0928 80.0018 80.0017 62.0928 80.0017 40.0009C80.0017 17.909 62.0928 0 40.0009 0C17.909 0 0 17.909 0 40.0009C0 62.0928 17.909 80.0018 40.0009 80.0018Z" fill="white"/>
<path fill-rule="evenodd" clip-rule="evenodd" d="M40.0009 0C62.0774 0 80.0011 17.9236 80.0011 40.0009C80.0011 62.0774 62.0774 80.0011 40.0009 80.0011C17.9236 80.0011 0 62.0774 0 40.0009C0 17.9236 17.9236 0 40.0009 0ZM40.0009 0.800492C61.6359 0.800492 79.2013 18.3652 79.2013 40.0009C79.2013 61.6359 61.6359 79.2013 40.0009 79.2013C18.3652 79.2013 0.799792 61.6359 0.799792 40.0009C0.799792 18.3652 18.3652 0.800492 40.0009 0.800492Z" fill="#C4C4C4"/>
<path fill-rule="evenodd" clip-rule="evenodd" d="M19.5503 27.3902C19.5208 26.083 30.1038 25.6915 40.6765 25.5644C51.2489 25.4373 61.6565 25.1214 61.8404 26.8819C61.9608 36.8959 52.5836 45.1398 40.9134 45.28C29.2431 45.4203 19.6707 37.4042 19.5503 27.3902ZM19.7503 27.3878C19.7503 27.3872 19.7503 27.3865 19.7502 27.3858C19.7495 27.3566 19.7714 27.3334 19.7983 27.3066C19.8359 27.2692 19.8862 27.234 19.948 27.1987C20.1353 27.0921 20.4132 26.9956 20.7705 26.9045C23.7959 26.1325 32.2409 25.8657 40.6789 25.7643C48.0681 25.6755 55.3767 25.4929 59.1598 25.9953C60.104 26.1205 60.8228 26.2856 61.2577 26.5115C61.4761 26.6249 61.6191 26.7406 61.6402 26.8933C61.7531 36.8026 52.459 44.9413 40.911 45.0801C29.3589 45.219 19.8694 37.3004 19.7503 27.3878Z" fill="#290277"/>
<path d="M40.7564 30.2872C52.4344 30.1468 61.8834 28.5372 61.8612 26.692C61.839 24.8469 52.3541 23.4649 40.6761 23.6052C28.9981 23.7456 19.5492 25.3552 19.5714 27.2003C19.5936 29.0455 29.0785 30.4275 40.7564 30.2872Z" fill="white"/>
<path fill-rule="evenodd" clip-rule="evenodd" d="M40.6761 23.6052C52.3464 23.4649 61.8392 24.848 61.8614 26.692C61.8836 28.5361 52.4268 30.1469 40.7564 30.2872C29.0861 30.4274 19.5936 29.0444 19.5714 27.2003C19.5492 25.3563 29.0058 23.7455 40.6761 23.6052ZM40.6785 23.8052C48.8222 23.7073 55.9025 24.3505 59.4251 25.3775C60.3019 25.6333 60.953 25.909 61.3333 26.2074C61.5367 26.3668 61.6591 26.5233 61.6612 26.6944C61.6633 26.8656 61.5446 27.025 61.3451 27.1892C60.9721 27.4967 60.3278 27.788 59.4574 28.0647C55.9605 29.1762 48.8977 29.9893 40.754 30.0872C32.6104 30.1851 25.5301 29.5419 22.0075 28.5149C21.1307 28.2591 20.4796 27.9834 20.0993 27.685C19.8959 27.5256 19.7734 27.3691 19.7714 27.1979C19.7693 27.0268 19.888 26.8674 20.0875 26.7031C20.4605 26.3957 21.1048 26.1044 21.9752 25.8277C25.4721 24.7162 32.5349 23.903 40.6785 23.8052Z" fill="#290277"/>
<path d="M30.9228 22.5188C35.9198 22.5188 39.9706 19.1638 39.9706 15.025C39.9706 10.8863 35.9198 7.53125 30.9228 7.53125C25.9258 7.53125 21.875 10.8863 21.875 15.025C21.875 19.1638 25.9258 22.5188 30.9228 22.5188Z" fill="#C9CEFD"/>
<path d="M48.1609 19.7479C48.871 19.7479 49.4468 19.1818 49.4468 18.4833C49.4468 17.7849 48.871 17.2188 48.1609 17.2188C47.4507 17.2188 46.875 17.7849 46.875 18.4833C46.875 19.1818 47.4507 19.7479 48.1609 19.7479Z" fill="#C9CEFD"/>
<path d="M56.0207 16.4557C57.1884 16.4557 58.1351 15.5247 58.1351 14.3763C58.1351 13.2279 57.1884 12.2969 56.0207 12.2969C54.8529 12.2969 53.9062 13.2279 53.9062 14.3763C53.9062 15.5247 54.8529 16.4557 56.0207 16.4557Z" fill="#C9CEFD"/>
<path d="M58.2086 24.0036C59.8943 24.0036 61.2609 22.6596 61.2609 21.0018C61.2609 19.3439 59.8943 18 58.2086 18C56.5228 18 55.1562 19.3439 55.1562 21.0018C55.1562 22.6596 56.5228 24.0036 58.2086 24.0036Z" fill="#C9CEFD"/>
<path d="M65.059 31.1061C66.0409 31.1061 66.8368 30.3233 66.8368 29.3577C66.8368 28.3921 66.0409 27.6094 65.059 27.6094C64.0772 27.6094 63.2812 28.3921 63.2812 29.3577C63.2812 30.3233 64.0772 31.1061 65.059 31.1061Z" fill="#C9CEFD"/>
<path d="M55.3961 42.7536C57.0818 42.7536 58.4484 41.4096 58.4484 39.7518C58.4484 38.0939 57.0818 36.75 55.3961 36.75C53.7103 36.75 52.3438 38.0939 52.3438 39.7518C52.3438 41.4096 53.7103 42.7536 55.3961 42.7536Z" fill="#C9CEFD"/>
<path d="M49.3064 44.9853C50.3903 44.9853 51.269 44.1211 51.269 43.0551C51.269 41.9892 50.3903 41.125 49.3064 41.125C48.2224 41.125 47.3438 41.9892 47.3438 43.0551C47.3438 44.1211 48.2224 44.9853 49.3064 44.9853Z" fill="#C9CEFD"/>
<path d="M15.2394 26.2994C16.4072 26.2994 17.3538 25.3684 17.3538 24.22C17.3538 23.0716 16.4072 22.1406 15.2394 22.1406C14.0717 22.1406 13.125 23.0716 13.125 24.22C13.125 25.3684 14.0717 26.2994 15.2394 26.2994Z" fill="#C9CEFD"/>
<path d="M24.254 37.2364C25.1364 37.2364 25.8518 36.5329 25.8518 35.6651C25.8518 34.7972 25.1364 34.0938 24.254 34.0938C23.3716 34.0938 22.6562 34.7972 22.6562 35.6651C22.6562 36.5329 23.3716 37.2364 24.254 37.2364Z" fill="#C9CEFD"/>
<path d="M18.2806 37.7461C19.4482 37.7257 20.3784 36.7783 20.3583 35.63C20.3382 34.4818 19.3754 33.5675 18.2078 33.588C17.0403 33.6084 16.1101 34.5558 16.1302 35.7041C16.1503 36.8523 17.1131 37.7666 18.2806 37.7461Z" fill="#C9CEFD"/>
<path d="M22.6078 16.5324C22.6078 16.5324 18.4298 16.0912 20.6482 19.729" stroke="#C9CEFD" stroke-width="0.4" stroke-miterlimit="1.5" stroke-linecap="round" stroke-linejoin="round"/>
<path d="M39.4214 16.2261C39.4214 16.2261 43.6056 16.6036 41.3321 13" stroke="#C9CEFD" stroke-width="0.4" stroke-miterlimit="1.5" stroke-linecap="round" stroke-linejoin="round"/>
<path d="M21.1459 20.8172C21.3704 20.7094 21.4216 20.3497 21.2603 20.014C21.099 19.6783 20.7862 19.4936 20.5617 19.6015C20.3372 19.7094 20.286 20.069 20.4473 20.4047C20.6086 20.7404 20.9214 20.9251 21.1459 20.8172Z" fill="#C9CEFD"/>
<path d="M40.8678 11.9167C40.645 12.028 40.5993 12.3884 40.7657 12.7216C40.9321 13.0548 41.2477 13.2347 41.4705 13.1234C41.6933 13.0121 41.739 12.6518 41.5726 12.3185C41.4062 11.9853 41.0906 11.8054 40.8678 11.9167Z" fill="#C9CEFD"/>
<path d="M28.215 17.4759C28.351 17.4759 28.4613 17.3657 28.4613 17.2297C28.4613 17.0937 28.351 16.9834 28.215 16.9834C28.079 16.9834 27.9688 17.0937 27.9688 17.2297C27.9688 17.3657 28.079 17.4759 28.215 17.4759Z" fill="black"/>
<path d="M33.8119 17.3425C33.9324 17.3425 34.0301 17.2449 34.0301 17.1244C34.0301 17.0039 33.9324 16.9062 33.8119 16.9062C33.6914 16.9062 33.5938 17.0039 33.5938 17.1244C33.5938 17.2449 33.6914 17.3425 33.8119 17.3425Z" fill="black"/>
<path d="M29.5312 17.9697C29.7467 19.8271 32.5976 19.7922 32.8209 17.7656" stroke="#290277" stroke-width="0.3" stroke-miterlimit="1.5" stroke-linecap="round" stroke-linejoin="round"/>
<path d="M32.3499 11.1655C32.3087 10.7852 32.4691 10.3671 32.9903 10.3444C33.6058 10.3179 34.4904 11.0697 32.5051 12.8908L33.9273 12.8653" stroke="#290277" stroke-width="0.4" stroke-miterlimit="1.5" stroke-linecap="round" stroke-linejoin="round"/>
<path fill-rule="evenodd" clip-rule="evenodd" d="M29.7706 8.3125C30.7656 8.3125 31.5733 9.43208 31.5733 10.8115C31.5733 12.1916 30.7656 13.3111 29.7706 13.3111C28.7764 13.3111 27.9688 12.1916 27.9688 10.8115C27.9688 9.43208 28.7764 8.3125 29.7706 8.3125ZM29.7706 8.71219C30.0634 8.71219 30.3308 8.852 30.5497 9.07524C30.9338 9.46591 31.1734 10.1007 31.1734 10.8115C31.1734 11.523 30.9338 12.1577 30.5497 12.5484C30.3308 12.7717 30.0634 12.9115 29.7706 12.9115C29.4786 12.9115 29.2112 12.7717 28.9923 12.5484C28.6082 12.1577 28.3686 11.523 28.3686 10.8115C28.3686 10.1007 28.6082 9.46591 28.9923 9.07524C29.2112 8.852 29.4786 8.71219 29.7706 8.71219Z" fill="#290277"/>
<path d="M28.4617 57.352V53.14H29.3257V57.352H34.7137V58.084H24.6337V57.352H28.4617ZM31.8937 55.84C31.9657 55.472 32.0257 55.112 32.0737 54.76C32.1297 54.4 32.1737 54.044 32.2057 53.692C32.2457 53.332 32.2737 52.968 32.2897 52.6C32.3137 52.224 32.3257 51.836 32.3257 51.436V50.44H25.9057V49.696H33.2017V50.992C33.2017 51.496 33.1937 51.968 33.1777 52.408C33.1617 52.84 33.1337 53.256 33.0937 53.656C33.0617 54.048 33.0177 54.432 32.9617 54.808C32.9137 55.184 32.8537 55.564 32.7817 55.948L31.8937 55.84ZM38.1379 52.564C38.1219 52.668 38.0259 52.812 37.8499 52.996C37.6819 53.172 37.4659 53.388 37.2019 53.644C36.9939 53.844 36.7259 54.084 36.3979 54.364C36.0779 54.636 35.7499 54.904 35.4139 55.168L34.8859 54.556C35.2139 54.316 35.5499 54.052 35.8939 53.764C36.2459 53.468 36.5579 53.184 36.8299 52.912C37.0219 52.72 37.1699 52.552 37.2739 52.408C37.3859 52.264 37.4699 52.124 37.5259 51.988C37.5899 51.844 37.6299 51.692 37.6459 51.532C37.6619 51.364 37.6699 51.168 37.6699 50.944V49.18H38.5339V50.92C38.5339 51.144 38.5419 51.336 38.5579 51.496C38.5739 51.648 38.6099 51.792 38.6659 51.928C38.7299 52.064 38.8179 52.204 38.9299 52.348C39.0499 52.484 39.2099 52.64 39.4099 52.816C39.7059 53.072 40.0059 53.324 40.3099 53.572C40.6139 53.812 40.8979 54.028 41.1619 54.22L40.6579 54.808C40.3379 54.568 40.0459 54.344 39.7819 54.136C39.5259 53.92 39.2939 53.724 39.0859 53.548C38.5179 53.068 38.2059 52.74 38.1499 52.564H38.1379ZM43.5259 51.82H45.2059V52.564H43.5259V56.488H42.6859V48.664H43.5259V51.82ZM37.8379 58.756H43.8739V59.5H36.9859V55.828H37.8379V58.756ZM50.3221 52.408C50.2741 52.528 50.1341 52.692 49.9021 52.9C49.6781 53.1 49.3501 53.344 48.9181 53.632C48.5581 53.872 48.1461 54.132 47.6821 54.412C47.2261 54.684 46.7821 54.936 46.3501 55.168L45.8941 54.496C46.4221 54.224 46.9061 53.96 47.3461 53.704C47.7861 53.44 48.1461 53.212 48.4261 53.02C48.7221 52.82 48.9661 52.64 49.1581 52.48C49.3501 52.32 49.4981 52.152 49.6021 51.976C49.7141 51.792 49.7901 51.592 49.8301 51.376C49.8701 51.152 49.8901 50.876 49.8901 50.548V49.384H50.7661V50.548C50.7661 50.876 50.7861 51.152 50.8261 51.376C50.8661 51.592 50.9381 51.792 51.0421 51.976C51.1541 52.152 51.3021 52.32 51.4861 52.48C51.6781 52.64 51.9221 52.82 52.2181 53.02C52.4981 53.212 52.8541 53.436 53.2861 53.692C53.7261 53.948 54.2061 54.212 54.7261 54.484L54.2821 55.144C53.8501 54.912 53.4061 54.66 52.9501 54.388C52.5021 54.116 52.0981 53.86 51.7381 53.62C51.3061 53.332 50.9781 53.088 50.7541 52.888C50.5301 52.688 50.3901 52.528 50.3341 52.408H50.3221ZM49.8781 57.352V54.82H50.7541V57.352H55.3621V58.084H45.2821V57.352H49.8781ZM33.3577 67.028H26.0977V62.252H33.2617V62.972H26.9257V64.28H33.2017V65H26.9257V66.308H33.3577V67.028ZM34.7137 68.312V69.044H30.1057V72.632H29.2537V69.044H24.6337V68.312H34.7137ZM43.7059 65.84H45.4459V66.596H43.7059V72.632H42.8539V61.664H43.7059V65.84ZM42.0859 69.812C41.5899 69.86 41.1139 69.904 40.6579 69.944C40.2019 69.976 39.7059 70.004 39.1699 70.028C38.6419 70.052 38.0419 70.068 37.3699 70.076C36.7059 70.084 35.9139 70.088 34.9939 70.088V69.344C35.4339 69.344 35.8419 69.344 36.2179 69.344C36.6019 69.344 36.9659 69.34 37.3099 69.332V65.84H38.1619V69.32C38.5459 69.312 38.9059 69.3 39.2419 69.284C39.5859 69.268 39.9139 69.252 40.2259 69.236C40.5379 69.22 40.8379 69.2 41.1259 69.176C41.4219 69.144 41.7179 69.112 42.0139 69.08L42.0859 69.812ZM41.0179 62.72V64.052C41.0179 64.34 41.0099 64.652 40.9939 64.988C40.9859 65.324 40.9699 65.66 40.9459 65.996C40.9219 66.324 40.8899 66.636 40.8499 66.932C40.8179 67.22 40.7779 67.46 40.7299 67.652L39.8779 67.544C39.9339 67.304 39.9779 67.044 40.0099 66.764C40.0499 66.476 40.0819 66.188 40.1059 65.9C40.1299 65.612 40.1459 65.324 40.1539 65.036C40.1619 64.748 40.1659 64.476 40.1659 64.22V63.476H35.5459V62.72H41.0179ZM55.3621 66.32V67.04H52.4461V68.324H53.8621V70.844H47.6101V71.972H54.1861V72.68H46.7821V70.148H53.0341V69.032H46.7221V68.324H48.1981V67.04H45.2821V66.32H55.3621ZM53.7541 63.836C53.7541 64.108 53.6661 64.352 53.4901 64.568C53.3141 64.784 53.0701 64.968 52.7581 65.12C52.4541 65.272 52.0901 65.388 51.6661 65.468C51.2501 65.548 50.8021 65.588 50.3221 65.588C49.8421 65.588 49.3901 65.548 48.9661 65.468C48.5501 65.388 48.1861 65.272 47.8741 65.12C47.5701 64.968 47.3301 64.784 47.1541 64.568C46.9781 64.352 46.8901 64.108 46.8901 63.836V63.5C46.8901 63.228 46.9781 62.984 47.1541 62.768C47.3301 62.552 47.5701 62.368 47.8741 62.216C48.1861 62.064 48.5501 61.948 48.9661 61.868C49.3901 61.788 49.8421 61.748 50.3221 61.748C50.8021 61.748 51.2501 61.788 51.6661 61.868C52.0901 61.948 52.4541 62.064 52.7581 62.216C53.0701 62.368 53.3141 62.552 53.4901 62.768C53.6661 62.984 53.7541 63.228 53.7541 63.5V63.836ZM47.7181 63.788C47.7181 63.948 47.7861 64.096 47.9221 64.232C48.0581 64.36 48.2421 64.472 48.4741 64.568C48.7141 64.664 48.9901 64.74 49.3021 64.796C49.6221 64.852 49.9621 64.88 50.3221 64.88C50.6821 64.88 51.0181 64.852 51.3301 64.796C51.6501 64.74 51.9261 64.664 52.1581 64.568C52.3981 64.472 52.5861 64.36 52.7221 64.232C52.8581 64.096 52.9261 63.948 52.9261 63.788V63.548C52.9261 63.396 52.8581 63.252 52.7221 63.116C52.5861 62.98 52.3981 62.864 52.1581 62.768C51.9261 62.672 51.6501 62.596 51.3301 62.54C51.0181 62.484 50.6821 62.456 50.3221 62.456C49.9621 62.456 49.6221 62.484 49.3021 62.54C48.9901 62.596 48.7141 62.672 48.4741 62.768C48.2421 62.864 48.0581 62.98 47.9221 63.116C47.7861 63.252 47.7181 63.396 47.7181 63.548V63.788ZM49.0261 68.324H51.6181V67.04H49.0261V68.324Z" fill="#808080"/>
</g>
<defs>
<clipPath id="clip0_2635_15802">
<rect width="80" height="80" fill="white"/>
</clipPath>
</defs>
</svg>
