<svg width="80" height="80" viewBox="0 0 80 80" fill="none" xmlns="http://www.w3.org/2000/svg">
<g clip-path="url(#clip0_2635_15850)">
<path d="M40.0009 80.0018C62.0928 80.0018 80.0017 62.0928 80.0017 40.0009C80.0017 17.909 62.0928 0 40.0009 0C17.909 0 0 17.909 0 40.0009C0 62.0928 17.909 80.0018 40.0009 80.0018Z" fill="white"/>
<path fill-rule="evenodd" clip-rule="evenodd" d="M40.0009 0C62.0774 0 80.0011 17.9236 80.0011 40.0009C80.0011 62.0774 62.0774 80.0011 40.0009 80.0011C17.9236 80.0011 0 62.0774 0 40.0009C0 17.9236 17.9236 0 40.0009 0ZM40.0009 0.800492C61.6359 0.800492 79.2013 18.3652 79.2013 40.0009C79.2013 61.6359 61.6359 79.2013 40.0009 79.2013C18.3652 79.2013 0.799792 61.6359 0.799792 40.0009C0.799792 18.3652 18.3652 0.800492 40.0009 0.800492Z" fill="#C4C4C4"/>
<path d="M26.4327 51.7656H53.7468V28.4948L26.4327 28.4948L26.4327 51.7656Z" fill="#DCE5F8"/>
<path fill-rule="evenodd" clip-rule="evenodd" d="M39.2301 5.29207C39.4193 5.08585 39.6865 4.96875 39.9663 4.96875C40.246 4.96875 40.5132 5.08585 40.7026 5.29207C43.9176 8.79027 56.7636 22.7679 61.2313 27.6293C61.4998 27.9214 61.5701 28.3447 61.4106 28.708C61.251 29.0715 60.8917 29.3059 60.4949 29.3059C52.7118 29.3059 27.2207 29.3059 19.4376 29.3059C19.0408 29.3059 18.6815 29.0715 18.5219 28.708C18.3624 28.3447 18.4327 27.9214 18.7012 27.6293C23.1692 22.7679 36.0149 8.79027 39.2301 5.29207Z" fill="#DCE5F8"/>
<path fill-rule="evenodd" clip-rule="evenodd" d="M34.6292 21.2188C34.6292 21.2188 31.093 27.0639 31.093 29.5692C31.093 31.5209 32.6774 33.1054 34.6292 33.1054C36.581 33.1054 38.1655 31.5209 38.1655 29.5692C38.1655 27.0639 34.6292 21.2188 34.6292 21.2188Z" fill="#C3DDFE"/>
<path fill-rule="evenodd" clip-rule="evenodd" d="M34.6292 21.2188C34.6292 21.2188 31.093 27.0639 31.093 29.5692C31.093 31.5209 32.6774 33.1054 34.6292 33.1054C36.581 33.1054 38.1655 31.5209 38.1655 29.5692C38.1655 27.0639 34.6292 21.2188 34.6292 21.2188ZM34.6292 21.611C35.0902 22.398 36.3792 24.6601 37.2161 26.7357C37.6504 27.8122 37.9654 28.8366 37.9654 29.5692C37.9654 31.4104 36.4704 32.9055 34.6292 32.9055C32.788 32.9055 31.2931 31.4104 31.2931 29.5692C31.2931 28.8366 31.6081 27.8122 32.0423 26.7357C32.8796 24.6601 34.1683 22.398 34.6292 21.611Z" fill="#290277"/>
<path fill-rule="evenodd" clip-rule="evenodd" d="M44.8124 29.6562C44.8124 29.6562 40.7819 35.9981 40.7819 38.7157C40.7819 40.9401 42.5878 42.7462 44.8124 42.7462C47.037 42.7462 48.8429 40.9401 48.8429 38.7157C48.8429 35.9981 44.8124 29.6562 44.8124 29.6562Z" fill="#C3DDFE"/>
<path fill-rule="evenodd" clip-rule="evenodd" d="M44.8124 29.6562C44.8124 29.6562 40.7819 35.9981 40.7819 38.7157C40.7819 40.9401 42.5878 42.7462 44.8124 42.7462C47.037 42.7462 48.8429 40.9401 48.8429 38.7157C48.8429 35.9981 44.8124 29.6562 44.8124 29.6562ZM44.8124 30.0344C45.3134 30.8461 46.8174 33.3469 47.7881 35.6382C48.2836 36.8078 48.643 37.9202 48.643 38.7157C48.643 40.8297 46.9266 42.5464 44.8124 42.5464C42.6982 42.5464 40.9819 40.8297 40.9819 38.7157C40.9819 37.9202 41.3412 36.8078 41.8367 35.6382C42.8075 33.3469 44.3114 30.8461 44.8124 30.0344Z" fill="#290277"/>
<path fill-rule="evenodd" clip-rule="evenodd" d="M43.9908 17.1562C43.9908 17.1562 41.4053 21.0542 41.4053 22.7247C41.4053 24.1516 42.5637 25.3102 43.9908 25.3102C45.4179 25.3102 46.5763 24.1516 46.5763 22.7247C46.5763 21.0542 43.9908 17.1562 43.9908 17.1562Z" fill="#C3DDFE"/>
<path fill-rule="evenodd" clip-rule="evenodd" d="M43.9908 17.1562C43.9908 17.1562 41.4053 21.0542 41.4053 22.7247C41.4053 24.1516 42.5637 25.3102 43.9908 25.3102C45.4179 25.3102 46.5763 24.1516 46.5763 22.7247C46.5763 21.0542 43.9908 17.1562 43.9908 17.1562ZM43.9908 17.5242C44.3575 18.0988 45.2483 19.5398 45.835 20.8662C46.1475 21.5727 46.3763 22.2439 46.3763 22.7247C46.3763 24.0414 45.3074 25.1103 43.9908 25.1103C42.6741 25.1103 41.6053 24.0414 41.6053 22.7247C41.6053 22.2439 41.8343 21.5727 42.1466 20.8662C42.7333 19.5398 43.624 18.0988 43.9908 17.5242Z" fill="#290277"/>
<path fill-rule="evenodd" clip-rule="evenodd" d="M36.0361 37.1562C36.0361 37.1562 32.4999 42.3627 32.4999 44.5939C32.4999 46.5458 34.0843 48.1302 36.0361 48.1302C37.9879 48.1302 39.5723 46.5458 39.5723 44.5939C39.5723 42.3627 36.0361 37.1562 36.0361 37.1562Z" fill="#C3DDFE"/>
<path fill-rule="evenodd" clip-rule="evenodd" d="M36.0361 37.1562C36.0361 37.1562 32.4999 42.3627 32.4999 44.5939C32.4999 46.5458 34.0843 48.1302 36.0361 48.1302C37.9879 48.1302 39.5723 46.5458 39.5723 44.5939C39.5723 42.3627 36.0361 37.1562 36.0361 37.1562ZM36.0361 37.5173C36.4917 38.2095 37.7865 40.2314 38.6263 42.0859C39.058 43.0394 39.3722 43.9455 39.3722 44.5939C39.3722 46.4354 37.8773 47.9303 36.0361 47.9303C34.1949 47.9303 32.7 46.4354 32.7 44.5939C32.7 43.9455 33.0142 43.0394 33.4459 42.0859C34.2857 40.2314 35.5805 38.2095 36.0361 37.5173Z" fill="#290277"/>
<path d="M23.7996 67.352V63.14H24.6636V67.352H30.0516V68.084H19.9716V67.352H23.7996ZM27.2316 65.84C27.3036 65.472 27.3636 65.112 27.4116 64.76C27.4676 64.4 27.5116 64.044 27.5436 63.692C27.5836 63.332 27.6116 62.968 27.6276 62.6C27.6516 62.224 27.6636 61.836 27.6636 61.436V60.44H21.2436V59.696H28.5396V60.992C28.5396 61.496 28.5316 61.968 28.5156 62.408C28.4996 62.84 28.4716 63.256 28.4316 63.656C28.3996 64.048 28.3556 64.432 28.2996 64.808C28.2516 65.184 28.1916 65.564 28.1196 65.948L27.2316 65.84ZM32.3358 65.912H38.9238V69.62H32.3358V65.912ZM33.5718 61.184C33.9878 61.184 34.3518 61.236 34.6638 61.34C34.9758 61.436 35.2358 61.568 35.4438 61.736C35.6598 61.904 35.8198 62.096 35.9238 62.312C36.0278 62.52 36.0798 62.732 36.0798 62.948V63.332C36.0798 63.548 36.0278 63.764 35.9238 63.98C35.8198 64.188 35.6598 64.376 35.4438 64.544C35.2358 64.712 34.9758 64.848 34.6638 64.952C34.3518 65.048 33.9878 65.096 33.5718 65.096C33.1558 65.096 32.7918 65.048 32.4798 64.952C32.1678 64.848 31.9038 64.712 31.6878 64.544C31.4798 64.376 31.3238 64.188 31.2198 63.98C31.1158 63.764 31.0638 63.548 31.0638 63.332V62.948C31.0638 62.732 31.1158 62.52 31.2198 62.312C31.3238 62.096 31.4798 61.904 31.6878 61.736C31.9038 61.568 32.1678 61.436 32.4798 61.34C32.7918 61.236 33.1558 61.184 33.5718 61.184ZM33.1518 68.864H38.1078V66.668H33.1518V68.864ZM33.5718 64.388C33.8598 64.388 34.1078 64.356 34.3158 64.292C34.5318 64.228 34.7078 64.144 34.8438 64.04C34.9878 63.928 35.0958 63.808 35.1678 63.68C35.2398 63.552 35.2758 63.42 35.2758 63.284V62.996C35.2758 62.868 35.2398 62.74 35.1678 62.612C35.0958 62.476 34.9878 62.356 34.8438 62.252C34.7078 62.14 34.5318 62.052 34.3158 61.988C34.1078 61.924 33.8598 61.892 33.5718 61.892C33.2838 61.892 33.0318 61.924 32.8158 61.988C32.6078 62.052 32.4318 62.136 32.2878 62.24C32.1518 62.344 32.0478 62.464 31.9758 62.6C31.9038 62.728 31.8678 62.86 31.8678 62.996V63.284C31.8678 63.42 31.9038 63.552 31.9758 63.68C32.0478 63.808 32.1518 63.928 32.2878 64.04C32.4318 64.144 32.6078 64.228 32.8158 64.292C33.0318 64.356 33.2838 64.388 33.5718 64.388ZM38.9238 61.616H40.6038V62.36H38.9238V65.264H38.0838V58.664H38.9238V61.616ZM33.9918 59.9H36.7398V60.632H30.4278V59.9H33.1518V58.508H33.9918V59.9ZM50.7 64.964V65.696H46.092V69.632H45.24V65.696H40.62V64.964H50.7ZM47.064 62.636C46.256 62.236 45.788 61.9 45.66 61.628H45.648C45.496 61.916 45.028 62.256 44.244 62.648C43.916 62.808 43.528 62.992 43.08 63.2C42.64 63.4 42.176 63.596 41.688 63.788L41.316 63.116C41.764 62.948 42.22 62.76 42.684 62.552C43.156 62.344 43.584 62.14 43.968 61.94C44.2 61.82 44.396 61.704 44.556 61.592C44.716 61.472 44.844 61.34 44.94 61.196C45.044 61.052 45.116 60.884 45.156 60.692C45.204 60.5 45.228 60.272 45.228 60.008V59.048H46.08V60.008C46.08 60.272 46.1 60.5 46.14 60.692C46.188 60.884 46.26 61.052 46.356 61.196C46.452 61.34 46.58 61.472 46.74 61.592C46.9 61.704 47.096 61.82 47.328 61.94C47.712 62.14 48.132 62.344 48.588 62.552C49.052 62.752 49.508 62.936 49.956 63.104L49.596 63.764C49.108 63.572 48.644 63.376 48.204 63.176C47.772 62.976 47.392 62.796 47.064 62.636ZM61.0242 63.32V64.04H58.1082V65.324H59.5242V67.844H53.2722V68.972H59.8482V69.68H52.4442V67.148H58.6962V66.032H52.3842V65.324H53.8602V64.04H50.9442V63.32H61.0242ZM59.4162 60.836C59.4162 61.108 59.3282 61.352 59.1522 61.568C58.9762 61.784 58.7322 61.968 58.4202 62.12C58.1162 62.272 57.7522 62.388 57.3282 62.468C56.9122 62.548 56.4642 62.588 55.9842 62.588C55.5042 62.588 55.0522 62.548 54.6282 62.468C54.2122 62.388 53.8482 62.272 53.5362 62.12C53.2322 61.968 52.9922 61.784 52.8162 61.568C52.6402 61.352 52.5522 61.108 52.5522 60.836V60.5C52.5522 60.228 52.6402 59.984 52.8162 59.768C52.9922 59.552 53.2322 59.368 53.5362 59.216C53.8482 59.064 54.2122 58.948 54.6282 58.868C55.0522 58.788 55.5042 58.748 55.9842 58.748C56.4642 58.748 56.9122 58.788 57.3282 58.868C57.7522 58.948 58.1162 59.064 58.4202 59.216C58.7322 59.368 58.9762 59.552 59.1522 59.768C59.3282 59.984 59.4162 60.228 59.4162 60.5V60.836ZM53.3802 60.788C53.3802 60.948 53.4482 61.096 53.5842 61.232C53.7202 61.36 53.9042 61.472 54.1362 61.568C54.3762 61.664 54.6522 61.74 54.9642 61.796C55.2842 61.852 55.6242 61.88 55.9842 61.88C56.3442 61.88 56.6802 61.852 56.9922 61.796C57.3122 61.74 57.5882 61.664 57.8202 61.568C58.0602 61.472 58.2482 61.36 58.3842 61.232C58.5202 61.096 58.5882 60.948 58.5882 60.788V60.548C58.5882 60.396 58.5202 60.252 58.3842 60.116C58.2482 59.98 58.0602 59.864 57.8202 59.768C57.5882 59.672 57.3122 59.596 56.9922 59.54C56.6802 59.484 56.3442 59.456 55.9842 59.456C55.6242 59.456 55.2842 59.484 54.9642 59.54C54.6522 59.596 54.3762 59.672 54.1362 59.768C53.9042 59.864 53.7202 59.98 53.5842 60.116C53.4482 60.252 53.3802 60.396 53.3802 60.548V60.788ZM54.6882 65.324H57.2802V64.04H54.6882V65.324Z" fill="#808080"/>
</g>
<defs>
<clipPath id="clip0_2635_15850">
<rect width="80" height="80" fill="white"/>
</clipPath>
</defs>
</svg>
