<svg width="80" height="80" viewBox="0 0 80 80" fill="none" xmlns="http://www.w3.org/2000/svg">
<g clip-path="url(#clip0_2635_16353)">
<path d="M40.0009 80.0018C62.0928 80.0018 80.0017 62.0928 80.0017 40.0009C80.0017 17.909 62.0928 0 40.0009 0C17.909 0 0 17.909 0 40.0009C0 62.0928 17.909 80.0018 40.0009 80.0018Z" fill="white"/>
<path fill-rule="evenodd" clip-rule="evenodd" d="M40.0009 0C62.0774 0 80.0011 17.9236 80.0011 40.0009C80.0011 62.0774 62.0774 80.0011 40.0009 80.0011C17.9236 80.0011 0 62.0774 0 40.0009C0 17.9236 17.9236 0 40.0009 0ZM40.0009 0.800492C61.6359 0.800492 79.2013 18.3652 79.2013 40.0009C79.2013 61.6359 61.6359 79.2013 40.0009 79.2013C18.3652 79.2013 0.799792 61.6359 0.799792 40.0009C0.799792 18.3652 18.3652 0.800492 40.0009 0.800492Z" fill="#C4C4C4"/>
<path fill-rule="evenodd" clip-rule="evenodd" d="M18.7717 31.5172C18.7421 30.2099 29.3252 29.8184 39.8979 29.6913C50.4703 29.5643 60.8778 29.2483 61.0618 31.0089C61.1822 41.0229 51.805 49.2667 40.1348 49.407C28.4645 49.5473 18.892 41.5312 18.7717 31.5172Z" fill="#C3DDFE"/>
<path d="M39.9779 34.4141C51.6559 34.2738 61.1048 32.6642 61.0826 30.819C61.0604 28.9738 51.5756 27.5918 39.8976 27.7322C28.2196 27.8725 18.7707 29.4821 18.7928 31.3273C18.815 33.1725 28.2999 34.5545 39.9779 34.4141Z" fill="white"/>
<path fill-rule="evenodd" clip-rule="evenodd" d="M39.8976 27.7322C51.5679 27.5919 61.0607 28.9749 61.0828 30.819C61.105 32.6631 51.6482 34.2738 39.9779 34.4141C28.3076 34.5544 18.815 33.1714 18.7928 31.3273C18.7707 29.4832 28.2273 27.8724 39.8976 27.7322ZM60.2015 30.8296C60.1528 30.8738 60.0926 30.9244 60.0382 30.9603C59.6853 31.1921 59.1624 31.4083 58.4972 31.6199C55.0329 32.7208 48.0355 33.5174 39.9683 33.6144C31.9011 33.7113 24.8865 33.0832 21.3967 32.0659C20.7267 31.8703 20.1987 31.6667 19.8403 31.4435C19.7851 31.4089 19.7237 31.3597 19.6739 31.3167C19.7226 31.2725 19.7829 31.2219 19.8372 31.186C20.1902 30.9542 20.7131 30.738 21.3782 30.5266C24.8425 29.4255 31.84 28.6291 39.9072 28.5321C47.9744 28.4352 54.989 29.0631 58.4787 30.0806C59.1488 30.276 59.6767 30.4796 60.0351 30.7028C60.0903 30.7374 60.1518 30.7866 60.2015 30.8296Z" fill="#C3DDFE"/>
<path fill-rule="evenodd" clip-rule="evenodd" d="M40.0808 15.3583C40.0808 15.3583 40.3495 9.39669 36.8413 10.0684C36.8413 10.0684 35.125 9.8226 35.5289 13.7986C35.5289 13.7986 35.5488 17.0446 35.2017 18.3985C35.2017 18.3985 34.7106 22.7278 37.0564 23.2441C37.0564 23.2441 38.9161 23.8456 40.5905 23.5172C40.5905 23.5172 45.3111 23.9869 43.4782 21.8561C43.4782 21.8561 45.0649 20.9815 43.5223 19.9189C43.5223 19.9189 44.7348 19.0171 43.5062 17.9422C43.5062 17.9422 44.9848 16.145 42.1991 15.3218C42.1991 15.3218 40.9962 15.1089 40.0808 15.3583Z" fill="#FCFBE9"/>
<path d="M39.2392 17.2179C38.9265 18.9012 40.969 18.6919 40.969 18.6919C45.6902 18.5992 44.1075 14.3731 40.0193 15.3956C40.0193 15.3956 40.1909 10.0049 37.5358 10.0156C34.3892 10.0284 35.896 12.5449 35.4534 16.0517C34.7278 21.8028 34.9691 23.9977 40.6083 23.5581" stroke="#290277" stroke-width="0.4" stroke-miterlimit="1.5" stroke-linecap="round" stroke-linejoin="round"/>
<path d="M43.533 17.9844C44.4234 18.2728 44.8469 20.29 41.5449 20.3413C41.5449 20.3413 38.4972 20.5309 39.6301 18.5403" stroke="#290277" stroke-width="0.4" stroke-miterlimit="1.5" stroke-linecap="round" stroke-linejoin="round"/>
<path d="M43.5259 20.0156C44.4163 20.3041 44.7754 22.1002 41.6363 22.1665C41.6363 22.1665 38.4206 22.3576 39.6632 20.1203" stroke="#290277" stroke-width="0.4" stroke-miterlimit="1.5" stroke-linecap="round" stroke-linejoin="round"/>
<path d="M43.4953 21.8954C44.3342 22.2859 44.2596 23.7088 41.5269 23.6118C41.5269 23.6118 38.8847 23.6187 39.9384 21.8906" stroke="#290277" stroke-width="0.4" stroke-miterlimit="1.5" stroke-linecap="round" stroke-linejoin="round"/>
<path fill-rule="evenodd" clip-rule="evenodd" d="M29.9974 15.7188L30.9184 18.553H33.8986L31.4876 20.3045L32.4084 23.139L29.9974 21.3871L27.5866 23.139L28.5074 20.3045L26.0964 18.553H29.0766L29.9974 15.7188Z" fill="#FFE447"/>
<path fill-rule="evenodd" clip-rule="evenodd" d="M49.0599 15.7969L49.9809 18.6311H52.9611L50.5501 20.3827L51.4709 23.2171L49.0599 21.4653L46.6491 23.2171L47.5699 20.3827L45.1589 18.6311H48.1391L49.0599 15.7969Z" fill="#FFE447"/>
<path d="M22.7116 64.112C22.2956 64.112 21.9276 64.048 21.6076 63.92C21.2876 63.784 21.0156 63.612 20.7916 63.404C20.5756 63.188 20.4076 62.944 20.2876 62.672C20.1756 62.4 20.1196 62.124 20.1196 61.844V61.196C20.1196 60.916 20.1756 60.64 20.2876 60.368C20.4076 60.096 20.5756 59.852 20.7916 59.636C21.0156 59.42 21.2876 59.248 21.6076 59.12C21.9276 58.984 22.2956 58.916 22.7116 58.916C23.1276 58.916 23.4956 58.984 23.8156 59.12C24.1356 59.248 24.4036 59.42 24.6196 59.636C24.8436 59.852 25.0116 60.096 25.1236 60.368C25.2436 60.64 25.3036 60.916 25.3036 61.196V61.844C25.3036 62.124 25.2436 62.4 25.1236 62.672C25.0116 62.944 24.8436 63.188 24.6196 63.404C24.4036 63.612 24.1356 63.784 23.8156 63.92C23.4956 64.048 23.1276 64.112 22.7116 64.112ZM22.7116 59.672C22.4396 59.672 22.1916 59.712 21.9676 59.792C21.7516 59.872 21.5636 59.984 21.4036 60.128C21.2516 60.272 21.1316 60.444 21.0436 60.644C20.9636 60.836 20.9236 61.044 20.9236 61.268V61.772C20.9236 61.996 20.9636 62.208 21.0436 62.408C21.1316 62.6 21.2516 62.768 21.4036 62.912C21.5636 63.056 21.7516 63.168 21.9676 63.248C22.1916 63.328 22.4396 63.368 22.7116 63.368C22.9836 63.368 23.2276 63.328 23.4436 63.248C23.6676 63.168 23.8556 63.056 24.0076 62.912C24.1676 62.768 24.2876 62.6 24.3676 62.408C24.4556 62.208 24.4996 61.996 24.4996 61.772V61.268C24.4996 61.044 24.4556 60.836 24.3676 60.644C24.2876 60.444 24.1676 60.272 24.0076 60.128C23.8556 59.984 23.6676 59.872 23.4436 59.792C23.2276 59.712 22.9836 59.672 22.7116 59.672ZM28.0156 60.152H29.8396V60.908H28.0156V66.632H27.1636V55.664H28.0156V60.152ZM22.2916 57.392V55.724H23.1436V57.392H25.8796V58.136H19.5196V57.392H22.2916ZM38.8438 66.632H37.9918V55.664H38.8438V66.632ZM35.8198 60.752C35.8198 61.76 35.5798 62.544 35.0998 63.104C34.6278 63.664 33.9638 63.944 33.1078 63.944C32.2518 63.944 31.5838 63.664 31.1038 63.104C30.6318 62.544 30.3958 61.76 30.3958 60.752V59.612C30.3958 58.604 30.6318 57.824 31.1038 57.272C31.5838 56.712 32.2518 56.432 33.1078 56.432C33.9638 56.432 34.6278 56.712 35.0998 57.272C35.5798 57.832 35.8198 58.616 35.8198 59.624V60.752ZM34.9918 59.768C34.9918 59.312 34.9438 58.924 34.8478 58.604C34.7598 58.284 34.6318 58.024 34.4638 57.824C34.3038 57.616 34.1078 57.464 33.8758 57.368C33.6438 57.272 33.3878 57.224 33.1078 57.224C32.8278 57.224 32.5718 57.272 32.3398 57.368C32.1078 57.464 31.9078 57.616 31.7398 57.824C31.5798 58.024 31.4518 58.284 31.3558 58.604C31.2678 58.924 31.2238 59.312 31.2238 59.768V60.608C31.2238 61.064 31.2678 61.456 31.3558 61.784C31.4518 62.104 31.5798 62.368 31.7398 62.576C31.9078 62.776 32.1078 62.924 32.3398 63.02C32.5718 63.116 32.8278 63.164 33.1078 63.164C33.3878 63.164 33.6438 63.116 33.8758 63.02C34.1078 62.924 34.3038 62.776 34.4638 62.576C34.6318 62.368 34.7598 62.104 34.8478 61.784C34.9438 61.456 34.9918 61.064 34.9918 60.608V59.768ZM45.148 59.624C45.1 59.744 44.96 59.908 44.728 60.116C44.504 60.316 44.176 60.56 43.744 60.848C43.384 61.088 42.972 61.348 42.508 61.628C42.052 61.9 41.608 62.152 41.176 62.384L40.72 61.712C41.248 61.44 41.732 61.176 42.172 60.92C42.612 60.656 42.972 60.428 43.252 60.236C43.548 60.036 43.792 59.856 43.984 59.696C44.176 59.536 44.324 59.368 44.428 59.192C44.54 59.008 44.616 58.808 44.656 58.592C44.696 58.368 44.716 58.092 44.716 57.764V56.444H45.592V57.764C45.592 58.092 45.612 58.368 45.652 58.592C45.692 58.808 45.764 59.008 45.868 59.192C45.98 59.368 46.128 59.536 46.312 59.696C46.504 59.856 46.748 60.036 47.044 60.236C47.324 60.428 47.68 60.652 48.112 60.908C48.552 61.164 49.032 61.428 49.552 61.7L49.108 62.36C48.676 62.128 48.232 61.876 47.776 61.604C47.328 61.332 46.924 61.076 46.564 60.836C46.132 60.548 45.804 60.304 45.58 60.104C45.356 59.904 45.216 59.744 45.16 59.624H45.148ZM50.2 64.352V65.084H40.12V64.352H50.2ZM50.5162 60.74H51.5242V57.092H50.5522V56.372H55.7722V57.092H54.7642V60.68C54.9562 60.664 55.1522 60.652 55.3522 60.644C55.5522 60.628 55.7562 60.612 55.9642 60.596L56.0242 61.304C55.0642 61.384 54.1442 61.432 53.2642 61.448C52.3842 61.456 51.4682 61.46 50.5162 61.46V60.74ZM52.6162 62.78H59.7442V66.716H58.9042V63.524H52.6162V62.78ZM56.9722 58.448V55.808H57.8002V62.108H56.9722V59.192H55.5442V58.448H56.9722ZM52.3402 60.74C52.8842 60.74 53.4202 60.728 53.9482 60.704V57.092H52.3402V60.74ZM59.7442 62.132H58.9162V55.664H59.7442V62.132Z" fill="#808080"/>
</g>
<defs>
<clipPath id="clip0_2635_16353">
<rect width="80" height="80" fill="white"/>
</clipPath>
</defs>
</svg>
