<svg width="80" height="80" viewBox="0 0 80 80" fill="none" xmlns="http://www.w3.org/2000/svg">
<g clip-path="url(#clip0_2635_16252)">
<path d="M40.0009 80.0018C62.0928 80.0018 80.0017 62.0928 80.0017 40.0009C80.0017 17.909 62.0928 0 40.0009 0C17.909 0 0 17.909 0 40.0009C0 62.0928 17.909 80.0018 40.0009 80.0018Z" fill="white"/>
<path fill-rule="evenodd" clip-rule="evenodd" d="M40.0009 0C62.0774 0 80.0011 17.9236 80.0011 40.0009C80.0011 62.0774 62.0774 80.0011 40.0009 80.0011C17.9236 80.0011 0 62.0774 0 40.0009C0 17.9236 17.9236 0 40.0009 0ZM40.0009 0.800492C61.6359 0.800492 79.2013 18.3652 79.2013 40.0009C79.2013 61.6359 61.6359 79.2013 40.0009 79.2013C18.3652 79.2013 0.799792 61.6359 0.799792 40.0009C0.799792 18.3652 18.3652 0.800492 40.0009 0.800492Z" fill="#C4C4C4"/>
<path d="M53.5659 7.5H26.2518V31.01H53.5659V7.5Z" fill="#DCE5F8"/>
<path fill-rule="evenodd" clip-rule="evenodd" d="M40.7575 54.4385C40.5681 54.6469 40.2996 54.7656 40.0179 54.7656C39.7363 54.7656 39.4678 54.6469 39.2781 54.4385C36.0528 50.893 23.1824 36.7447 18.7338 31.8543C18.4674 31.5616 18.3989 31.1391 18.5591 30.777C18.7191 30.415 19.0778 30.1816 19.4737 30.1816C27.2432 30.1816 52.7924 30.1816 60.5622 30.1816C60.9581 30.1816 61.3167 30.415 61.4768 30.777C61.637 31.1391 61.5683 31.5616 61.302 31.8543C56.8534 36.7447 43.9831 50.893 40.7575 54.4385Z" fill="#DCE5F8"/>
<path fill-rule="evenodd" clip-rule="evenodd" d="M34.944 14.2188C34.944 14.2188 31.4078 20.0639 31.4078 22.5692C31.4078 24.5209 32.9922 26.1054 34.944 26.1054C36.8958 26.1054 38.4802 24.5209 38.4802 22.5692C38.4802 20.0639 34.944 14.2188 34.944 14.2188Z" fill="#C3DDFE"/>
<path fill-rule="evenodd" clip-rule="evenodd" d="M34.944 14.2188C34.944 14.2188 31.4078 20.0639 31.4078 22.5692C31.4078 24.5209 32.9922 26.1054 34.944 26.1054C36.8958 26.1054 38.4802 24.5209 38.4802 22.5692C38.4802 20.0639 34.944 14.2188 34.944 14.2188ZM34.944 14.611C35.4049 15.398 36.6939 17.6601 37.5309 19.7357C37.9651 20.8122 38.2801 21.8365 38.2801 22.5692C38.2801 24.4103 36.7852 25.9055 34.944 25.9055C33.1028 25.9055 31.6079 24.4103 31.6079 22.5692C31.6079 21.8365 31.9229 20.8122 32.3571 19.7357C33.1943 17.6601 34.4831 15.398 34.944 14.611Z" fill="#290277"/>
<path fill-rule="evenodd" clip-rule="evenodd" d="M45.2808 22.7344C45.2808 22.7344 41.2503 29.0762 41.2503 31.7939C41.2503 34.0183 43.0562 35.8244 45.2808 35.8244C47.5054 35.8244 49.3113 34.0183 49.3113 31.7939C49.3113 29.0762 45.2808 22.7344 45.2808 22.7344Z" fill="#C3DDFE"/>
<path fill-rule="evenodd" clip-rule="evenodd" d="M45.2808 22.7344C45.2808 22.7344 41.2503 29.0762 41.2503 31.7939C41.2503 34.0183 43.0562 35.8244 45.2808 35.8244C47.5054 35.8244 49.3113 34.0183 49.3113 31.7939C49.3113 29.0762 45.2808 22.7344 45.2808 22.7344ZM45.2808 23.1125C45.7818 23.9243 47.2858 26.4251 48.2565 28.7164C48.752 29.886 49.1114 30.9984 49.1114 31.7939C49.1114 33.9079 47.395 35.6246 45.2808 35.6246C43.1666 35.6246 41.4502 33.9079 41.4502 31.7939C41.4502 30.9984 41.8096 29.886 42.3051 28.7164C43.2758 26.4251 44.7798 23.9243 45.2808 23.1125Z" fill="#290277"/>
<path fill-rule="evenodd" clip-rule="evenodd" d="M44.3049 10.1562C44.3049 10.1562 41.7194 14.0542 41.7194 15.7247C41.7194 17.1516 42.8778 18.3102 44.3049 18.3102C45.7319 18.3102 46.8904 17.1516 46.8904 15.7247C46.8904 14.0542 44.3049 10.1562 44.3049 10.1562Z" fill="#C3DDFE"/>
<path fill-rule="evenodd" clip-rule="evenodd" d="M44.3049 10.1562C44.3049 10.1562 41.7194 14.0542 41.7194 15.7247C41.7194 17.1516 42.8778 18.3102 44.3049 18.3102C45.7319 18.3102 46.8904 17.1516 46.8904 15.7247C46.8904 14.0542 44.3049 10.1562 44.3049 10.1562ZM44.3049 10.5242C44.6716 11.0988 45.5624 12.5397 46.1491 13.8661C46.4616 14.5727 46.6904 15.2439 46.6904 15.7247C46.6904 17.0414 45.6215 18.1103 44.3049 18.1103C42.9882 18.1103 41.9194 17.0414 41.9194 15.7247C41.9194 15.2439 42.1484 14.5727 42.4607 13.8661C43.0473 12.5397 43.9381 11.0988 44.3049 10.5242Z" fill="#290277"/>
<path fill-rule="evenodd" clip-rule="evenodd" d="M36.5045 30.2344C36.5045 30.2344 32.9683 35.4409 32.9683 37.6721C32.9683 39.6239 34.5527 41.2083 36.5045 41.2083C38.4563 41.2083 40.0407 39.6239 40.0407 37.6721C40.0407 35.4409 36.5045 30.2344 36.5045 30.2344Z" fill="#C3DDFE"/>
<path fill-rule="evenodd" clip-rule="evenodd" d="M36.5045 30.2344C36.5045 30.2344 32.9683 35.4409 32.9683 37.6721C32.9683 39.6239 34.5527 41.2083 36.5045 41.2083C38.4563 41.2083 40.0407 39.6239 40.0407 37.6721C40.0407 35.4409 36.5045 30.2344 36.5045 30.2344ZM36.5045 30.5954C36.9601 31.2877 38.2549 33.3095 39.0947 35.164C39.5264 36.1175 39.8406 37.0236 39.8406 37.6721C39.8406 39.5135 38.3457 41.0084 36.5045 41.0084C34.6633 41.0084 33.1683 39.5135 33.1683 37.6721C33.1683 37.0236 33.4826 36.1175 33.9143 35.164C34.754 33.3095 36.0489 31.2877 36.5045 30.5954Z" fill="#290277"/>
<path d="M26.2476 60.428H23.7876V62.144C23.7876 62.376 23.7956 62.576 23.8116 62.744C23.8276 62.912 23.8596 63.072 23.9076 63.224C23.9556 63.376 24.0236 63.528 24.1116 63.68C24.2076 63.824 24.3356 63.988 24.4956 64.172C24.7276 64.444 25.0156 64.752 25.3596 65.096C25.7116 65.44 26.1116 65.812 26.5596 66.212L26.0076 66.776C25.5916 66.392 25.2316 66.048 24.9276 65.744C24.6316 65.44 24.3636 65.16 24.1236 64.904C23.9476 64.72 23.7876 64.544 23.6436 64.376C23.4996 64.208 23.4116 64.084 23.3796 64.004H23.3676C23.3516 64.06 23.3116 64.132 23.2476 64.22C23.1916 64.308 23.1196 64.404 23.0316 64.508C22.9516 64.612 22.8636 64.72 22.7676 64.832C22.6716 64.936 22.5796 65.036 22.4916 65.132C22.4116 65.22 22.3036 65.336 22.1676 65.48C22.0316 65.616 21.8796 65.768 21.7116 65.936C21.5516 66.096 21.3756 66.268 21.1836 66.452C20.9996 66.628 20.8196 66.792 20.6436 66.944L20.0796 66.38C20.4636 66.044 20.8196 65.712 21.1476 65.384C21.4836 65.056 21.7916 64.736 22.0716 64.424C22.2636 64.208 22.4156 64.016 22.5276 63.848C22.6396 63.672 22.7236 63.5 22.7796 63.332C22.8436 63.164 22.8836 62.992 22.8996 62.816C22.9236 62.64 22.9356 62.436 22.9356 62.204V60.428H20.4156V59.684H26.2476V60.428ZM28.2036 62.456V58.664H29.0556V69.632H28.2036V63.224H25.7196V62.456H28.2036ZM32.3358 65.912H38.9238V69.62H32.3358V65.912ZM33.5718 61.184C33.9878 61.184 34.3518 61.236 34.6638 61.34C34.9758 61.436 35.2358 61.568 35.4438 61.736C35.6598 61.904 35.8198 62.096 35.9238 62.312C36.0278 62.52 36.0798 62.732 36.0798 62.948V63.332C36.0798 63.548 36.0278 63.764 35.9238 63.98C35.8198 64.188 35.6598 64.376 35.4438 64.544C35.2358 64.712 34.9758 64.848 34.6638 64.952C34.3518 65.048 33.9878 65.096 33.5718 65.096C33.1558 65.096 32.7918 65.048 32.4798 64.952C32.1678 64.848 31.9038 64.712 31.6878 64.544C31.4798 64.376 31.3238 64.188 31.2198 63.98C31.1158 63.764 31.0638 63.548 31.0638 63.332V62.948C31.0638 62.732 31.1158 62.52 31.2198 62.312C31.3238 62.096 31.4798 61.904 31.6878 61.736C31.9038 61.568 32.1678 61.436 32.4798 61.34C32.7918 61.236 33.1558 61.184 33.5718 61.184ZM33.1518 68.864H38.1078V66.668H33.1518V68.864ZM33.5718 64.388C33.8598 64.388 34.1078 64.356 34.3158 64.292C34.5318 64.228 34.7078 64.144 34.8438 64.04C34.9878 63.928 35.0958 63.808 35.1678 63.68C35.2398 63.552 35.2758 63.42 35.2758 63.284V62.996C35.2758 62.868 35.2398 62.74 35.1678 62.612C35.0958 62.476 34.9878 62.356 34.8438 62.252C34.7078 62.14 34.5318 62.052 34.3158 61.988C34.1078 61.924 33.8598 61.892 33.5718 61.892C33.2838 61.892 33.0318 61.924 32.8158 61.988C32.6078 62.052 32.4318 62.136 32.2878 62.24C32.1518 62.344 32.0478 62.464 31.9758 62.6C31.9038 62.728 31.8678 62.86 31.8678 62.996V63.284C31.8678 63.42 31.9038 63.552 31.9758 63.68C32.0478 63.808 32.1518 63.928 32.2878 64.04C32.4318 64.144 32.6078 64.228 32.8158 64.292C33.0318 64.356 33.2838 64.388 33.5718 64.388ZM38.9238 61.616H40.6038V62.36H38.9238V65.264H38.0838V58.664H38.9238V61.616ZM33.9918 59.9H36.7398V60.632H30.4278V59.9H33.1518V58.508H33.9918V59.9ZM50.7 64.964V65.696H46.092V69.632H45.24V65.696H40.62V64.964H50.7ZM47.064 62.636C46.256 62.236 45.788 61.9 45.66 61.628H45.648C45.496 61.916 45.028 62.256 44.244 62.648C43.916 62.808 43.528 62.992 43.08 63.2C42.64 63.4 42.176 63.596 41.688 63.788L41.316 63.116C41.764 62.948 42.22 62.76 42.684 62.552C43.156 62.344 43.584 62.14 43.968 61.94C44.2 61.82 44.396 61.704 44.556 61.592C44.716 61.472 44.844 61.34 44.94 61.196C45.044 61.052 45.116 60.884 45.156 60.692C45.204 60.5 45.228 60.272 45.228 60.008V59.048H46.08V60.008C46.08 60.272 46.1 60.5 46.14 60.692C46.188 60.884 46.26 61.052 46.356 61.196C46.452 61.34 46.58 61.472 46.74 61.592C46.9 61.704 47.096 61.82 47.328 61.94C47.712 62.14 48.132 62.344 48.588 62.552C49.052 62.752 49.508 62.936 49.956 63.104L49.596 63.764C49.108 63.572 48.644 63.376 48.204 63.176C47.772 62.976 47.392 62.796 47.064 62.636ZM61.0242 63.32V64.04H58.1082V65.324H59.5242V67.844H53.2722V68.972H59.8482V69.68H52.4442V67.148H58.6962V66.032H52.3842V65.324H53.8602V64.04H50.9442V63.32H61.0242ZM59.4162 60.836C59.4162 61.108 59.3282 61.352 59.1522 61.568C58.9762 61.784 58.7322 61.968 58.4202 62.12C58.1162 62.272 57.7522 62.388 57.3282 62.468C56.9122 62.548 56.4642 62.588 55.9842 62.588C55.5042 62.588 55.0522 62.548 54.6282 62.468C54.2122 62.388 53.8482 62.272 53.5362 62.12C53.2322 61.968 52.9922 61.784 52.8162 61.568C52.6402 61.352 52.5522 61.108 52.5522 60.836V60.5C52.5522 60.228 52.6402 59.984 52.8162 59.768C52.9922 59.552 53.2322 59.368 53.5362 59.216C53.8482 59.064 54.2122 58.948 54.6282 58.868C55.0522 58.788 55.5042 58.748 55.9842 58.748C56.4642 58.748 56.9122 58.788 57.3282 58.868C57.7522 58.948 58.1162 59.064 58.4202 59.216C58.7322 59.368 58.9762 59.552 59.1522 59.768C59.3282 59.984 59.4162 60.228 59.4162 60.5V60.836ZM53.3802 60.788C53.3802 60.948 53.4482 61.096 53.5842 61.232C53.7202 61.36 53.9042 61.472 54.1362 61.568C54.3762 61.664 54.6522 61.74 54.9642 61.796C55.2842 61.852 55.6242 61.88 55.9842 61.88C56.3442 61.88 56.6802 61.852 56.9922 61.796C57.3122 61.74 57.5882 61.664 57.8202 61.568C58.0602 61.472 58.2482 61.36 58.3842 61.232C58.5202 61.096 58.5882 60.948 58.5882 60.788V60.548C58.5882 60.396 58.5202 60.252 58.3842 60.116C58.2482 59.98 58.0602 59.864 57.8202 59.768C57.5882 59.672 57.3122 59.596 56.9922 59.54C56.6802 59.484 56.3442 59.456 55.9842 59.456C55.6242 59.456 55.2842 59.484 54.9642 59.54C54.6522 59.596 54.3762 59.672 54.1362 59.768C53.9042 59.864 53.7202 59.98 53.5842 60.116C53.4482 60.252 53.3802 60.396 53.3802 60.548V60.788ZM54.6882 65.324H57.2802V64.04H54.6882V65.324Z" fill="#808080"/>
</g>
<defs>
<clipPath id="clip0_2635_16252">
<rect width="80" height="80" fill="white"/>
</clipPath>
</defs>
</svg>
