<svg width="80" height="80" viewBox="0 0 80 80" fill="none" xmlns="http://www.w3.org/2000/svg">
<g clip-path="url(#clip0_2635_16014)">
<path d="M40.0009 80.0018C62.0928 80.0018 80.0017 62.0928 80.0017 40.0009C80.0017 17.909 62.0928 0 40.0009 0C17.909 0 0 17.909 0 40.0009C0 62.0928 17.909 80.0018 40.0009 80.0018Z" fill="white"/>
<path fill-rule="evenodd" clip-rule="evenodd" d="M40.0009 0C62.0774 0 80.0011 17.9236 80.0011 40.0009C80.0011 62.0774 62.0774 80.0011 40.0009 80.0011C17.9236 80.0011 0 62.0774 0 40.0009C0 17.9236 17.9236 0 40.0009 0ZM40.0009 0.800492C61.6359 0.800492 79.2013 18.3652 79.2013 40.0009C79.2013 61.6359 61.6359 79.2013 40.0009 79.2013C18.3652 79.2013 0.799792 61.6359 0.799792 40.0009C0.799792 18.3652 18.3652 0.800492 40.0009 0.800492Z" fill="#C4C4C4"/>
<path fill-rule="evenodd" clip-rule="evenodd" d="M39.9914 11.6875C39.9914 11.6875 27.3435 28.9679 27.3435 36.3737C27.3435 43.3543 33.0108 49.0217 39.9914 49.0217C46.9721 49.0217 52.6397 43.3543 52.6397 36.3737C52.6397 28.9679 39.9914 11.6875 39.9914 11.6875Z" fill="#C3DDFE"/>
<path d="M33.3652 43.1129C34.3612 43.1129 35.1687 42.3566 35.1687 41.4237C35.1687 40.4907 34.3612 39.7344 33.3652 39.7344C32.3692 39.7344 31.5617 40.4907 31.5617 41.4237C31.5617 42.3566 32.3692 43.1129 33.3652 43.1129Z" fill="white"/>
<path fill-rule="evenodd" clip-rule="evenodd" d="M60.304 16.5312C60.304 16.5312 54.3759 24.6306 54.3759 28.1018C54.3759 31.3736 57.0321 34.03 60.304 34.03C63.5759 34.03 66.2323 31.3736 66.2323 28.1018C66.2323 24.6306 60.304 16.5312 60.304 16.5312Z" fill="#C3DDFE"/>
<path d="M57.2515 31.2398C57.7183 31.2398 58.0968 30.8853 58.0968 30.448C58.0968 30.0107 57.7183 29.6562 57.2515 29.6562C56.7846 29.6562 56.4062 30.0107 56.4062 30.448C56.4062 30.8853 56.7846 31.2398 57.2515 31.2398Z" fill="white"/>
<path fill-rule="evenodd" clip-rule="evenodd" d="M21.3661 12C21.3661 12 16.875 18.1361 16.875 20.7658C16.875 23.2445 18.8874 25.257 21.3661 25.257C23.8449 25.257 25.8574 23.2445 25.8574 20.7658C25.8574 18.1361 21.3661 12 21.3661 12Z" fill="#C3DDFE"/>
<path d="M18.9226 23.1216C19.2763 23.1216 19.563 22.853 19.563 22.5217C19.563 22.1904 19.2763 21.9219 18.9226 21.9219C18.5689 21.9219 18.2822 22.1904 18.2822 22.5217C18.2822 22.853 18.5689 23.1216 18.9226 23.1216Z" fill="white"/>
<path d="M30.0516 60.964V61.696H25.4436V65.632H24.5916V61.696H19.9716V60.964H30.0516ZM26.4156 58.636C25.6076 58.236 25.1396 57.9 25.0116 57.628H24.9996C24.8476 57.916 24.3796 58.256 23.5956 58.648C23.2676 58.808 22.8796 58.992 22.4316 59.2C21.9916 59.4 21.5276 59.596 21.0396 59.788L20.6676 59.116C21.1156 58.948 21.5716 58.76 22.0356 58.552C22.5076 58.344 22.9356 58.14 23.3196 57.94C23.5516 57.82 23.7476 57.704 23.9076 57.592C24.0676 57.472 24.1956 57.34 24.2916 57.196C24.3956 57.052 24.4676 56.884 24.5076 56.692C24.5556 56.5 24.5796 56.272 24.5796 56.008V55.048H25.4316V56.008C25.4316 56.272 25.4516 56.5 25.4916 56.692C25.5396 56.884 25.6116 57.052 25.7076 57.196C25.8036 57.34 25.9316 57.472 26.0916 57.592C26.2516 57.704 26.4476 57.82 26.6796 57.94C27.0636 58.14 27.4836 58.344 27.9396 58.552C28.4036 58.752 28.8596 58.936 29.3076 59.104L28.9476 59.764C28.4596 59.572 27.9956 59.376 27.5556 59.176C27.1236 58.976 26.7436 58.796 26.4156 58.636ZM38.8758 59.152H31.7958V54.976H32.6238V56.344H38.0478V54.976H38.8758V59.152ZM40.3758 60.424V61.144H35.8758V63.352H35.0358V61.144H30.2958V60.424H40.3758ZM32.6358 64.756H39.1158V65.5H31.7838V62.38H32.6358V64.756ZM32.6238 58.42H38.0478V57.052H32.6238V58.42ZM42.66 61.912H49.248V65.62H42.66V61.912ZM43.896 57.184C44.312 57.184 44.676 57.236 44.988 57.34C45.3 57.436 45.56 57.568 45.768 57.736C45.984 57.904 46.144 58.096 46.248 58.312C46.352 58.52 46.404 58.732 46.404 58.948V59.332C46.404 59.548 46.352 59.764 46.248 59.98C46.144 60.188 45.984 60.376 45.768 60.544C45.56 60.712 45.3 60.848 44.988 60.952C44.676 61.048 44.312 61.096 43.896 61.096C43.48 61.096 43.116 61.048 42.804 60.952C42.492 60.848 42.228 60.712 42.012 60.544C41.804 60.376 41.648 60.188 41.544 59.98C41.44 59.764 41.388 59.548 41.388 59.332V58.948C41.388 58.732 41.44 58.52 41.544 58.312C41.648 58.096 41.804 57.904 42.012 57.736C42.228 57.568 42.492 57.436 42.804 57.34C43.116 57.236 43.48 57.184 43.896 57.184ZM43.476 64.864H48.432V62.668H43.476V64.864ZM43.896 60.388C44.184 60.388 44.432 60.356 44.64 60.292C44.856 60.228 45.032 60.144 45.168 60.04C45.312 59.928 45.42 59.808 45.492 59.68C45.564 59.552 45.6 59.42 45.6 59.284V58.996C45.6 58.868 45.564 58.74 45.492 58.612C45.42 58.476 45.312 58.356 45.168 58.252C45.032 58.14 44.856 58.052 44.64 57.988C44.432 57.924 44.184 57.892 43.896 57.892C43.608 57.892 43.356 57.924 43.14 57.988C42.932 58.052 42.756 58.136 42.612 58.24C42.476 58.344 42.372 58.464 42.3 58.6C42.228 58.728 42.192 58.86 42.192 58.996V59.284C42.192 59.42 42.228 59.552 42.3 59.68C42.372 59.808 42.476 59.928 42.612 60.04C42.756 60.144 42.932 60.228 43.14 60.292C43.356 60.356 43.608 60.388 43.896 60.388ZM49.248 57.616H50.928V58.36H49.248V61.264H48.408V54.664H49.248V57.616ZM44.316 55.9H47.064V56.632H40.752V55.9H43.476V54.508H44.316V55.9ZM52.3722 57.184C52.3722 56.824 52.4762 56.504 52.6842 56.224C52.8922 55.944 53.1682 55.708 53.5122 55.516C53.8562 55.324 54.2402 55.18 54.6642 55.084C55.0962 54.988 55.5362 54.94 55.9842 54.94C56.4242 54.94 56.8602 54.988 57.2922 55.084C57.7242 55.18 58.1122 55.324 58.4562 55.516C58.8002 55.708 59.0762 55.944 59.2842 56.224C59.4922 56.504 59.5962 56.824 59.5962 57.184V57.736C59.5962 58.096 59.4922 58.416 59.2842 58.696C59.0762 58.976 58.8002 59.212 58.4562 59.404C58.1122 59.596 57.7242 59.74 57.2922 59.836C56.8602 59.932 56.4242 59.98 55.9842 59.98C55.5362 59.98 55.0962 59.932 54.6642 59.836C54.2402 59.74 53.8562 59.596 53.5122 59.404C53.1682 59.212 52.8922 58.976 52.6842 58.696C52.4762 58.416 52.3722 58.096 52.3722 57.736V57.184ZM58.7562 57.256C58.7562 57.016 58.6802 56.8 58.5282 56.608C58.3842 56.416 58.1842 56.256 57.9282 56.128C57.6722 55.992 57.3762 55.888 57.0402 55.816C56.7042 55.744 56.3522 55.708 55.9842 55.708C55.6082 55.708 55.2522 55.744 54.9162 55.816C54.5882 55.888 54.2962 55.992 54.0402 56.128C53.7842 56.256 53.5802 56.416 53.4282 56.608C53.2842 56.8 53.2122 57.016 53.2122 57.256V57.664C53.2122 57.904 53.2842 58.12 53.4282 58.312C53.5802 58.504 53.7842 58.668 54.0402 58.804C54.2962 58.932 54.5882 59.032 54.9162 59.104C55.2522 59.176 55.6082 59.212 55.9842 59.212C56.3522 59.212 56.7042 59.176 57.0402 59.104C57.3762 59.032 57.6722 58.932 57.9282 58.804C58.1842 58.668 58.3842 58.504 58.5282 58.312C58.6802 58.12 58.7562 57.904 58.7562 57.664V57.256ZM61.0242 61.108V61.84H58.3362V65.62H57.4842V61.84H54.4842V65.62H53.6322V61.84H50.9442V61.108H61.0242Z" fill="#808080"/>
</g>
<defs>
<clipPath id="clip0_2635_16014">
<rect width="80" height="80" fill="white"/>
</clipPath>
</defs>
</svg>
