<svg width="80" height="80" viewBox="0 0 80 80" fill="none" xmlns="http://www.w3.org/2000/svg">
<g clip-path="url(#clip0_3841_23431)">
<path d="M40.0009 80.0018C62.0928 80.0018 80.0017 62.0928 80.0017 40.0009C80.0017 17.909 62.0928 0 40.0009 0C17.909 0 0 17.909 0 40.0009C0 62.0928 17.909 80.0018 40.0009 80.0018Z" fill="white"/>
<path fill-rule="evenodd" clip-rule="evenodd" d="M40.0009 0C62.0774 0 80.0011 17.9236 80.0011 40.0009C80.0011 62.0774 62.0774 80.0011 40.0009 80.0011C17.9236 80.0011 0 62.0774 0 40.0009C0 17.9236 17.9236 0 40.0009 0ZM40.0009 0.800492C61.6359 0.800492 79.2013 18.3652 79.2013 40.0009C79.2013 61.6359 61.6359 79.2013 40.0009 79.2013C18.3652 79.2013 0.799792 61.6359 0.799792 40.0009C0.799792 18.3652 18.3652 0.800492 40.0009 0.800492Z" fill="#C4C4C4"/>
<path d="M25.5996 57.884H28.2516V55.664H29.0916V61.064H28.2516V58.628H25.5996V60.572H20.6556V56.108H25.5996V57.884ZM29.0916 61.712V64.544H23.2116V65.948H29.3796V66.668H22.3836V63.836H28.2636V62.444H22.3236V61.712H29.0916ZM24.7956 56.84H21.4596V59.84H24.7956V56.84ZM36.3198 56.552V57.308H31.9638V59.756H36.0798V60.512H31.9638V63.056H33.6918C34.2518 63.056 34.8358 63.04 35.4438 63.008C36.0518 62.968 36.6798 62.9 37.3278 62.804L37.4238 63.56C36.7758 63.664 36.1158 63.736 35.4438 63.776C34.7718 63.808 34.1158 63.824 33.4758 63.824H31.1118V56.552H36.3198ZM39.3558 66.632H38.5038V55.664H39.3558V66.632ZM45.24 64.352V61.88H41.676V61.172H43.368V57.332H41.784V56.624H49.536V57.332H47.952V61.172H49.644V61.88H46.08V64.352H50.7V65.084H40.62V64.352H45.24ZM44.208 61.172H47.112V57.332H44.208V61.172ZM51.4842 60.884C52.0922 60.66 52.6162 60.46 53.0562 60.284C53.4962 60.1 53.8642 59.928 54.1602 59.768C54.4642 59.608 54.7082 59.452 54.8922 59.3C55.0762 59.14 55.2202 58.976 55.3242 58.808L51.5442 58.928L51.5202 58.196L55.5522 58.112C55.5762 57.896 55.5882 57.656 55.5882 57.392V56.876H51.8322V56.132H56.4042V57.428C56.4042 57.668 56.3922 57.888 56.3682 58.088H59.2002V55.664H60.0402V61.16H59.2002V58.832H56.2122C56.1162 59.096 55.9682 59.34 55.7682 59.564C55.5682 59.788 55.2922 60.004 54.9402 60.212C54.5962 60.42 54.1642 60.636 53.6442 60.86C53.1322 61.076 52.5082 61.316 51.7722 61.58L51.4842 60.884ZM60.0402 61.808V64.592H54.1602V65.948H60.3282V66.668H53.3322V63.884H59.2122V62.54H53.2722V61.808H60.0402Z" fill="#808080"/>
<circle cx="46.5" cy="25.5" r="17.5" fill="#92CE7D"/>
<circle cx="46.5" cy="25.5" r="13.5" fill="white"/>
<circle cx="29" cy="35" r="12" fill="#7D8FCE"/>
<circle cx="29" cy="35" r="9" fill="white"/>
</g>
<defs>
<clipPath id="clip0_3841_23431">
<rect width="80" height="80" fill="white"/>
</clipPath>
</defs>
</svg>
