<svg width="80" height="80" viewBox="0 0 80 80" fill="none" xmlns="http://www.w3.org/2000/svg">
<g clip-path="url(#clip0_2635_16031)">
<path d="M40.0009 80.0018C62.0928 80.0018 80.0017 62.0928 80.0017 40.0009C80.0017 17.909 62.0928 0 40.0009 0C17.909 0 0 17.909 0 40.0009C0 62.0928 17.909 80.0018 40.0009 80.0018Z" fill="white"/>
<path fill-rule="evenodd" clip-rule="evenodd" d="M40.0009 0C62.0774 0 80.0011 17.9236 80.0011 40.0009C80.0011 62.0774 62.0774 80.0011 40.0009 80.0011C17.9236 80.0011 0 62.0774 0 40.0009C0 17.9236 17.9236 0 40.0009 0ZM40.0009 0.800492C61.6359 0.800492 79.2013 18.3652 79.2013 40.0009C79.2013 61.6359 61.6359 79.2013 40.0009 79.2013C18.3652 79.2013 0.799792 61.6359 0.799792 40.0009C0.799792 18.3652 18.3652 0.800492 40.0009 0.800492Z" fill="#C4C4C4"/>
<path fill-rule="evenodd" clip-rule="evenodd" d="M18.9253 29.9078C18.8958 28.6006 29.4788 28.209 40.0515 28.082C50.6239 27.9549 61.0315 27.6389 61.2154 29.3995C61.3358 39.4135 51.9586 47.6573 40.2884 47.7976C28.6181 47.9379 19.0457 39.9218 18.9253 29.9078Z" fill="#C3DDFE"/>
<path d="M40.1314 32.8047C51.8094 32.6644 61.2584 31.0548 61.2362 29.2096C61.214 27.3644 51.7291 25.9824 40.0511 26.1228C28.3731 26.2632 18.9242 27.8728 18.9464 29.7179C18.9686 31.5631 28.4535 32.9451 40.1314 32.8047Z" fill="white"/>
<path fill-rule="evenodd" clip-rule="evenodd" d="M40.0511 26.1228C51.7214 25.9825 61.2142 27.3655 61.2364 29.2096C61.2586 31.0537 51.8018 32.6645 40.1314 32.8047C28.4611 32.945 18.9686 31.562 18.9464 29.7179C18.9242 27.8739 28.3808 26.2631 40.0511 26.1228ZM60.3551 29.2202C60.3064 29.2644 60.2462 29.315 60.1918 29.351C59.8389 29.5827 59.3159 29.7989 58.6508 30.0106C55.1865 31.1115 48.189 31.908 40.1218 32.005C32.0546 32.102 25.04 31.4738 21.5503 30.4565C20.8802 30.2609 20.3523 30.0574 19.9939 29.8341C19.9387 29.7995 19.8773 29.7503 19.8275 29.7073C19.8762 29.6631 19.9364 29.6125 19.9908 29.5766C20.3437 29.3448 20.8666 29.1286 21.5318 28.9172C24.9961 27.8161 31.9936 27.0197 40.0607 26.9228C48.1279 26.8258 55.1425 27.4537 58.6323 28.4713C59.3023 28.6666 59.8303 28.8702 60.1887 29.0934C60.2439 29.128 60.3053 29.1772 60.3551 29.2202Z" fill="#C3DDFE"/>
<path fill-rule="evenodd" clip-rule="evenodd" d="M15.8511 16.2484L19.2819 15.9948L20.0519 12.7342L21.4023 15.8381L24.833 15.5845L22.2367 17.7565L23.587 20.8604L20.6322 19.0987L18.0358 21.2707L18.806 18.0099L15.8511 16.2484Z" fill="#FABA19"/>
<path fill-rule="evenodd" clip-rule="evenodd" d="M33.5022 19.3761L33.614 20.8354L35.0963 21.2183L33.683 21.7374L33.7948 23.1967L32.8096 22.0582L31.3963 22.5773L32.2007 21.3546L31.2155 20.216L32.6979 20.5989L33.5022 19.3761Z" fill="#FABA19"/>
<path fill-rule="evenodd" clip-rule="evenodd" d="M55.6244 21.7774L58.8662 22.9626L58.7469 26.4331L60.8698 23.6951L64.1116 24.8803L62.1817 22.0028L64.3046 19.2648L60.9891 20.2246L59.0592 17.3471L58.9399 20.8178L55.6244 21.7774Z" fill="#FFE447"/>
<path fill-rule="evenodd" clip-rule="evenodd" d="M50.2259 14.7354L51.9865 15.3868L51.9209 17.2966L53.0747 15.7894L54.8354 16.4409L53.7878 14.8578L54.9416 13.3506L53.1404 13.8796L52.0928 12.2966L52.0271 14.2065L50.2259 14.7354Z" fill="#FABA19"/>
<path fill-rule="evenodd" clip-rule="evenodd" d="M15.8494 26.7169L17.2499 26.2916L17.3025 24.7616L18.1155 26.0288L19.516 25.6035L18.6179 26.812L19.4308 28.0793L18.0629 27.5588L17.1648 28.7673L17.2174 27.2372L15.8494 26.7169Z" fill="#FFE447"/>
<path d="M32.1875 44.0523V36.9229L35.8733 44.0523V38.0479" stroke="#A3A3FF" stroke-width="0.8" stroke-miterlimit="1.5" stroke-linecap="round" stroke-linejoin="round"/>
<path d="M41.6015 36.9229H37.8125V44.0523H41.2399" stroke="#A3A3FF" stroke-width="0.8" stroke-miterlimit="1.5" stroke-linecap="round" stroke-linejoin="round"/>
<path d="M37.8125 40.5166H40.8618" stroke="#A3A3FF" stroke-width="0.8" stroke-miterlimit="1.5" stroke-linecap="round" stroke-linejoin="round"/>
<path d="M43.2812 36.9229L43.4055 44.0523L45.4661 40.0933L47.6078 44.0523L47.7186 37.5744" stroke="#A3A3FF" stroke-width="0.8" stroke-miterlimit="1.5" stroke-linecap="round" stroke-linejoin="round"/>
<path d="M28.3017 65.756H34.4217V66.5H27.4497V62.84H28.3017V65.756ZM34.1457 63.488H33.3057V55.664H34.1457V63.488ZM28.5537 59.564C28.5377 59.668 28.4417 59.812 28.2657 59.996C28.0977 60.172 27.8817 60.388 27.6177 60.644C27.4097 60.844 27.1457 61.08 26.8257 61.352C26.5057 61.616 26.1697 61.888 25.8177 62.168L25.2897 61.568C25.6177 61.32 25.9577 61.052 26.3097 60.764C26.6617 60.468 26.9737 60.184 27.2457 59.912C27.4377 59.72 27.5857 59.556 27.6897 59.42C27.8017 59.276 27.8857 59.132 27.9417 58.988C28.0057 58.844 28.0457 58.692 28.0617 58.532C28.0777 58.372 28.0857 58.176 28.0857 57.944V56.18H28.9497V57.92C28.9497 58.144 28.9577 58.336 28.9737 58.496C28.9897 58.648 29.0257 58.792 29.0817 58.928C29.1457 59.064 29.2337 59.204 29.3457 59.348C29.4657 59.484 29.6257 59.64 29.8257 59.816C30.1217 60.072 30.4217 60.324 30.7257 60.572C31.0377 60.82 31.3297 61.044 31.6017 61.244L31.0977 61.832C30.7617 61.576 30.4617 61.344 30.1977 61.136C29.9417 60.92 29.7097 60.724 29.5017 60.548C28.9337 60.068 28.6217 59.74 28.5657 59.564H28.5537ZM40.4979 59.408C40.4499 59.528 40.3099 59.692 40.0779 59.9C39.8539 60.1 39.5259 60.344 39.0939 60.632C38.7339 60.872 38.3219 61.132 37.8579 61.412C37.4019 61.684 36.9579 61.936 36.5259 62.168L36.0699 61.496C36.5979 61.224 37.0819 60.96 37.5219 60.704C37.9619 60.44 38.3219 60.212 38.6019 60.02C38.8979 59.82 39.1419 59.64 39.3339 59.48C39.5259 59.32 39.6739 59.152 39.7779 58.976C39.8899 58.792 39.9659 58.592 40.0059 58.376C40.0459 58.152 40.0659 57.876 40.0659 57.548V56.384H40.9419V57.548C40.9419 57.876 40.9619 58.152 41.0019 58.376C41.0419 58.592 41.1139 58.792 41.2179 58.976C41.3299 59.152 41.4779 59.32 41.6619 59.48C41.8539 59.64 42.0979 59.82 42.3939 60.02C42.6739 60.212 43.0299 60.436 43.4619 60.692C43.9019 60.948 44.3819 61.212 44.9019 61.484L44.4579 62.144C44.0259 61.912 43.5819 61.66 43.1259 61.388C42.6779 61.116 42.2739 60.86 41.9139 60.62C41.4819 60.332 41.1539 60.088 40.9299 59.888C40.7059 59.688 40.5659 59.528 40.5099 59.408H40.4979ZM40.0539 64.352V61.82H40.9299V64.352H45.5379V65.084H35.4579V64.352H40.0539ZM52.8141 59.732H54.3861V55.664H55.2261V66.632H54.3861V60.488H52.8141V66.092H51.9741V55.892H52.8141V59.732ZM46.1061 56.744H50.8941V57.488H48.9621V59.12C48.9621 59.4 48.9701 59.64 48.9861 59.84C49.0101 60.04 49.0461 60.224 49.0941 60.392C49.1501 60.56 49.2261 60.724 49.3221 60.884C49.4181 61.036 49.5421 61.208 49.6941 61.4C49.8941 61.648 50.1341 61.928 50.4141 62.24C50.6941 62.544 51.0021 62.864 51.3381 63.2L50.7861 63.74C50.6501 63.612 50.5101 63.472 50.3661 63.32C50.2301 63.16 50.0901 63.004 49.9461 62.852C49.8101 62.7 49.6781 62.552 49.5501 62.408C49.4301 62.264 49.3181 62.136 49.2141 62.024C49.0381 61.824 48.8901 61.64 48.7701 61.472C48.6581 61.296 48.5901 61.176 48.5661 61.112H48.5541C48.5381 61.176 48.4781 61.288 48.3741 61.448C48.2781 61.608 48.1381 61.796 47.9541 62.012C47.7301 62.268 47.4781 62.552 47.1981 62.864C46.9181 63.168 46.5861 63.508 46.2021 63.884L45.6381 63.32C45.8141 63.152 45.9901 62.98 46.1661 62.804C46.3421 62.628 46.5061 62.456 46.6581 62.288C46.8181 62.12 46.9621 61.964 47.0901 61.82C47.2261 61.668 47.3381 61.532 47.4261 61.412C47.5701 61.228 47.6861 61.056 47.7741 60.896C47.8701 60.736 47.9421 60.568 47.9901 60.392C48.0381 60.216 48.0701 60.028 48.0861 59.828C48.1101 59.62 48.1221 59.384 48.1221 59.12V57.488H46.1061V56.744Z" fill="#808080"/>
</g>
<defs>
<clipPath id="clip0_2635_16031">
<rect width="80" height="80" fill="white"/>
</clipPath>
</defs>
</svg>
