<svg width="80" height="80" viewBox="0 0 80 80" fill="none" xmlns="http://www.w3.org/2000/svg">
<g clip-path="url(#clip0_2635_16159)">
<path d="M40.0009 80.0018C62.0928 80.0018 80.0017 62.0928 80.0017 40.0009C80.0017 17.909 62.0928 0 40.0009 0C17.909 0 0 17.909 0 40.0009C0 62.0928 17.909 80.0018 40.0009 80.0018Z" fill="white"/>
<path fill-rule="evenodd" clip-rule="evenodd" d="M40.0009 0C62.0774 0 80.0011 17.9236 80.0011 40.0009C80.0011 62.0774 62.0774 80.0011 40.0009 80.0011C17.9236 80.0011 0 62.0774 0 40.0009C0 17.9236 17.9236 0 40.0009 0ZM40.0009 0.800492C61.6359 0.800492 79.2013 18.3652 79.2013 40.0009C79.2013 61.6359 61.6359 79.2013 40.0009 79.2013C18.3652 79.2013 0.799792 61.6359 0.799792 40.0009C0.799792 18.3652 18.3652 0.800492 40.0009 0.800492Z" fill="#C4C4C4"/>
<path fill-rule="evenodd" clip-rule="evenodd" d="M23.3527 31.7626C23.3527 31.7626 21.8684 28.6464 17.6257 28.8328C17.6257 28.8328 16.3532 26.7679 14.7701 26.2667C14.7701 26.2667 15.2954 25.0819 13.8271 22.3102C13.8271 22.3102 13.0991 19.7052 14.3576 18.9341C14.3576 18.9341 16.3361 18.7918 16.1971 17.1247C16.1971 17.1247 17.8407 17.8035 17.6257 15.8726C17.6257 15.8726 17.1416 14.2313 13.9773 14.6229C12.2036 14.8423 9.60852 20.3218 9.11784 22.9969C9.11784 22.9969 8.57528 26.8567 9.22404 29.0529C9.22404 29.0529 11.8138 33.6077 15.4533 33.7467C15.4533 33.7467 17.9421 38.8978 24.8952 35.9349L23.3527 31.7626Z" fill="#FCFBE9"/>
<path d="M22.2161 30.7395C22.2161 30.7395 19.5974 27.3382 16.0941 29.6853" stroke="#A3A3FF" stroke-width="0.4" stroke-miterlimit="1.5" stroke-linecap="round" stroke-linejoin="round"/>
<path d="M17.5535 28.8414C17.5535 28.8414 16.0727 26.4883 14.6558 26.3422C14.6558 26.3422 15.1082 25.1885 13.9758 22.7587C13.4049 21.5334 13.3942 19.882 14.3471 19.0046C14.3471 19.0046 16.7803 18.3541 16.1248 16.8968C16.1248 16.8968 17.146 16.7137 16.1248 15.1842C16.1248 15.1842 14.3789 13.1461 11.6575 16.4503C10.8997 17.3704 7.3224 23.0946 9.06834 28.8414C9.49771 30.2552 13.0842 34.4903 16.1248 33.5862" stroke="#A3A3FF" stroke-width="0.4" stroke-miterlimit="1.5" stroke-linecap="round" stroke-linejoin="round"/>
<path d="M15.3117 33.7031C15.3117 33.7031 18.2895 38.5456 24.6779 36.0249" stroke="#A3A3FF" stroke-width="0.4" stroke-miterlimit="1.5" stroke-linecap="round" stroke-linejoin="round"/>
<path d="M15.3117 14.643C15.3117 14.643 17.9357 14.4989 17.6142 16.4762C17.6142 16.4762 17.5312 17.5201 16.3811 16.9992" stroke="#A3A3FF" stroke-width="0.4" stroke-miterlimit="1.5" stroke-linecap="round" stroke-linejoin="round"/>
<path fill-rule="evenodd" clip-rule="evenodd" d="M56.8032 30.8251C56.8032 30.8251 58.2875 27.7089 62.5301 27.8953C62.5301 27.8953 63.8027 25.8304 65.3857 25.3292C65.3857 25.3292 64.8605 24.1444 66.3288 21.3727C66.3288 21.3727 67.0568 18.7677 65.7983 17.9966C65.7983 17.9966 63.8198 17.8543 63.9588 16.1872C63.9588 16.1872 62.3151 16.866 62.5301 14.9351C62.5301 14.9351 63.0143 13.2938 66.1786 13.6854C67.9523 13.9048 70.5474 19.3843 71.038 22.0594C71.038 22.0594 71.5806 25.9192 70.9318 28.1154C70.9318 28.1154 68.3421 32.6702 64.7026 32.8092C64.7026 32.8092 62.2138 37.9603 55.2607 34.9974L56.8032 30.8251Z" fill="#FCFBE9"/>
<path d="M57.9398 29.802C57.9398 29.802 60.5585 26.4007 64.0618 28.7478" stroke="#A3A3FF" stroke-width="0.4" stroke-miterlimit="1.5" stroke-linecap="round" stroke-linejoin="round"/>
<path d="M62.6024 27.9039C62.6024 27.9039 64.0832 25.5508 65.5001 25.4047C65.5001 25.4047 65.0477 24.251 66.1801 21.8212C66.7509 20.5959 66.7617 18.9445 65.8088 18.0671C65.8088 18.0671 63.3755 17.4166 64.0311 15.9593C64.0311 15.9593 63.0099 15.7762 64.0311 14.2467C64.0311 14.2467 65.777 12.2086 68.4984 15.5128C69.2562 16.4329 72.8335 22.1571 71.0875 27.9039C70.6582 29.3177 67.0717 33.5528 64.0311 32.6487" stroke="#A3A3FF" stroke-width="0.4" stroke-miterlimit="1.5" stroke-linecap="round" stroke-linejoin="round"/>
<path d="M64.8442 32.7656C64.8442 32.7656 61.8664 37.6081 55.478 35.0874" stroke="#A3A3FF" stroke-width="0.4" stroke-miterlimit="1.5" stroke-linecap="round" stroke-linejoin="round"/>
<path d="M64.8442 13.7055C64.8442 13.7055 62.2202 13.5614 62.5417 15.5387C62.5417 15.5387 62.6246 16.5826 63.7748 16.0617" stroke="#A3A3FF" stroke-width="0.4" stroke-miterlimit="1.5" stroke-linecap="round" stroke-linejoin="round"/>
<path fill-rule="evenodd" clip-rule="evenodd" d="M18.7717 25.0475C18.7422 23.7402 29.3253 23.3487 39.8979 23.2216C50.4704 23.0945 60.8779 22.7786 61.0619 24.5392C61.1822 34.5531 51.805 42.797 40.1349 42.9373C28.4645 43.0775 18.8921 35.0615 18.7717 25.0475Z" fill="#C3DDFE"/>
<path d="M39.9779 27.9444C51.6559 27.804 61.1048 26.1944 61.0826 24.3493C61.0604 22.5041 51.5756 21.1221 39.8976 21.2624C28.2196 21.4028 18.7707 23.0124 18.7928 24.8576C18.815 26.7027 28.2999 28.0848 39.9779 27.9444Z" fill="white"/>
<path fill-rule="evenodd" clip-rule="evenodd" d="M39.8976 21.2624C51.5679 21.1222 61.0607 22.5052 61.0828 24.3493C61.105 26.1933 51.6482 27.8041 39.9779 27.9444C28.3076 28.0847 18.815 26.7016 18.7928 24.8576C18.7707 23.0135 28.2273 21.4027 39.8976 21.2624ZM60.2015 24.3599C60.1528 24.404 60.0926 24.4547 60.0382 24.4906C59.6853 24.7224 59.1624 24.9386 58.4972 25.1502C55.0329 26.2511 48.0355 27.0477 39.9683 27.1446C31.9011 27.2416 24.8865 26.6135 21.3967 25.5961C20.7267 25.4006 20.1987 25.197 19.8403 24.9738C19.7851 24.9391 19.7237 24.89 19.6739 24.847C19.7226 24.8028 19.7829 24.7522 19.8372 24.7162C20.1902 24.4844 20.7131 24.2683 21.3782 24.0568C24.8425 22.9557 31.84 22.1594 39.9072 22.0624C47.9744 21.9654 54.989 22.5934 58.4787 23.6109C59.1488 23.8063 59.6767 24.0098 60.0351 24.2331C60.0903 24.2677 60.1518 24.3168 60.2015 24.3599Z" fill="#C3DDFE"/>
<path d="M29.7308 32.3589C29.7308 32.3589 29.6473 30.4431 27.4762 30.3454C25.7298 30.2668 24.424 33.053 27.3704 33.4206C29.0225 33.6268 29.8795 34.1559 29.7676 35.2729C29.593 37.0171 25.8819 36.989 25.6795 34.9995" stroke="#A3A3FF" stroke-width="0.8" stroke-miterlimit="1.5" stroke-linecap="round" stroke-linejoin="round"/>
<path d="M29.8439 30.3438H33.9135" stroke="#A3A3FF" stroke-width="0.8" stroke-miterlimit="1.5" stroke-linecap="round" stroke-linejoin="round"/>
<path d="M31.8752 30.3438V36.5387" stroke="#A3A3FF" stroke-width="0.8" stroke-miterlimit="1.5" stroke-linecap="round" stroke-linejoin="round"/>
<path d="M35.0002 36.5601L35.022 30.3651C39.6871 30.0752 39.7373 32.8361 35.0571 32.8258" stroke="#A3A3FF" stroke-width="0.8" stroke-miterlimit="1.5" stroke-linecap="round" stroke-linejoin="round"/>
<path d="M36.7189 32.7656L38.4909 36.548" stroke="#A3A3FF" stroke-width="0.8" stroke-miterlimit="1.5" stroke-linecap="round" stroke-linejoin="round"/>
<path fill-rule="evenodd" clip-rule="evenodd" d="M41.517 30.0317C40.1947 30.0584 39.421 31.7807 39.3771 33.4899C39.3335 35.1988 40.0195 36.8943 41.6164 36.8673C44.6658 36.8155 44.7636 29.9661 41.517 30.0317ZM41.5331 30.8314C42.039 30.8213 42.4052 31.0966 42.6543 31.4915C42.9808 32.0089 43.1276 32.7074 43.1278 33.4055C43.1278 34.1114 42.9767 34.8229 42.657 35.3579C42.4168 35.7602 42.076 36.0593 41.6028 36.0674C41.1249 36.0755 40.7934 35.8095 40.5745 35.4299C40.2751 34.9105 40.159 34.2102 40.177 33.5102C40.1954 32.7912 40.3585 32.067 40.6649 31.522C40.8777 31.1438 41.147 30.8393 41.5331 30.8314Z" fill="#A3A3FF"/>
<path d="M45.0686 36.5387L45.0002 30.3438L48.7551 36.5387L48.6875 30.3438" stroke="#A3A3FF" stroke-width="0.8" stroke-miterlimit="1.5" stroke-linecap="round" stroke-linejoin="round"/>
<path d="M54.3636 32.4309C54.3636 32.4309 54.5262 30.0173 52.3339 30.0313C49.8432 30.0473 48.8274 36.0909 52.926 35.9496" stroke="#A3A3FF" stroke-width="0.8" stroke-miterlimit="1.5" stroke-linecap="round" stroke-linejoin="round"/>
<path d="M52.1877 34.0424L54.2854 34.0156" stroke="#A3A3FF" stroke-width="0.8" stroke-miterlimit="1.5" stroke-linecap="round" stroke-linejoin="round"/>
<path d="M53.2814 34.0938V36.5209" stroke="#A3A3FF" stroke-width="0.8" stroke-miterlimit="1.5" stroke-linecap="round" stroke-linejoin="round"/>
<path d="M14.7375 52.928C14.7375 52.536 14.8335 52.184 15.0255 51.872C15.2175 51.552 15.4775 51.28 15.8055 51.056C16.1335 50.824 16.5135 50.648 16.9455 50.528C17.3855 50.4 17.8535 50.336 18.3495 50.336C18.8375 50.336 19.2975 50.4 19.7295 50.528C20.1695 50.648 20.5535 50.824 20.8815 51.056C21.2175 51.28 21.4815 51.552 21.6735 51.872C21.8655 52.184 21.9615 52.536 21.9615 52.928V53.516C21.9615 53.876 21.8775 54.208 21.7095 54.512C21.5415 54.816 21.3135 55.08 21.0255 55.304C20.7375 55.52 20.4015 55.7 20.0175 55.844C19.6335 55.98 19.2215 56.064 18.7815 56.096V58.352H23.3895V59.084H13.3095V58.352H17.9175V56.096C17.4695 56.064 17.0535 55.98 16.6695 55.844C16.2855 55.7 15.9495 55.52 15.6615 55.304C15.3735 55.08 15.1455 54.816 14.9775 54.512C14.8175 54.208 14.7375 53.876 14.7375 53.516V52.928ZM18.3495 51.116C17.9575 51.116 17.5935 51.164 17.2575 51.26C16.9215 51.348 16.6295 51.476 16.3815 51.644C16.1335 51.804 15.9375 51.996 15.7935 52.22C15.6495 52.444 15.5775 52.692 15.5775 52.964V53.48C15.5775 53.752 15.6495 54 15.7935 54.224C15.9375 54.448 16.1335 54.644 16.3815 54.812C16.6295 54.972 16.9215 55.1 17.2575 55.196C17.5935 55.284 17.9575 55.328 18.3495 55.328C18.7335 55.328 19.0935 55.284 19.4295 55.196C19.7735 55.1 20.0695 54.972 20.3175 54.812C20.5655 54.644 20.7615 54.448 20.9055 54.224C21.0495 54 21.1215 53.752 21.1215 53.48V52.964C21.1215 52.692 21.0495 52.444 20.9055 52.22C20.7615 51.996 20.5655 51.804 20.3175 51.644C20.0695 51.476 19.7735 51.348 19.4295 51.26C19.0935 51.164 18.7335 51.116 18.3495 51.116ZM26.0457 56.432H32.7537V60.608H26.0457V56.432ZM26.7057 55.244C26.2977 55.244 25.9257 55.176 25.5897 55.04C25.2617 54.904 24.9817 54.728 24.7497 54.512C24.5177 54.296 24.3377 54.052 24.2097 53.78C24.0897 53.508 24.0297 53.236 24.0297 52.964V52.364C24.0297 52.092 24.0897 51.82 24.2097 51.548C24.3377 51.276 24.5177 51.032 24.7497 50.816C24.9817 50.6 25.2617 50.424 25.5897 50.288C25.9257 50.152 26.2977 50.084 26.7057 50.084C27.1137 50.084 27.4817 50.152 27.8097 50.288C28.1457 50.424 28.4297 50.6 28.6617 50.816C28.8937 51.032 29.0697 51.276 29.1897 51.548C29.3177 51.82 29.3817 52.092 29.3817 52.364V52.964C29.3817 53.236 29.3177 53.508 29.1897 53.78C29.0697 54.052 28.8937 54.296 28.6617 54.512C28.4297 54.728 28.1457 54.904 27.8097 55.04C27.4817 55.176 27.1137 55.244 26.7057 55.244ZM26.8617 59.852H31.9377V57.188H26.8617V59.852ZM26.7057 50.84C26.4257 50.84 26.1697 50.888 25.9377 50.984C25.7137 51.072 25.5177 51.192 25.3497 51.344C25.1897 51.496 25.0657 51.668 24.9777 51.86C24.8897 52.052 24.8457 52.248 24.8457 52.448V52.88C24.8457 53.08 24.8897 53.276 24.9777 53.468C25.0657 53.66 25.1897 53.832 25.3497 53.984C25.5177 54.136 25.7137 54.26 25.9377 54.356C26.1697 54.444 26.4257 54.488 26.7057 54.488C26.9857 54.488 27.2377 54.444 27.4617 54.356C27.6937 54.26 27.8897 54.14 28.0497 53.996C28.2177 53.844 28.3457 53.672 28.4337 53.48C28.5217 53.288 28.5657 53.088 28.5657 52.88V52.448C28.5657 52.248 28.5217 52.052 28.4337 51.86C28.3457 51.668 28.2177 51.496 28.0497 51.344C27.8897 51.192 27.6937 51.072 27.4617 50.984C27.2377 50.888 26.9857 50.84 26.7057 50.84ZM31.9257 51.164V49.664H32.7537V55.784H31.9257V54.248H29.9577V53.516H31.9257V51.896H29.9577V51.164H31.9257ZM36.6219 57.872C35.8219 57.872 35.2299 57.6 34.8459 57.056C34.4699 56.504 34.2819 55.712 34.2819 54.68V53.744C34.2819 52.712 34.4699 51.924 34.8459 51.38C35.2299 50.828 35.8219 50.552 36.6219 50.552C37.4219 50.552 38.0099 50.828 38.3859 51.38C38.7699 51.924 38.9619 52.712 38.9619 53.744V53.804H40.4379V49.892H41.2779V60.092H40.4379V54.56H38.9619V54.68C38.9619 55.712 38.7699 56.504 38.3859 57.056C38.0099 57.6 37.4219 57.872 36.6219 57.872ZM36.6219 51.332C36.0859 51.332 35.6979 51.544 35.4579 51.968C35.2179 52.392 35.0979 53.016 35.0979 53.84V54.584C35.0979 55.408 35.2179 56.032 35.4579 56.456C35.6979 56.88 36.0859 57.092 36.6219 57.092C37.1579 57.092 37.5459 56.88 37.7859 56.456C38.0259 56.032 38.1459 55.408 38.1459 54.584V53.84C38.1459 53.016 38.0259 52.392 37.7859 51.968C37.5459 51.544 37.1579 51.332 36.6219 51.332ZM43.3899 60.632H42.5499V49.664H43.3899V60.632ZM52.6701 56.36C53.1181 56.36 53.5381 56.408 53.9301 56.504C54.3301 56.6 54.6781 56.736 54.9741 56.912C55.2701 57.088 55.5021 57.304 55.6701 57.56C55.8461 57.816 55.9341 58.1 55.9341 58.412V58.868C55.9341 59.18 55.8461 59.464 55.6701 59.72C55.5021 59.976 55.2701 60.192 54.9741 60.368C54.6781 60.544 54.3301 60.68 53.9301 60.776C53.5381 60.872 53.1181 60.92 52.6701 60.92C52.2221 60.92 51.7981 60.872 51.3981 60.776C51.0061 60.68 50.6621 60.544 50.3661 60.368C50.0701 60.192 49.8341 59.976 49.6581 59.72C49.4901 59.464 49.4061 59.18 49.4061 58.868V58.412C49.4061 58.092 49.4901 57.804 49.6581 57.548C49.8341 57.292 50.0701 57.076 50.3661 56.9C50.6621 56.724 51.0061 56.592 51.3981 56.504C51.7981 56.408 52.2221 56.36 52.6701 56.36ZM52.6701 60.2C52.9901 60.2 53.2981 60.168 53.5941 60.104C53.8901 60.04 54.1501 59.948 54.3741 59.828C54.5981 59.716 54.7781 59.576 54.9141 59.408C55.0501 59.24 55.1181 59.048 55.1181 58.832V58.448C55.1181 58.232 55.0501 58.04 54.9141 57.872C54.7781 57.704 54.5981 57.564 54.3741 57.452C54.1501 57.332 53.8901 57.24 53.5941 57.176C53.2981 57.112 52.9901 57.08 52.6701 57.08C52.3501 57.08 52.0421 57.112 51.7461 57.176C51.4501 57.24 51.1901 57.332 50.9661 57.452C50.7421 57.564 50.5621 57.704 50.4261 57.872C50.2901 58.04 50.2221 58.232 50.2221 58.448V58.832C50.2221 59.048 50.2901 59.24 50.4261 59.408C50.5621 59.576 50.7421 59.716 50.9661 59.828C51.1901 59.948 51.4501 60.04 51.7461 60.104C52.0421 60.168 52.3501 60.2 52.6701 60.2ZM47.5821 55.412C48.2141 55.148 48.7541 54.912 49.2021 54.704C49.6581 54.488 50.0381 54.288 50.3421 54.104C50.6541 53.92 50.8981 53.744 51.0741 53.576C51.2581 53.4 51.3981 53.22 51.4941 53.036C51.5901 52.852 51.6501 52.656 51.6741 52.448C51.7061 52.232 51.7221 51.988 51.7221 51.716V51.104H47.9541V50.36H52.5501V51.788C52.5501 52.292 52.4981 52.72 52.3941 53.072C52.2901 53.424 52.0741 53.752 51.7461 54.056C51.4181 54.36 50.9501 54.668 50.3421 54.98C49.7341 55.292 48.9301 55.664 47.9301 56.096L47.5821 55.412ZM55.8741 52.28H57.5541V53.024H55.8741V56.12H55.0341V49.664H55.8741V52.28ZM63.4023 54.668C63.4023 54.916 63.3423 55.156 63.2223 55.388C63.1103 55.62 62.9463 55.828 62.7303 56.012C62.5143 56.188 62.2503 56.332 61.9383 56.444C61.6263 56.548 61.2743 56.6 60.8823 56.6C60.4903 56.6 60.1383 56.548 59.8263 56.444C59.5143 56.332 59.2503 56.188 59.0343 56.012C58.8183 55.828 58.6503 55.62 58.5303 55.388C58.4183 55.156 58.3623 54.916 58.3623 54.668V54.212C58.3623 53.964 58.4183 53.724 58.5303 53.492C58.6503 53.26 58.8183 53.056 59.0343 52.88C59.2503 52.696 59.5143 52.552 59.8263 52.448C60.1383 52.336 60.4903 52.28 60.8823 52.28C61.2743 52.28 61.6263 52.336 61.9383 52.448C62.2503 52.552 62.5143 52.696 62.7303 52.88C62.9463 53.056 63.1103 53.26 63.2223 53.492C63.3423 53.724 63.4023 53.964 63.4023 54.212V54.668ZM60.8823 55.88C61.1463 55.88 61.3823 55.844 61.5903 55.772C61.8063 55.692 61.9863 55.592 62.1303 55.472C62.2823 55.352 62.3983 55.22 62.4783 55.076C62.5583 54.924 62.5983 54.776 62.5983 54.632V54.248C62.5983 54.104 62.5583 53.96 62.4783 53.816C62.3983 53.664 62.2823 53.528 62.1303 53.408C61.9863 53.288 61.8063 53.192 61.5903 53.12C61.3823 53.04 61.1463 53 60.8823 53C60.6183 53 60.3783 53.04 60.1623 53.12C59.9543 53.192 59.7743 53.288 59.6223 53.408C59.4783 53.528 59.3663 53.664 59.2863 53.816C59.2063 53.96 59.1663 54.104 59.1663 54.248V54.632C59.1663 54.776 59.2063 54.924 59.2863 55.076C59.3663 55.22 59.4783 55.352 59.6223 55.472C59.7743 55.592 59.9543 55.692 60.1623 55.772C60.3783 55.844 60.6183 55.88 60.8823 55.88ZM66.2343 53.012H67.9143V53.756H66.2343V57.644H65.3943V49.664H66.2343V53.012ZM60.5463 59.756H66.5703V60.5H59.6943V57.464H60.5463V59.756ZM61.3023 50.96H64.0503V51.692H57.7383V50.96H60.4623V49.556H61.3023V50.96ZM37.3278 66.732H38.8998V62.664H39.7398V73.632H38.8998V67.488H37.3278V73.092H36.4878V62.892H37.3278V66.732ZM30.6198 63.744H35.4078V64.488H33.4758V66.12C33.4758 66.4 33.4838 66.64 33.4998 66.84C33.5238 67.04 33.5598 67.224 33.6078 67.392C33.6638 67.56 33.7398 67.724 33.8358 67.884C33.9318 68.036 34.0558 68.208 34.2078 68.4C34.4078 68.648 34.6478 68.928 34.9278 69.24C35.2078 69.544 35.5158 69.864 35.8518 70.2L35.2998 70.74C35.1638 70.612 35.0238 70.472 34.8798 70.32C34.7438 70.16 34.6038 70.004 34.4598 69.852C34.3238 69.7 34.1918 69.552 34.0638 69.408C33.9438 69.264 33.8318 69.136 33.7278 69.024C33.5518 68.824 33.4038 68.64 33.2838 68.472C33.1718 68.296 33.1038 68.176 33.0798 68.112H33.0678C33.0518 68.176 32.9918 68.288 32.8878 68.448C32.7918 68.608 32.6518 68.796 32.4678 69.012C32.2438 69.268 31.9918 69.552 31.7118 69.864C31.4318 70.168 31.0998 70.508 30.7158 70.884L30.1518 70.32C30.3278 70.152 30.5038 69.98 30.6798 69.804C30.8558 69.628 31.0198 69.456 31.1718 69.288C31.3318 69.12 31.4758 68.964 31.6038 68.82C31.7398 68.668 31.8518 68.532 31.9398 68.412C32.0838 68.228 32.1998 68.056 32.2878 67.896C32.3838 67.736 32.4558 67.568 32.5038 67.392C32.5518 67.216 32.5838 67.028 32.5998 66.828C32.6238 66.62 32.6358 66.384 32.6358 66.12V64.488H30.6198V63.744ZM49.68 68.736V71.556H43.8V72.948H49.968V73.668H42.972V70.848H48.852V69.468H42.912V68.736H49.68ZM44.22 65.94C44.188 66.084 43.896 66.384 43.344 66.84C43.232 66.928 43.1 67.028 42.948 67.14C42.804 67.252 42.648 67.372 42.48 67.5C42.312 67.628 42.136 67.756 41.952 67.884C41.776 68.004 41.604 68.12 41.436 68.232L40.956 67.608C41.692 67.144 42.348 66.672 42.924 66.192C43.1 66.048 43.24 65.916 43.344 65.796C43.456 65.668 43.54 65.54 43.596 65.412C43.66 65.276 43.704 65.136 43.728 64.992C43.752 64.84 43.764 64.66 43.764 64.452V63.876H41.268V63.144H47.004V63.876H44.616V64.38C44.616 64.612 44.624 64.804 44.64 64.956C44.656 65.108 44.692 65.244 44.748 65.364C44.812 65.484 44.904 65.604 45.024 65.724C45.144 65.836 45.308 65.968 45.516 66.12C45.772 66.312 46.048 66.508 46.344 66.708C46.64 66.908 46.94 67.1 47.244 67.284L46.776 67.884C46.528 67.724 46.272 67.556 46.008 67.38C45.744 67.196 45.496 67.02 45.264 66.852C44.976 66.644 44.74 66.46 44.556 66.3C44.372 66.14 44.264 66.02 44.232 65.94H44.22ZM49.68 68.088H48.84V62.664H49.68V68.088Z" fill="#808080"/>
</g>
<defs>
<clipPath id="clip0_2635_16159">
<rect width="80" height="80" fill="white"/>
</clipPath>
</defs>
</svg>
