<svg width="80" height="80" viewBox="0 0 80 80" fill="none" xmlns="http://www.w3.org/2000/svg">
<g clip-path="url(#clip0_2635_15992)">
<path d="M40.0009 80.0018C62.0928 80.0018 80.0017 62.0928 80.0017 40.0009C80.0017 17.909 62.0928 0 40.0009 0C17.909 0 0 17.909 0 40.0009C0 62.0928 17.909 80.0018 40.0009 80.0018Z" fill="white"/>
<path fill-rule="evenodd" clip-rule="evenodd" d="M40.0009 0C62.0774 0 80.0011 17.9236 80.0011 40.0009C80.0011 62.0774 62.0774 80.0011 40.0009 80.0011C17.9236 80.0011 0 62.0774 0 40.0009C0 17.9236 17.9236 0 40.0009 0ZM40.0009 0.800492C61.6359 0.800492 79.2013 18.3652 79.2013 40.0009C79.2013 61.6359 61.6359 79.2013 40.0009 79.2013C18.3652 79.2013 0.799792 61.6359 0.799792 40.0009C0.799792 18.3652 18.3652 0.800492 40.0009 0.800492Z" fill="#C4C4C4"/>
<path fill-rule="evenodd" clip-rule="evenodd" d="M14.6668 21.0432C14.6315 19.4786 27.298 19.01 39.952 18.8579C52.6058 18.7058 65.0622 18.3277 65.2824 20.4348C65.3584 26.7551 63.9498 39.9235 58.9035 42.4577C52.6515 45.5972 46.8378 42.3755 40.2356 42.4549C34.0423 42.5293 22.7579 44.4981 16.4594 36.4228C12.6468 31.5342 14.723 23.5295 14.6668 21.0432Z" fill="#C3DDFE" fill-opacity="0.6"/>
<path fill-rule="evenodd" clip-rule="evenodd" d="M14.6253 21.0495C14.5899 19.4849 27.2564 19.0163 39.9104 18.8642C52.5642 18.7121 65.0207 18.3339 65.2409 20.4411C65.3849 32.4265 54.1617 42.2933 40.1941 42.4611C26.2262 42.629 14.7693 33.0349 14.6253 21.0495Z" fill="#C3DDFE"/>
<path fill-rule="evenodd" clip-rule="evenodd" d="M39.1616 17.2535C54.6658 12.0588 65.2832 17.9493 65.3097 20.1564C65.3363 22.3635 53.8724 20.6244 40.05 24.4592C26.5897 28.1938 14.0103 23.988 14.6943 20.7647C15.8637 15.252 26.5664 21.4733 39.1616 17.2535Z" fill="white"/>
<path fill-rule="evenodd" clip-rule="evenodd" d="M39.1616 17.2535C54.6658 12.0588 65.2832 17.9493 65.3097 20.1564C65.3363 22.3635 53.8724 20.6244 40.05 24.4592C26.5897 28.1938 14.0103 23.988 14.6943 20.7647C15.8637 15.252 26.5664 21.4733 39.1616 17.2535ZM64.2478 20.0067C64.1685 20.0407 64.077 20.0765 63.996 20.0998C63.5784 20.2196 63.0304 20.3068 62.368 20.383C58.1083 20.8738 49.5332 20.8346 39.7941 23.5368C30.6528 26.0728 21.9289 24.8737 17.7458 22.8296C16.953 22.4423 16.3366 22.0342 15.9483 21.6072C15.7434 21.3818 15.5844 21.1827 15.6309 20.9634C15.8226 20.0596 16.4122 19.6418 17.2821 19.4522C18.0638 19.2817 19.0274 19.2711 20.1434 19.3193C24.7705 19.5186 31.7705 20.7396 39.4658 18.1613C49.9708 14.6416 58.1585 16.3292 62.1343 18.4216C62.9169 18.8333 63.5255 19.2547 63.9358 19.652C64.0626 19.775 64.1678 19.8929 64.2478 20.0067Z" fill="#C3DDFE"/>
<path d="M33.7298 29.3357C33.7298 29.3357 33.6299 27.0428 31.0314 26.9258C28.9412 26.8317 27.3782 30.1665 30.9047 30.6065C32.882 30.8532 33.9077 31.4865 33.7739 32.8234C33.5649 34.911 29.1232 34.8773 28.881 32.4962" stroke="#A3A3FF" stroke-width="0.8" stroke-miterlimit="1.5" stroke-linecap="round" stroke-linejoin="round"/>
<path d="M46.5793 27.2041L51.4502 27.2041" stroke="#A3A3FF" stroke-width="0.8" stroke-miterlimit="1.5" stroke-linecap="round" stroke-linejoin="round"/>
<path d="M49.0096 27.2041L49.0096 34.6187" stroke="#A3A3FF" stroke-width="0.8" stroke-miterlimit="1.5" stroke-linecap="round" stroke-linejoin="round"/>
<path d="M45.2467 27.2041L41.1566 27.2331L41.1566 34.6477" stroke="#A3A3FF" stroke-width="0.8" stroke-miterlimit="1.5" stroke-linecap="round" stroke-linejoin="round"/>
<path d="M41.3452 30.1963L44.6601 30.2176" stroke="#A3A3FF" stroke-width="0.8" stroke-miterlimit="1.5" stroke-linecap="round" stroke-linejoin="round"/>
<path fill-rule="evenodd" clip-rule="evenodd" d="M37.1753 26.7369C35.5928 26.7688 34.6668 28.8302 34.6143 30.8758C34.562 32.9212 35.3831 34.9505 37.2943 34.9182C40.9441 34.8562 41.0611 26.6584 37.1753 26.7369ZM37.1947 27.6941C37.8002 27.682 38.2385 28.0114 38.5366 28.4841C38.9273 29.1033 39.1031 29.9393 39.1033 30.7749C39.1033 31.6197 38.9225 32.4713 38.5399 33.1116C38.2523 33.5932 37.8445 33.9512 37.2781 33.9608C36.7061 33.9705 36.3093 33.6521 36.0474 33.1978C35.689 32.5762 35.5501 31.738 35.5716 30.9002C35.5936 30.0396 35.7888 29.1728 36.1556 28.5206C36.4102 28.0679 36.7326 27.7035 37.1947 27.6941Z" fill="#A3A3FF"/>
<path d="M28.5636 49.084V53.788H21.4596V49.084H22.2876V50.728H27.7356V49.084H28.5636ZM30.0516 55.252V55.984H25.4436V59.632H24.5916V55.984H19.9716V55.252H30.0516ZM27.7356 53.08V51.46H22.2876V53.08H27.7356ZM39.0198 54.676H31.7238V49.66H38.8998V50.392H32.5758V53.944H39.0198V54.676ZM40.3758 57.352V58.084H30.2958V57.352H40.3758ZM42.192 56.152H43.788C44.396 56.152 45.012 56.136 45.636 56.104C46.268 56.064 46.864 56 47.424 55.912L47.52 56.644C46.88 56.748 46.224 56.82 45.552 56.86C44.888 56.892 44.228 56.908 43.572 56.908H41.352V52.708H45.096V50.296H41.352V49.552H45.936V53.452H42.192V56.152ZM48.912 52.54V48.664H49.752V59.632H48.912V53.308H46.788V52.54H48.912ZM55.9842 53.308C55.5042 53.308 55.0522 53.264 54.6282 53.176C54.2122 53.08 53.8482 52.948 53.5362 52.78C53.2322 52.604 52.9882 52.396 52.8042 52.156C52.6282 51.916 52.5402 51.644 52.5402 51.34V50.884C52.5402 50.588 52.6282 50.32 52.8042 50.08C52.9882 49.832 53.2322 49.624 53.5362 49.456C53.8482 49.28 54.2122 49.148 54.6282 49.06C55.0522 48.964 55.5042 48.916 55.9842 48.916C56.4642 48.916 56.9122 48.964 57.3282 49.06C57.7522 49.148 58.1162 49.28 58.4202 49.456C58.7322 49.624 58.9762 49.832 59.1522 50.08C59.3362 50.32 59.4282 50.588 59.4282 50.884V51.34C59.4282 51.644 59.3362 51.916 59.1522 52.156C58.9762 52.396 58.7322 52.604 58.4202 52.78C58.1162 52.948 57.7522 53.08 57.3282 53.176C56.9122 53.264 56.4642 53.308 55.9842 53.308ZM55.9842 49.636C55.6402 49.636 55.3082 49.668 54.9882 49.732C54.6762 49.796 54.3962 49.888 54.1482 50.008C53.9082 50.12 53.7162 50.256 53.5722 50.416C53.4282 50.576 53.3562 50.752 53.3562 50.944V51.28C53.3562 51.472 53.4282 51.648 53.5722 51.808C53.7162 51.968 53.9082 52.108 54.1482 52.228C54.3962 52.34 54.6762 52.428 54.9882 52.492C55.3082 52.556 55.6402 52.588 55.9842 52.588C56.3282 52.588 56.6562 52.556 56.9682 52.492C57.2882 52.428 57.5682 52.34 57.8082 52.228C58.0562 52.108 58.2522 51.968 58.3962 51.808C58.5402 51.648 58.6122 51.472 58.6122 51.28V50.944C58.6122 50.752 58.5402 50.576 58.3962 50.416C58.2522 50.256 58.0562 50.12 57.8082 50.008C57.5682 49.888 57.2882 49.796 56.9682 49.732C56.6562 49.668 56.3282 49.636 55.9842 49.636ZM61.0242 54.316V55.036H56.5362V57.304H55.6962V55.036H50.9442V54.316H61.0242ZM53.2962 58.756H59.7642V59.5H52.4442V56.26H53.2962V58.756ZM37.3278 65.732H38.8998V61.664H39.7398V72.632H38.8998V66.488H37.3278V72.092H36.4878V61.892H37.3278V65.732ZM30.6198 62.744H35.4078V63.488H33.4758V65.12C33.4758 65.4 33.4838 65.64 33.4998 65.84C33.5238 66.04 33.5598 66.224 33.6078 66.392C33.6638 66.56 33.7398 66.724 33.8358 66.884C33.9318 67.036 34.0558 67.208 34.2078 67.4C34.4078 67.648 34.6478 67.928 34.9278 68.24C35.2078 68.544 35.5158 68.864 35.8518 69.2L35.2998 69.74C35.1638 69.612 35.0238 69.472 34.8798 69.32C34.7438 69.16 34.6038 69.004 34.4598 68.852C34.3238 68.7 34.1918 68.552 34.0638 68.408C33.9438 68.264 33.8318 68.136 33.7278 68.024C33.5518 67.824 33.4038 67.64 33.2838 67.472C33.1718 67.296 33.1038 67.176 33.0798 67.112H33.0678C33.0518 67.176 32.9918 67.288 32.8878 67.448C32.7918 67.608 32.6518 67.796 32.4678 68.012C32.2438 68.268 31.9918 68.552 31.7118 68.864C31.4318 69.168 31.0998 69.508 30.7158 69.884L30.1518 69.32C30.3278 69.152 30.5038 68.98 30.6798 68.804C30.8558 68.628 31.0198 68.456 31.1718 68.288C31.3318 68.12 31.4758 67.964 31.6038 67.82C31.7398 67.668 31.8518 67.532 31.9398 67.412C32.0838 67.228 32.1998 67.056 32.2878 66.896C32.3838 66.736 32.4558 66.568 32.5038 66.392C32.5518 66.216 32.5838 66.028 32.5998 65.828C32.6238 65.62 32.6358 65.384 32.6358 65.12V63.488H30.6198V62.744ZM49.68 67.736V70.556H43.8V71.948H49.968V72.668H42.972V69.848H48.852V68.468H42.912V67.736H49.68ZM44.22 64.94C44.188 65.084 43.896 65.384 43.344 65.84C43.232 65.928 43.1 66.028 42.948 66.14C42.804 66.252 42.648 66.372 42.48 66.5C42.312 66.628 42.136 66.756 41.952 66.884C41.776 67.004 41.604 67.12 41.436 67.232L40.956 66.608C41.692 66.144 42.348 65.672 42.924 65.192C43.1 65.048 43.24 64.916 43.344 64.796C43.456 64.668 43.54 64.54 43.596 64.412C43.66 64.276 43.704 64.136 43.728 63.992C43.752 63.84 43.764 63.66 43.764 63.452V62.876H41.268V62.144H47.004V62.876H44.616V63.38C44.616 63.612 44.624 63.804 44.64 63.956C44.656 64.108 44.692 64.244 44.748 64.364C44.812 64.484 44.904 64.604 45.024 64.724C45.144 64.836 45.308 64.968 45.516 65.12C45.772 65.312 46.048 65.508 46.344 65.708C46.64 65.908 46.94 66.1 47.244 66.284L46.776 66.884C46.528 66.724 46.272 66.556 46.008 66.38C45.744 66.196 45.496 66.02 45.264 65.852C44.976 65.644 44.74 65.46 44.556 65.3C44.372 65.14 44.264 65.02 44.232 64.94H44.22ZM49.68 67.088H48.84V61.664H49.68V67.088Z" fill="#808080"/>
</g>
<defs>
<clipPath id="clip0_2635_15992">
<rect width="80" height="80" fill="white"/>
</clipPath>
</defs>
</svg>
