<svg width="80" height="80" viewBox="0 0 80 80" fill="none" xmlns="http://www.w3.org/2000/svg">
<g clip-path="url(#clip0_2635_16123)">
<path d="M40.0009 80.0018C62.0928 80.0018 80.0017 62.0928 80.0017 40.0009C80.0017 17.909 62.0928 0 40.0009 0C17.909 0 0 17.909 0 40.0009C0 62.0928 17.909 80.0018 40.0009 80.0018Z" fill="white"/>
<path fill-rule="evenodd" clip-rule="evenodd" d="M40.0009 0C62.0774 0 80.0011 17.9236 80.0011 40.0009C80.0011 62.0774 62.0774 80.0011 40.0009 80.0011C17.9236 80.0011 0 62.0774 0 40.0009C0 17.9236 17.9236 0 40.0009 0ZM40.0009 0.800492C61.6359 0.800492 79.2013 18.3652 79.2013 40.0009C79.2013 61.6359 61.6359 79.2013 40.0009 79.2013C18.3652 79.2013 0.799792 61.6359 0.799792 40.0009C0.799792 18.3652 18.3652 0.800492 40.0009 0.800492Z" fill="#C4C4C4"/>
<path fill-rule="evenodd" clip-rule="evenodd" d="M18.7655 23.0171C18.7416 22.1744 29.3258 21.8768 39.8984 21.7497C50.4709 21.6227 60.8792 21.3745 61.0557 22.5087C61.1333 28.9641 51.7213 34.3188 40.0512 34.459C28.3808 34.5993 18.8431 29.4724 18.7655 23.0171Z" fill="#C3DDFE"/>
<path d="M39.9506 24.8032C51.6286 24.6629 61.0839 23.5848 61.0696 22.3954C61.0553 21.2059 51.5768 20.3555 39.8988 20.4958C28.2208 20.6362 18.7655 21.7142 18.7798 22.9037C18.7941 24.0931 28.2726 24.9436 39.9506 24.8032Z" fill="white"/>
<path fill-rule="evenodd" clip-rule="evenodd" d="M39.8988 20.4958C51.5691 20.3556 61.0555 21.2066 61.0698 22.3954C61.0841 23.5841 51.6209 24.663 39.9506 24.8032C28.2802 24.9435 18.7941 24.0924 18.7798 22.9037C18.7655 21.715 28.2285 20.6361 39.8988 20.4958ZM59.4605 22.4147C59.1969 22.488 58.8945 22.5595 58.5564 22.6301C55.0726 23.3578 48.0428 23.906 39.9409 24.0034C31.8391 24.1008 24.7981 23.7217 21.2979 23.0779C20.9581 23.0154 20.6541 22.9512 20.3889 22.8844C20.6525 22.8112 20.9548 22.7396 21.293 22.669C24.7767 21.9413 31.8065 21.3931 39.9084 21.2957C48.0103 21.1983 55.0512 21.5774 58.5515 22.2212C58.8912 22.2836 59.1952 22.348 59.4605 22.4147Z" fill="#C3DDFE"/>
<path d="M33.285 26.7171L36.316 26.6094" stroke="#A3A3FF" stroke-width="0.8" stroke-miterlimit="1.5" stroke-linecap="round" stroke-linejoin="round"/>
<path d="M34.8475 27.0781L34.8789 38.8275" stroke="#A3A3FF" stroke-width="0.8" stroke-miterlimit="1.5" stroke-linecap="round" stroke-linejoin="round"/>
<path d="M37.4999 26.6094L37.5209 38.8575" stroke="#A3A3FF" stroke-width="0.8" stroke-miterlimit="1.5" stroke-linecap="round" stroke-linejoin="round"/>
<path d="M37.5038 32.3494L39.9398 32.3125" stroke="#A3A3FF" stroke-width="0.8" stroke-miterlimit="1.5" stroke-linecap="round" stroke-linejoin="round"/>
<path d="M40.0038 26.4531L40.0785 38.87" stroke="#A3A3FF" stroke-width="0.8" stroke-miterlimit="1.5" stroke-linecap="round" stroke-linejoin="round"/>
<path d="M41.0975 26.4138L42.4944 26.375" stroke="#A3A3FF" stroke-width="0.8" stroke-miterlimit="1.5" stroke-linecap="round" stroke-linejoin="round"/>
<path d="M41.7225 26.6094L41.7342 38.8507" stroke="#A3A3FF" stroke-width="0.8" stroke-miterlimit="1.5" stroke-linecap="round" stroke-linejoin="round"/>
<path d="M41.0936 38.9348L42.661 38.875" stroke="#A3A3FF" stroke-width="0.8" stroke-miterlimit="1.5" stroke-linecap="round" stroke-linejoin="round"/>
<path d="M43.6062 38.9986L43.5975 26.496L46.086 38.8858L46.0601 26.2969" stroke="#A3A3FF" stroke-width="0.8" stroke-miterlimit="1.5" stroke-linecap="round" stroke-linejoin="round"/>
<path d="M40.0029 7.78125L40.2341 17.584" stroke="#290277" stroke-width="0.4" stroke-miterlimit="1.5" stroke-linecap="round" stroke-linejoin="round"/>
<path d="M40.4717 51.1406L40.2405 41.3378" stroke="#290277" stroke-width="0.4" stroke-miterlimit="1.5" stroke-linecap="round" stroke-linejoin="round"/>
<path d="M38.5967 15.6889L40.3463 17.8389L41.7617 15.5938" stroke="#290277" stroke-width="0.4" stroke-miterlimit="1.5" stroke-linecap="round" stroke-linejoin="round"/>
<path d="M42.0322 43.2329L40.2826 41.0829L38.8672 43.3281" stroke="#290277" stroke-width="0.4" stroke-miterlimit="1.5" stroke-linecap="round" stroke-linejoin="round"/>
<path d="M21.3276 59.788C20.9356 59.788 20.5756 59.728 20.2476 59.608C19.9196 59.488 19.6396 59.328 19.4076 59.128C19.1756 58.928 18.9916 58.696 18.8556 58.432C18.7276 58.168 18.6636 57.892 18.6636 57.604V57.076C18.6636 56.788 18.7276 56.512 18.8556 56.248C18.9916 55.984 19.1756 55.752 19.4076 55.552C19.6396 55.352 19.9196 55.192 20.2476 55.072C20.5756 54.952 20.9356 54.892 21.3276 54.892C21.7196 54.892 22.0796 54.952 22.4076 55.072C22.7356 55.192 23.0156 55.352 23.2476 55.552C23.4796 55.752 23.6596 55.984 23.7876 56.248C23.9236 56.512 23.9916 56.788 23.9916 57.076V57.604C23.9916 57.892 23.9236 58.168 23.7876 58.432C23.6596 58.696 23.4796 58.928 23.2476 59.128C23.0156 59.328 22.7356 59.488 22.4076 59.608C22.0796 59.728 21.7196 59.788 21.3276 59.788ZM26.9796 60.736V65.668H23.6316V60.736H24.4236V62.464H26.1876V60.736H26.9796ZM21.3276 55.648C21.0556 55.648 20.8076 55.688 20.5836 55.768C20.3596 55.848 20.1636 55.956 19.9956 56.092C19.8356 56.228 19.7076 56.388 19.6116 56.572C19.5236 56.756 19.4796 56.948 19.4796 57.148V57.532C19.4796 57.74 19.5236 57.936 19.6116 58.12C19.7076 58.296 19.8356 58.452 19.9956 58.588C20.1556 58.724 20.3476 58.832 20.5716 58.912C20.8036 58.992 21.0556 59.032 21.3276 59.032C21.5996 59.032 21.8476 58.992 22.0716 58.912C22.3036 58.832 22.4996 58.724 22.6596 58.588C22.8196 58.452 22.9436 58.296 23.0316 58.12C23.1276 57.936 23.1756 57.74 23.1756 57.532V57.148C23.1756 56.948 23.1276 56.756 23.0316 56.572C22.9436 56.388 22.8156 56.228 22.6476 56.092C22.4876 55.956 22.2956 55.848 22.0716 55.768C21.8476 55.688 21.5996 55.648 21.3276 55.648ZM22.8036 60.772V63.556H20.3556V64.948H20.9436C21.0956 64.948 21.2636 64.944 21.4476 64.936C21.6316 64.928 21.8196 64.916 22.0116 64.9C22.2036 64.892 22.3876 64.88 22.5636 64.864C22.7396 64.848 22.8956 64.832 23.0316 64.816L23.0916 65.524C22.7876 65.564 22.4276 65.596 22.0116 65.62C21.6036 65.652 21.1956 65.668 20.7876 65.668H19.5636V62.86H22.0116V61.492H19.5036V60.772H22.8036ZM26.9436 56.056H28.6236V56.8H26.9436V57.988H28.6236V58.732H26.9436V60.088H26.1156V54.664H26.9436V56.056ZM26.1876 64.96V63.16H24.4236V64.96H26.1876ZM38.8758 60.436V61.168H28.7958V60.436H38.8758ZM31.1358 64.756H37.6158V65.5H30.2838V62.272H31.1358V64.756ZM33.8358 59.428C33.3478 59.428 32.8918 59.38 32.4678 59.284C32.0518 59.188 31.6878 59.052 31.3758 58.876C31.0718 58.7 30.8318 58.488 30.6558 58.24C30.4798 57.984 30.3918 57.704 30.3918 57.4V56.944C30.3918 56.64 30.4798 56.364 30.6558 56.116C30.8318 55.86 31.0718 55.644 31.3758 55.468C31.6878 55.292 32.0518 55.156 32.4678 55.06C32.8918 54.964 33.3478 54.916 33.8358 54.916C34.3238 54.916 34.7758 54.964 35.1918 55.06C35.6158 55.156 35.9798 55.292 36.2838 55.468C36.5958 55.644 36.8398 55.86 37.0158 56.116C37.1918 56.364 37.2798 56.64 37.2798 56.944V57.4C37.2798 57.704 37.1918 57.984 37.0158 58.24C36.8398 58.488 36.5958 58.7 36.2838 58.876C35.9798 59.052 35.6158 59.188 35.1918 59.284C34.7758 59.38 34.3238 59.428 33.8358 59.428ZM33.8358 55.636C33.4838 55.636 33.1478 55.672 32.8278 55.744C32.5158 55.808 32.2398 55.9 31.9998 56.02C31.7598 56.14 31.5678 56.284 31.4238 56.452C31.2798 56.62 31.2078 56.804 31.2078 57.004V57.34C31.2078 57.54 31.2798 57.724 31.4238 57.892C31.5678 58.06 31.7598 58.204 31.9998 58.324C32.2398 58.444 32.5158 58.54 32.8278 58.612C33.1478 58.676 33.4838 58.708 33.8358 58.708C34.1878 58.708 34.5198 58.676 34.8318 58.612C35.1518 58.54 35.4318 58.444 35.6718 58.324C35.9118 58.204 36.1038 58.06 36.2478 57.892C36.3918 57.724 36.4638 57.54 36.4638 57.34V57.004C36.4638 56.804 36.3918 56.62 36.2478 56.452C36.1038 56.284 35.9118 56.14 35.6718 56.02C35.4318 55.9 35.1518 55.808 34.8318 55.744C34.5198 55.672 34.1878 55.636 33.8358 55.636ZM45.624 57.808V56.092H42.6V55.348H46.452V58.528H43.428V60.244C44.18 60.244 44.876 60.232 45.516 60.208C46.156 60.176 46.792 60.116 47.424 60.028L47.52 60.76C47.2 60.8 46.88 60.836 46.56 60.868C46.24 60.9 45.892 60.924 45.516 60.94C45.14 60.956 44.716 60.968 44.244 60.976C43.772 60.984 43.224 60.988 42.6 60.988V57.808H45.624ZM45.3 64.768H51.66V65.512H44.448V62.068H45.3V64.768ZM48.54 57.604V54.808H49.368V62.248H48.54V58.348H47.064V57.604H48.54ZM51.42 62.512H50.592V54.664H51.42V62.512ZM53.7042 55.696H61.2642V56.428H57.9162V56.956C57.9162 57.268 57.9322 57.528 57.9642 57.736C58.0042 57.936 58.0722 58.116 58.1682 58.276C58.2722 58.436 58.4122 58.588 58.5882 58.732C58.7722 58.876 59.0082 59.044 59.2962 59.236C59.5762 59.42 59.9362 59.636 60.3762 59.884C60.8162 60.132 61.2882 60.384 61.7922 60.64L61.3602 61.276C60.9362 61.06 60.4962 60.824 60.0402 60.568C59.5922 60.304 59.1882 60.056 58.8282 59.824C58.4122 59.552 58.1002 59.332 57.8922 59.164C57.6842 58.996 57.5522 58.856 57.4962 58.744H57.4842C57.4362 58.856 57.3042 59 57.0882 59.176C56.8802 59.344 56.5682 59.564 56.1522 59.836C55.7922 60.068 55.3842 60.316 54.9282 60.58C54.4722 60.844 54.0282 61.088 53.5962 61.312L53.1522 60.652C53.6562 60.396 54.1322 60.144 54.5802 59.896C55.0282 59.64 55.3922 59.42 55.6722 59.236C55.9602 59.044 56.1922 58.876 56.3682 58.732C56.5522 58.588 56.6922 58.436 56.7882 58.276C56.8922 58.116 56.9602 57.936 56.9922 57.736C57.0322 57.528 57.0522 57.268 57.0522 56.956V56.428H53.7042V55.696ZM62.5242 63.352V64.084H52.4442V63.352H62.5242Z" fill="#808080"/>
</g>
<defs>
<clipPath id="clip0_2635_16123">
<rect width="80" height="80" fill="white"/>
</clipPath>
</defs>
</svg>
