<svg width="80" height="80" viewBox="0 0 80 80" fill="none" xmlns="http://www.w3.org/2000/svg">
<g clip-path="url(#clip0_2635_16202)">
<path d="M40.0009 80.0018C62.0928 80.0018 80.0017 62.0928 80.0017 40.0009C80.0017 17.909 62.0928 0 40.0009 0C17.909 0 0 17.909 0 40.0009C0 62.0928 17.909 80.0018 40.0009 80.0018Z" fill="white"/>
<path fill-rule="evenodd" clip-rule="evenodd" d="M40.0009 0C62.0774 0 80.0011 17.9236 80.0011 40.0009C80.0011 62.0774 62.0774 80.0011 40.0009 80.0011C17.9236 80.0011 0 62.0774 0 40.0009C0 17.9236 17.9236 0 40.0009 0ZM40.0009 0.800492C61.6359 0.800492 79.2013 18.3652 79.2013 40.0009C79.2013 61.6359 61.6359 79.2013 40.0009 79.2013C18.3652 79.2013 0.799792 61.6359 0.799792 40.0009C0.799792 18.3652 18.3652 0.800492 40.0009 0.800492Z" fill="#C4C4C4"/>
<path d="M25.3738 24.5312L34.4502 32.9371L21.7842 41.7448" stroke="#290277" stroke-width="0.4" stroke-miterlimit="1.5" stroke-linecap="round" stroke-linejoin="round"/>
<path d="M22.8285 40.0215L21.6385 41.791L23.6795 41.6979" stroke="#290277" stroke-width="0.4" stroke-miterlimit="1.5" stroke-linecap="round" stroke-linejoin="round"/>
<path d="M37.7198 21.876C35.1977 26.2864 35.1806 38.83 38.8721 44.0307" stroke="#290277" stroke-width="0.4" stroke-miterlimit="1.5" stroke-linecap="round" stroke-linejoin="round"/>
<path fill-rule="evenodd" clip-rule="evenodd" d="M20.109 18.04L21.3827 20.9926H18.8356L20.109 18.04Z" fill="#FFDF21"/>
<path fill-rule="evenodd" clip-rule="evenodd" d="M20.109 18.04L21.3827 20.9926H18.8356L20.109 18.04ZM20.109 18.9936L20.8084 20.6149H19.4098L20.109 18.9936Z" fill="#290277"/>
<path fill-rule="evenodd" clip-rule="evenodd" d="M25.3265 23.2227L22.374 24.4963V21.9492L25.3265 23.2227Z" fill="#FFDF21"/>
<path fill-rule="evenodd" clip-rule="evenodd" d="M25.3265 23.2227L22.374 24.4963V21.9492L25.3265 23.2227ZM24.373 23.2227L22.7517 23.9221V22.5234L24.373 23.2227Z" fill="#290277"/>
<path fill-rule="evenodd" clip-rule="evenodd" d="M23.6885 26.8331L20.7001 25.6459L22.5012 23.8449L23.6885 26.8331Z" fill="#FFDF21"/>
<path fill-rule="evenodd" clip-rule="evenodd" d="M23.6885 26.8331L20.7001 25.6459L22.5012 23.8449L23.6885 26.8331ZM23.0142 26.1588L21.3732 25.5069L22.3622 24.518L23.0142 26.1588Z" fill="#290277"/>
<path fill-rule="evenodd" clip-rule="evenodd" d="M16.4599 26.9501L17.647 23.9618L19.4481 25.7628L16.4599 26.9501Z" fill="#FFDF21"/>
<path fill-rule="evenodd" clip-rule="evenodd" d="M16.4599 26.9501L17.647 23.9618L19.4481 25.7628L16.4599 26.9501ZM17.1342 26.2758L17.786 24.6349L18.775 25.6238L17.1342 26.2758Z" fill="#290277"/>
<path fill-rule="evenodd" clip-rule="evenodd" d="M20.07 28.3662L18.7963 25.4137H21.3434L20.07 28.3662Z" fill="#FFDF21"/>
<path fill-rule="evenodd" clip-rule="evenodd" d="M20.07 28.3662L18.7963 25.4137H21.3434L20.07 28.3662ZM20.07 27.4126L19.3706 25.7914H20.7692L20.07 27.4126Z" fill="#290277"/>
<path fill-rule="evenodd" clip-rule="evenodd" d="M15 23.2578L17.9525 21.9841V24.5312L15 23.2578Z" fill="#FFDF21"/>
<path fill-rule="evenodd" clip-rule="evenodd" d="M15 23.2578L17.9525 21.9841V24.5312L15 23.2578ZM15.9536 23.2578L17.5749 22.5584V23.957L15.9536 23.2578Z" fill="#290277"/>
<path fill-rule="evenodd" clip-rule="evenodd" d="M16.343 19.4999L19.3314 20.6871L17.5303 22.4881L16.343 19.4999Z" fill="#FFDF21"/>
<path fill-rule="evenodd" clip-rule="evenodd" d="M16.343 19.4999L19.3314 20.6871L17.5303 22.4881L16.343 19.4999ZM17.0173 20.1742L18.6583 20.8261L17.6693 21.8151L17.0173 20.1742Z" fill="#290277"/>
<path fill-rule="evenodd" clip-rule="evenodd" d="M23.7191 19.5304L22.532 22.5187L20.7309 20.7176L23.7191 19.5304Z" fill="#FFDF21"/>
<path fill-rule="evenodd" clip-rule="evenodd" d="M23.7191 19.5304L22.532 22.5187L20.7309 20.7176L23.7191 19.5304ZM23.0448 20.2046L22.393 21.8456L21.404 20.8566L23.0448 20.2046Z" fill="#290277"/>
<path d="M20.0147 26.5944C21.888 26.5944 23.4066 25.0758 23.4066 23.2025C23.4066 21.3292 21.888 19.8105 20.0147 19.8105C18.1414 19.8105 16.6227 21.3292 16.6227 23.2025C16.6227 25.0758 18.1414 26.5944 20.0147 26.5944Z" fill="#FFDF21"/>
<path fill-rule="evenodd" clip-rule="evenodd" d="M20.0145 19.8105C21.8865 19.8105 23.4064 21.3304 23.4064 23.2025C23.4064 25.0745 21.8865 26.5944 20.0145 26.5944C18.1426 26.5944 16.6227 25.0745 16.6227 23.2025C16.6227 21.3304 18.1426 19.8105 20.0145 19.8105ZM20.0145 20.1882C21.678 20.1882 23.0287 21.5389 23.0287 23.2025C23.0287 24.866 21.678 26.2167 20.0145 26.2167C18.3509 26.2167 17.0004 24.866 17.0004 23.2025C17.0004 21.5389 18.3509 20.1882 20.0145 20.1882Z" fill="#290277"/>
<path d="M48.9503 48.4451C53.7685 48.4451 57.6744 40.7139 57.6744 31.1771C57.6744 21.6403 53.7685 13.9092 48.9503 13.9092C44.1322 13.9092 40.2263 21.6403 40.2263 31.1771C40.2263 40.7139 44.1322 48.4451 48.9503 48.4451Z" fill="#E4F7FF"/>
<path d="M45.2404 40.6726C47.9282 40.6726 50.1071 36.4813 50.1071 31.3109C50.1071 26.1406 47.9282 21.9492 45.2404 21.9492C42.5527 21.9492 40.3738 26.1406 40.3738 31.3109C40.3738 36.4813 42.5527 40.6726 45.2404 40.6726Z" fill="#844200"/>
<path d="M42.6564 35.6032C43.8356 35.6032 44.7915 33.686 44.7915 31.3211C44.7915 28.9562 43.8356 27.0391 42.6564 27.0391C41.4772 27.0391 40.5213 28.9562 40.5213 31.3211C40.5213 33.686 41.4772 35.6032 42.6564 35.6032Z" fill="black"/>
<path d="M44.5451 29.702C45.0565 29.702 45.471 29.2876 45.471 28.7763C45.471 28.265 45.0565 27.8506 44.5451 27.8506C44.0338 27.8506 43.6193 28.265 43.6193 28.7763C43.6193 29.2876 44.0338 29.702 44.5451 29.702Z" fill="white"/>
<path fill-rule="evenodd" clip-rule="evenodd" d="M58.8639 24.5814L40.5213 20.9646C40.5213 20.9646 42.6371 13.0964 49.2586 10" fill="#F7EDCB"/>
<path fill-rule="evenodd" clip-rule="evenodd" d="M59.749 42.6656L41.4064 44.6989C41.4064 44.6989 43.5223 49.1225 50.1437 50.8633" fill="#F7EDCB"/>
<path d="M18.9895 57.428H16.5055V59.144C16.5055 59.376 16.5135 59.576 16.5295 59.744C16.5455 59.912 16.5775 60.072 16.6255 60.224C16.6735 60.376 16.7415 60.528 16.8295 60.68C16.9255 60.824 17.0535 60.988 17.2135 61.172C17.4455 61.444 17.7335 61.752 18.0775 62.096C18.4295 62.44 18.8295 62.812 19.2775 63.212L18.7255 63.776C18.3095 63.392 17.9495 63.048 17.6455 62.744C17.3495 62.44 17.0815 62.16 16.8415 61.904C16.6655 61.72 16.5055 61.544 16.3615 61.376C16.2175 61.208 16.1295 61.084 16.0975 61.004H16.0855C16.0695 61.06 16.0295 61.132 15.9655 61.22C15.9095 61.308 15.8375 61.404 15.7495 61.508C15.6695 61.612 15.5815 61.72 15.4855 61.832C15.3895 61.936 15.2975 62.036 15.2095 62.132C15.1295 62.22 15.0215 62.336 14.8855 62.48C14.7495 62.616 14.5975 62.768 14.4295 62.936C14.2695 63.096 14.0935 63.268 13.9015 63.452C13.7175 63.628 13.5375 63.792 13.3615 63.944L12.7975 63.38C13.1815 63.044 13.5375 62.712 13.8655 62.384C14.2015 62.056 14.5095 61.736 14.7895 61.424C14.9815 61.208 15.1335 61.016 15.2455 60.848C15.3575 60.672 15.4415 60.5 15.4975 60.332C15.5615 60.164 15.6015 59.992 15.6175 59.816C15.6415 59.64 15.6535 59.436 15.6535 59.204V57.428H13.1335V56.684H18.9895V57.428ZM21.3175 59.852H23.1415V60.608H21.3175V66.632H20.4655V55.664H21.3175V59.852ZM30.7537 64.004C30.2577 64.052 29.7657 64.096 29.2777 64.136C28.7977 64.168 28.2737 64.196 27.7057 64.22C27.1457 64.244 26.5177 64.26 25.8217 64.268C25.1337 64.276 24.3297 64.28 23.4097 64.28V63.536C23.9937 63.536 24.5337 63.536 25.0297 63.536C25.5337 63.536 26.0057 63.528 26.4457 63.512V61.472C26.1017 61.432 25.7817 61.344 25.4857 61.208C25.1897 61.072 24.9297 60.904 24.7057 60.704C24.4897 60.496 24.3177 60.264 24.1897 60.008C24.0697 59.752 24.0097 59.48 24.0097 59.192V58.616C24.0097 58.304 24.0817 58.008 24.2257 57.728C24.3777 57.448 24.5817 57.204 24.8377 56.996C25.1017 56.78 25.4057 56.612 25.7497 56.492C26.0937 56.372 26.4657 56.312 26.8657 56.312C27.2577 56.312 27.6257 56.372 27.9697 56.492C28.3217 56.612 28.6257 56.78 28.8817 56.996C29.1457 57.204 29.3497 57.448 29.4937 57.728C29.6457 58.008 29.7217 58.304 29.7217 58.616V59.192C29.7217 59.48 29.6577 59.752 29.5297 60.008C29.4097 60.264 29.2417 60.496 29.0257 60.704C28.8097 60.904 28.5537 61.072 28.2577 61.208C27.9617 61.344 27.6417 61.432 27.2977 61.472V63.5C27.9537 63.476 28.5497 63.448 29.0857 63.416C29.6297 63.384 30.1617 63.336 30.6817 63.272L30.7537 64.004ZM26.8657 57.068C26.6017 57.068 26.3457 57.112 26.0977 57.2C25.8497 57.28 25.6297 57.396 25.4377 57.548C25.2537 57.692 25.1057 57.86 24.9937 58.052C24.8817 58.244 24.8257 58.448 24.8257 58.664V59.144C24.8257 59.36 24.8817 59.564 24.9937 59.756C25.1057 59.948 25.2537 60.12 25.4377 60.272C25.6297 60.416 25.8497 60.532 26.0977 60.62C26.3457 60.7 26.6017 60.74 26.8657 60.74C27.1297 60.74 27.3857 60.7 27.6337 60.62C27.8817 60.532 28.0977 60.416 28.2817 60.272C28.4737 60.12 28.6257 59.948 28.7377 59.756C28.8497 59.564 28.9057 59.36 28.9057 59.144V58.664C28.9057 58.448 28.8497 58.244 28.7377 58.052C28.6257 57.86 28.4737 57.692 28.2817 57.548C28.0977 57.396 27.8817 57.28 27.6337 57.2C27.3857 57.112 27.1297 57.068 26.8657 57.068ZM32.3737 66.632H31.5217V55.664H32.3737V66.632ZM36.8059 59.6C36.7899 59.704 36.6939 59.848 36.5179 60.032C36.3499 60.208 36.1339 60.424 35.8699 60.68C35.6619 60.88 35.3939 61.12 35.0659 61.4C34.7459 61.672 34.4179 61.94 34.0819 62.204L33.5539 61.592C33.8819 61.352 34.2179 61.088 34.5619 60.8C34.9139 60.504 35.2259 60.22 35.4979 59.948C35.6899 59.756 35.8379 59.588 35.9419 59.444C36.0539 59.3 36.1379 59.16 36.1939 59.024C36.2579 58.88 36.2979 58.728 36.3139 58.568C36.3299 58.4 36.3379 58.204 36.3379 57.98V56.18H37.2019V57.956C37.2019 58.18 37.2099 58.372 37.2259 58.532C37.2419 58.684 37.2779 58.828 37.3339 58.964C37.3979 59.1 37.4859 59.24 37.5979 59.384C37.7179 59.52 37.8779 59.676 38.0779 59.852C38.3739 60.108 38.6739 60.36 38.9779 60.608C39.2819 60.848 39.5659 61.064 39.8299 61.256L39.3259 61.844C39.0059 61.604 38.7139 61.38 38.4499 61.172C38.1939 60.956 37.9619 60.76 37.7539 60.584C37.1859 60.104 36.8739 59.776 36.8179 59.6H36.8059ZM42.5299 63.488H41.6899V59.024H39.2179V58.28H41.6899V55.664H42.5299V63.488ZM36.6739 65.756H42.8059V66.5H35.8219V62.84H36.6739V65.756ZM50.4901 57.332H53.0341V58.076H50.4901V59.324C50.4901 59.556 50.4981 59.756 50.5141 59.924C50.5301 60.092 50.5621 60.252 50.6101 60.404C50.6581 60.556 50.7261 60.708 50.8141 60.86C50.9101 61.004 51.0381 61.168 51.1981 61.352C51.4301 61.624 51.7181 61.932 52.0621 62.276C52.4141 62.62 52.8141 62.992 53.2621 63.392L52.7101 63.956C52.2941 63.572 51.9341 63.228 51.6301 62.924C51.3341 62.62 51.0661 62.34 50.8261 62.084C50.6501 61.9 50.4901 61.724 50.3461 61.556C50.2021 61.388 50.1141 61.264 50.0821 61.184H50.0701C50.0541 61.24 50.0141 61.312 49.9501 61.4C49.8941 61.488 49.8221 61.584 49.7341 61.688C49.6541 61.792 49.5661 61.9 49.4701 62.012C49.3741 62.116 49.2821 62.216 49.1941 62.312C49.1141 62.4 49.0061 62.516 48.8701 62.66C48.7341 62.796 48.5821 62.948 48.4141 63.116C48.2541 63.276 48.0781 63.448 47.8861 63.632C47.7021 63.808 47.5221 63.972 47.3461 64.124L46.7821 63.56C47.1661 63.224 47.5221 62.892 47.8501 62.564C48.1861 62.236 48.4941 61.916 48.7741 61.604C48.9661 61.388 49.1181 61.196 49.2301 61.028C49.3421 60.852 49.4261 60.68 49.4821 60.512C49.5461 60.344 49.5861 60.172 49.6021 59.996C49.6261 59.82 49.6381 59.616 49.6381 59.384V58.076H47.0221V57.332H49.6381V55.724H50.4901V57.332ZM55.2901 59.876H57.1141V60.632H55.2901V66.632H54.4381V55.664H55.2901V59.876ZM57.6943 56.384H62.7223V57.14H58.5463V60.788C59.1463 60.788 59.6703 60.788 60.1183 60.788C60.5743 60.78 60.9943 60.768 61.3783 60.752C61.7703 60.728 62.1463 60.7 62.5063 60.668C62.8743 60.636 63.2743 60.596 63.7063 60.548L63.8023 61.292C63.5063 61.332 63.2263 61.364 62.9623 61.388C62.6983 61.412 62.4343 61.436 62.1703 61.46C61.9063 61.476 61.6263 61.492 61.3303 61.508C61.0423 61.516 60.7223 61.524 60.3703 61.532C60.0183 61.532 59.6223 61.536 59.1823 61.544C58.7503 61.544 58.2543 61.544 57.6943 61.544V56.384ZM65.7343 58.652H67.4143V59.396H65.7343V63.512H64.8943V55.664H65.7343V58.652ZM60.0223 65.744H66.0703V66.5H59.1703V62.888H60.0223V65.744Z" fill="#808080"/>
</g>
<defs>
<clipPath id="clip0_2635_16202">
<rect width="80" height="80" fill="white"/>
</clipPath>
</defs>
</svg>
