<?xml version="1.0" encoding="UTF-8" standalone="no"?>
<!DOCTYPE svg PUBLIC "-//W3C//DTD SVG 1.1//EN" "http://www.w3.org/Graphics/SVG/1.1/DTD/svg11.dtd">
<svg width="100%" height="100%" viewBox="0 0 10 10" version="1.1" xmlns="http://www.w3.org/2000/svg" xmlns:xlink="http://www.w3.org/1999/xlink" xml:space="preserve" xmlns:serif="http://www.serif.com/" style="fill-rule:evenodd;clip-rule:evenodd;stroke-linecap:round;stroke-linejoin:round;stroke-miterlimit:1.5;">
    <g transform="matrix(0.338508,0,0,0.292569,4.12914,2.07125)">
        <path d="M9.962,1.499C9.962,1.569 9.955,1.615 9.947,1.643C9.941,1.669 9.934,1.679 9.934,1.679L9.934,1.679L9.933,1.68C9.933,1.68 9.932,1.681 9.929,1.683C9.923,1.687 9.907,1.696 9.875,1.706C9.805,1.728 9.697,1.742 9.53,1.748C9.419,1.751 9.305,1.75 9.177,1.749C9.11,1.749 9.039,1.748 8.962,1.748C8.885,1.748 8.814,1.749 8.747,1.749C8.618,1.75 8.505,1.751 8.394,1.748C8.227,1.742 8.119,1.728 8.049,1.706C8.017,1.696 8.001,1.687 7.995,1.683C7.992,1.681 7.991,1.68 7.991,1.68L7.991,1.68L7.99,1.679L7.99,1.679C7.99,1.679 7.983,1.669 7.976,1.643C7.969,1.615 7.962,1.569 7.962,1.499C7.962,0.948 8.409,0.5 8.962,0.5C9.515,0.5 9.962,0.948 9.962,1.499Z" style="fill:none;fill-rule:nonzero;stroke:rgb(55,55,55);stroke-width:0.77px;"/>
    </g>
    <g transform="matrix(0.338508,0,0,0.332252,4.11625,1.99452)">
        <path d="M9.014,1.952C7.328,1.952 5.398,2.309 4.216,4.193C3.167,5.866 2.483,8.658 2.752,11.336C1.772,12.135 1.095,13.033 1.095,13.631C1.095,15.474 3.278,15 9.014,15" style="fill:none;stroke:rgb(55,55,55);stroke-width:0.89px;"/>
    </g>
    <g transform="matrix(-0.338508,0,0,0.332252,10.2012,1.99452)">
        <path d="M9.014,1.952C7.328,1.952 5.398,2.309 4.216,4.193C3.167,5.866 2.483,8.658 2.752,11.336C1.772,12.135 1.095,13.033 1.095,13.631C1.095,15.474 3.278,15 9.014,15" style="fill:none;stroke:rgb(55,55,55);stroke-width:0.89px;"/>
    </g>
    <g transform="matrix(0.338508,0,0,0.210872,4.11436,3.91199)">
        <path d="M6.01,15.055C6.204,16.348 6.706,18.017 9.014,18C11.254,17.984 11.76,16.284 11.925,15.055" style="fill:none;stroke:rgb(55,55,55);stroke-width:1.06px;"/>
    </g>
    <g transform="matrix(0.297712,0,0,0.297712,6.26968,0)">
        <circle cx="3" cy="3" r="3" style="fill:rgb(67,67,163);"/>
    </g>
</svg>
